<svg xmlns="http://www.w3.org/2000/svg">
<defs>
<font id="PermianSansTypeface-Italic" horiz-adv-x="500" >
  <font-face 
    font-family="PermianSansTypeface"
    font-weight="400"
    font-style="italic"
    font-stretch="normal"
    units-per-em="1000"
    panose-1="2 0 0 0 0 0 0 0 0 0"
    ascent="750"
    descent="-250"
    x-height="500"
    cap-height="700"
    bbox="-188 -343 1301 1133"
    underline-thickness="50"
    underline-position="-200"
    slope="-10"
    unicode-range="U+0020-FFFD"
  />
<missing-glyph horiz-adv-x="634" 
d="M47 0l-23 22v489l23 22h490l22 -22v-490l-22 -21h-490zM55 51l21 -20h432l19 19v432l-19 20h-432l-21 -20v-431zM183 323v89l-1 14l13 1v-7q7 7 21 7q29 0 29 -32q0 -18 -9.5 -28.5t-25.5 -10.5q-5 0 -15 4v-25l1 -12h-13zM143 357v7q-12 -8 -23 -8q-21 0 -21 23v36
l-1 11h14v-43q0 -16 13 -16q10 0 17 5v54h13v-54l1 -14zM496 331l-4 -8q-39 15 -39 69q0 53 39 70l4 -9q-31 -15 -31 -60q0 -47 31 -62zM261 359l1 11q4 0 11 -1.5t11 -1.5q13 0 13 8q0 6 -16 12q-19 6 -19 21q0 19 22 19q5 0 11.5 -1t9.5 -1l-1 -11q-5 0 -11 1.5t-10 1.5
q-10 0 -10 -8q0 -7 17 -12q18 -7 18 -21q0 -20 -24 -20q-5 0 -13.5 1.5t-9.5 1.5zM195 412v-41q10 -5 16 -5q21 0 21 25t-19 25q-11 0 -18 -4zM298 102v-1q-1 -1 -1 -2q0 -2 3 -2l7 -1q11 0 11 -9q0 -11 -15 -11t-15 9q0 6 6 8q-2 2 -2 4l3 6q-6 1 -6 9q0 13 14 13q3 0 7 -2
q3 3 10 3v-5q-5 0 -8 -1q4 -2 4 -7q0 -12 -14 -12q-3 0 -4 1zM378 77v40l-1 7h6v-3q6 4 10 4q13 0 13 -15q0 -18 -16 -18q-5 0 -7 2v-12l1 -5h-6zM212 192v11l-1 6l6 1v-41l1 -7h-6v3q-4 -4 -9 -4q-14 0 -14 16q0 17 15 17q4 0 8 -2zM238 246q0 18 16 18q15 0 15 -15
q0 -18 -16 -18q-15 0 -15 15zM228 176q0 18 16 18q14 0 14 -15q0 -18 -16 -18q-14 0 -14 15zM130 181l-7 -19h-6l-5 19l-1 7h-1q0 -4 -1 -7l-5 -19h-6l-8 25l-2 7h6l5 -19l2 -8l5 20l2 7h6l5 -18l2 -9q1 4 2 9l3 8l2 10h5q0 -6 -3 -13zM427 168v-5q-2 -2 -5 -2q-5 0 -5 4

<glyph glyph-name="f_f" unicode="ff" horiz-adv-x="679" 
d="M634 694q-59 0 -79 -88l-23 -106h150v-68l-163 2l-74 -341l-14 -93h-98l92 432l-195 2l-73 -341l-14 -93h-98l93 436l-67 1v63h81l14 64q21 96 72 146t118 50q21 0 39 -3t38.5 -7.5t35.5 -6.5l-25 -82q-17 4 -48 18.5t-53 14.5q-31 0 -50 -28.5t-35 -103.5l-14 -62h196
l16 72q19 87 66 137.5t122 50.5q26 0 45.5 -3t40.5 -7.5t38 -6.5l-25 -82q-22 4 -50.5 18.5t-58.5 14.5z" />
    <glyph glyph-name="fi" unicode="fi" horiz-adv-x="596" 
d="M326 694q-40 0 -54 -67l-28 -127h312l-107 -500h-94l93 432l-217 2l-74 -341l-14 -93h-98l93 436l-67 1v63h81l23 106q16 72 57 113t104 41q21 0 39.5 -3t39.5 -7.5t35 -6.5l-25 -82q-25 5 -51.5 19t-47.5 14zM528 601q-24 0 -39.5 16t-15.5 42t16.5 45.5t47.5 19.5
q24 0 39.5 -16t15.5 -42t-16.5 -45.5t-47.5 -19.5z" />
    <glyph glyph-name="fl" unicode="fl" horiz-adv-x="612" 
d="M620 750l-141 -662l-15 -88h-98l142 669q-16 -8 -39 -8t-59 16.5t-64 16.5q-33 0 -51 -21t-28 -67l-23 -106h150v-68l-163 2l-74 -341l-14 -93h-98l93 436l-67 1v63h81l16 72q19 87 66 137.5t122 50.5q29 0 79.5 -8.5t80.5 -8.5q41 0 84 10z" />
    <glyph glyph-name="f_f_i" unicode="ffi" horiz-adv-x="884" 
d="M614 694q-40 0 -54 -67l-28 -127h312l-107 -500h-94l93 432l-217 2l-74 -341l-14 -93h-98l92 432l-195 2l-73 -341l-14 -93h-98l93 436l-67 1v63h81l14 64q21 96 72 146t118 50q21 0 39 -3t38.5 -7.5t35.5 -6.5l-25 -82q-17 4 -48 18.5t-53 14.5q-31 0 -50 -28.5
t-35 -103.5l-14 -62h196l23 106q16 72 57 113t104 41q21 0 39.5 -3t39.5 -7.5t35 -6.5l-25 -82q-25 5 -51.5 19t-47.5 14zM816 601q-24 0 -39.5 16t-15.5 42t16.5 45.5t47.5 19.5q24 0 39.5 -16t15.5 -42t-16.5 -45.5t-47.5 -19.5z" />
    <glyph glyph-name="f_f_l" unicode="ffl" horiz-adv-x="900" 
d="M908 750l-141 -662l-15 -88h-98l142 669q-16 -8 -39 -8t-59 16.5t-64 16.5q-33 0 -51 -21t-28 -67l-23 -106h150v-68l-163 2l-74 -341l-14 -93h-98l92 432l-195 2l-73 -341l-14 -93h-98l93 436l-67 1v63h81l14 64q21 96 72 146t118 50q21 0 39 -3t38.5 -7.5t35.5 -6.5
l-25 -82q-17 4 -48 18.5t-53 14.5q-31 0 -50 -28.5t-35 -103.5l-14 -62h196l16 72q19 87 66 137.5t122 50.5q29 0 79.5 -8.5t80.5 -8.5q41 0 84 10z" />
    <glyph glyph-name="f_f_b" unicode="ffb" horiz-adv-x="1169" 
d="M889 753l20 -3l-71 -336q65 59 103 77.5t76 18.5q72 0 93 -87q22 -93 -22 -215q-49 -132 -142 -188q-50 -30 -106 -30q-71 0 -121 44l-43 -44h-23l144 679q-16 -8 -39 -8t-59 16.5t-64 16.5q-33 0 -51 -21t-28 -67l-23 -106h150v-68l-163 2l-74 -341l-14 -93h-98l92 432
l-196 2l-73 -341l-14 -93h-98l93 436l-67 1v63h81l14 64q21 96 72 146t118 50q21 0 39 -3t38.5 -7.5t35.5 -6.5l-25 -82q-17 4 -48 18.5t-53 14.5q-31 0 -50 -28.5t-35 -103.5l-14 -62h197l16 72q19 87 66 137.5t122 50.5q29 0 79.5 -8.5t80.5 -8.5q41 0 84 10zM972 429
q-20 0 -51 -18t-100 -73l-51 -241q22 -45 73 -45q74 0 126 108q46 93 45 187q-2 81 -42 82z" />
    <glyph glyph-name="f_f_h" unicode="ffh" horiz-adv-x="1159" 
d="M1022 0h-98l77 364q10 48 -10 59.5t-63 -16.5l-108 -70l-72 -337h-94l141 668q-17 -7 -38 -7q-23 0 -59 16.5t-64 16.5q-33 0 -51 -21t-28 -67l-23 -106h150v-68l-163 2l-74 -341l-14 -93h-98l92 432l-195 2l-73 -341l-14 -93h-98l93 436l-67 1v63h81l14 64q21 96 72 146
t118 50q21 0 39 -3t38.5 -7.5t35.5 -6.5l-25 -82q-17 4 -48 18.5t-53 14.5q-31 0 -50 -28.5t-35 -103.5l-14 -62h196l16 72q19 87 66 137.5t122 50.5q29 0 79.5 -8.5t80.5 -8.5q41 0 84 10l20 -3l-72 -337l105 71q37 26 72 26q54 0 74 -41t7 -105l-58 -276z" />
    <glyph glyph-name="f_f_j" unicode="ffj" horiz-adv-x="885" 
d="M844 500l-100 -474q-13 -66 -47 -119q-20 -32 -54 -66.5t-101 -97.5l-41 44q9 8 28.5 27t26.5 26.5t19.5 21.5t21 25.5t16.5 26.5q20 37 38 112l78 371l7 35l-217 2l-74 -341l-14 -93h-98l92 432l-195 2l-73 -341l-14 -93h-98l93 436l-67 1v63h81l14 64q21 96 72 146
t118 50q21 0 39 -3t38.5 -7.5t35.5 -6.5l-25 -82q-17 4 -48 18.5t-53 14.5q-31 0 -50 -28.5t-35 -103.5l-14 -62h196l23 106q16 72 57 113t104 41q21 0 39.5 -3t39.5 -7.5t35 -6.5l-25 -82q-25 5 -51.5 19t-47.5 14q-40 0 -54 -67l-28 -127h312zM816 601q-24 0 -39.5 16
t-15.5 42t16.5 45.5t47.5 19.5q24 0 39.5 -16t15.5 -42t-16.5 -45.5t-47.5 -19.5z" />
    <glyph glyph-name="f_f_k" unicode="ffk" horiz-adv-x="1119" 
d="M1036 0l-103 -5l-134 246l-32 -153l-15 -88h-98l143 669q-18 -8 -40 -8q-23 0 -59 16.5t-64 16.5q-33 0 -51 -21t-28 -67l-23 -106h150v-68l-163 2l-74 -341l-14 -93h-98l92 432l-195 2l-73 -341l-14 -93h-98l93 436l-67 1v63h81l14 64q21 96 72 146t118 50q21 0 39 -3
t38.5 -7.5t35.5 -6.5l-25 -82q-17 4 -48 18.5t-53 14.5q-31 0 -50 -28.5t-35 -103.5l-14 -62h196l16 72q19 87 66 137.5t122 50.5q29 0 79.5 -8.5t80.5 -8.5q41 0 84 10l20 -3l-104 -487q163 165 217 237h108q-79 -93 -235 -245l85 -159z" />
    <glyph glyph-name="f_b" unicode="fb" horiz-adv-x="881" 
d="M600 753l20 -3l-71 -336q65 59 103 77.5t76 18.5q72 0 93 -87q22 -93 -22 -215q-49 -132 -142 -188q-50 -30 -106 -30q-71 0 -121 44l-43 -44h-23l144 679q-16 -8 -39 -8t-59 16.5t-64 16.5q-33 0 -51 -21t-28 -67l-23 -106h150v-68l-163 2l-74 -341l-14 -93h-98l93 436
l-67 1v63h81l16 72q19 87 66 137.5t122 50.5q29 0 79.5 -8.5t80.5 -8.5q41 0 84 10zM683 429q-20 0 -51 -18t-100 -73l-51 -241q22 -45 73 -45q74 0 126 108q46 93 45 187q-2 81 -42 82z" />
    <glyph glyph-name="f_h" unicode="fh" horiz-adv-x="871" 
d="M734 0h-98l77 364q10 48 -10 59.5t-63 -16.5l-108 -70l-72 -337h-94l141 668q-17 -7 -38 -7q-23 0 -59 16.5t-64 16.5q-33 0 -51 -21t-28 -67l-23 -106h150v-68l-163 2l-74 -341l-14 -93h-98l93 436l-67 1v63h81l16 72q19 87 66 137.5t122 50.5q29 0 79.5 -8.5t80.5 -8.5
q41 0 84 10l20 -3l-72 -337l105 71q37 26 72 26q54 0 74 -41t7 -105l-58 -276z" />
    <glyph glyph-name="f_k" unicode="fk" horiz-adv-x="831" 
d="M748 0l-103 -5l-134 246l-32 -153l-15 -88h-98l143 669q-20 -8 -40 -8q-23 0 -59 16.5t-64 16.5q-33 0 -51 -21t-28 -67l-23 -106h150v-68l-163 2l-74 -341l-14 -93h-98l93 436l-67 1v63h81l16 72q19 87 66 137.5t122 50.5q29 0 79.5 -8.5t80.5 -8.5q41 0 84 10l20 -3
l-104 -487q163 165 217 237h108q-79 -93 -235 -245l85 -159z" />
    <glyph glyph-name="f_j" unicode="fj" horiz-adv-x="597" 
d="M556 500l-100 -474q-13 -66 -47 -119q-20 -32 -54 -66.5t-101 -97.5l-41 44q9 8 28.5 27t26.5 26.5t19.5 21.5t21 25.5t16.5 26.5q20 37 38 112l78 371l7 35l-217 2l-74 -341l-14 -93h-98l93 436l-67 1v63h81l23 106q16 72 57 113t104 41q21 0 39.5 -3t39.5 -7.5t35 -6.5
l-25 -82q-25 5 -51.5 19t-47.5 14q-40 0 -54 -67l-28 -127h312zM528 601q-24 0 -39.5 16t-15.5 42t16.5 45.5t47.5 19.5q24 0 39.5 -16t15.5 -42t-16.5 -45.5t-47.5 -19.5z" />
    <glyph glyph-name=".notdef" horiz-adv-x="634" 
d="M47 0l-23 22v489l23 22h490l22 -22v-490l-22 -21h-490zM55 51l21 -20h432l19 19v432l-19 20h-432l-21 -20v-431zM183 323v89l-1 14l13 1v-7q7 7 21 7q29 0 29 -32q0 -18 -9.5 -28.5t-25.5 -10.5q-5 0 -15 4v-25l1 -12h-13zM143 357v7q-12 -8 -23 -8q-21 0 -21 23v36
l-1 11h14v-43q0 -16 13 -16q10 0 17 5v54h13v-54l1 -14zM496 331l-4 -8q-39 15 -39 69q0 53 39 70l4 -9q-31 -15 -31 -60q0 -47 31 -62zM261 359l1 11q4 0 11 -1.5t11 -1.5q13 0 13 8q0 6 -16 12q-19 6 -19 21q0 19 22 19q5 0 11.5 -1t9.5 -1l-1 -11q-5 0 -11 1.5t-10 1.5
q-10 0 -10 -8q0 -7 17 -12q18 -7 18 -21q0 -20 -24 -20q-5 0 -13.5 1.5t-9.5 1.5zM195 412v-41q10 -5 16 -5q21 0 21 25t-19 25q-11 0 -18 -4zM298 102v-1q-1 -1 -1 -2q0 -2 3 -2l7 -1q11 0 11 -9q0 -11 -15 -11t-15 9q0 6 6 8q-2 2 -2 4l3 6q-6 1 -6 9q0 13 14 13q3 0 7 -2
q3 3 10 3v-5q-5 0 -8 -1q4 -2 4 -7q0 -12 -14 -12q-3 0 -4 1zM378 77v40l-1 7h6v-3q6 4 10 4q13 0 13 -15q0 -18 -16 -18q-5 0 -7 2v-12l1 -5h-6zM212 192v11l-1 6l6 1v-41l1 -7h-6v3q-4 -4 -9 -4q-14 0 -14 16q0 17 15 17q4 0 8 -2zM238 246q0 18 16 18q15 0 15 -15
q0 -18 -16 -18q-15 0 -15 15zM228 176q0 18 16 18q14 0 14 -15q0 -18 -16 -18q-14 0 -14 15zM130 181l-7 -19h-6l-5 19l-1 7h-1q0 -4 -1 -7l-5 -19h-6l-8 25l-2 7h6l5 -19l2 -8l5 20l2 7h6l5 -18l2 -9q1 4 2 9l3 8l2 10h5q0 -6 -3 -13zM427 168v-5q-2 -2 -5 -2q-5 0 -5 4
q-6 -4 -10 -4q-9 0 -9 9q0 8 10 9q3 1 9 1v2q0 7 -8 7l-9 -1v4q4 2 10 2q13 0 13 -11q0 -2 -0.5 -7.5t-0.5 -7.5t2 -2zM167 178h-22q0 -12 11 -12l9 2v-4q-4 -3 -11 -3q-15 0 -15 16q0 17 15 17t13 -16zM265 114v-16l1 -6h-7v20q0 7 -6 7t-8 -2v-25h-6v48h6v-19q6 4 11 4
q9 0 9 -11zM492 178h-22q2 -12 12 -12l8 2v-4q-4 -3 -10 -3q-16 0 -16 16q0 17 16 17q14 0 12 -16zM389 184v-22h-6v20q0 7 -6 7q-4 0 -8 -2v-25h-6v47l6 1v-20q4 4 11 4q9 0 9 -10zM442 114v-16l1 -6h-6v20q0 7 -7 7q-6 0 -8 -2v-19l1 -6h-7v48h6v-19q6 4 11 4q9 0 9 -11z
M190 92v3q-4 -3 -10 -3q-10 0 -10 10v17l-1 5h7v-20q0 -7 6 -7q4 0 8 2v25h6v-32h-6zM294 184v-17l1 -5h-7v20q0 7 -6 7q-4 0 -8 -2v-25h-6v32h6v-4q4 4 10 4q10 0 10 -10zM353 76l-6 1q1 4 5 14l1 1l-9 25l-3 7h7l6 -18l2 -8q1 4 3 8l2 6l3 12h5q0 -1 -3 -13l-8 -19z
M341 216h-5q0 4 5 14v2l-9 25l-3 6l7 1l6 -19l2 -8q1 4 3 9l2 6q3 9 3 11h6l-4 -12l-8 -20zM393 385v10h40v-10h-40zM244 249q0 -13 10 -13q9 0 9 10q0 14 -10 14q-9 0 -9 -11zM234 179q0 -13 10 -13q8 0 8 11q0 13 -9 13t-9 -11zM212 168v19q-3 3 -7 3q-10 0 -10 -12t9 -12
q4 0 8 2zM208 232l1 6q6 -2 10 -2q6 0 6 4t-7 5q-9 3 -9 10q0 9 10 9q2 0 5 -0.5t5 -0.5l-1 -5q-2 0 -5 0.5t-4 0.5q-5 0 -5 -4q0 -2 8 -5t8 -10q0 -9 -11 -9q-2 0 -5.5 0.5t-5.5 0.5zM139 93v5q2 0 5.5 -0.5t4.5 -0.5q7 0 7 3t-8 6q-9 3 -9 10q0 9 10 9q3 0 6 -1t4 -1
l-1 -5q-2 0 -4.5 1t-4.5 1q-5 0 -5 -4q0 -3 8 -6q9 -4 9 -9q0 -9 -12 -9q-2 0 -5.5 0.5t-4.5 0.5zM383 117v-18q3 -3 8 -3q9 0 9 12q0 11 -9 11q-6 0 -8 -2zM456 183l-8 -21h-6l-9 25l-3 7h7l6 -19l2 -8h1q0 4 2 8l3 10q2 6 2 9h6zM212 109q0 -12 10 -12l8 1v-4q-4 -2 -9 -2
q-15 0 -15 15q0 18 15 18q1 0 4 -1t5 -1l-1 -5q-1 0 -4 1t-5 1q-8 0 -8 -11zM323 189h-4v4l4 1l3 7h2v-7h12v-5h-12v-17q0 -6 6 -6l6 1v-4q-3 -2 -7 -2q-10 0 -10 11v17zM285 232h-7v31l6 1v-5q5 5 8 5q2 0 4.5 -1.5t3.5 -1.5l-2 -5q-1 0 -3.5 1.5t-3.5 1.5q-3 0 -7 -4v-18z
M313 232h-7v31l6 1v-5q5 5 8 5q2 0 4.5 -1.5t3.5 -1.5l-3 -5l-6 3q-3 0 -7 -4v-18zM357 412q0 9 10 9q8 0 8 -8q0 -9 -9 -9t-9 8zM357 364q0 9 10 9q8 0 8 -9q0 -8 -9 -8t-9 8zM328 92v41l-1 7h6v-42l1 -6h-6zM296 92q-2 -4 -2 -5q0 -7 10 -7q9 0 9 6q0 5 -6 5h-7q-1 0 -2 1
h-2zM295 113q0 -7 8 -7q7 0 7 7t-8 7q-7 0 -7 -7zM416 169q0 1 0.5 3.5t0.5 4.5q-5 0 -7 -1q-6 -1 -6 -6q0 -4 5 -4q4 0 7 3zM145 182h16q0 8 -7 8t-9 -8zM470 182h16q0 8 -7 8t-9 -8zM367 220l-2 2q4 4 4 9q-4 0 -4 4t4 4t4 -5q0 -10 -6 -14zM306 188l-2 2q4 6 4 9
q-4 0 -4 4t4 4t4 -5q0 -8 -6 -14z" />
    <glyph glyph-name=".null" horiz-adv-x="0" 
 />
    <glyph glyph-name="nonmarkingreturn" horiz-adv-x="333" 
 />
    <glyph glyph-name="space" unicode=" " horiz-adv-x="235" 
 />
    <glyph glyph-name="exclam" unicode="!" horiz-adv-x="283" 
d="M85 220l79 481l105 5l-101 -486h-83zM88 -15q-25 0 -39.5 15t-14.5 39q0 32 21 53t52 21q25 0 39.5 -15t14.5 -39q0 -32 -21 -53t-52 -21z" />
    <glyph glyph-name="quotedbl" unicode="&#x22;" horiz-adv-x="388" 
d="M106 463l26 238l105 5l-58 -243h-73zM266 463l26 238l105 5l-58 -243h-73z" />
    <glyph glyph-name="numbersign" unicode="#" horiz-adv-x="759" 
d="M120 383v74h186l76 135h82l-76 -135h159l76 135h82l-76 -135h92v-74h-133l-92 -166h143v-74h-185l-80 -143h-83l81 143h-159l-80 -143h-83l81 143h-93v74h134l93 166h-145zM347 383l-92 -166h158l93 166h-159z" />
    <glyph glyph-name="dollar" unicode="$" horiz-adv-x="482" 
d="M193 62q58 0 94 26.5t36 77.5q0 40 -25 68t-61 46.5t-72 39t-61 56.5t-25 88q0 87 59.5 142t144.5 55l18 144q20 7 40 7q17 0 38 -7l-33 -142q29 -2 59.5 -12t46.5 -19l16 -8l-41 -68q-57 30 -124 30q-60 0 -94.5 -30t-34.5 -84q0 -32 25 -57.5t60.5 -45t71.5 -42
t61 -59.5t25 -87q0 -86 -53 -136t-149 -54l-16 -144q-20 -7 -40 -7q-21 0 -38 7l32 142q-37 2 -73.5 11t-54.5 18l-18 8l40 70q79 -34 146 -34z" />
    <glyph glyph-name="percent" unicode="%" horiz-adv-x="939" 
d="M248 404q52 0 82.5 45.5t30.5 104.5q0 43 -19 70t-59 27q-53 0 -83 -47t-30 -108q0 -92 78 -92zM239 341q-72 0 -118 38.5t-46 111.5q0 90 58.5 156.5t161.5 66.5q78 0 120.5 -42.5t42.5 -107.5q0 -97 -61 -160t-158 -63zM274 0h-98l502 700h97zM674 53q52 0 82.5 45.5
t30.5 104.5q0 43 -19 70t-59 27q-53 0 -83 -47t-30 -108q0 -92 78 -92zM665 -10q-72 0 -118 38.5t-46 111.5q0 90 58.5 156.5t161.5 66.5q78 0 120.5 -42.5t42.5 -107.5q0 -97 -61 -160t-158 -63z" />
    <glyph glyph-name="ampersand" unicode="&#x26;" horiz-adv-x="710" 
d="M618 57h20v-57h-49q-93 0 -163 62q-100 -72 -216 -72q-78 0 -126 41.5t-48 111.5q0 132 165 220q-56 82 -56 157q0 81 58.5 137.5t148.5 56.5q82 0 122.5 -36t40.5 -95q0 -63 -47.5 -117t-147.5 -116l36 -52q48 -71 91 -125q86 91 122 200h78q-55 -150 -153 -252
q64 -64 124 -64zM233 59q69 0 144 52q-16 20 -33.5 44.5t-38.5 56t-32 47.5l-43 62q-99 -69 -99 -157q0 -105 102 -105zM239 542q0 -72 51 -148q133 95 133 178q0 38 -20 57.5t-57 19.5q-51 0 -79 -29.5t-28 -77.5z" />
    <glyph glyph-name="quotesingle" unicode="'" horiz-adv-x="228" 
d="M106 463l26 238l105 5l-58 -243h-73z" />
    <glyph glyph-name="parenleft" unicode="(" horiz-adv-x="336" 
d="M284 -162l-38 -48q-210 129 -210 406q0 120 40.5 233.5t131.5 215t221 157.5l24 -48q-113 -66 -188 -158.5t-106 -188t-31 -199.5q0 -234 156 -370z" />
    <glyph glyph-name="parenright" unicode=")" horiz-adv-x="338" 
d="M55 754l38 48q210 -129 210 -406q0 -120 -40.5 -233.5t-131.5 -215t-221 -157.5l-24 48q113 66 188 158.5t106 188t31 199.5q0 234 -156 370z" />
    <glyph glyph-name="asterisk" unicode="*" horiz-adv-x="537" 
d="M110 707q9 23 30 28.5t48 -10.5l110 -55l8 5l9 136q0 26 15 43.5t41 17.5t34 -19t-3 -42l-47 -137l7 -6l127 58q29 15 48.5 9.5t25.5 -28.5q6 -22 -10.5 -38.5t-47.5 -19.5l-134 -26l-6 -11l62 -95q19 -24 15.5 -44t-24.5 -32q-22 -12 -41 -1.5t-26 40.5l-33 97h-19
l-82 -111q-17 -26 -40.5 -32t-35.5 7q-15 9 -13.5 33.5t28.5 44.5l112 90l-2 15l-114 26q-27 4 -38.5 20t-3.5 37z" />
    <glyph glyph-name="plus" unicode="+" horiz-adv-x="519" 
d="M52 248v74h172l32 169h80l-32 -169h159v-74h-174l-32 -168h-80l32 168h-157z" />
    <glyph glyph-name="comma" unicode="," horiz-adv-x="263" 
d="M17 -197l-38 42q73 56 101 140q-25 0 -41.5 13.5t-16.5 41.5t20 50.5t50 22.5q66 0 66 -76q0 -52 -40 -121t-101 -113z" />
    <glyph glyph-name="hyphen" unicode="-" horiz-adv-x="458" 
d="M84 262v74h291v-74h-291z" />
    <glyph glyph-name="period" unicode="." horiz-adv-x="253" 
d="M76 -15q-25 0 -39.5 15t-14.5 39q0 32 21 53t52 21q25 0 39.5 -15t14.5 -39q0 -32 -21 -53t-52 -21z" />
    <glyph glyph-name="slash" unicode="/" horiz-adv-x="410" 
d="M14 -171h-83l431 871h82z" />
    <glyph glyph-name="zero" unicode="0" horiz-adv-x="622" 
d="M467 469q0 167 -103 167q-47 0 -85 -39.5t-60 -101t-33.5 -129t-11.5 -131.5q0 -170 104 -170q47 0 85 39.5t60 101.5t33 130t11 133zM68 219q0 65 9.5 130t33 131.5t58.5 116.5t90.5 82t124.5 32q93 0 141.5 -59.5t48.5 -169.5q0 -65 -9.5 -130t-33 -131.5t-58.5 -116.5
t-90.5 -82t-124.5 -32q-93 0 -141.5 59t-48.5 170z" />
    <glyph glyph-name="one" unicode="1" horiz-adv-x="373" 
d="M84 599v53l233 54h26l-125 -706h-98l109 613z" />
    <glyph glyph-name="two" unicode="2" horiz-adv-x="495" 
d="M-4 50q187 174 267 282t80 194q0 102 -110 102q-30 0 -64.5 -8.5t-54.5 -17.5l-20 -9l15 82q54 35 147 35q86 0 136.5 -43.5t50.5 -122.5q0 -100 -72.5 -204t-250.5 -267l291 8l-5 -81h-410v50z" />
    <glyph glyph-name="three" unicode="3" horiz-adv-x="522" 
d="M160 339l16 68h31q65 0 117 38.5t52 98.5q0 41 -25 63.5t-73 22.5q-38 0 -76 -8.5t-56 -17.5l-19 -9l14 80q64 35 160 35q83 0 129 -38t46 -104q0 -68 -44.5 -119t-131.5 -70q68 -10 105.5 -52.5t37.5 -103.5q0 -96 -79 -164.5t-206 -68.5q-43 0 -82.5 8.5t-57.5 17.5
l-18 9l31 74q56 -27 140 -27q75 0 123 40t48 106q0 121 -162 121h-20z" />
    <glyph glyph-name="four" unicode="4" horiz-adv-x="572" 
d="M381 -10h-98l29 169h-290l-16 50l444 506l54 -6l-81 -477l94 1l-6 -74h-102l-16 -76zM332 479l-224 -253l217 3l42 239l20 83h-3q-27 -44 -52 -72z" />
    <glyph glyph-name="five" unicode="5" horiz-adv-x="512" 
d="M498 700l-8 -82l-258 9l-39 -181q244 -29 244 -210q0 -100 -73 -172.5t-201 -72.5q-43 0 -80.5 6.5t-54.5 12.5l-16 6l19 83q54 -26 143 -26q83 0 122 38.5t39 106.5q0 71 -55 109.5t-177 43.5l69 329h326z" />
    <glyph glyph-name="six" unicode="6" horiz-adv-x="557" 
d="M534 636q-291 -17 -357 -251q50 44 124 44q80 0 131.5 -51t51.5 -142q0 -102 -62 -174t-173 -72q-89 0 -140 67t-51 172q0 99 29 182.5t86 149t149.5 104t211.5 43.5v-72zM268 350q-67 0 -106 -39q-4 -33 -4 -76q0 -75 25.5 -123t81.5 -48t87.5 44.5t31.5 116.5
q0 125 -116 125z" />
    <glyph glyph-name="seven" unicode="7" horiz-adv-x="464" 
d="M91 611l5 89h409v-27q-175 -299 -336 -683l-101 37q138 290 328 597z" />
    <glyph glyph-name="eight" unicode="8" horiz-adv-x="558" 
d="M46 159q0 128 171 208q-44 34 -68.5 71.5t-24.5 88.5q0 83 60.5 133t151.5 50q84 0 130.5 -38.5t46.5 -104.5q0 -59 -45.5 -107.5t-109.5 -78.5q55 -39 85.5 -82t30.5 -107q0 -85 -65.5 -144t-167.5 -59q-91 0 -143 45t-52 125zM377 186q0 24 -8.5 44.5t-28.5 40t-34 31
t-44 32.5q-122 -65 -122 -169q0 -44 27 -74t80 -30q58 0 94 32t36 93zM222 540q0 -39 23 -67t68 -61q54 33 80.5 66t26.5 76q0 41 -24 63.5t-64 22.5q-53 0 -81.5 -27.5t-28.5 -72.5z" />
    <glyph glyph-name="nine" unicode="9" horiz-adv-x="567" 
d="M47 62q132 0 227 57.5t130 183.5q-52 -34 -128 -34q-81 0 -133 52.5t-52 143.5q0 96 59 170.5t162 74.5q102 0 156.5 -62.5t54.5 -173.5q0 -234 -122.5 -358.5t-353.5 -124.5v71zM312 348q54 0 106 27q5 42 5 81q0 180 -116 180q-52 0 -84 -45t-32 -111q0 -61 31 -96.5
t90 -35.5z" />
    <glyph glyph-name="colon" unicode=":" horiz-adv-x="291" 
d="M98 -15q-25 0 -39.5 15t-14.5 39q0 32 21 53t52 21q25 0 39.5 -15t14.5 -39q0 -32 -21 -53t-52 -21zM157 374q-25 0 -39.5 15t-14.5 39q0 32 21 53t52 21q25 0 39.5 -15t14.5 -39q0 -32 -21 -53t-52 -21z" />
    <glyph glyph-name="semicolon" unicode=";" horiz-adv-x="299" 
d="M158 374q-25 0 -39.5 15t-14.5 39q0 32 21 53t52 21q25 0 39.5 -15t14.5 -39q0 -32 -21 -53t-52 -21zM39 -197l-38 42q73 56 101 140q-25 0 -41.5 13.5t-16.5 41.5t20 50.5t50 22.5q66 0 66 -76q0 -52 -40 -121t-101 -113z" />
    <glyph glyph-name="less" unicode="&#x3c;" horiz-adv-x="426" 
d="M41 310l346 190l-22 -107l-204 -107l153 -136l-22 -99l-251 230v29z" />
    <glyph glyph-name="equal" unicode="=" horiz-adv-x="627" 
d="M105 342v74h411v-74h-411zM105 152v74h411v-74h-411z" />
    <glyph glyph-name="greater" unicode="&#x3e;" horiz-adv-x="426" 
d="M378 240l-346 -190l22 107l203 107l-152 136l22 99l251 -230v-29z" />
    <glyph glyph-name="question" unicode="?" horiz-adv-x="445" 
d="M251 635q-35 0 -74.5 -12t-60.5 -24l-22 -12l14 79q7 5 21 13t60.5 21.5t96.5 13.5q79 0 120 -38.5t41 -98.5q0 -41 -17 -76.5t-42.5 -58.5t-55.5 -44t-55.5 -36t-42.5 -32t-17 -33q0 -22 18 -22q12 0 28 12l33 -53q-42 -38 -96 -38q-34 0 -57 21.5t-23 52.5
q0 42 23 74.5t56 54t66.5 43.5t56.5 54.5t23 74.5q0 29 -25 46.5t-69 17.5zM155 -15q-25 0 -39.5 15t-14.5 39q0 32 21 53t52 21q25 0 39.5 -15t14.5 -39q0 -32 -21 -53t-52 -21z" />
    <glyph glyph-name="at" unicode="@" horiz-adv-x="891" 
d="M587 -10q-75 0 -95 63q-5 -7 -13.5 -17.5t-39 -28t-64.5 -17.5q-69 0 -107 45t-38 118q0 66 23.5 127.5t75 105.5t120.5 44q30 0 55 -9t36 -19l10 -9l79 42h11l-58 -328q-4 -16 2.5 -29.5t23.5 -13.5q34 0 62.5 46t42 103.5t13.5 104.5q0 108 -62.5 171t-172.5 63
q-84 0 -154 -38t-114 -100.5t-68 -137.5t-24 -153q0 -107 52.5 -169.5t164.5 -62.5q29 0 56 4l-4 -66q-43 -7 -87 -7q-139 0 -212 73.5t-73 204.5q0 140 59.5 258t175.5 190.5t268 72.5q127 0 212 -73.5t85 -207.5q0 -78 -31.5 -158.5t-88.5 -136t-121 -55.5zM489 100
l41 237q-14 22 -68 22q-44 0 -76 -32t-45 -74t-13 -87q0 -103 77 -103q27 0 48 9.5t29 18.5z" />
    <glyph glyph-name="A" unicode="A" horiz-adv-x="566" 
d="M402 -4l-22 163h-252l-3 -8q-41 -97 -54 -151h-86q17 72 67 177l251 520l94 6l83 -583l22 -118zM281 494l-120 -264h209l-35 263l-11 102h-4q-18 -54 -39 -101z" />
    <glyph glyph-name="B" unicode="B" horiz-adv-x="597" 
d="M52 0l105 598l12 102h180q101 0 150 -44t49 -114q0 -56 -38 -105t-93 -68v-2q52 -14 79.5 -48.5t27.5 -83.5q0 -106 -77 -170.5t-194 -64.5h-201zM304 331h-96l-46 -259h95q69 0 117.5 41t48.5 110q0 108 -119 108zM339 629h-78l-40 -226h155q3 2 8 5t18 14.5t23 25
t18 36.5t8 48q0 97 -112 97z" />
    <glyph glyph-name="C" unicode="C" horiz-adv-x="566" 
d="M409 635q-64 0 -120.5 -51.5t-87.5 -129.5t-31 -157q0 -227 171 -227q34 0 67 5t48 9l16 5l5 -70q-49 -29 -153 -29q-123 0 -191.5 75t-68.5 210q0 110 49.5 211.5t133.5 164t179 62.5q31 0 59 -7t57 -18.5t45 -15.5l-28 -77q-17 4 -62 22t-88 18z" />
    <glyph glyph-name="D" unicode="D" horiz-adv-x="684" 
d="M52 0l105 598l12 102h167q152 0 231.5 -76.5t79.5 -200.5q0 -114 -52 -209.5t-152.5 -154.5t-230.5 -59h-160zM303 628h-42l-99 -556h66q143 0 226.5 91.5t83.5 240.5q0 224 -235 224z" />
    <glyph glyph-name="E" unicode="E" horiz-adv-x="560" 
d="M52 0l105 598l12 102h403l-19 -79q-35 5 -91 6l-201 3l-42 -240l249 5l-20 -86l-242 8l-44 -246l215 4l86 5l-19 -80h-392z" />
    <glyph glyph-name="F" unicode="F" horiz-adv-x="533" 
d="M52 0l105 598l12 102h393l-19 -80q-44 5 -105 6l-177 3l-46 -259l240 5l-20 -86l-233 8l-36 -204l-11 -93h-103z" />
    <glyph glyph-name="G" unicode="G" horiz-adv-x="641" 
d="M445 635q-118 0 -197.5 -98t-79.5 -252q0 -100 44 -159t139 -59q20 0 38.5 2t26.5 4l8 2l30 134l16 103l99 5l-64 -302q-69 -25 -152 -25q-141 0 -217 74.5t-76 203.5q0 113 48 213.5t143 166t216 65.5q40 0 68.5 -7t56 -18t46.5 -16l-28 -77q-12 3 -62.5 21.5
t-102.5 18.5z" />
    <glyph glyph-name="H" unicode="H" horiz-adv-x="717" 
d="M463 0l58 325h-314l-41 -232l-12 -93h-103l106 598l12 103l105 5l-54 -307h314l35 199l12 103l105 5l-108 -613l-12 -93h-103z" />
    <glyph glyph-name="I" unicode="I" horiz-adv-x="305" 
d="M51 0l106 598l12 103l105 5l-108 -613l-12 -93h-103z" />
    <glyph glyph-name="J" unicode="J" horiz-adv-x="304" 
d="M68 90l89 508l12 103l105 5l-108 -615q-11 -61 -38 -114q-18 -33 -43.5 -63.5t-67 -70t-53.5 -52.5l-52 49q13 14 46.5 47t51.5 56t30 50q17 38 28 97z" />
    <glyph glyph-name="K" unicode="K" horiz-adv-x="599" 
d="M52 0l105 598l12 103l105 5l-54 -305h48q82 90 133 149.5t68 82t49 67.5h101q-92 -122 -291 -329l168 -290q11 -20 24.5 -40t21.5 -31l7 -10l-115 -5l-184 334h-43l-41 -236l-11 -93h-103z" />
    <glyph glyph-name="L" unicode="L" horiz-adv-x="526" 
d="M472 80l-19 -80h-402l106 598l12 102l105 5l-112 -634l214 3q27 0 51 1.5t35 2.5z" />
    <glyph glyph-name="M" unicode="M" horiz-adv-x="842" 
d="M394 170h-13l-127 292q-8 18 -15 38t-10 30l-3 11h-5q-5 -50 -9 -75l-67 -383l-10 -83h-83l104 587l14 114l81 3l139 -328l26 -75h6q19 39 46 75l246 325l96 3l-107 -611l-12 -93h-100l85 483l17 78h-5q-23 -38 -52 -76z" />
    <glyph glyph-name="N" unicode="N" horiz-adv-x="700" 
d="M463 -10l-203 475l-35 101h-3q-2 -61 -10 -106l-64 -367l-12 -93h-85l106 598l12 103l87 5l201 -472q11 -25 20 -51.5t13 -40.5l4 -14l4 1q-1 52 8 104l65 365l12 103l87 5l-125 -706z" />
    <glyph glyph-name="O" unicode="O" horiz-adv-x="713" 
d="M315 60q89 0 154 79t86 199q12 54 8 108t-18 97t-47 70t-81 27q-89 0 -153 -79t-85 -199q-12 -54 -8.5 -108t16.5 -97t46.5 -70t81.5 -27zM292 -10q-88 0 -144.5 50.5t-74 127.5t-1.5 169q30 171 125.5 272t244.5 101q66 0 115.5 -31.5t73.5 -81t34 -111.5t-3 -123
q-30 -171 -125.5 -272t-244.5 -101z" />
    <glyph glyph-name="P" unicode="P" horiz-adv-x="582" 
d="M286 257h-91l-29 -164l-11 -93h-103l105 598l12 102h176q110 0 169 -51t59 -136q0 -113 -82 -184.5t-205 -71.5zM261 628l-53 -298h80q86 0 134.5 44.5t48.5 126.5q0 61 -39 94t-113 33h-58z" />
    <glyph glyph-name="Q" unicode="Q" horiz-adv-x="713" 
d="M292 -10q-88 0 -144.5 50.5t-74 127.5t-1.5 169q30 171 125.5 272t244.5 101q88 0 144.5 -50.5t74 -127.5t1.5 -169q-21 -120 -76.5 -208t-139.5 -130l57 -132l38 -76l-111 -5l-74 184q-30 -6 -64 -6zM324 60q87 0 148.5 78.5t82.5 199.5q12 54 9 108t-16.5 97t-49 70
t-88.5 27q-87 0 -148.5 -78.5t-82.5 -199.5q-12 -54 -9 -108t16.5 -97t49 -70t88.5 -27z" />
    <glyph glyph-name="R" unicode="R" horiz-adv-x="605" 
d="M51 0l106 598l12 102h166q112 0 169 -52t57 -142q0 -77 -45.5 -131.5t-125.5 -81.5l94 -217l38 -76l-108 -5l-109 272h-109l-30 -174l-12 -93h-103zM308 628h-48l-51 -290h72q81 0 131 47t50 121q0 122 -154 122z" />
    <glyph glyph-name="S" unicode="S" horiz-adv-x="505" 
d="M319 713q37 0 66 -7t56 -18.5t43 -15.5l-28 -77q-17 3 -64 21.5t-89 18.5q-50 0 -80.5 -28t-30.5 -71q0 -32 18 -60t44.5 -47.5t57.5 -44.5t57.5 -49t44.5 -61.5t18 -81.5q0 -92 -64.5 -147t-173.5 -55q-54 0 -96 6t-57 12l-15 7l14 77q49 -23 155 -23q64 0 105 28t41 81
q0 38 -25 70.5t-60 58t-70.5 53t-60.5 69t-25 93.5q0 79 58 135t161 56z" />
    <glyph glyph-name="T" unicode="T" horiz-adv-x="551" 
d="M172 0l115 629l-102 -2l-104 -5l18 78h501l-18 -78q-37 4 -88 5l-109 2l-99 -536l-11 -93h-103z" />
    <glyph glyph-name="U" unicode="U" horiz-adv-x="697" 
d="M674 706l-80 -455q-21 -123 -94 -194t-202 -71q-126 0 -178.5 71t-30.5 195l61 346l12 103l105 5l-80 -455q-35 -190 128 -190q156 0 191 190l61 347l12 103z" />
    <glyph glyph-name="V" unicode="V" horiz-adv-x="567" 
d="M308 205l153 342q39 95 54 153h86q-18 -76 -67 -179l-251 -520l-94 -6l-83 583q-5 33 -10.5 62.5t-9.5 42.5l-3 13l101 6l70 -496l11 -102h4q18 54 39 101z" />
    <glyph glyph-name="W" unicode="W" horiz-adv-x="875" 
d="M459 700l95 5l26 -481l4 -99h4q15 49 37 100l120 279q40 94 70 196h95q-31 -100 -90 -226l-220 -472l-97 -6l-25 455v116h-4q-13 -57 -35 -113l-175 -452l-104 -6l-48 583q-3 33 -6.5 62.5t-5.5 42.5l-3 13l99 6l37 -477l6 -102h4q12 48 32 99z" />
    <glyph glyph-name="X" unicode="X" horiz-adv-x="602" 
d="M416 -5l-121 289l-129 -163l-93 -126l-102 10q55 79 132 168l161 187l-97 234l-49 106l108 5l113 -274l103 133q24 32 45 66t31 52l9 18l102 1q-33 -72 -113 -169l-146 -177l107 -259l44 -96z" />
    <glyph glyph-name="Y" unicode="Y" horiz-adv-x="542" 
d="M170 0l49 278l-109 330l-36 92l104 5l116 -352l144 224q21 33 38 64t24 45l6 14h97q-33 -63 -100 -158l-185 -263l-33 -186l-12 -93h-103z" />
    <glyph glyph-name="Z" unicode="Z" horiz-adv-x="521" 
d="M126 620l8 80h408v-10l-418 -618l212 3l95 6l-9 -81h-437v10l416 618l-165 -2z" />
    <glyph glyph-name="bracketleft" unicode="[" horiz-adv-x="295" 
d="M1 -199l173 984h178l-9 -51h-100l-155 -882h100l-9 -51h-178z" />
    <glyph glyph-name="backslash" unicode="\" horiz-adv-x="481" 
d="M452 -171h-83l-283 871h82z" />
    <glyph glyph-name="bracketright" unicode="]" horiz-adv-x="296" 
d="M294 785l-173 -984h-177l9 51h99l155 882h-100l9 51h178z" />
    <glyph glyph-name="asciicircum" unicode="^" horiz-adv-x="467" 
d="M278 667l-120 -134h-103l219 227h29l189 -227h-104z" />
    <glyph glyph-name="underscore" unicode="_" horiz-adv-x="515" 
d="M-49 -173v74h461v-74h-461z" />
    <glyph glyph-name="grave" unicode="`" horiz-adv-x="550" 
d="M244 635l-47 -34l-138 136l72 61z" />
    <glyph glyph-name="a" unicode="a" horiz-adv-x="538" 
d="M498 500l-88 -412l-15 -88h-88l8 84q-65 -58 -102 -76t-71 -18q-77 0 -99 89q-23 94 23 215q50 131 143 186q50 30 105 30q66 0 114 -39l49 35zM182 67q18 0 48 18.5t101 74.5l52 245q-22 43 -72 43q-73 0 -127 -107q-47 -94 -46 -189q2 -83 44 -85z" />
    <glyph glyph-name="b" unicode="b" horiz-adv-x="539" 
d="M46 -10h-23l144 680l13 77l99 3l-71 -336q65 59 103 77.5t76 18.5q72 0 93 -87q22 -93 -22 -215q-49 -132 -142 -188q-50 -30 -106 -30q-71 0 -121 44zM342 429q-20 0 -51 -18t-100 -73l-51 -241q22 -45 73 -45q74 0 126 108q46 93 45 187q-2 81 -42 82z" />
    <glyph glyph-name="c" unicode="c" horiz-adv-x="456" 
d="M297 441q-64 0 -108.5 -79.5t-44.5 -180.5q0 -61 24.5 -87.5t58.5 -26.5q58 0 147 65v-62q-103 -80 -174 -80q-75 0 -115.5 52.5t-40.5 142.5q0 135 79 230t177 95q25 0 46.5 -5t46.5 -14.5t36 -12.5l-31 -81q-19 6 -50 25t-51 19z" />
    <glyph glyph-name="d" unicode="d" horiz-adv-x="539" 
d="M551 750l-141 -662l-15 -88h-88l8 85q-65 -58 -102 -76.5t-71 -18.5q-77 0 -99 89q-23 94 23 215q50 131 143 186q50 30 105 30q48 0 87 -21l38 181l13 77zM182 67q19 0 49.5 18.5t99.5 74.5l52 244q-22 44 -72 44q-73 0 -127 -107q-47 -94 -46 -189q2 -83 44 -85z" />
    <glyph glyph-name="e" unicode="e" horiz-adv-x="479" 
d="M380 70q-104 -80 -186 -80q-74 0 -114.5 53t-37.5 142q5 138 83.5 231.5t185.5 93.5q63 0 96.5 -29.5t31.5 -81.5q-2 -48 -39 -80t-130 -64l-126 -43q-2 -22 -2 -31q-2 -61 24 -87.5t64 -26.5q57 0 150 65v-62zM286 444q-47 0 -81 -47t-51 -121l67 25q71 27 92.5 46.5
t22.5 48.5q1 20 -13 34t-37 14z" />
    <glyph glyph-name="f" unicode="f" horiz-adv-x="391" 
d="M346 694q-59 0 -79 -88l-23 -106h150v-68l-163 2l-74 -341l-14 -93h-98l93 436l-67 1v63h81l16 72q19 87 66 137.5t122 50.5q26 0 47 -5t45.5 -14t37.5 -13l-31 -81q-20 5 -51.5 26t-57.5 21z" />
    <glyph glyph-name="g" unicode="g" horiz-adv-x="539" 
d="M498 500l-107 -505q-24 -115 -78.5 -184.5t-144.5 -69.5q-41 0 -70.5 6.5t-69.5 22t-60 21.5l33 82q35 -10 88 -40.5t86 -30.5q42 0 68 34.5t41 106.5l30 140q-64 -57 -101 -75t-71 -18q-77 0 -99 89q-23 94 23 215q50 131 143 186q50 30 105 30q66 0 114 -39l49 35z
M182 67q18 0 48 18.5t100 74.5l53 245q-22 43 -72 43q-73 0 -127 -107q-47 -94 -46 -189q2 -83 44 -85z" />
    <glyph glyph-name="h" unicode="h" horiz-adv-x="530" 
d="M393 0h-98l77 364q10 48 -10 59.5t-63 -16.5l-108 -70l-72 -337h-94l142 670l13 77l99 3l-72 -337l105 71q37 26 72 26q54 0 74 -41t7 -105l-58 -276z" />
    <glyph glyph-name="i" unicode="i" horiz-adv-x="266" 
d="M128 500l99 3l-108 -503h-94l90 423zM198 601q-24 0 -39.5 16t-15.5 42t16.5 45.5t47.5 19.5q24 0 39.5 -16t15.5 -42t-16.5 -45.5t-47.5 -19.5z" />
    <glyph glyph-name="j" unicode="j" horiz-adv-x="265" 
d="M225 505l-101 -479q-11 -51 -34.5 -94t-44.5 -65.5t-61.5 -61.5t-61.5 -62l-47 49q18 22 50 55.5t47.5 52t33 52t25.5 74.5l78 371l16 103zM196 601q-24 0 -39.5 16t-15.5 42t16.5 45.5t47.5 19.5q24 0 39.5 -16t15.5 -42t-16.5 -45.5t-47.5 -19.5z" />
    <glyph glyph-name="k" unicode="k" horiz-adv-x="490" 
d="M407 0l-103 -5l-134 246l-32 -153l-15 -88h-98l142 670l13 77l99 3l-104 -487q163 165 217 237h108q-79 -93 -235 -245l85 -159z" />
    <glyph glyph-name="l" unicode="l" horiz-adv-x="275" 
d="M283 750l-141 -662l-15 -88h-98l142 670l13 77z" />
    <glyph glyph-name="m" unicode="m" horiz-adv-x="777" 
d="M640 0h-97l77 364q10 48 -10.5 59.5t-63.5 -16.5l-93 -60l-54 -259l-14 -88h-98l76 364q10 48 -10.5 59.5t-63.5 -16.5l-97 -63l-74 -344h-93l90 423l13 77l98 3l-18 -83l94 64q37 26 72 26q43 0 65 -24.5t23 -67.5l97 66q37 26 72 26q54 0 74 -41t7 -105l-58 -276z" />
    <glyph glyph-name="n" unicode="n" horiz-adv-x="530" 
d="M393 0h-98l77 364q10 48 -10 59.5t-63 -16.5l-108 -70l-72 -337h-94l90 423l13 77l99 3l-19 -90l104 71q37 26 72 26q54 0 74 -41t7 -105l-58 -276z" />
    <glyph glyph-name="o" unicode="o" horiz-adv-x="527" 
d="M295 448q-42 0 -73 -29.5t-47 -76t-23.5 -91.5t-7.5 -88q0 -61 17 -86t57 -25q36 0 64 23.5t43.5 57t25.5 75.5t13 74.5t3 58.5q0 55 -16.5 81t-55.5 26zM469 336q0 -58 -17 -117t-48.5 -111t-85 -85t-118.5 -33q-74 0 -116 46t-42 131q0 79 28.5 155.5t92 132
t148.5 55.5q74 0 116 -46t42 -128z" />
    <glyph glyph-name="p" unicode="p" horiz-adv-x="541" 
d="M121 12l-38 -174l-15 -88h-98l145 670l13 77l99 3l-19 -86q66 59 104 77.5t76 18.5q72 0 93 -87q22 -93 -22 -215q-49 -132 -142 -188q-50 -30 -106 -30q-48 0 -90 22zM343 429q-20 0 -51 -18t-100 -73l2 13l-54 -251q22 -48 74 -48q74 0 126 108q46 93 45 187
q-2 81 -42 82z" />
    <glyph glyph-name="q" unicode="q" horiz-adv-x="538" 
d="M498 500l-141 -662l-15 -88h-98l71 334q-65 -58 -102 -76t-71 -18q-77 0 -99 89q-23 94 23 215q50 131 143 186q50 30 105 30q66 0 114 -39l49 35zM182 67q18 0 48 18.5t101 74.5l52 245q-22 43 -72 43q-73 0 -127 -107q-47 -94 -46 -189q2 -83 44 -85z" />
    <glyph glyph-name="r" unicode="r" horiz-adv-x="417" 
d="M128 500l99 3l-24 -113q45 67 73.5 93.5t54.5 26.5q17 0 31 -6t33 -17.5t33 -17.5l-45 -88q-16 6 -40.5 21t-35.5 15q-25 0 -53 -30.5t-74 -99.5l-61 -287h-94l90 423z" />
    <glyph glyph-name="s" unicode="s" horiz-adv-x="420" 
d="M164 -8q-32 0 -59 3t-58 8.5t-48 7.5l25 82q20 -2 64.5 -15.5t79.5 -13.5q37 0 56.5 17.5t19.5 48.5q0 25 -16.5 46.5t-40 38.5t-47 36t-40 48.5t-16.5 67.5q0 62 40 102.5t113 40.5q23 0 45 -3.5t32 -6t38 -11.5t37 -12l-31 -81q-23 6 -60 23t-66 17q-27 0 -43 -16.5
t-16 -42.5q0 -25 16.5 -46t40.5 -38.5t47.5 -37t40 -50.5t16.5 -70q0 -71 -47 -107t-123 -36z" />
    <glyph glyph-name="t" unicode="t" horiz-adv-x="405" 
d="M241 500h149v-68l-163 2l-63 -299q-14 -61 23 -61q28 0 50 10t92 56v-62q-66 -49 -104 -67.5t-73 -18.5q-112 0 -79 153l60 291l-66 1v63h79l19 90l76 42h28z" />
    <glyph glyph-name="u" unicode="u" horiz-adv-x="530" 
d="M122 500h98l-77 -364q-10 -48 10 -59.5t63 16.5l107 69l73 338h94l-90 -423l-13 -77l-89 -1l8 87l-103 -70q-37 -26 -72 -26q-54 0 -74 41t-7 105l58 276z" />
    <glyph glyph-name="v" unicode="v" horiz-adv-x="467" 
d="M77 500l97 5l19 -428q138 162 162 423h91q-12 -143 -79.5 -270.5t-171.5 -229.5h-91l-18 414z" />
    <glyph glyph-name="w" unicode="w" horiz-adv-x="708" 
d="M341 500h81l16 -427q134 159 161 427h88q-23 -271 -248 -500h-79l-10 200l2 89h-5q-5 -49 -21 -86q-47 -112 -138 -203h-82l-22 403l-8 97l94 5l20 -426q64 77 103.5 190.5t47.5 230.5z" />
    <glyph glyph-name="x" unicode="x" horiz-adv-x="485" 
d="M180 505l78 -195l60 81q23 31 40.5 58.5t23.5 38.5l6 12h106q-37 -66 -124 -158l-87 -92l70 -174l36 -76l-101 -5l-80 197l-44 -61q-28 -39 -49 -72.5t-28 -48.5l-7 -14l-105 6q39 69 127 161l83 86l-68 168q-8 21 -17.5 41.5t-15.5 31.5l-5 10z" />
    <glyph glyph-name="y" unicode="y" horiz-adv-x="479" 
d="M244 -3q-11 -13 -43.5 -51.5t-46.5 -55t-40.5 -46.5t-50.5 -54t-50 -49l-63 69q34 30 107.5 88t105.5 89l-90 428l-20 85l97 5l85 -432q111 165 106 427h93q8 -269 -190 -503z" />
    <glyph glyph-name="z" unicode="z" horiz-adv-x="439" 
d="M87 417l5 83h330v-20l-301 -410l142 5l80 7l-5 -82h-344v20l301 411l-132 -6z" />
    <glyph glyph-name="braceleft" unicode="{" horiz-adv-x="335" 
d="M233 450q-15 -93 -68 -138q37 -34 25 -106l-45 -257q-8 -47 3.5 -72t56.5 -25h23l-9 -51h-54q-65 0 -88 37t-10 111l43 247q7 32 4.5 53t-21.5 31q-31 -5 -67 1v61q63 -1 91.5 27.5t41.5 102.5l29 165q13 74 49 111t101 37h54l-9 -51h-23q-45 0 -65.5 -25t-28.5 -72z" />
    <glyph glyph-name="bar" unicode="|" horiz-adv-x="254" 
d="M-10 -259l181 1024h78l-181 -1024h-78z" />
    <glyph glyph-name="braceright" unicode="}" horiz-adv-x="336" 
d="M102 136q15 95 67 137q-36 35 -24 107l45 257q8 47 -3.5 72t-56.5 25h-23l9 51h54q65 0 88 -37t10 -111l-43 -247q-7 -33 -4.5 -54t20.5 -31q30 5 68 0v-61q-63 1 -91.5 -27.5t-41.5 -102.5l-29 -165q-13 -74 -49 -111t-101 -37h-54l9 51h23q45 0 65.5 25t28.5 72z" />
    <glyph glyph-name="asciitilde" unicode="~" horiz-adv-x="588" 
d="M393 307q24 0 45.5 12t30.5 24l9 12l54 -40q-2 -4 -5.5 -10t-16 -21t-28 -27t-41 -21.5t-53.5 -9.5q-48 0 -101.5 32.5t-91.5 32.5q-24 0 -45.5 -12t-30.5 -24l-9 -12l-54 40q2 4 5.5 10t16 21t28 27t41 21.5t53.5 9.5q48 0 103.5 -32.5t89.5 -32.5z" />
    <glyph glyph-name="uni00A0" unicode="&#xa0;" horiz-adv-x="235" 
 />
    <glyph glyph-name="exclamdown" unicode="&#xa1;" horiz-adv-x="274" 
d="M178 278l-79 -481l-105 -5l101 486h83zM175 513q25 0 39.5 -15t14.5 -39q0 -32 -21 -53t-52 -21q-25 0 -39.5 15t-14.5 39q0 32 21 53t52 21z" />
    <glyph glyph-name="cent" unicode="&#xa2;" horiz-adv-x="456" 
d="M289 441q-64 0 -108.5 -79.5t-44.5 -180.5q0 -61 24.5 -87.5t58.5 -26.5q58 0 147 65v-62q-78 -61 -135 -75l-14 -109h-78l29 106q-64 8 -98 59t-34 134q0 119 63 208.5t149 110.5l14 106h78l-27 -101q25 -3 63.5 -16t44.5 -15l-31 -81q-19 6 -50 25t-51 19z" />
    <glyph glyph-name="sterling" unicode="&#xa3;" horiz-adv-x="563" 
d="M264 483l-4 -127h218v-74h-220q-4 -49 -19.5 -88t-33.5 -61t-39.5 -37t-33.5 -20t-19 -6l352 12l-11 -82h-441v64q6 1 15.5 4.5t34.5 17.5t44.5 33.5t36 56.5t17.5 82v24h-90v74h92l2 100q5 118 67 188.5t176 70.5q30 0 73 -9t65 -11l-19 -82q-26 2 -70 12.5t-67 10.5
q-60 0 -92 -32t-34 -121z" />
    <glyph glyph-name="yen" unicode="&#xa5;" horiz-adv-x="608" 
d="M83 260v74h149l-90 274l-36 92l104 5l116 -353l144 225q21 33 38 64t24 45l6 14h97q-33 -63 -100 -158l-147 -208h106v-74h-148l-17 -97h165v-74h-178l-11 -89h-103l15 89h-134v74h147l18 97h-165z" />
    <glyph glyph-name="brokenbar" unicode="&#xa6;" horiz-adv-x="260" 
d="M184 373h-78l76 392h78zM61 143h78l-78 -402h-77z" />
    <glyph glyph-name="section" unicode="&#xa7;" horiz-adv-x="523" 
d="M470 353q0 -42 -29.5 -79.5t-76.5 -61.5q22 -32 22 -72q0 -62 -52.5 -105t-151.5 -43q-39 0 -87 9.5t-69 10.5l12 77q29 -2 74 -12t76 -10q56 0 83 19t27 47q0 25 -23 43t-56 31t-66 29t-56 46t-23 72t29.5 79.5t76.5 61.5q-22 28 -22 72q0 62 52.5 105t151.5 43
q39 0 87 -9.5t69 -10.5l-12 -77q-29 2 -74 12t-76 10q-56 0 -83 -19t-27 -47q0 -25 23 -43t56 -31t66 -29t56 -46t23 -72zM381 337q0 32 -26 52t-74 40t-70 36q-48 -36 -48 -95q0 -32 26 -52t73.5 -40t69.5 -36q49 36 49 95z" />
    <glyph glyph-name="dieresis" unicode="&#xa8;" horiz-adv-x="502" 
d="M149 621q-24 0 -39.5 16t-15.5 42t16.5 45.5t47.5 19.5q26 0 40.5 -15.5t14.5 -40.5q0 -28 -17 -47.5t-47 -19.5zM342 621q-24 0 -39.5 16t-15.5 42t16.5 45.5t47.5 19.5q26 0 40.5 -15.5t14.5 -40.5q0 -28 -17.5 -47.5t-46.5 -19.5z" />
    <glyph glyph-name="copyright" unicode="&#xa9;" horiz-adv-x="824" 
d="M456 494q-60 0 -96.5 -43t-36.5 -113q0 -52 26.5 -81t72.5 -29q24 0 49.5 5t38.5 10l14 5l-13 -64q-47 -25 -122 -25q-63 0 -107.5 42t-44.5 112q0 110 71.5 179t165.5 69q23 0 57.5 -7.5t51.5 -8.5l-25 -69q-16 2 -49.5 10t-52.5 8zM367 63q142 0 237 104.5t95 245.5
q0 104 -60.5 168.5t-160.5 64.5q-142 0 -237 -104.5t-95 -245.5q0 -104 60.5 -168.5t160.5 -64.5zM352 -8q-132 0 -213.5 81t-81.5 208q0 182 125 309t311 127q132 0 213.5 -81t81.5 -208q0 -182 -125 -309t-311 -127z" />
    <glyph glyph-name="guillemotleft" unicode="&#xab;" horiz-adv-x="563" 
d="M178 288l-53 -41l30 -34q26 -30 53 -83t39 -98l-77 -23q-40 111 -106 188l-42 49v21l64 49q118 89 175 166l64 -43q-50 -77 -147 -151zM393 288l-53 -41l30 -34q26 -30 53 -83t39 -98l-77 -23q-40 111 -106 188l-42 49v21l64 49q118 89 175 166l64 -43q-50 -77 -147 -151
z" />
    <glyph glyph-name="logicalnot" unicode="&#xac;" horiz-adv-x="610" 
d="M89 248v74h412v-185h-67v111h-345z" />
    <glyph glyph-name="registered" unicode="&#xae;" horiz-adv-x="499" 
d="M252 338q-70 0 -114 43t-44 109q0 97 63 161t168 64q70 0 114 -43t44 -109q0 -97 -63 -161t-168 -64zM262 387q68 1 114 50t46 117q0 52 -28.5 81.5t-76.5 29.5q-69 0 -115.5 -48t-46.5 -118q0 -53 29 -82.5t78 -29.5zM201 438l31 157l4 33h78q68 0 68 -54q0 -42 -46 -60
l16 -52l8 -24l-51 -2l-17 66h-30l-7 -34l-4 -30h-50zM297 593h-18l-11 -57h20q17 0 29.5 8.5t12.5 25.5q0 23 -33 23z" />
    <glyph glyph-name="macron" unicode="&#xaf;" horiz-adv-x="364" 
d="M45 539v74h274v-74h-274z" />
    <glyph glyph-name="degree" unicode="&#xb0;" horiz-adv-x="417" 
d="M246 517q45 0 70.5 30.5t25.5 73.5q0 35 -17 55t-48 20q-45 0 -70.5 -31.5t-25.5 -73.5q0 -74 65 -74zM229 452q-61 0 -94 34t-33 90q0 84 53 134t139 50q61 0 94 -34t33 -90q0 -84 -53 -134t-139 -50z" />
    <glyph glyph-name="plusminus" unicode="&#xb1;" horiz-adv-x="572" 
d="M96 308v74h172l27 139h80l-27 -139h159v-74h-174l-27 -138h-80l27 138h-157zM42 60v74h411v-74h-411z" />
    <glyph glyph-name="acute" unicode="&#xb4;" horiz-adv-x="294" 
d="M71 590l-32 48l188 151l55 -79z" />
    <glyph glyph-name="mu" unicode="&#xb5;" horiz-adv-x="536" 
d="M392 0l-99 -3l19 89l-104 -70q-37 -26 -72 -26q-22 0 -40 8q2 -99 -11 -161l-8 -39h-94l71 336l6 28l53 250l14 88h98l-77 -364q-10 -48 10 -59.5t63 16.5l107 69l73 338h94l-90 -423z" />
    <glyph glyph-name="paragraph" unicode="&#xb6;" horiz-adv-x="699" 
d="M424 -250l133 684h-78l-133 -684h-78l48 250h-36q-114 0 -173 50.5t-59 139.5q0 142 97.5 226t270.5 84h231l-145 -750h-78zM376 433q-101 0 -165 -62t-64 -164q0 -133 158 -133h26l69 359h-24z" />
    <glyph glyph-name="periodcentered" unicode="&#xb7;" horiz-adv-x="263" 
d="M127 218q-24 0 -41.5 17t-17.5 42q0 24 18.5 41.5t42.5 17.5t41 -17t17 -42q0 -24 -18 -41.5t-42 -17.5z" />
    <glyph glyph-name="cedilla" unicode="&#xb8;" horiz-adv-x="240" 
d="M124 -220q-28 0 -54 5.5t-38 10.5l-12 6l21 41q27 -15 64 -15q27 0 40 10.5t13 24.5q0 27 -37 27q-9 0 -19 -2t-16 -4l-5 -3l-23 22l73 81h58l-47 -49q35 1 60.5 -15.5t25.5 -51.5q0 -43 -31.5 -65.5t-72.5 -22.5z" />
    <glyph glyph-name="guillemotright" unicode="&#xbb;" horiz-adv-x="564" 
d="M368 202l53 41l-30 34q-26 30 -53 83t-39 98l77 23q40 -111 106 -188l42 -49v-21l-64 -49q-118 -89 -175 -166l-64 43q50 77 147 151zM153 202l53 41l-30 34q-26 30 -53 83t-39 98l77 23q40 -111 106 -188l42 -49v-21l-64 -49q-118 -89 -175 -166l-64 43q50 77 147 151z
" />
    <glyph glyph-name="onequarter" unicode="&#xbc;" horiz-adv-x="749" 
d="M680 132l-7 -45h-78l-9 -45l-8 -52h-69l18 97h-159v32l224 269l60 -7l-49 -250zM119 0l-49 40q290 335 568 669l50 -38q-273 -312 -569 -671zM100 674l148 32h18l-74 -382h-69l62 319l-79 -5zM535 251l-104 -120h105l21 112l15 61h-2q-16 -30 -35 -53z" />
    <glyph glyph-name="onehalf" unicode="&#xbd;" horiz-adv-x="787" 
d="M119 0l-49 40q290 335 568 669l50 -38q-273 -312 -569 -671zM434 0v30l89 85q51 49 70.5 70t35 47t15.5 52q0 55 -75 55q-20 0 -41.5 -4.5t-33.5 -9.5l-12 -5v46q45 24 115 24q53 0 83.5 -25.5t30.5 -71.5q0 -21 -8.5 -42t-17 -35.5t-33 -39.5t-35.5 -35.5t-47 -42.5
l-56 -51l190 12l-5 -59h-265zM100 674l148 32h18l-74 -382h-69l62 319l-79 -5z" />
    <glyph glyph-name="threequarters" unicode="&#xbe;" horiz-adv-x="785" 
d="M719 132l-7 -45h-78l-9 -45l-8 -52h-69l18 97h-159v32l224 269l60 -7l-49 -250zM158 0l-49 40q290 335 568 669l50 -38q-273 -312 -569 -671zM153 499l6 46h24q41 0 64.5 20t23.5 51q0 46 -63 46q-15 0 -34 -4t-31 -8l-12 -3l3 47q37 16 93 16q58 0 88 -24.5t30 -63.5
q0 -35 -28 -63t-73 -38q34 -5 54.5 -25t20.5 -55q0 -52 -39.5 -86.5t-119.5 -34.5q-28 0 -54 5.5t-38 10.5l-13 6l15 45q33 -16 77 -16q100 0 100 69q0 59 -68 59h-26zM574 251l-104 -120h105l21 112l15 61h-2q-16 -30 -35 -53z" />
    <glyph glyph-name="questiondown" unicode="&#xbf;" horiz-adv-x="440" 
d="M182 -144q35 0 74.5 12t61.5 24l21 12l-14 -79q-7 -5 -21 -13t-60.5 -21.5t-96.5 -13.5q-79 0 -120 38.5t-41 98.5q0 41 17 76.5t42.5 58.5t55.5 44t55.5 36t42.5 32t17 33q0 22 -18 22q-12 0 -28 -12l-33 53q42 38 96 38q34 0 57 -21.5t23 -52.5q0 -35 -16.5 -64.5
t-41.5 -47.5t-54.5 -38.5t-54.5 -38.5t-41.5 -47.5t-16.5 -64.5q0 -29 25 -46.5t69 -17.5zM278 506q25 0 39.5 -15t14.5 -39q0 -32 -21 -53t-52 -21q-25 0 -39.5 15t-14.5 39q0 32 21 53t52 21z" />
    <glyph glyph-name="Agrave" unicode="&#xc0;" horiz-adv-x="566" 
d="M402 -4l-22 163h-252l-3 -8q-41 -97 -54 -151h-86q17 72 67 177l251 520l94 6l83 -583l22 -118zM281 494l-120 -264h209l-35 263l-11 102h-4q-18 -54 -39 -101zM386 809l-47 -34l-138 136l72 61z" />
    <glyph glyph-name="Aacute" unicode="&#xc1;" horiz-adv-x="566" 
d="M402 -4l-22 163h-252l-3 -8q-41 -97 -54 -151h-86q17 72 67 177l251 520l94 6l83 -583l22 -118zM281 494l-120 -264h209l-35 263l-11 102h-4q-18 -54 -39 -101zM334 784l-32 48l188 151l55 -79z" />
    <glyph glyph-name="Acircumflex" unicode="&#xc2;" horiz-adv-x="566" 
d="M402 -4l-22 163h-252l-3 -8q-41 -97 -54 -151h-86q17 72 67 177l251 520l94 6l83 -583l22 -118zM281 494l-120 -264h209l-35 263l-11 102h-4q-18 -54 -39 -101zM227 781l-36 48l172 122h31l121 -128l-45 -41l-103 77z" />
    <glyph glyph-name="Atilde" unicode="&#xc3;" horiz-adv-x="566" 
d="M402 -4l-22 163h-252l-3 -8q-41 -97 -54 -151h-86q17 72 67 177l251 520l94 6l83 -583l22 -118zM281 494l-120 -264h209l-35 263l-11 102h-4q-18 -54 -39 -101zM424 786q-39 0 -78 24t-56 24q-36 0 -59 -49l-63 16q17 50 46.5 81.5t66.5 31.5q35 0 72 -24t59 -24
q32 0 52 49l61 -16q-14 -51 -40 -82t-61 -31z" />
    <glyph glyph-name="Adieresis" unicode="&#xc4;" horiz-adv-x="566" 
d="M402 -4l-22 163h-252l-3 -8q-41 -97 -54 -151h-86q17 72 67 177l251 520l94 6l83 -583l22 -118zM281 494l-120 -264h209l-35 263l-11 102h-4q-18 -54 -39 -101zM252 784q-24 0 -39.5 16t-15.5 42t16.5 45.5t47.5 19.5q26 0 40.5 -15.5t14.5 -40.5q0 -28 -17 -47.5
t-47 -19.5zM445 784q-24 0 -39.5 16t-15.5 42t16.5 45.5t47.5 19.5q26 0 40.5 -15.5t14.5 -40.5q0 -28 -17.5 -47.5t-46.5 -19.5z" />
    <glyph glyph-name="Aring" unicode="&#xc5;" horiz-adv-x="566" 
d="M402 -4l-22 163h-252l-3 -8q-41 -97 -54 -151h-86q17 72 67 177l251 520l94 6l83 -583l22 -118zM281 494l-120 -264h209l-35 263l-11 102h-4q-18 -54 -39 -101zM364 819q23 0 38 15.5t15 38.5t-13.5 38.5t-36.5 15.5q-25 0 -40 -15.5t-15 -38.5q0 -24 14 -39t38 -15z
M361 762q-56 0 -88.5 28t-32.5 76q0 53 37.5 85.5t94.5 32.5q54 0 86.5 -29t32.5 -76q0 -53 -39 -85t-91 -32z" />
    <glyph glyph-name="AE" unicode="&#xc6;" horiz-adv-x="826" 
d="M318 0l28 159h-212l-5 -8q-58 -95 -83 -151h-90q31 74 100 177l351 523h431l-19 -79l-292 9l-42 -240l249 5l-20 -86l-242 8l-44 -246l301 9l-19 -80h-392zM362 519l-183 -289h179l69 390h-4q-31 -54 -61 -101z" />
    <glyph glyph-name="Ccedilla" unicode="&#xc7;" horiz-adv-x="567" 
d="M282 -211q-28 0 -54 5.5t-38 11.5l-12 5l21 41q27 -15 64 -15q27 0 40 10.5t13 24.5q0 27 -37 27q-9 0 -19 -2.5t-16 -4.5l-5 -2l-23 22l72 80q-106 11 -164.5 85t-58.5 198q0 110 49.5 211.5t133.5 164t179 62.5q31 0 59 -7t57 -18.5t45 -15.5l-28 -77q-17 4 -62 22
t-88 18q-64 0 -120.5 -51.5t-87.5 -129.5t-31 -157q0 -227 171 -227q34 0 67 5t49 9l15 5l5 -70q-44 -25 -134 -28l-44 -47q35 1 60.5 -15.5t25.5 -51.5q0 -43 -31.5 -65.5t-72.5 -22.5z" />
    <glyph glyph-name="Egrave" unicode="&#xc8;" horiz-adv-x="560" 
d="M52 0l105 598l12 102h403l-19 -79q-35 5 -91 6l-201 3l-42 -240l249 5l-20 -86l-242 8l-44 -246l215 4l86 5l-19 -80h-392zM418 808l-47 -34l-138 136l72 61z" />
    <glyph glyph-name="Eacute" unicode="&#xc9;" horiz-adv-x="560" 
d="M52 0l105 598l12 102h403l-19 -79q-35 5 -91 6l-201 3l-42 -240l249 5l-20 -86l-242 8l-44 -246l215 4l86 5l-19 -80h-392zM345 773l-32 48l188 151l55 -79z" />
    <glyph glyph-name="Ecircumflex" unicode="&#xca;" horiz-adv-x="560" 
d="M52 0l105 598l12 102h403l-19 -79q-35 5 -91 6l-201 3l-42 -240l249 5l-20 -86l-242 8l-44 -246l215 4l86 5l-19 -80h-392zM248 784l-36 48l172 122h31l121 -128l-45 -41l-103 77z" />
    <glyph glyph-name="Edieresis" unicode="&#xcb;" horiz-adv-x="560" 
d="M52 0l105 598l12 102h403l-19 -79q-35 5 -91 6l-201 3l-42 -240l249 5l-20 -86l-242 8l-44 -246l215 4l86 5l-19 -80h-392zM276 785q-24 0 -39.5 16t-15.5 42t16.5 45.5t47.5 19.5q26 0 40.5 -15.5t14.5 -40.5q0 -28 -17 -47.5t-47 -19.5zM469 785q-24 0 -39.5 16
t-15.5 42t16.5 45.5t47.5 19.5q26 0 40.5 -15.5t14.5 -40.5q0 -28 -17.5 -47.5t-46.5 -19.5z" />
    <glyph glyph-name="Igrave" unicode="&#xcc;" horiz-adv-x="305" 
d="M51 0l106 598l12 103l105 5l-108 -613l-12 -93h-103zM278 809l-47 -34l-138 136l72 61z" />
    <glyph glyph-name="Iacute" unicode="&#xcd;" horiz-adv-x="305" 
d="M51 0l106 598l12 103l105 5l-108 -613l-12 -93h-103zM225 772l-32 48l188 151l55 -79z" />
    <glyph glyph-name="Icircumflex" unicode="&#xce;" horiz-adv-x="305" 
d="M51 0l106 598l12 103l105 5l-108 -613l-12 -93h-103zM105 777l-36 48l172 122h31l121 -128l-45 -41l-103 77z" />
    <glyph glyph-name="Idieresis" unicode="&#xcf;" horiz-adv-x="305" 
d="M51 0l106 598l12 103l105 5l-108 -613l-12 -93h-103zM124 784q-24 0 -39.5 16t-15.5 42t16.5 45.5t47.5 19.5q26 0 40.5 -15.5t14.5 -40.5q0 -28 -17 -47.5t-47 -19.5zM317 784q-24 0 -39.5 16t-15.5 42t16.5 45.5t47.5 19.5q26 0 40.5 -15.5t14.5 -40.5
q0 -28 -17.5 -47.5t-46.5 -19.5z" />
    <glyph glyph-name="Eth" unicode="&#xd0;" horiz-adv-x="688" 
d="M27 315v74h96l37 209l12 102h167q152 0 231.5 -76.5t79.5 -200.5q0 -114 -52 -209.5t-152.5 -154.5t-230.5 -59h-160l55 315h-83zM306 628h-42l-43 -239h140v-74h-153l-43 -243h66q143 0 226.5 91.5t83.5 240.5q0 224 -235 224z" />
    <glyph glyph-name="Ntilde" unicode="&#xd1;" horiz-adv-x="700" 
d="M463 -10l-203 475l-35 101h-3q-2 -61 -10 -106l-64 -367l-12 -93h-85l106 598l12 103l87 5l201 -472q11 -25 20 -51.5t13 -40.5l4 -14l4 1q-1 52 8 104l65 365l12 103l87 5l-125 -706zM521 785q-39 0 -78 24t-56 24q-36 0 -59 -49l-63 16q17 50 46.5 81.5t66.5 31.5
q35 0 72 -24t59 -24q32 0 52 49l61 -16q-14 -51 -40 -82t-61 -31z" />
    <glyph glyph-name="Ograve" unicode="&#xd2;" horiz-adv-x="713" 
d="M315 60q89 0 154 79t86 199q12 54 8 108t-18 97t-47 70t-81 27q-89 0 -153 -79t-85 -199q-12 -54 -8.5 -108t16.5 -97t46.5 -70t81.5 -27zM292 -10q-88 0 -144.5 50.5t-74 127.5t-1.5 169q30 171 125.5 272t244.5 101q66 0 115.5 -31.5t73.5 -81t34 -111.5t-3 -123
q-30 -171 -125.5 -272t-244.5 -101zM465 809l-47 -34l-138 136l72 61z" />
    <glyph glyph-name="Oacute" unicode="&#xd3;" horiz-adv-x="713" 
d="M315 60q89 0 154 79t86 199q12 54 8 108t-18 97t-47 70t-81 27q-89 0 -153 -79t-85 -199q-12 -54 -8.5 -108t16.5 -97t46.5 -70t81.5 -27zM292 -10q-88 0 -144.5 50.5t-74 127.5t-1.5 169q30 171 125.5 272t244.5 101q66 0 115.5 -31.5t73.5 -81t34 -111.5t-3 -123
q-30 -171 -125.5 -272t-244.5 -101zM412 773l-32 48l188 151l55 -79z" />
    <glyph glyph-name="Ocircumflex" unicode="&#xd4;" horiz-adv-x="713" 
d="M315 60q89 0 154 79t86 199q12 54 8 108t-18 97t-47 70t-81 27q-89 0 -153 -79t-85 -199q-12 -54 -8.5 -108t16.5 -97t46.5 -70t81.5 -27zM292 -10q-88 0 -144.5 50.5t-74 127.5t-1.5 169q30 171 125.5 272t244.5 101q66 0 115.5 -31.5t73.5 -81t34 -111.5t-3 -123
q-30 -171 -125.5 -272t-244.5 -101zM302 784l-36 48l172 122h31l121 -128l-45 -41l-103 77z" />
    <glyph glyph-name="Otilde" unicode="&#xd5;" horiz-adv-x="713" 
d="M315 60q89 0 154 79t86 199q12 54 8 108t-18 97t-47 70t-81 27q-89 0 -153 -79t-85 -199q-12 -54 -8.5 -108t16.5 -97t46.5 -70t81.5 -27zM292 -10q-88 0 -144.5 50.5t-74 127.5t-1.5 169q30 171 125.5 272t244.5 101q66 0 115.5 -31.5t73.5 -81t34 -111.5t-3 -123
q-30 -171 -125.5 -272t-244.5 -101zM531 786q-39 0 -78 24t-56 24q-36 0 -59 -49l-63 16q17 50 46.5 81.5t66.5 31.5q35 0 72 -24t59 -24q32 0 52 49l61 -16q-14 -51 -40 -82t-61 -31z" />
    <glyph glyph-name="Odieresis" unicode="&#xd6;" horiz-adv-x="713" 
d="M315 60q89 0 154 79t86 199q12 54 8 108t-18 97t-47 70t-81 27q-89 0 -153 -79t-85 -199q-12 -54 -8.5 -108t16.5 -97t46.5 -70t81.5 -27zM292 -10q-88 0 -144.5 50.5t-74 127.5t-1.5 169q30 171 125.5 272t244.5 101q66 0 115.5 -31.5t73.5 -81t34 -111.5t-3 -123
q-30 -171 -125.5 -272t-244.5 -101zM357 785q-24 0 -39.5 16t-15.5 42t16.5 45.5t47.5 19.5q26 0 40.5 -15.5t14.5 -40.5q0 -28 -17 -47.5t-47 -19.5zM550 785q-24 0 -39.5 16t-15.5 42t16.5 45.5t47.5 19.5q26 0 40.5 -15.5t14.5 -40.5q0 -28 -17.5 -47.5t-46.5 -19.5z" />
    <glyph glyph-name="multiply" unicode="&#xd7;" horiz-adv-x="516" 
d="M73 87l-39 49l178 153l-108 153l53 43l106 -152l176 152l41 -51l-180 -153l108 -152l-52 -41l-107 149z" />
    <glyph glyph-name="Oslash" unicode="&#xd8;" horiz-adv-x="713" 
d="M128 -35l-59 42l48 65q-74 100 -45 265q30 171 125.5 272t244.5 101q72 0 126 -36l44 58l59 -43l-50 -67q69 -100 41 -259q-30 -171 -125.5 -272t-244.5 -101q-72 0 -121 32zM179 362q-22 -120 5 -200l329 438q-38 40 -103 40q-87 0 -148.5 -78.5t-82.5 -199.5zM324 60
q87 0 148.5 78.5t82.5 199.5q20 112 -3 192l-326 -435q37 -35 98 -35z" />
    <glyph glyph-name="Ugrave" unicode="&#xd9;" horiz-adv-x="697" 
d="M674 706l-80 -455q-21 -123 -94 -194t-202 -71q-126 0 -178.5 71t-30.5 195l61 346l12 103l105 5l-80 -455q-35 -190 128 -190q156 0 191 190l61 347l12 103zM475 808l-47 -34l-138 136l72 61z" />
    <glyph glyph-name="Uacute" unicode="&#xda;" horiz-adv-x="697" 
d="M674 706l-80 -455q-21 -123 -94 -194t-202 -71q-126 0 -178.5 71t-30.5 195l61 346l12 103l105 5l-80 -455q-35 -190 128 -190q156 0 191 190l61 347l12 103zM404 784l-32 48l188 151l55 -79z" />
    <glyph glyph-name="Ucircumflex" unicode="&#xdb;" horiz-adv-x="697" 
d="M674 706l-80 -455q-21 -123 -94 -194t-202 -71q-126 0 -178.5 71t-30.5 195l61 346l12 103l105 5l-80 -455q-35 -190 128 -190q156 0 191 190l61 347l12 103zM301 784l-36 48l172 122h31l121 -128l-45 -41l-103 77z" />
    <glyph glyph-name="Udieresis" unicode="&#xdc;" horiz-adv-x="697" 
d="M674 706l-80 -455q-21 -123 -94 -194t-202 -71q-126 0 -178.5 71t-30.5 195l61 346l12 103l105 5l-80 -455q-35 -190 128 -190q156 0 191 190l61 347l12 103zM336 785q-24 0 -39.5 16t-15.5 42t16.5 45.5t47.5 19.5q26 0 40.5 -15.5t14.5 -40.5q0 -28 -17 -47.5
t-47 -19.5zM529 785q-24 0 -39.5 16t-15.5 42t16.5 45.5t47.5 19.5q26 0 40.5 -15.5t14.5 -40.5q0 -28 -17.5 -47.5t-46.5 -19.5z" />
    <glyph glyph-name="Yacute" unicode="&#xdd;" horiz-adv-x="542" 
d="M170 0l49 278l-109 330l-36 92l104 5l116 -352l144 224q21 33 38 64t24 45l6 14h97q-33 -63 -100 -158l-185 -263l-33 -186l-12 -93h-103zM330 772l-32 48l188 151l55 -79z" />
    <glyph glyph-name="Thorn" unicode="&#xde;" horiz-adv-x="569" 
d="M273 700l-20 -114h64q103 0 164.5 -49.5t61.5 -141.5q0 -49 -21 -97.5t-58.5 -87.5t-95.5 -63t-125 -24h-72l-5 -30l-11 -93h-103l105 598l12 102h104zM290 514h-50l-56 -319h72q80 0 132.5 54.5t52.5 131.5q0 133 -151 133z" />
    <glyph glyph-name="germandbls" unicode="&#xdf;" horiz-adv-x="657" 
d="M404 -10q-35 0 -87 9.5t-71 11.5l26 82q20 -2 69 -13t76 -11q40 0 62 16.5t22 43.5q0 23 -18.5 41t-44.5 32t-52 30t-44.5 43.5t-18.5 64.5q0 40 19.5 72t47 52.5t55 39t47 43.5t19.5 56q0 39 -27 63t-77 24q-72 0 -105 -36t-48 -104l-97 -457l-15 -93h-98l92 432h-56v68
h71l10 47q22 103 88.5 158t173.5 55q89 0 137.5 -40.5t48.5 -109.5q0 -43 -20.5 -77t-49.5 -55.5t-57.5 -39.5t-49 -39.5t-20.5 -45.5q0 -19 18.5 -36t44.5 -31t52 -31t44.5 -46t18.5 -66q0 -68 -50 -110.5t-136 -42.5z" />
    <glyph glyph-name="agrave" unicode="&#xe0;" horiz-adv-x="538" 
d="M498 500l-88 -412l-15 -88h-88l8 84q-65 -58 -102 -76t-71 -18q-77 0 -99 89q-23 94 23 215q50 131 143 186q50 30 105 30q66 0 114 -39l49 35zM182 67q18 0 48 18.5t101 74.5l52 245q-22 43 -72 43q-73 0 -127 -107q-47 -94 -46 -189q2 -83 44 -85zM399 622l-47 -34
l-138 136l72 61z" />
    <glyph glyph-name="aacute" unicode="&#xe1;" horiz-adv-x="538" 
d="M498 500l-88 -412l-15 -88h-88l8 84q-65 -58 -102 -76t-71 -18q-77 0 -99 89q-23 94 23 215q50 131 143 186q50 30 105 30q66 0 114 -39l49 35zM182 67q18 0 48 18.5t101 74.5l52 245q-22 43 -72 43q-73 0 -127 -107q-47 -94 -46 -189q2 -83 44 -85zM331 585l-32 48
l188 151l55 -79z" />
    <glyph glyph-name="acircumflex" unicode="&#xe2;" horiz-adv-x="538" 
d="M498 500l-88 -412l-15 -88h-88l8 84q-65 -58 -102 -76t-71 -18q-77 0 -99 89q-23 94 23 215q50 131 143 186q50 30 105 30q66 0 114 -39l49 35zM182 67q18 0 48 18.5t101 74.5l52 245q-22 43 -72 43q-73 0 -127 -107q-47 -94 -46 -189q2 -83 44 -85zM224 592l-36 48
l172 122h31l121 -128l-45 -41l-103 77z" />
    <glyph glyph-name="atilde" unicode="&#xe3;" horiz-adv-x="538" 
d="M498 500l-88 -412l-15 -88h-88l8 84q-65 -58 -102 -76t-71 -18q-77 0 -99 89q-23 94 23 215q50 131 143 186q50 30 105 30q66 0 114 -39l49 35zM182 67q18 0 48 18.5t101 74.5l52 245q-22 43 -72 43q-73 0 -127 -107q-47 -94 -46 -189q2 -83 44 -85zM418 591
q-39 0 -78 24t-56 24q-36 0 -59 -49l-63 16q17 50 46.5 81.5t66.5 31.5q35 0 72 -24t59 -24q32 0 52 49l61 -16q-14 -51 -40 -82t-61 -31z" />
    <glyph glyph-name="adieresis" unicode="&#xe4;" horiz-adv-x="538" 
d="M498 500l-88 -412l-15 -88h-88l8 84q-65 -58 -102 -76t-71 -18q-77 0 -99 89q-23 94 23 215q50 131 143 186q50 30 105 30q66 0 114 -39l49 35zM182 67q18 0 48 18.5t101 74.5l52 245q-22 43 -72 43q-73 0 -127 -107q-47 -94 -46 -189q2 -83 44 -85zM245 589
q-24 0 -39.5 16t-15.5 42t16.5 45.5t47.5 19.5q26 0 40.5 -15.5t14.5 -40.5q0 -28 -17 -47.5t-47 -19.5zM438 589q-24 0 -39.5 16t-15.5 42t16.5 45.5t47.5 19.5q26 0 40.5 -15.5t14.5 -40.5q0 -28 -17.5 -47.5t-46.5 -19.5z" />
    <glyph glyph-name="aring" unicode="&#xe5;" horiz-adv-x="538" 
d="M498 500l-88 -412l-15 -88h-88l8 84q-65 -58 -102 -76t-71 -18q-77 0 -99 89q-23 94 23 215q50 131 143 186q50 30 105 30q66 0 114 -39l49 35zM182 67q18 0 48 18.5t101 74.5l52 245q-22 43 -72 43q-73 0 -127 -107q-47 -94 -46 -189q2 -83 44 -85zM356 648
q23 0 38 15.5t15 38.5t-13.5 38.5t-36.5 15.5q-25 0 -40 -15t-15 -39t14 -39t38 -15zM353 591q-56 0 -88.5 28t-32.5 76q0 53 37.5 85.5t94.5 32.5q54 0 86.5 -29t32.5 -76q0 -53 -39 -85t-91 -32z" />
    <glyph glyph-name="ae" unicode="&#xe6;" horiz-adv-x="784" 
d="M690 70q-102 -80 -181 -80q-64 0 -104 39t-51 107q-43 -55 -102.5 -100.5t-109.5 -45.5q-77 0 -99 89q-23 94 23 215q50 131 143 186q50 30 105 30q66 0 105 -45l38 41l21 -6l-6 -37q61 47 135 47q62 0 97 -29.5t35 -74.5q0 -87 -94 -121l-200 -75q-1 -10 -1 -29
q0 -61 29.5 -87.5t68.5 -26.5q57 0 148 65v-62zM182 67q54 0 164 152l35 176q-19 53 -70 53q-73 0 -127 -107q-47 -94 -46 -189q2 -83 44 -85zM585 444q-47 0 -82 -48t-50 -122l119 45q64 24 64 77q0 20 -14 34t-37 14z" />
    <glyph glyph-name="ccedilla" unicode="&#xe7;" horiz-adv-x="458" 
d="M162 -207q-28 0 -54 5.5t-38 11.5l-12 5l21 41q27 -15 64 -15q27 0 40 10.5t13 24.5q0 27 -37 27q-9 0 -19 -2.5t-16 -4.5l-5 -2l-23 22l70 78q-59 11 -90 61.5t-31 129.5q0 135 79 230t177 95q25 0 46.5 -5t46.5 -14.5t36 -12.5l-31 -81q-19 6 -50 25t-51 19
q-64 0 -108.5 -79.5t-44.5 -180.5q0 -61 24.5 -87.5t58.5 -26.5q58 0 147 65v-62q-90 -70 -154 -78l-41 -44q35 1 60.5 -15.5t25.5 -51.5q0 -43 -31.5 -65.5t-72.5 -22.5z" />
    <glyph glyph-name="egrave" unicode="&#xe8;" horiz-adv-x="479" 
d="M380 70q-104 -80 -186 -80q-74 0 -114.5 53t-37.5 142q5 138 83.5 231.5t185.5 93.5q63 0 96.5 -29.5t31.5 -81.5q-2 -48 -39 -80t-130 -64l-126 -43q-2 -22 -2 -31q-2 -61 24 -87.5t64 -26.5q57 0 150 65v-62zM286 444q-47 0 -81 -47t-51 -121l67 25q71 27 92.5 46.5
t22.5 48.5q1 20 -13 34t-37 14zM352 622l-47 -34l-138 136l72 61z" />
    <glyph glyph-name="eacute" unicode="&#xe9;" horiz-adv-x="479" 
d="M380 70q-104 -80 -186 -80q-74 0 -114.5 53t-37.5 142q5 138 83.5 231.5t185.5 93.5q63 0 96.5 -29.5t31.5 -81.5q-2 -48 -39 -80t-130 -64l-126 -43q-2 -22 -2 -31q-2 -61 24 -87.5t64 -26.5q57 0 150 65v-62zM286 444q-47 0 -81 -47t-51 -121l67 25q71 27 92.5 46.5
t22.5 48.5q1 20 -13 34t-37 14zM282 590l-32 48l188 151l55 -79z" />
    <glyph glyph-name="ecircumflex" unicode="&#xea;" horiz-adv-x="479" 
d="M380 70q-104 -80 -186 -80q-74 0 -114.5 53t-37.5 142q5 138 83.5 231.5t185.5 93.5q63 0 96.5 -29.5t31.5 -81.5q-2 -48 -39 -80t-130 -64l-126 -43q-2 -22 -2 -31q-2 -61 24 -87.5t64 -26.5q57 0 150 65v-62zM286 444q-47 0 -81 -47t-51 -121l67 25q71 27 92.5 46.5
t22.5 48.5q1 20 -13 34t-37 14zM189 589l-36 48l172 122h31l121 -128l-45 -41l-103 77z" />
    <glyph glyph-name="edieresis" unicode="&#xeb;" horiz-adv-x="479" 
d="M380 70q-104 -80 -186 -80q-74 0 -114.5 53t-37.5 142q5 138 83.5 231.5t185.5 93.5q63 0 96.5 -29.5t31.5 -81.5q-2 -48 -39 -80t-130 -64l-126 -43q-2 -22 -2 -31q-2 -61 24 -87.5t64 -26.5q57 0 150 65v-62zM286 444q-47 0 -81 -47t-51 -121l67 25q71 27 92.5 46.5
t22.5 48.5q1 20 -13 34t-37 14zM218 589q-24 0 -39.5 16t-15.5 42t16.5 45.5t47.5 19.5q26 0 40.5 -15.5t14.5 -40.5q0 -28 -17 -47.5t-47 -19.5zM411 589q-24 0 -39.5 16t-15.5 42t16.5 45.5t47.5 19.5q26 0 40.5 -15.5t14.5 -40.5q0 -28 -17.5 -47.5t-46.5 -19.5z" />
    <glyph glyph-name="igrave" unicode="&#xec;" horiz-adv-x="266" 
d="M128 500l99 3l-108 -503h-94l90 423zM218 621l-47 -34l-138 136l72 61z" />
    <glyph glyph-name="iacute" unicode="&#xed;" horiz-adv-x="266" 
d="M128 500l99 3l-108 -503h-94l90 423zM171 590l-32 48l188 151l55 -79z" />
    <glyph glyph-name="icircumflex" unicode="&#xee;" horiz-adv-x="266" 
d="M128 500l99 3l-108 -503h-94l90 423zM66 590l-36 48l172 122h31l121 -128l-45 -41l-103 77z" />
    <glyph glyph-name="idieresis" unicode="&#xef;" horiz-adv-x="266" 
d="M128 500l99 3l-108 -503h-94l90 423zM87 590q-24 0 -39.5 16t-15.5 42t16.5 45.5t47.5 19.5q26 0 40.5 -15.5t14.5 -40.5q0 -28 -17 -47.5t-47 -19.5zM280 590q-24 0 -39.5 16t-15.5 42t16.5 45.5t47.5 19.5q26 0 40.5 -15.5t14.5 -40.5q0 -28 -17.5 -47.5t-46.5 -19.5z
" />
    <glyph glyph-name="eth" unicode="&#xf0;" horiz-adv-x="537" 
d="M189 525l-35 50l90 68q-45 33 -105 57l24 56q78 -31 138 -70l90 68l36 -50l-76 -57q124 -115 124 -323q0 -57 -15 -113.5t-44 -107t-81 -82t-118 -31.5q-82 0 -127 52t-45 139q0 117 59.5 199.5t168.5 82.5q53 0 93 -27q-17 100 -75 165zM232 52q65 0 104 77.5t39 194.5
q0 20 -1 30q-37 39 -95 39q-68 0 -101 -63.5t-33 -150.5q0 -127 87 -127z" />
    <glyph glyph-name="ntilde" unicode="&#xf1;" horiz-adv-x="530" 
d="M393 0h-98l77 364q10 48 -10 59.5t-63 -16.5l-108 -70l-72 -337h-94l90 423l13 77l99 3l-19 -90l104 71q37 26 72 26q54 0 74 -41t7 -105l-58 -276zM407 591q-39 0 -78 24t-56 24q-36 0 -59 -49l-63 16q17 50 46.5 81.5t66.5 31.5q35 0 72 -24t59 -24q32 0 52 49l61 -16
q-14 -51 -40 -82t-61 -31z" />
    <glyph glyph-name="ograve" unicode="&#xf2;" horiz-adv-x="527" 
d="M295 448q-42 0 -73 -29.5t-47 -76t-23.5 -91.5t-7.5 -88q0 -61 17 -86t57 -25q36 0 64 23.5t43.5 57t25.5 75.5t13 74.5t3 58.5q0 55 -16.5 81t-55.5 26zM469 336q0 -58 -17 -117t-48.5 -111t-85 -85t-118.5 -33q-74 0 -116 46t-42 131q0 79 28.5 155.5t92 132
t148.5 55.5q74 0 116 -46t42 -128zM355 621l-47 -34l-138 136l72 61z" />
    <glyph glyph-name="oacute" unicode="&#xf3;" horiz-adv-x="527" 
d="M295 448q-42 0 -73 -29.5t-47 -76t-23.5 -91.5t-7.5 -88q0 -61 17 -86t57 -25q36 0 64 23.5t43.5 57t25.5 75.5t13 74.5t3 58.5q0 55 -16.5 81t-55.5 26zM469 336q0 -58 -17 -117t-48.5 -111t-85 -85t-118.5 -33q-74 0 -116 46t-42 131q0 79 28.5 155.5t92 132
t148.5 55.5q74 0 116 -46t42 -128zM290 589l-32 48l188 151l55 -79z" />
    <glyph glyph-name="ocircumflex" unicode="&#xf4;" horiz-adv-x="527" 
d="M295 448q-42 0 -73 -29.5t-47 -76t-23.5 -91.5t-7.5 -88q0 -61 17 -86t57 -25q36 0 64 23.5t43.5 57t25.5 75.5t13 74.5t3 58.5q0 55 -16.5 81t-55.5 26zM469 336q0 -58 -17 -117t-48.5 -111t-85 -85t-118.5 -33q-74 0 -116 46t-42 131q0 79 28.5 155.5t92 132
t148.5 55.5q74 0 116 -46t42 -128zM192 590l-36 48l172 122h31l121 -128l-45 -41l-103 77z" />
    <glyph glyph-name="otilde" unicode="&#xf5;" horiz-adv-x="527" 
d="M295 448q-42 0 -73 -29.5t-47 -76t-23.5 -91.5t-7.5 -88q0 -61 17 -86t57 -25q36 0 64 23.5t43.5 57t25.5 75.5t13 74.5t3 58.5q0 55 -16.5 81t-55.5 26zM469 336q0 -58 -17 -117t-48.5 -111t-85 -85t-118.5 -33q-74 0 -116 46t-42 131q0 79 28.5 155.5t92 132
t148.5 55.5q74 0 116 -46t42 -128zM395 591q-39 0 -78 24t-56 24q-36 0 -59 -49l-63 16q17 50 46.5 81.5t66.5 31.5q35 0 72 -24t59 -24q32 0 52 49l61 -16q-14 -51 -40 -82t-61 -31z" />
    <glyph glyph-name="odieresis" unicode="&#xf6;" horiz-adv-x="527" 
d="M295 448q-42 0 -73 -29.5t-47 -76t-23.5 -91.5t-7.5 -88q0 -61 17 -86t57 -25q36 0 64 23.5t43.5 57t25.5 75.5t13 74.5t3 58.5q0 55 -16.5 81t-55.5 26zM469 336q0 -58 -17 -117t-48.5 -111t-85 -85t-118.5 -33q-74 0 -116 46t-42 131q0 79 28.5 155.5t92 132
t148.5 55.5q74 0 116 -46t42 -128zM222 589q-24 0 -39.5 16t-15.5 42t16.5 45.5t47.5 19.5q26 0 40.5 -15.5t14.5 -40.5q0 -28 -17 -47.5t-47 -19.5zM415 589q-24 0 -39.5 16t-15.5 42t16.5 45.5t47.5 19.5q26 0 40.5 -15.5t14.5 -40.5q0 -28 -17.5 -47.5t-46.5 -19.5z" />
    <glyph glyph-name="divide" unicode="&#xf7;" horiz-adv-x="556" 
d="M65 248v74h421v-74h-421zM292 396q-25 0 -39.5 15t-14.5 39q0 32 21 53t52 21q25 0 39.5 -15t14.5 -39q0 -32 -21 -53t-52 -21zM233 49q-25 0 -39.5 15t-14.5 39q0 32 21 53t52 21q25 0 39.5 -15t14.5 -39q0 -32 -21 -53t-52 -21z" />
    <glyph glyph-name="oslash" unicode="&#xf8;" horiz-adv-x="544" 
d="M82 -78l-63 37l66 95q-36 49 -36 127q0 58 16 114.5t46 105.5t81 79t114 30q45 0 83 -19l58 84l63 -38l-66 -94q34 -48 34 -120q0 -83 -26.5 -156.5t-87 -125t-143.5 -51.5q-44 0 -80 17zM150 196q0 -32 2 -46l194 280q-19 18 -53 18q-38 0 -67 -25.5t-45 -65.5
t-23.5 -81t-7.5 -80zM378 312q0 23 -1 34l-193 -277q18 -17 52 -17q38 0 67.5 28t44.5 70.5t22.5 84t7.5 77.5z" />
    <glyph glyph-name="ugrave" unicode="&#xf9;" horiz-adv-x="530" 
d="M122 500h98l-77 -364q-10 -48 10 -59.5t63 16.5l107 69l73 338h94l-90 -423l-13 -77l-89 -1l8 87l-103 -70q-37 -26 -72 -26q-54 0 -74 41t-7 105l58 276zM356 621l-47 -34l-138 136l72 61z" />
    <glyph glyph-name="uacute" unicode="&#xfa;" horiz-adv-x="530" 
d="M122 500h98l-77 -364q-10 -48 10 -59.5t63 16.5l107 69l73 338h94l-90 -423l-13 -77l-89 -1l8 87l-103 -70q-37 -26 -72 -26q-54 0 -74 41t-7 105l58 276zM307 589l-32 48l188 151l55 -79z" />
    <glyph glyph-name="ucircumflex" unicode="&#xfb;" horiz-adv-x="530" 
d="M122 500h98l-77 -364q-10 -48 10 -59.5t63 16.5l107 69l73 338h94l-90 -423l-13 -77l-89 -1l8 87l-103 -70q-37 -26 -72 -26q-54 0 -74 41t-7 105l58 276zM188 590l-36 48l172 122h31l121 -128l-45 -41l-103 77z" />
    <glyph glyph-name="udieresis" unicode="&#xfc;" horiz-adv-x="530" 
d="M122 500h98l-77 -364q-10 -48 10 -59.5t63 16.5l107 69l73 338h94l-90 -423l-13 -77l-89 -1l8 87l-103 -70q-37 -26 -72 -26q-54 0 -74 41t-7 105l58 276zM225 589q-24 0 -39.5 16t-15.5 42t16.5 45.5t47.5 19.5q26 0 40.5 -15.5t14.5 -40.5q0 -28 -17 -47.5t-47 -19.5z
M418 589q-24 0 -39.5 16t-15.5 42t16.5 45.5t47.5 19.5q26 0 40.5 -15.5t14.5 -40.5q0 -28 -17.5 -47.5t-46.5 -19.5z" />
    <glyph glyph-name="yacute" unicode="&#xfd;" horiz-adv-x="479" 
d="M244 -3q-11 -13 -43.5 -51.5t-46.5 -55t-40.5 -46.5t-50.5 -54t-50 -49l-63 69q34 30 107.5 88t105.5 89l-90 428l-20 85l97 5l85 -432q111 165 106 427h93q8 -269 -190 -503zM245 586l-32 48l188 151l55 -79z" />
    <glyph glyph-name="thorn" unicode="&#xfe;" horiz-adv-x="539" 
d="M120 12l-38 -174l-15 -88h-98l201 924l13 77l99 3l-74 -340q65 59 103 77.5t76 18.5q72 0 93 -87q22 -93 -22 -215q-49 -132 -142 -188q-50 -30 -106 -30q-48 0 -90 22zM342 429q-20 0 -51 -18t-100 -73l-52 -238q22 -48 74 -48q74 0 126 108q46 93 45 187q-2 81 -42 82z
" />
    <glyph glyph-name="ydieresis" unicode="&#xff;" horiz-adv-x="479" 
d="M244 -3q-11 -13 -43.5 -51.5t-46.5 -55t-40.5 -46.5t-50.5 -54t-50 -49l-63 69q34 30 107.5 88t105.5 89l-90 428l-20 85l97 5l85 -432q111 165 106 427h93q8 -269 -190 -503zM159 588q-24 0 -39.5 16t-15.5 42t16.5 45.5t47.5 19.5q26 0 40.5 -15.5t14.5 -40.5
q0 -28 -17 -47.5t-47 -19.5zM352 588q-24 0 -39.5 16t-15.5 42t16.5 45.5t47.5 19.5q26 0 40.5 -15.5t14.5 -40.5q0 -28 -17.5 -47.5t-46.5 -19.5z" />
    <glyph glyph-name="Amacron" unicode="&#x100;" horiz-adv-x="566" 
d="M402 -4l-22 163h-252l-3 -8q-41 -97 -54 -151h-86q17 72 67 177l251 520l94 6l83 -583l22 -118zM281 494l-120 -264h209l-35 263l-11 102h-4q-18 -54 -39 -101zM209 800v74h274v-74h-274z" />
    <glyph glyph-name="amacron" unicode="&#x101;" horiz-adv-x="538" 
d="M498 500l-88 -412l-15 -88h-88l8 84q-65 -58 -102 -76t-71 -18q-77 0 -99 89q-23 94 23 215q50 131 143 186q50 30 105 30q66 0 114 -39l49 35zM182 67q18 0 48 18.5t101 74.5l52 245q-22 43 -72 43q-73 0 -127 -107q-47 -94 -46 -189q2 -83 44 -85zM206 602v74h274v-74
h-274z" />
    <glyph glyph-name="Abreve" unicode="&#x102;" horiz-adv-x="566" 
d="M402 -4l-22 163h-252l-3 -8q-41 -97 -54 -151h-86q17 72 67 177l251 520l94 6l83 -583l22 -118zM281 494l-120 -264h209l-35 263l-11 102h-4q-18 -54 -39 -101zM343 784q-62 0 -97 37.5t-35 106.5h60q8 -68 83 -68q70 0 112 74l50 -23q-60 -127 -173 -127z" />
    <glyph glyph-name="abreve" unicode="&#x103;" horiz-adv-x="538" 
d="M498 500l-88 -412l-15 -88h-88l8 84q-65 -58 -102 -76t-71 -18q-77 0 -99 89q-23 94 23 215q50 131 143 186q50 30 105 30q66 0 114 -39l49 35zM182 67q18 0 48 18.5t101 74.5l52 245q-22 43 -72 43q-73 0 -127 -107q-47 -94 -46 -189q2 -83 44 -85zM341 589
q-62 0 -97 37.5t-35 106.5h60q8 -68 83 -68q70 0 112 74l50 -23q-60 -127 -173 -127z" />
    <glyph glyph-name="Aogonek" unicode="&#x104;" horiz-adv-x="566" 
d="M397 -190q-44 0 -68.5 20t-24.5 53q0 52 59 89l39 24l-22 163h-252l-3 -8q-41 -97 -54 -151h-86q17 72 67 177l251 520l94 6l83 -583l22 -118l-18 -1l-50 -33q-51 -33 -51 -68q0 -36 47 -36q16 0 32 4t24 8l9 4v-46q-39 -24 -98 -24zM281 494l-120 -264h209l-35 263
l-11 102h-4q-18 -54 -39 -101z" />
    <glyph glyph-name="aogonek" unicode="&#x105;" horiz-adv-x="538" 
d="M303 -194q-44 0 -68.5 20t-24.5 53q0 52 59 89l51 32h-13l8 84q-65 -58 -102 -76t-71 -18q-77 0 -99 89q-23 94 23 215q50 131 143 186q50 30 105 30q66 0 114 -39l49 35l21 -6l-88 -412l-15 -88l-55 -36q-51 -33 -51 -68q0 -36 47 -36q16 0 32 4t24 8l9 4v-46
q-39 -24 -98 -24zM182 67q18 0 48 18.5t101 74.5l52 245q-22 43 -72 43q-73 0 -127 -107q-47 -94 -46 -189q2 -83 44 -85z" />
    <glyph glyph-name="Cacute" unicode="&#x106;" horiz-adv-x="566" 
d="M409 635q-64 0 -120.5 -51.5t-87.5 -129.5t-31 -157q0 -227 171 -227q34 0 67 5t48 9l16 5l5 -70q-49 -29 -153 -29q-123 0 -191.5 75t-68.5 210q0 110 49.5 211.5t133.5 164t179 62.5q31 0 59 -7t57 -18.5t45 -15.5l-28 -77q-17 4 -62 22t-88 18zM377 784l-32 48
l188 151l55 -79z" />
    <glyph glyph-name="cacute" unicode="&#x107;" horiz-adv-x="456" 
d="M297 441q-64 0 -108.5 -79.5t-44.5 -180.5q0 -61 24.5 -87.5t58.5 -26.5q58 0 147 65v-62q-103 -80 -174 -80q-75 0 -115.5 52.5t-40.5 142.5q0 135 79 230t177 95q25 0 46.5 -5t46.5 -14.5t36 -12.5l-31 -81q-19 6 -50 25t-51 19zM260 589l-32 48l188 151l55 -79z" />
    <glyph glyph-name="Ccircumflex" unicode="&#x108;" horiz-adv-x="566" 
d="M409 635q-64 0 -120.5 -51.5t-87.5 -129.5t-31 -157q0 -227 171 -227q34 0 67 5t48 9l16 5l5 -70q-49 -29 -153 -29q-123 0 -191.5 75t-68.5 210q0 110 49.5 211.5t133.5 164t179 62.5q31 0 59 -7t57 -18.5t45 -15.5l-28 -77q-17 4 -62 22t-88 18zM291 784l-36 48
l172 122h31l121 -128l-45 -41l-103 77z" />
    <glyph glyph-name="ccircumflex" unicode="&#x109;" horiz-adv-x="456" 
d="M297 441q-64 0 -108.5 -79.5t-44.5 -180.5q0 -61 24.5 -87.5t58.5 -26.5q58 0 147 65v-62q-103 -80 -174 -80q-75 0 -115.5 52.5t-40.5 142.5q0 135 79 230t177 95q25 0 46.5 -5t46.5 -14.5t36 -12.5l-31 -81q-19 6 -50 25t-51 19zM172 589l-36 48l172 122h31l121 -128
l-45 -41l-103 77z" />
    <glyph glyph-name="Cdotaccent" unicode="&#x10a;" horiz-adv-x="566" 
d="M409 635q-64 0 -120.5 -51.5t-87.5 -129.5t-31 -157q0 -227 171 -227q34 0 67 5t48 9l16 5l5 -70q-49 -29 -153 -29q-123 0 -191.5 75t-68.5 210q0 110 49.5 211.5t133.5 164t179 62.5q31 0 59 -7t57 -18.5t45 -15.5l-28 -77q-17 4 -62 22t-88 18zM418 785
q-24 0 -40 15.5t-16 38.5q0 27 18.5 45.5t47.5 18.5q23 0 38.5 -16t15.5 -39q0 -26 -18.5 -44.5t-45.5 -18.5z" />
    <glyph glyph-name="cdotaccent" unicode="&#x10b;" horiz-adv-x="456" 
d="M297 441q-64 0 -108.5 -79.5t-44.5 -180.5q0 -61 24.5 -87.5t58.5 -26.5q58 0 147 65v-62q-103 -80 -174 -80q-75 0 -115.5 52.5t-40.5 142.5q0 135 79 230t177 95q25 0 46.5 -5t46.5 -14.5t36 -12.5l-31 -81q-19 6 -50 25t-51 19zM305 589q-24 0 -40 15.5t-16 38.5
q0 27 18.5 45.5t47.5 18.5q23 0 38.5 -16t15.5 -39q0 -26 -18.5 -44.5t-45.5 -18.5z" />
    <glyph glyph-name="Ccaron" unicode="&#x10c;" horiz-adv-x="566" 
d="M409 635q-64 0 -120.5 -51.5t-87.5 -129.5t-31 -157q0 -227 171 -227q34 0 67 5t48 9l16 5l5 -70q-49 -29 -153 -29q-123 0 -191.5 75t-68.5 210q0 110 49.5 211.5t133.5 164t179 62.5q31 0 59 -7t57 -18.5t45 -15.5l-28 -77q-17 4 -62 22t-88 18zM583 951l36 -48
l-168 -118h-38l-118 124l45 41l102 -78z" />
    <glyph glyph-name="ccaron" unicode="&#x10d;" horiz-adv-x="456" 
d="M297 441q-64 0 -108.5 -79.5t-44.5 -180.5q0 -61 24.5 -87.5t58.5 -26.5q58 0 147 65v-62q-103 -80 -174 -80q-75 0 -115.5 52.5t-40.5 142.5q0 135 79 230t177 95q25 0 46.5 -5t46.5 -14.5t36 -12.5l-31 -81q-19 6 -50 25t-51 19zM442 770l36 -48l-168 -118h-38
l-118 124l45 41l102 -78z" />
    <glyph glyph-name="Dcaron" unicode="&#x10e;" horiz-adv-x="684" 
d="M52 0l105 598l12 102h167q152 0 231.5 -76.5t79.5 -200.5q0 -114 -52 -209.5t-152.5 -154.5t-230.5 -59h-160zM303 628h-42l-99 -556h66q143 0 226.5 91.5t83.5 240.5q0 224 -235 224zM530 951l36 -48l-168 -118h-38l-118 124l45 41l102 -78z" />
    <glyph glyph-name="dcaron" unicode="&#x10f;" horiz-adv-x="591" 
d="M551 750l-141 -662l-15 -88h-88l8 85q-65 -58 -102 -76.5t-71 -18.5q-77 0 -99 89q-23 94 23 215q50 131 143 186q50 30 105 30q48 0 87 -21l38 181l13 77zM182 67q19 0 49.5 18.5t99.5 74.5l52 244q-22 44 -72 44q-73 0 -127 -107q-47 -94 -46 -189q2 -83 44 -85z
M584 483l-35 38q66 49 92 126q-22 0 -37.5 12.5t-15.5 37.5q0 26 18.5 46t45.5 20q60 0 60 -68q0 -48 -36.5 -110t-91.5 -102z" />
    <glyph glyph-name="Dcroat" unicode="&#x110;" horiz-adv-x="688" 
d="M27 315v74h96l37 209l12 102h167q152 0 231.5 -76.5t79.5 -200.5q0 -114 -52 -209.5t-152.5 -154.5t-230.5 -59h-160l55 315h-83zM306 628h-42l-43 -239h140v-74h-153l-43 -243h66q143 0 226.5 91.5t83.5 240.5q0 224 -235 224z" />
    <glyph glyph-name="dcroat" unicode="&#x111;" horiz-adv-x="539" 
d="M551 750l-22 -102h72v-69h-86l-105 -491l-15 -88h-88l8 85q-65 -58 -102 -76.5t-71 -18.5q-77 0 -99 89q-23 94 23 215q50 131 143 186q50 30 105 30q48 0 87 -21l19 90h-133v69h147l5 22l13 77zM182 67q19 0 49.5 18.5t99.5 74.5l52 244q-22 44 -72 44q-73 0 -127 -107
q-47 -94 -46 -189q2 -83 44 -85z" />
    <glyph glyph-name="Emacron" unicode="&#x112;" horiz-adv-x="560" 
d="M52 0l105 598l12 102h403l-19 -79q-35 5 -91 6l-201 3l-42 -240l249 5l-20 -86l-242 8l-44 -246l215 4l86 5l-19 -80h-392zM240 799v74h274v-74h-274z" />
    <glyph glyph-name="emacron" unicode="&#x113;" horiz-adv-x="480" 
d="M381 70q-104 -80 -186 -80q-74 0 -114.5 53t-37.5 142q5 138 83.5 231.5t185.5 93.5q63 0 96.5 -29.5t31.5 -81.5q-2 -48 -39 -80t-130 -64l-126 -43q-2 -22 -2 -31q-2 -61 24 -87.5t64 -26.5q57 0 150 65v-62zM287 444q-47 0 -81 -47t-51 -121l67 25q71 27 92.5 46.5
t22.5 48.5q1 20 -13 34t-37 14zM168 603v74h274v-74h-274z" />
    <glyph glyph-name="Ebreve" unicode="&#x114;" horiz-adv-x="560" 
d="M52 0l105 598l12 102h403l-19 -79q-35 5 -91 6l-201 3l-42 -240l249 5l-20 -86l-242 8l-44 -246l215 4l86 5l-19 -80h-392zM382 785q-62 0 -97 37.5t-35 106.5h60q8 -68 83 -68q70 0 112 74l50 -23q-60 -127 -173 -127z" />
    <glyph glyph-name="ebreve" unicode="&#x115;" horiz-adv-x="480" 
d="M381 70q-104 -80 -186 -80q-74 0 -114.5 53t-37.5 142q5 138 83.5 231.5t185.5 93.5q63 0 96.5 -29.5t31.5 -81.5q-2 -48 -39 -80t-130 -64l-126 -43q-2 -22 -2 -31q-2 -61 24 -87.5t64 -26.5q57 0 150 65v-62zM287 444q-47 0 -81 -47t-51 -121l67 25q71 27 92.5 46.5
t22.5 48.5q1 20 -13 34t-37 14zM303 588q-62 0 -97 37.5t-35 106.5h60q8 -68 83 -68q70 0 112 74l50 -23q-60 -127 -173 -127z" />
    <glyph glyph-name="Edotaccent" unicode="&#x116;" horiz-adv-x="560" 
d="M52 0l105 598l12 102h403l-19 -79q-35 5 -91 6l-201 3l-42 -240l249 5l-20 -86l-242 8l-44 -246l215 4l86 5l-19 -80h-392zM385 785q-24 0 -40 15.5t-16 38.5q0 27 18.5 45.5t47.5 18.5q23 0 38.5 -16t15.5 -39q0 -26 -18.5 -44.5t-45.5 -18.5z" />
    <glyph glyph-name="edotaccent" unicode="&#x117;" horiz-adv-x="480" 
d="M381 70q-104 -80 -186 -80q-74 0 -114.5 53t-37.5 142q5 138 83.5 231.5t185.5 93.5q63 0 96.5 -29.5t31.5 -81.5q-2 -48 -39 -80t-130 -64l-126 -43q-2 -22 -2 -31q-2 -61 24 -87.5t64 -26.5q57 0 150 65v-62zM287 444q-47 0 -81 -47t-51 -121l67 25q71 27 92.5 46.5
t22.5 48.5q1 20 -13 34t-37 14zM310 589q-24 0 -40 15.5t-16 38.5q0 27 18.5 45.5t47.5 18.5q23 0 38.5 -16t15.5 -39q0 -26 -18.5 -44.5t-45.5 -18.5z" />
    <glyph glyph-name="Eogonek" unicode="&#x118;" horiz-adv-x="560" 
d="M52 0l105 598l12 102h403l-19 -79q-35 5 -91 6l-201 3l-42 -240l249 5l-20 -86l-242 8l-44 -246l215 4l86 5l-19 -80l-55 -36q-51 -33 -51 -68q0 -36 47 -36q16 0 32.5 4t24.5 8l8 4v-46q-39 -24 -98 -24q-44 0 -68.5 20t-24.5 53q0 52 59 89l51 32h-317z" />
    <glyph glyph-name="eogonek" unicode="&#x119;" horiz-adv-x="480" 
d="M194 -185q-44 0 -68.5 20t-24.5 53q0 52 59 89l21 14q-68 4 -104.5 56.5t-33.5 137.5q5 138 83.5 231.5t185.5 93.5q63 0 96.5 -29.5t31.5 -81.5q-2 -48 -39 -80t-130 -64l-126 -43q-2 -22 -2 -31q-2 -61 24 -87.5t64 -26.5q57 0 150 65v-62q-51 -39 -95 -60v-1l-55 -36
q-51 -33 -51 -68q0 -36 47 -36q16 0 32.5 4t24.5 8l8 4v-46q-39 -24 -98 -24zM287 444q-47 0 -81 -47t-51 -121l67 25q71 27 92.5 46.5t22.5 48.5q1 20 -13 34t-37 14z" />
    <glyph glyph-name="Ecaron" unicode="&#x11a;" horiz-adv-x="560" 
d="M52 0l105 598l12 102h403l-19 -79q-35 5 -91 6l-201 3l-42 -240l249 5l-20 -86l-242 8l-44 -246l215 4l86 5l-19 -80h-392zM537 951l36 -48l-168 -118h-38l-118 124l45 41l102 -78z" />
    <glyph glyph-name="ecaron" unicode="&#x11b;" horiz-adv-x="480" 
d="M381 70q-104 -80 -186 -80q-74 0 -114.5 53t-37.5 142q5 138 83.5 231.5t185.5 93.5q63 0 96.5 -29.5t31.5 -81.5q-2 -48 -39 -80t-130 -64l-126 -43q-2 -22 -2 -31q-2 -61 24 -87.5t64 -26.5q57 0 150 65v-62zM287 444q-47 0 -81 -47t-51 -121l67 25q71 27 92.5 46.5
t22.5 48.5q1 20 -13 34t-37 14zM437 771l36 -48l-168 -118h-38l-118 124l45 41l102 -78z" />
    <glyph glyph-name="Gcircumflex" unicode="&#x11c;" horiz-adv-x="641" 
d="M445 635q-118 0 -197.5 -98t-79.5 -252q0 -100 44 -159t139 -59q20 0 38.5 2t26.5 4l8 2l30 134l16 103l99 5l-64 -302q-69 -25 -152 -25q-141 0 -217 74.5t-76 203.5q0 113 48 213.5t143 166t216 65.5q40 0 68.5 -7t56 -18t46.5 -16l-28 -77q-12 3 -62.5 21.5
t-102.5 18.5zM323 779l-36 48l172 122h31l121 -128l-45 -41l-103 77z" />
    <glyph glyph-name="gcircumflex" unicode="&#x11d;" horiz-adv-x="539" 
d="M498 500l-107 -505q-24 -115 -78.5 -184.5t-144.5 -69.5q-41 0 -70.5 6.5t-69.5 22t-60 21.5l33 82q35 -10 88 -40.5t86 -30.5q42 0 68 34.5t41 106.5l30 140q-64 -57 -101 -75t-71 -18q-77 0 -99 89q-23 94 23 215q50 131 143 186q50 30 105 30q66 0 114 -39l49 35z
M182 67q18 0 48 18.5t100 74.5l53 245q-22 43 -72 43q-73 0 -127 -107q-47 -94 -46 -189q2 -83 44 -85zM217 589l-36 48l172 122h31l121 -128l-45 -41l-103 77z" />
    <glyph glyph-name="Gbreve" unicode="&#x11e;" horiz-adv-x="641" 
d="M445 635q-118 0 -197.5 -98t-79.5 -252q0 -100 44 -159t139 -59q20 0 38.5 2t26.5 4l8 2l30 134l16 103l99 5l-64 -302q-69 -25 -152 -25q-141 0 -217 74.5t-76 203.5q0 113 48 213.5t143 166t216 65.5q40 0 68.5 -7t56 -18t46.5 -16l-28 -77q-12 3 -62.5 21.5
t-102.5 18.5zM443 785q-62 0 -97 37.5t-35 106.5h60q8 -68 83 -68q70 0 112 74l50 -23q-60 -127 -173 -127z" />
    <glyph glyph-name="gbreve" unicode="&#x11f;" horiz-adv-x="539" 
d="M498 500l-107 -505q-24 -115 -78.5 -184.5t-144.5 -69.5q-41 0 -70.5 6.5t-69.5 22t-60 21.5l33 82q35 -10 88 -40.5t86 -30.5q42 0 68 34.5t41 106.5l30 140q-64 -57 -101 -75t-71 -18q-77 0 -99 89q-23 94 23 215q50 131 143 186q50 30 105 30q66 0 114 -39l49 35z
M182 67q18 0 48 18.5t100 74.5l53 245q-22 43 -72 43q-73 0 -127 -107q-47 -94 -46 -189q2 -83 44 -85zM328 589q-62 0 -97 37.5t-35 106.5h60q8 -68 83 -68q70 0 112 74l50 -23q-60 -127 -173 -127z" />
    <glyph glyph-name="Gdotaccent" unicode="&#x120;" horiz-adv-x="641" 
d="M445 635q-118 0 -197.5 -98t-79.5 -252q0 -100 44 -159t139 -59q20 0 38.5 2t26.5 4l8 2l30 134l16 103l99 5l-64 -302q-69 -25 -152 -25q-141 0 -217 74.5t-76 203.5q0 113 48 213.5t143 166t216 65.5q40 0 68.5 -7t56 -18t46.5 -16l-28 -77q-12 3 -62.5 21.5
t-102.5 18.5zM435 786q-24 0 -40 15.5t-16 38.5q0 27 18.5 45.5t47.5 18.5q23 0 38.5 -16t15.5 -39q0 -26 -18.5 -44.5t-45.5 -18.5z" />
    <glyph glyph-name="gdotaccent" unicode="&#x121;" horiz-adv-x="539" 
d="M498 500l-107 -505q-24 -115 -78.5 -184.5t-144.5 -69.5q-41 0 -70.5 6.5t-69.5 22t-60 21.5l33 82q35 -10 88 -40.5t86 -30.5q42 0 68 34.5t41 106.5l30 140q-64 -57 -101 -75t-71 -18q-77 0 -99 89q-23 94 23 215q50 131 143 186q50 30 105 30q66 0 114 -39l49 35z
M182 67q18 0 48 18.5t100 74.5l53 245q-22 43 -72 43q-73 0 -127 -107q-47 -94 -46 -189q2 -83 44 -85zM358 592q-24 0 -40 15.5t-16 38.5q0 27 18.5 45.5t47.5 18.5q23 0 38.5 -16t15.5 -39q0 -26 -18.5 -44.5t-45.5 -18.5z" />
    <glyph glyph-name="Gcommaaccent" unicode="&#x122;" horiz-adv-x="642" 
d="M445 635q-118 0 -197.5 -98t-79.5 -252q0 -100 44 -159t139 -59q20 0 38.5 2t26.5 4l8 2l30 134l16 103l99 5l-64 -302q-69 -25 -152 -25q-141 0 -217 74.5t-76 203.5q0 113 48 213.5t143 166t216 65.5q40 0 68.5 -7t56 -18t46.5 -16l-28 -77q-12 3 -62.5 21.5
t-102.5 18.5zM258 -315l-36 39q61 41 79 104q-24 0 -42 13t-18 39q0 28 17.5 47t47.5 19q31 0 46.5 -19t15.5 -49q0 -50 -29 -103t-81 -90z" />
    <glyph glyph-name="gcommaaccent" unicode="&#x123;" horiz-adv-x="539" 
d="M421 856l38 -42q-77 -55 -93 -102q60 0 60 -53q0 -31 -20.5 -50.5t-49.5 -19.5q-30 0 -48 20t-18 53q0 52 34 104.5t97 89.5zM498 500l-107 -505q-24 -115 -78.5 -184.5t-144.5 -69.5q-41 0 -70.5 6.5t-69.5 22t-60 21.5l33 82q35 -10 88 -40.5t86 -30.5q42 0 68 34.5
t41 106.5l30 140q-64 -57 -101 -75t-71 -18q-77 0 -99 89q-23 94 23 215q50 131 143 186q50 30 105 30q66 0 114 -39l49 35zM182 67q18 0 48 18.5t100 74.5l53 245q-22 43 -72 43q-73 0 -127 -107q-47 -94 -46 -189q2 -83 44 -85z" />
    <glyph glyph-name="Hcircumflex" unicode="&#x124;" horiz-adv-x="717" 
d="M463 0l58 325h-314l-41 -232l-12 -93h-103l106 598l12 103l105 5l-54 -307h314l35 199l12 103l105 5l-108 -613l-12 -93h-103zM304 785l-36 48l172 122h31l121 -128l-45 -41l-103 77z" />
    <glyph glyph-name="hcircumflex" unicode="&#x125;" horiz-adv-x="530" 
d="M393 0h-98l77 364q10 48 -10 59.5t-63 -16.5l-108 -70l-72 -337h-94l142 670l13 77l99 3l-72 -337l105 71q37 26 72 26q54 0 74 -41t7 -105l-58 -276zM104 797l-36 48l172 122h31l121 -128l-45 -41l-103 77z" />
    <glyph glyph-name="Hbar" unicode="&#x126;" horiz-adv-x="722" 
d="M72 505v64h82l5 29l12 103l105 5l-24 -137h314l5 29l12 103l105 5l-24 -137h70v-64h-82l-72 -412l-12 -93h-103l58 325h-314l-41 -232l-12 -93h-103l89 505h-70zM222 399h314l18 106h-314z" />
    <glyph glyph-name="hbar" unicode="&#x127;" horiz-adv-x="530" 
d="M44 569v74h117l6 27l13 77l99 3l-23 -107h122v-74h-138l-33 -156l105 71q37 26 72 26q54 0 74 -41t7 -105l-58 -276l-14 -88h-98l77 364q10 48 -10 59.5t-63 -16.5l-108 -70l-72 -337h-94l120 569h-101z" />
    <glyph glyph-name="Itilde" unicode="&#x128;" horiz-adv-x="305" 
d="M51 0l106 598l12 103l105 5l-108 -613l-12 -93h-103zM307 786q-39 0 -78 24t-56 24q-36 0 -59 -49l-63 16q17 50 46.5 81.5t66.5 31.5q35 0 72 -24t59 -24q32 0 52 49l61 -16q-14 -51 -40 -82t-61 -31z" />
    <glyph glyph-name="itilde" unicode="&#x129;" horiz-adv-x="266" 
d="M128 500l99 3l-108 -503h-94l90 423zM258 591q-39 0 -78 24t-56 24q-36 0 -59 -49l-63 16q17 50 46.5 81.5t66.5 31.5q35 0 72 -24t59 -24q32 0 52 49l61 -16q-14 -51 -40 -82t-61 -31z" />
    <glyph glyph-name="Imacron" unicode="&#x12a;" horiz-adv-x="305" 
d="M51 0l106 598l12 103l105 5l-108 -613l-12 -93h-103zM90 806v74h274v-74h-274z" />
    <glyph glyph-name="imacron" unicode="&#x12b;" horiz-adv-x="266" 
d="M128 500l99 3l-108 -503h-94l90 423zM49 602v74h274v-74h-274z" />
    <glyph glyph-name="Ibreve" unicode="&#x12c;" horiz-adv-x="305" 
d="M51 0l106 598l12 103l105 5l-108 -613l-12 -93h-103zM232 786q-62 0 -97 37.5t-35 106.5h60q8 -68 83 -68q70 0 112 74l50 -23q-60 -127 -173 -127z" />
    <glyph glyph-name="ibreve" unicode="&#x12d;" horiz-adv-x="266" 
d="M128 500l99 3l-108 -503h-94l90 423zM179 589q-62 0 -97 37.5t-35 106.5h60q8 -68 83 -68q70 0 112 74l50 -23q-60 -127 -173 -127z" />
    <glyph glyph-name="Iogonek" unicode="&#x12e;" horiz-adv-x="305" 
d="M51 0l106 598l12 103l105 5l-108 -613q-5 -32 -12 -91v-2l-55 -36q-51 -33 -51 -68q0 -36 47 -36q16 0 32.5 4t24.5 8l8 4v-46q-39 -24 -98 -24q-44 0 -68.5 20t-24.5 53q0 52 59 89l51 32h-28z" />
    <glyph glyph-name="iogonek" unicode="&#x12f;" horiz-adv-x="266" 
d="M28 -192q-44 0 -68.5 20t-24.5 53q0 52 59 89l48 30h-17l90 423l13 77l99 3l-107 -499v-2l-1 -1v-1h-2l-52 -34q-51 -33 -51 -68q0 -36 47 -36q16 0 32.5 4t24.5 8l8 4v-46q-39 -24 -98 -24zM198 601q-24 0 -39.5 16t-15.5 42t16.5 45.5t47.5 19.5q24 0 39.5 -16
t15.5 -42t-16.5 -45.5t-47.5 -19.5z" />
    <glyph glyph-name="Idotaccent" unicode="&#x130;" horiz-adv-x="305" 
d="M51 0l106 598l12 103l105 5l-108 -613l-12 -93h-103zM236 786q-24 0 -40 15.5t-16 38.5q0 27 18.5 45.5t47.5 18.5q23 0 38.5 -16t15.5 -39q0 -26 -18.5 -44.5t-45.5 -18.5z" />
    <glyph glyph-name="dotlessi" unicode="&#x131;" horiz-adv-x="266" 
d="M128 500l99 3l-108 -503h-94l90 423z" />
    <glyph glyph-name="IJ" unicode="&#x132;" horiz-adv-x="601" 
d="M51 0l106 598l12 103l105 5l-108 -613l-12 -93h-103zM365 90l89 508l12 103l105 5l-108 -615q-11 -61 -38 -114q-18 -33 -43.5 -63.5t-67 -70t-53.5 -52.5l-52 49q13 14 46.5 47t51.5 56t30 50q17 38 28 97z" />
    <glyph glyph-name="ij" unicode="&#x133;" horiz-adv-x="523" 
d="M128 500l99 3l-108 -503h-94l90 423zM198 601q-24 0 -39.5 16t-15.5 42t16.5 45.5t47.5 19.5q24 0 39.5 -16t15.5 -42t-16.5 -45.5t-47.5 -19.5zM483 505l-101 -479q-11 -51 -34.5 -94t-44.5 -65.5t-61.5 -61.5t-61.5 -62l-47 49q18 22 50 55.5t47.5 52t33 52t25.5 74.5
l78 371l16 103zM454 601q-24 0 -39.5 16t-15.5 42t16.5 45.5t47.5 19.5q24 0 39.5 -16t15.5 -42t-16.5 -45.5t-47.5 -19.5z" />
    <glyph glyph-name="Jcircumflex" unicode="&#x134;" horiz-adv-x="304" 
d="M68 90l89 508l12 103l105 5l-108 -615q-11 -61 -38 -114q-18 -33 -43.5 -63.5t-67 -70t-53.5 -52.5l-52 49q13 14 46.5 47t51.5 56t30 50q17 38 28 97zM89 784l-36 48l172 122h31l121 -128l-45 -41l-103 77z" />
    <glyph glyph-name="jcircumflex" unicode="&#x135;" horiz-adv-x="265" 
d="M225 505l-101 -479q-16 -70 -47 -119q-20 -32 -54 -66.5t-101 -97.5l-41 44q9 8 28.5 27t26.5 26.5t19.5 21.5t21 25.5t16.5 26.5q20 37 38 112l78 371l16 103zM48 589l-36 48l172 122h31l121 -128l-45 -41l-103 77z" />
    <glyph glyph-name="Kcommaaccent" unicode="&#x136;" horiz-adv-x="599" 
d="M52 0l105 598l12 103l105 5l-54 -305h48q82 90 133 149.5t68 82t49 67.5h101q-92 -122 -291 -329l168 -290q11 -20 24.5 -40t21.5 -31l7 -10l-115 -5l-184 334h-43l-41 -236l-11 -93h-103zM231 -306l-36 39q61 41 79 104q-24 0 -42 13t-18 39q0 28 17.5 47t47.5 19
q31 0 46.5 -19t15.5 -49q0 -50 -29 -103t-81 -90z" />
    <glyph glyph-name="kcommaaccent" unicode="&#x137;" horiz-adv-x="490" 
d="M407 0l-103 -5l-134 246l-32 -153l-15 -88h-98l142 670l13 77l99 3l-104 -487q163 165 217 237h108q-79 -93 -235 -245l85 -159zM153 -309l-36 39q61 41 79 104q-24 0 -42 13t-18 39q0 28 17.5 47t47.5 19q31 0 46.5 -19t15.5 -49q0 -50 -29 -103t-81 -90z" />
    <glyph glyph-name="Lacute" unicode="&#x139;" horiz-adv-x="526" 
d="M472 80l-19 -80h-402l106 598l12 102l105 5l-112 -634l214 3q27 0 51 1.5t35 2.5zM221 785l-32 48l188 151l55 -79z" />
    <glyph glyph-name="lacute" unicode="&#x13a;" horiz-adv-x="275" 
d="M283 750l-141 -662l-15 -88h-98l142 670l13 77zM229 801l-32 48l188 151l55 -79z" />
    <glyph glyph-name="Lcommaaccent" unicode="&#x13b;" horiz-adv-x="525" 
d="M472 80l-19 -80h-402l106 598l12 102l105 5l-112 -634l214 3q27 0 51 1.5t35 2.5zM206 -306l-36 39q61 41 79 104q-24 0 -42 13t-18 39q0 28 17.5 47t47.5 19q31 0 46.5 -19t15.5 -49q0 -50 -29 -103t-81 -90z" />
    <glyph glyph-name="lcommaaccent" unicode="&#x13c;" horiz-adv-x="275" 
d="M283 750l-141 -662l-15 -88h-98l142 670l13 77zM13 -313l-36 39q61 41 79 104q-24 0 -42 13t-18 39q0 28 17.5 47t47.5 19q31 0 46.5 -19t15.5 -49q0 -50 -29 -103t-81 -90z" />
    <glyph glyph-name="Lcaron" unicode="&#x13d;" horiz-adv-x="528" 
d="M472 80l-19 -80h-402l106 598l12 102l105 5l-112 -634l214 3q27 0 51 1.5t35 2.5zM405 420l-36 40q70 55 96 134q-23 0 -39 12.5t-16 39.5t19 48.5t47 21.5q63 0 63 -73q0 -50 -38 -115.5t-96 -107.5z" />
    <glyph glyph-name="lcaron" unicode="&#x13e;" horiz-adv-x="330" 
d="M283 750l-141 -662l-15 -88h-98l142 670l13 77zM329 486l-35 38q66 49 92 126q-22 0 -37.5 12.5t-15.5 37.5q0 26 18.5 46t45.5 20q60 0 60 -68q0 -48 -36.5 -110t-91.5 -102z" />
    <glyph glyph-name="Ldot" unicode="&#x13f;" horiz-adv-x="608" 
d="M516 320q-24 0 -38 17t-10 42q4 24 25.5 41.5t45.5 17.5t38 -17t10 -42q-4 -24 -25.5 -41.5t-45.5 -17.5zM472 80l-19 -80h-402l106 598l12 102l105 5l-112 -634l214 3q27 0 51 1.5t35 2.5z" />
    <glyph glyph-name="ldot" unicode="&#x140;" horiz-adv-x="366" 
d="M325 320q-21 0 -34.5 12.5t-13.5 32.5q0 29 21 51t50 22q21 0 34 -13.5t13 -33.5q0 -29 -20 -50t-50 -21zM283 750l-141 -662l-15 -88h-98l142 670l13 77z" />
    <glyph glyph-name="Lslash" unicode="&#x141;" horiz-adv-x="533" 
d="M24 200l-35 63l129 73l47 262l12 102l105 5l-55 -308l87 49l35 -62l-138 -78l-41 -235l214 3q27 0 51 1.5t35 2.5l10 2l-19 -80h-402l43 244z" />
    <glyph glyph-name="lslash" unicode="&#x142;" horiz-adv-x="357" 
d="M225 320l-49 -232l-15 -88h-98l55 261l-86 -48l-32 60l137 76l68 321l13 77l99 3l-73 -342l87 48l32 -59z" />
    <glyph glyph-name="Nacute" unicode="&#x143;" horiz-adv-x="700" 
d="M463 -10l-203 475l-35 101h-3q-2 -61 -10 -106l-64 -367l-12 -93h-85l106 598l12 103l87 5l201 -472q11 -25 20 -51.5t13 -40.5l4 -14l4 1q-1 52 8 104l65 365l12 103l87 5l-125 -706zM425 786l-32 48l188 151l55 -79z" />
    <glyph glyph-name="nacute" unicode="&#x144;" horiz-adv-x="530" 
d="M393 0h-98l77 364q10 48 -10 59.5t-63 -16.5l-108 -70l-72 -337h-94l90 423l13 77l99 3l-19 -90l104 71q37 26 72 26q54 0 74 -41t7 -105l-58 -276zM291 589l-32 48l188 151l55 -79z" />
    <glyph glyph-name="Ncommaaccent" unicode="&#x145;" horiz-adv-x="700" 
d="M463 -10l-203 475l-35 101h-3q-2 -61 -10 -106l-64 -367l-12 -93h-85l106 598l12 103l87 5l201 -472q11 -25 20 -51.5t13 -40.5l4 -14l4 1q-1 52 8 104l65 365l12 103l87 5l-125 -706zM241 -313l-36 39q61 41 79 104q-24 0 -42 13t-18 39q0 28 17.5 47t47.5 19
q31 0 46.5 -19t15.5 -49q0 -50 -29 -103t-81 -90z" />
    <glyph glyph-name="ncommaaccent" unicode="&#x146;" horiz-adv-x="530" 
d="M393 0h-98l77 364q10 48 -10 59.5t-63 -16.5l-108 -70l-72 -337h-94l90 423l13 77l99 3l-19 -90l104 71q37 26 72 26q54 0 74 -41t7 -105l-58 -276zM159 -312l-36 39q61 41 79 104q-24 0 -42 13t-18 39q0 28 17.5 47t47.5 19q31 0 46.5 -19t15.5 -49q0 -50 -29 -103
t-81 -90z" />
    <glyph glyph-name="Ncaron" unicode="&#x147;" horiz-adv-x="700" 
d="M463 -10l-203 475l-35 101h-3q-2 -61 -10 -106l-64 -367l-12 -93h-85l106 598l12 103l87 5l201 -472q11 -25 20 -51.5t13 -40.5l4 -14l4 1q-1 52 8 104l65 365l12 103l87 5l-125 -706zM582 968l36 -48l-168 -118h-38l-118 124l45 41l102 -78z" />
    <glyph glyph-name="ncaron" unicode="&#x148;" horiz-adv-x="530" 
d="M393 0h-98l77 364q10 48 -10 59.5t-63 -16.5l-108 -70l-72 -337h-94l90 423l13 77l99 3l-19 -90l104 71q37 26 72 26q54 0 74 -41t7 -105l-58 -276zM468 771l36 -48l-168 -118h-38l-118 124l45 41l102 -78z" />
    <glyph glyph-name="Eng" unicode="&#x14a;" horiz-adv-x="700" 
d="M318 -165q12 14 49.5 49.5t58 63t29.5 60.5l-203 477l-25 71h-3q-4 -51 -8 -77l-68 -386l-12 -93h-85l106 598l12 103l87 5l211 -495l24 -73l4 1q2 42 9 82l67 377l12 103l87 5l-108 -615q-11 -61 -38 -114q-18 -37 -44 -67.5t-68.5 -69.5t-52.5 -49z" />
    <glyph glyph-name="eng" unicode="&#x14b;" horiz-adv-x="529" 
d="M465 364l-58 -276q-20 -100 -63 -161t-147 -150l-39 34q71 92 104 146.5t47 108.5l63 298q10 48 -10 59.5t-63 -16.5l-108 -70l-72 -337h-94l90 423l13 77l99 3l-19 -90l104 71q37 26 72 26q54 0 74 -41t7 -105z" />
    <glyph glyph-name="Omacron" unicode="&#x14c;" horiz-adv-x="713" 
d="M315 60q89 0 154 79t86 199q12 54 8 108t-18 97t-47 70t-81 27q-89 0 -153 -79t-85 -199q-12 -54 -8.5 -108t16.5 -97t46.5 -70t81.5 -27zM292 -10q-88 0 -144.5 50.5t-74 127.5t-1.5 169q30 171 125.5 272t244.5 101q66 0 115.5 -31.5t73.5 -81t34 -111.5t-3 -123
q-30 -171 -125.5 -272t-244.5 -101zM306 785v74h274v-74h-274z" />
    <glyph glyph-name="omacron" unicode="&#x14d;" horiz-adv-x="527" 
d="M295 448q-42 0 -73 -29.5t-47 -76t-23.5 -91.5t-7.5 -88q0 -61 17 -86t57 -25q36 0 64 23.5t43.5 57t25.5 75.5t13 74.5t3 58.5q0 55 -16.5 81t-55.5 26zM469 336q0 -58 -17 -117t-48.5 -111t-85 -85t-118.5 -33q-74 0 -116 46t-42 131q0 79 28.5 155.5t92 132
t148.5 55.5q74 0 116 -46t42 -128zM169 604v74h274v-74h-274z" />
    <glyph glyph-name="Obreve" unicode="&#x14e;" horiz-adv-x="713" 
d="M315 60q89 0 154 79t86 199q12 54 8 108t-18 97t-47 70t-81 27q-89 0 -153 -79t-85 -199q-12 -54 -8.5 -108t16.5 -97t46.5 -70t81.5 -27zM292 -10q-88 0 -144.5 50.5t-74 127.5t-1.5 169q30 171 125.5 272t244.5 101q66 0 115.5 -31.5t73.5 -81t34 -111.5t-3 -123
q-30 -171 -125.5 -272t-244.5 -101zM446 786q-62 0 -97 37.5t-35 106.5h60q8 -68 83 -68q70 0 112 74l50 -23q-60 -127 -173 -127z" />
    <glyph glyph-name="obreve" unicode="&#x14f;" horiz-adv-x="527" 
d="M295 448q-42 0 -73 -29.5t-47 -76t-23.5 -91.5t-7.5 -88q0 -61 17 -86t57 -25q36 0 64 23.5t43.5 57t25.5 75.5t13 74.5t3 58.5q0 55 -16.5 81t-55.5 26zM469 336q0 -58 -17 -117t-48.5 -111t-85 -85t-118.5 -33q-74 0 -116 46t-42 131q0 79 28.5 155.5t92 132
t148.5 55.5q74 0 116 -46t42 -128zM309 590q-62 0 -97 37.5t-35 106.5h60q8 -68 83 -68q70 0 112 74l50 -23q-60 -127 -173 -127z" />
    <glyph glyph-name="Ohungarumlaut" unicode="&#x150;" horiz-adv-x="713" 
d="M315 60q89 0 154 79t86 199q12 54 8 108t-18 97t-47 70t-81 27q-89 0 -153 -79t-85 -199q-12 -54 -8.5 -108t16.5 -97t46.5 -70t81.5 -27zM292 -10q-88 0 -144.5 50.5t-74 127.5t-1.5 169q30 171 125.5 272t244.5 101q66 0 115.5 -31.5t73.5 -81t34 -111.5t-3 -123
q-30 -171 -125.5 -272t-244.5 -101zM325 785l-36 45l177 165l60 -75zM523 785l-36 45l177 165l60 -75z" />
    <glyph glyph-name="ohungarumlaut" unicode="&#x151;" horiz-adv-x="527" 
d="M295 448q-42 0 -73 -29.5t-47 -76t-23.5 -91.5t-7.5 -88q0 -61 17 -86t57 -25q36 0 64 23.5t43.5 57t25.5 75.5t13 74.5t3 58.5q0 55 -16.5 81t-55.5 26zM469 336q0 -58 -17 -117t-48.5 -111t-85 -85t-118.5 -33q-74 0 -116 46t-42 131q0 79 28.5 155.5t92 132
t148.5 55.5q74 0 116 -46t42 -128zM187 598l-36 45l177 165l60 -75zM385 598l-36 45l177 165l60 -75z" />
    <glyph glyph-name="OE" unicode="&#x152;" horiz-adv-x="977" 
d="M469 0l6 35q-76 -45 -172 -45q-117 0 -177 75t-60 191q0 65 14.5 129t45.5 123t75 103.5t106.5 71.5t136.5 27q84 0 142 -41l6 31h397l-19 -79l-292 9l-42 -240l249 5l-20 -86l-242 8l-44 -246l301 9l-19 -80h-392zM325 60q92 0 168 81l77 434q-55 65 -135 65
q-83 0 -144 -54t-90.5 -138t-29.5 -183q0 -91 37 -148t117 -57z" />
    <glyph glyph-name="oe" unicode="&#x153;" horiz-adv-x="798" 
d="M704 70q-102 -80 -181 -80q-94 0 -130 84q-69 -84 -177 -84q-78 0 -125 50.5t-47 140.5q0 58 16 114.5t46 105.5t81 79t114 30q105 0 149 -85q71 85 171 85q62 0 97 -29.5t35 -74.5q0 -87 -94 -121l-194 -72q-1 -11 -1 -32q0 -61 27 -87.5t65 -26.5q57 0 148 65v-62z
M145 196q0 -78 20.5 -111t65.5 -33q38 0 67.5 28t44.5 70.5t22.5 84t7.5 77.5q0 72 -19.5 104t-65.5 32q-38 0 -67 -25.5t-45 -65.5t-23.5 -81t-7.5 -80zM599 444q-47 0 -79.5 -47t-46.5 -120l113 42q64 24 64 77q0 20 -14 34t-37 14z" />
    <glyph glyph-name="Racute" unicode="&#x154;" horiz-adv-x="605" 
d="M51 0l106 598l12 102h166q112 0 169 -52t57 -142q0 -77 -45.5 -131.5t-125.5 -81.5l94 -217l38 -76l-108 -5l-109 272h-109l-30 -174l-12 -93h-103zM308 628h-48l-51 -290h72q81 0 131 47t50 121q0 122 -154 122zM331 786l-32 48l188 151l55 -79z" />
    <glyph glyph-name="racute" unicode="&#x155;" horiz-adv-x="417" 
d="M128 500l99 3l-24 -113q45 67 73.5 93.5t54.5 26.5q17 0 31 -6t33 -17.5t33 -17.5l-45 -88q-16 6 -40.5 21t-35.5 15q-25 0 -53 -30.5t-74 -99.5l-61 -287h-94l90 423zM259 590l-32 48l188 151l55 -79z" />
    <glyph glyph-name="Rcommaaccent" unicode="&#x156;" horiz-adv-x="605" 
d="M51 0l106 598l12 102h166q112 0 169 -52t57 -142q0 -77 -45.5 -131.5t-125.5 -81.5l94 -217l38 -76l-108 -5l-109 272h-109l-30 -174l-12 -93h-103zM308 628h-48l-51 -290h72q81 0 131 47t50 121q0 122 -154 122zM223 -315l-36 39q61 41 79 104q-24 0 -42 13t-18 39
q0 28 17.5 47t47.5 19q31 0 46.5 -19t15.5 -49q0 -50 -29 -103t-81 -90z" />
    <glyph glyph-name="rcommaaccent" unicode="&#x157;" horiz-adv-x="418" 
d="M128 500l99 3l-24 -113q45 67 73.5 93.5t54.5 26.5q17 0 31 -6t33 -17.5t33 -17.5l-45 -88q-16 6 -40.5 21t-35.5 15q-25 0 -53 -30.5t-74 -99.5l-61 -287h-94l90 423zM7 -314l-36 39q61 41 79 104q-24 0 -42 13t-18 39q0 28 17.5 47t47.5 19q31 0 46.5 -19t15.5 -49
q0 -50 -29 -103t-81 -90z" />
    <glyph glyph-name="Rcaron" unicode="&#x158;" horiz-adv-x="605" 
d="M51 0l106 598l12 102h166q112 0 169 -52t57 -142q0 -77 -45.5 -131.5t-125.5 -81.5l94 -217l38 -76l-108 -5l-109 272h-109l-30 -174l-12 -93h-103zM308 628h-48l-51 -290h72q81 0 131 47t50 121q0 122 -154 122zM500 967l36 -48l-168 -118h-38l-118 124l45 41l102 -78z
" />
    <glyph glyph-name="rcaron" unicode="&#x159;" horiz-adv-x="417" 
d="M128 500l99 3l-24 -113q45 67 73.5 93.5t54.5 26.5q17 0 31 -6t33 -17.5t33 -17.5l-45 -88q-16 6 -40.5 21t-35.5 15q-25 0 -53 -30.5t-74 -99.5l-61 -287h-94l90 423zM435 771l36 -48l-168 -118h-38l-118 124l45 41l102 -78z" />
    <glyph glyph-name="Sacute" unicode="&#x15a;" horiz-adv-x="505" 
d="M319 713q37 0 66 -7t56 -18.5t43 -15.5l-28 -77q-17 3 -64 21.5t-89 18.5q-50 0 -80.5 -28t-30.5 -71q0 -32 18 -60t44.5 -47.5t57.5 -44.5t57.5 -49t44.5 -61.5t18 -81.5q0 -92 -64.5 -147t-173.5 -55q-54 0 -96 6t-57 12l-15 7l14 77q49 -23 155 -23q64 0 105 28t41 81
q0 38 -25 70.5t-60 58t-70.5 53t-60.5 69t-25 93.5q0 79 58 135t161 56zM296 786l-32 48l188 151l55 -79z" />
    <glyph glyph-name="sacute" unicode="&#x15b;" horiz-adv-x="420" 
d="M164 -8q-32 0 -59 3t-58 8.5t-48 7.5l25 82q20 -2 64.5 -15.5t79.5 -13.5q37 0 56.5 17.5t19.5 48.5q0 25 -16.5 46.5t-40 38.5t-47 36t-40 48.5t-16.5 67.5q0 62 40 102.5t113 40.5q23 0 45 -3.5t32 -6t38 -11.5t37 -12l-31 -81q-23 6 -60 23t-66 17q-27 0 -43 -16.5
t-16 -42.5q0 -25 16.5 -46t40.5 -38.5t47.5 -37t40 -50.5t16.5 -70q0 -71 -47 -107t-123 -36zM252 590l-32 48l188 151l55 -79z" />
    <glyph glyph-name="Scircumflex" unicode="&#x15c;" horiz-adv-x="505" 
d="M319 713q37 0 66 -7t56 -18.5t43 -15.5l-28 -77q-17 3 -64 21.5t-89 18.5q-50 0 -80.5 -28t-30.5 -71q0 -32 18 -60t44.5 -47.5t57.5 -44.5t57.5 -49t44.5 -61.5t18 -81.5q0 -92 -64.5 -147t-173.5 -55q-54 0 -96 6t-57 12l-15 7l14 77q49 -23 155 -23q64 0 105 28t41 81
q0 38 -25 70.5t-60 58t-70.5 53t-60.5 69t-25 93.5q0 79 58 135t161 56zM213 785l-36 48l172 122h31l121 -128l-45 -41l-103 77z" />
    <glyph glyph-name="scircumflex" unicode="&#x15d;" horiz-adv-x="420" 
d="M164 -8q-32 0 -59 3t-58 8.5t-48 7.5l25 82q20 -2 64.5 -15.5t79.5 -13.5q37 0 56.5 17.5t19.5 48.5q0 25 -16.5 46.5t-40 38.5t-47 36t-40 48.5t-16.5 67.5q0 62 40 102.5t113 40.5q23 0 45 -3.5t32 -6t38 -11.5t37 -12l-31 -81q-23 6 -60 23t-66 17q-27 0 -43 -16.5
t-16 -42.5q0 -25 16.5 -46t40.5 -38.5t47.5 -37t40 -50.5t16.5 -70q0 -71 -47 -107t-123 -36zM130 590l-36 48l172 122h31l121 -128l-45 -41l-103 77z" />
    <glyph glyph-name="Scedilla" unicode="&#x15e;" horiz-adv-x="506" 
d="M320 713q37 0 66 -7t56 -18.5t43 -15.5l-28 -77q-17 3 -64 21.5t-89 18.5q-50 0 -80.5 -28t-30.5 -71q0 -32 18 -60t44.5 -47.5t57.5 -44.5t57.5 -49t44.5 -61.5t18 -81.5q0 -92 -64.5 -147t-173.5 -55q-54 0 -96 6t-57 12l-15 7l14 77q49 -23 155 -23q64 0 105 28t41 81
q0 38 -25 70.5t-60 58t-70.5 53t-60.5 69t-25 93.5q0 79 58 135t161 56zM179 -230q-28 0 -54 5.5t-38 10.5l-12 6l21 41q27 -15 64 -15q27 0 40 10.5t13 24.5q0 27 -37 27q-9 0 -19 -2t-15 -4l-6 -3l-23 22l73 81h58l-47 -49q35 1 60.5 -15.5t25.5 -51.5q0 -43 -31.5 -65.5
t-72.5 -22.5z" />
    <glyph glyph-name="scedilla" unicode="&#x15f;" horiz-adv-x="421" 
d="M164 -8q-32 0 -59 3t-58 8.5t-48 7.5l25 82q20 -2 64.5 -15.5t79.5 -13.5q37 0 56.5 17.5t19.5 48.5q0 25 -16.5 46.5t-40 38.5t-47 36t-40 48.5t-16.5 67.5q0 62 40 102.5t113 40.5q23 0 45 -3.5t32 -6t38 -11.5t37 -12l-31 -81q-23 6 -60 23t-66 17q-27 0 -43 -16.5
t-16 -42.5q0 -25 16.5 -46t40.5 -38.5t47.5 -37t40 -50.5t16.5 -70q0 -71 -47 -107t-123 -36zM140 -222q-28 0 -54 5.5t-38 10.5l-12 6l21 41q27 -15 64 -15q27 0 40 10.5t13 24.5q0 27 -37 27q-9 0 -19 -2t-16 -4l-5 -3l-23 22l73 81h58l-47 -49q35 1 60.5 -15.5
t25.5 -51.5q0 -43 -31.5 -65.5t-72.5 -22.5z" />
    <glyph glyph-name="Scaron" unicode="&#x160;" horiz-adv-x="505" 
d="M319 713q37 0 66 -7t56 -18.5t43 -15.5l-28 -77q-17 3 -64 21.5t-89 18.5q-50 0 -80.5 -28t-30.5 -71q0 -32 18 -60t44.5 -47.5t57.5 -44.5t57.5 -49t44.5 -61.5t18 -81.5q0 -92 -64.5 -147t-173.5 -55q-54 0 -96 6t-57 12l-15 7l14 77q49 -23 155 -23q64 0 105 28t41 81
q0 38 -25 70.5t-60 58t-70.5 53t-60.5 69t-25 93.5q0 79 58 135t161 56zM466 951l36 -48l-168 -118h-38l-118 124l45 41l102 -78z" />
    <glyph glyph-name="scaron" unicode="&#x161;" horiz-adv-x="420" 
d="M164 -8q-32 0 -59 3t-58 8.5t-48 7.5l25 82q20 -2 64.5 -15.5t79.5 -13.5q37 0 56.5 17.5t19.5 48.5q0 25 -16.5 46.5t-40 38.5t-47 36t-40 48.5t-16.5 67.5q0 62 40 102.5t113 40.5q23 0 45 -3.5t32 -6t38 -11.5t37 -12l-31 -81q-23 6 -60 23t-66 17q-27 0 -43 -16.5
t-16 -42.5q0 -25 16.5 -46t40.5 -38.5t47.5 -37t40 -50.5t16.5 -70q0 -71 -47 -107t-123 -36zM396 755l36 -48l-168 -118h-38l-118 124l45 41l102 -78z" />
    <glyph glyph-name="Tcommaaccent" unicode="&#x162;" horiz-adv-x="549" 
d="M171 0l115 629l-102 -2l-104 -5l18 78h501l-18 -78q-37 4 -88 5l-109 2l-99 -536l-11 -93h-103zM159 -314l-36 39q61 41 79 104q-24 0 -42 13t-18 39q0 28 17.5 47t47.5 19q31 0 46.5 -19t15.5 -49q0 -50 -29 -103t-81 -90z" />
    <glyph glyph-name="tcommaaccent" unicode="&#x163;" horiz-adv-x="405" 
d="M240 500h149v-68l-163 2l-63 -299q-14 -61 23 -61q28 0 50 10t92 56v-62q-66 -49 -104 -67.5t-73 -18.5q-112 0 -79 153l60 291l-66 1v63h79l19 90l76 42h28zM58 -312l-36 39q61 41 79 104q-24 0 -42 13t-18 39q0 28 17.5 47t47.5 19q31 0 46.5 -19t15.5 -49
q0 -50 -29 -103t-81 -90z" />
    <glyph glyph-name="Tcaron" unicode="&#x164;" horiz-adv-x="551" 
d="M172 0l115 629l-102 -2l-104 -5l18 78h501l-18 -78q-37 4 -88 5l-109 2l-99 -536l-11 -93h-103zM506 955l36 -48l-168 -118h-38l-118 124l45 41l102 -78z" />
    <glyph glyph-name="tcaron" unicode="&#x165;" horiz-adv-x="405" 
d="M241 500h149v-68l-163 2l-63 -299q-14 -61 23 -61q28 0 50 10t92 56v-62q-66 -49 -104 -67.5t-73 -18.5q-112 0 -79 153l60 291l-66 1v63h79l19 90l76 42h28zM360 516l-31 34q58 45 83 116q-48 0 -48 45q0 23 16.5 41.5t41.5 18.5q54 0 54 -63q0 -43 -33 -99.5t-83 -92.5
z" />
    <glyph glyph-name="Tbar" unicode="&#x166;" horiz-adv-x="571" 
d="M119 325v64h133l44 240l-102 -2l-104 -5l18 78h501l-18 -78q-37 4 -88 5l-109 2l-44 -240h127v-64h-139l-43 -232l-11 -93h-103l59 325h-121z" />
    <glyph glyph-name="tbar" unicode="&#x167;" horiz-adv-x="408" 
d="M242 500h149v-68l-163 2l-24 -114h142v-59h-155l-26 -126q-14 -61 23 -61q28 0 50 10t92 56v-62q-66 -49 -104 -67.5t-73 -18.5q-112 0 -79 153l24 116h-61v59h73l24 116l-66 1v63h79l19 90l76 42h28z" />
    <glyph glyph-name="Utilde" unicode="&#x168;" horiz-adv-x="697" 
d="M674 706l-80 -455q-21 -123 -94 -194t-202 -71q-126 0 -178.5 71t-30.5 195l61 346l12 103l105 5l-80 -455q-35 -190 128 -190q156 0 191 190l61 347l12 103zM523 786q-39 0 -78 24t-56 24q-36 0 -59 -49l-63 16q17 50 46.5 81.5t66.5 31.5q35 0 72 -24t59 -24
q32 0 52 49l61 -16q-14 -51 -40 -82t-61 -31z" />
    <glyph glyph-name="utilde" unicode="&#x169;" horiz-adv-x="530" 
d="M122 500h98l-77 -364q-10 -48 10 -59.5t63 16.5l107 69l73 338h94l-90 -423l-13 -77l-89 -1l8 87l-103 -70q-37 -26 -72 -26q-54 0 -74 41t-7 105l58 276zM407 590q-39 0 -78 24t-56 24q-36 0 -59 -49l-63 16q17 50 46.5 81.5t66.5 31.5q35 0 72 -24t59 -24q32 0 52 49
l61 -16q-14 -51 -40 -82t-61 -31z" />
    <glyph glyph-name="Umacron" unicode="&#x16a;" horiz-adv-x="697" 
d="M674 706l-80 -455q-21 -123 -94 -194t-202 -71q-126 0 -178.5 71t-30.5 195l61 346l12 103l105 5l-80 -455q-35 -190 128 -190q156 0 191 190l61 347l12 103zM290 786v74h274v-74h-274z" />
    <glyph glyph-name="umacron" unicode="&#x16b;" horiz-adv-x="530" 
d="M122 500h98l-77 -364q-10 -48 10 -59.5t63 16.5l107 69l73 338h94l-90 -423l-13 -77l-89 -1l8 87l-103 -70q-37 -26 -72 -26q-54 0 -74 41t-7 105l58 276zM191 604v74h274v-74h-274z" />
    <glyph glyph-name="Ubreve" unicode="&#x16c;" horiz-adv-x="697" 
d="M674 706l-80 -455q-21 -123 -94 -194t-202 -71q-126 0 -178.5 71t-30.5 195l61 346l12 103l105 5l-80 -455q-35 -190 128 -190q156 0 191 190l61 347l12 103zM428 785q-62 0 -97 37.5t-35 106.5h60q8 -68 83 -68q70 0 112 74l50 -23q-60 -127 -173 -127z" />
    <glyph glyph-name="ubreve" unicode="&#x16d;" horiz-adv-x="530" 
d="M122 500h98l-77 -364q-10 -48 10 -59.5t63 16.5l107 69l73 338h94l-90 -423l-13 -77l-89 -1l8 87l-103 -70q-37 -26 -72 -26q-54 0 -74 41t-7 105l58 276zM322 589q-62 0 -97 37.5t-35 106.5h60q8 -68 83 -68q70 0 112 74l50 -23q-60 -127 -173 -127z" />
    <glyph glyph-name="Uring" unicode="&#x16e;" horiz-adv-x="697" 
d="M674 706l-80 -455q-21 -123 -94 -194t-202 -71q-126 0 -178.5 71t-30.5 195l61 346l12 103l105 5l-80 -455q-35 -190 128 -190q156 0 191 190l61 347l12 103zM454 833q23 0 38 15.5t15 38.5t-13.5 38.5t-36.5 15.5q-25 0 -40 -15.5t-15 -38.5q0 -24 14 -39t38 -15z
M451 776q-56 0 -88.5 28t-32.5 76q0 53 37.5 85.5t94.5 32.5q54 0 86.5 -29t32.5 -76q0 -53 -39 -85t-91 -32z" />
    <glyph glyph-name="uring" unicode="&#x16f;" horiz-adv-x="530" 
d="M122 500h98l-77 -364q-10 -48 10 -59.5t63 16.5l107 69l73 338h94l-90 -423l-13 -77l-89 -1l8 87l-103 -70q-37 -26 -72 -26q-54 0 -74 41t-7 105l58 276zM340 646q23 0 38 15.5t15 38.5t-13.5 38.5t-36.5 15.5q-25 0 -40 -15t-15 -39t14 -39t38 -15zM337 589
q-56 0 -88.5 28t-32.5 76q0 53 37.5 85.5t94.5 32.5q54 0 86.5 -29t32.5 -76q0 -53 -39 -85t-91 -32z" />
    <glyph glyph-name="Uhungarumlaut" unicode="&#x170;" horiz-adv-x="697" 
d="M674 706l-80 -455q-21 -123 -94 -194t-202 -71q-126 0 -178.5 71t-30.5 195l61 346l12 103l105 5l-80 -455q-35 -190 128 -190q156 0 191 190l61 347l12 103zM322 786l-36 45l177 165l60 -75zM520 786l-36 45l177 165l60 -75z" />
    <glyph glyph-name="uhungarumlaut" unicode="&#x171;" horiz-adv-x="530" 
d="M122 500h98l-77 -364q-10 -48 10 -59.5t63 16.5l107 69l73 338h94l-90 -423l-13 -77l-89 -1l8 87l-103 -70q-37 -26 -72 -26q-54 0 -74 41t-7 105l58 276zM177 595l-36 45l177 165l60 -75zM375 595l-36 45l177 165l60 -75z" />
    <glyph glyph-name="Uogonek" unicode="&#x172;" horiz-adv-x="698" 
d="M285 -200q-44 0 -68.5 20t-24.5 53q0 52 59 89l39 24q-122 3 -172.5 73.5t-28.5 192.5l61 346l12 103l105 5l-80 -455q-35 -190 128 -190q156 0 191 190l61 347l12 103l95 5l-80 -455q-38 -218 -217 -257l-55 -36q-51 -33 -51 -68q0 -36 47 -36q16 0 32 4t24 8l9 4v-46
q-39 -24 -98 -24z" />
    <glyph glyph-name="uogonek" unicode="&#x173;" horiz-adv-x="530" 
d="M295 -194q-44 0 -68.5 20t-24.5 53q0 52 59 89l50 31h-13l8 87l-103 -70q-37 -26 -72 -26q-54 0 -74 41t-7 105l58 276l14 88h98l-77 -364q-10 -48 10 -59.5t63 16.5l107 69l73 338h94l-90 -423l-13 -77l-55 -36q-51 -33 -51 -68q0 -36 47 -36q16 0 32 4t24 8l9 4v-46
q-39 -24 -98 -24z" />
    <glyph glyph-name="Wcircumflex" unicode="&#x174;" horiz-adv-x="875" 
d="M459 700l95 5l26 -481l4 -99h4q15 49 37 100l120 279q40 94 70 196h95q-31 -100 -90 -226l-220 -472l-97 -6l-25 455v116h-4q-13 -57 -35 -113l-175 -452l-104 -6l-48 583q-3 33 -6.5 62.5t-5.5 42.5l-3 13l99 6l37 -477l6 -102h4q12 48 32 99zM388 785l-36 48l172 122
h31l121 -128l-45 -41l-103 77z" />
    <glyph glyph-name="wcircumflex" unicode="&#x175;" horiz-adv-x="708" 
d="M341 500h81l16 -427q134 159 161 427h88q-23 -271 -248 -500h-79l-10 200l2 89h-5q-5 -49 -21 -86q-47 -112 -138 -203h-82l-22 403l-8 97l94 5l20 -426q64 77 103.5 190.5t47.5 230.5zM263 590l-36 48l172 122h31l121 -128l-45 -41l-103 77z" />
    <glyph glyph-name="Ycircumflex" unicode="&#x176;" horiz-adv-x="542" 
d="M170 0l49 278l-109 330l-36 92l104 5l116 -352l144 224q21 33 38 64t24 45l6 14h97q-33 -63 -100 -158l-185 -263l-33 -186l-12 -93h-103zM220 785l-36 48l172 122h31l121 -128l-45 -41l-103 77z" />
    <glyph glyph-name="ycircumflex" unicode="&#x177;" horiz-adv-x="479" 
d="M244 -3q-11 -13 -43.5 -51.5t-46.5 -55t-40.5 -46.5t-50.5 -54t-50 -49l-63 69q34 30 107.5 88t105.5 89l-90 428l-20 85l97 5l85 -432q111 165 106 427h93q8 -269 -190 -503zM131 590l-36 48l172 122h31l121 -128l-45 -41l-103 77z" />
    <glyph glyph-name="Ydieresis" unicode="&#x178;" horiz-adv-x="542" 
d="M170 0l49 278l-109 330l-36 92l104 5l116 -352l144 224q21 33 38 64t24 45l6 14h97q-33 -63 -100 -158l-185 -263l-33 -186l-12 -93h-103zM255 784q-24 0 -39.5 16t-15.5 42t16.5 45.5t47.5 19.5q26 0 40.5 -15.5t14.5 -40.5q0 -28 -17 -47.5t-47 -19.5zM448 784
q-24 0 -39.5 16t-15.5 42t16.5 45.5t47.5 19.5q26 0 40.5 -15.5t14.5 -40.5q0 -28 -17.5 -47.5t-46.5 -19.5z" />
    <glyph glyph-name="Zacute" unicode="&#x179;" horiz-adv-x="521" 
d="M126 620l8 80h408v-10l-418 -618l212 3l95 6l-9 -81h-437v10l416 618l-165 -2zM296 786l-32 48l188 151l55 -79z" />
    <glyph glyph-name="zacute" unicode="&#x17a;" horiz-adv-x="439" 
d="M87 417l5 83h330v-20l-301 -410l142 5l80 7l-5 -82h-344v20l301 411l-132 -6zM242 590l-32 48l188 151l55 -79z" />
    <glyph glyph-name="Zdotaccent" unicode="&#x17b;" horiz-adv-x="521" 
d="M126 620l8 80h408v-10l-418 -618l212 3l95 6l-9 -81h-437v10l416 618l-165 -2zM342 785q-24 0 -40 15.5t-16 38.5q0 27 18.5 45.5t47.5 18.5q23 0 38.5 -16t15.5 -39q0 -26 -18.5 -44.5t-45.5 -18.5z" />
    <glyph glyph-name="zdotaccent" unicode="&#x17c;" horiz-adv-x="439" 
d="M87 417l5 83h330v-20l-301 -410l142 5l80 7l-5 -82h-344v20l301 411l-132 -6zM279 589q-24 0 -40 15.5t-16 38.5q0 27 18.5 45.5t47.5 18.5q23 0 38.5 -16t15.5 -39q0 -26 -18.5 -44.5t-45.5 -18.5z" />
    <glyph glyph-name="Zcaron" unicode="&#x17d;" horiz-adv-x="521" 
d="M126 620l8 80h408v-10l-418 -618l212 3l95 6l-9 -81h-437v10l416 618l-165 -2zM488 950l36 -48l-168 -118h-38l-118 124l45 41l102 -78z" />
    <glyph glyph-name="zcaron" unicode="&#x17e;" horiz-adv-x="439" 
d="M87 417l5 83h330v-20l-301 -410l142 5l80 7l-5 -82h-344v20l301 411l-132 -6zM413 757l36 -48l-168 -118h-38l-118 124l45 41l102 -78z" />
    <glyph glyph-name="florin" unicode="&#x192;" horiz-adv-x="391" 
d="M346 694q-59 0 -79 -88l-23 -106h150v-68l-163 2l-74 -341l-33 -152q-19 -87 -66 -137.5t-122 -50.5q-26 0 -45.5 3t-40.5 7.5t-38 6.5l25 82q22 -4 50.5 -18.5t58.5 -14.5q59 0 79 88l23 106l90 423l-67 1v63h81l16 72q19 87 66 137.5t122 50.5q26 0 45.5 -3t40.5 -7.5
t38 -6.5l-25 -82q-22 4 -50.5 18.5t-58.5 14.5z" />
    <glyph glyph-name="Aringacute" unicode="&#x1fa;" horiz-adv-x="566" 
d="M402 -4l-22 163h-252l-3 -8q-41 -97 -54 -151h-86q17 72 67 177l251 520l94 6l83 -583l22 -118zM281 494l-120 -264h209l-35 263l-11 102h-4q-18 -54 -39 -101zM348 802q20 0 33.5 13.5t13.5 34.5q0 20 -12.5 34t-32.5 14q-21 0 -34.5 -13.5t-13.5 -34.5q0 -22 12 -35
t34 -13zM345 751q-49 0 -78 24.5t-29 67.5q0 47 33.5 76t83.5 29q48 0 76.5 -25.5t28.5 -67.5q0 -47 -34.5 -75.5t-80.5 -28.5zM314 961l-27 41l162 131l48 -68z" />
    <glyph glyph-name="aringacute" unicode="&#x1fb;" horiz-adv-x="538" 
d="M498 500l-88 -412l-15 -88h-88l8 84q-65 -58 -102 -76t-71 -18q-77 0 -99 89q-23 94 23 215q50 131 143 186q50 30 105 30q66 0 114 -39l49 35zM182 67q18 0 48 18.5t101 74.5l52 245q-22 43 -72 43q-73 0 -127 -107q-47 -94 -46 -189q2 -83 44 -85zM361 628
q22 0 36 14.5t14 36.5t-13 36.5t-35 14.5q-23 0 -37.5 -14.5t-14.5 -36.5q0 -23 13.5 -37t36.5 -14zM358 574q-53 0 -84 26t-31 72q0 50 35.5 81t89.5 31q51 0 81.5 -27.5t30.5 -72.5q0 -50 -36.5 -80t-85.5 -30zM356 803l-29 44l173 140l51 -73z" />
    <glyph glyph-name="AEacute" unicode="&#x1fc;" horiz-adv-x="826" 
d="M318 0l28 159h-212l-5 -8q-58 -95 -83 -151h-90q31 74 100 177l351 523h431l-19 -79l-292 9l-42 -240l249 5l-20 -86l-242 8l-44 -246l301 9l-19 -80h-392zM362 519l-183 -289h179l69 390h-4q-31 -54 -61 -101zM590 784l-32 48l188 151l55 -79z" />
    <glyph glyph-name="aeacute" unicode="&#x1fd;" horiz-adv-x="784" 
d="M690 70q-102 -80 -181 -80q-64 0 -104 39t-51 107q-43 -55 -102.5 -100.5t-109.5 -45.5q-77 0 -99 89q-23 94 23 215q50 131 143 186q50 30 105 30q66 0 105 -45l38 41l21 -6l-6 -37q61 47 135 47q62 0 97 -29.5t35 -74.5q0 -87 -94 -121l-200 -75q-1 -10 -1 -29
q0 -61 29.5 -87.5t68.5 -26.5q57 0 148 65v-62zM182 67q54 0 164 152l35 176q-19 53 -70 53q-73 0 -127 -107q-47 -94 -46 -189q2 -83 44 -85zM585 444q-47 0 -82 -48t-50 -122l119 45q64 24 64 77q0 20 -14 34t-37 14zM445 589l-32 48l188 151l55 -79z" />
    <glyph glyph-name="Oslashacute" unicode="&#x1fe;" horiz-adv-x="713" 
d="M429 773l-32 48l188 151l55 -79zM128 -35l-59 42l48 65q-74 100 -45 265q30 171 125.5 272t244.5 101q72 0 126 -36l44 58l59 -43l-50 -67q69 -100 41 -259q-30 -171 -125.5 -272t-244.5 -101q-72 0 -121 32zM179 362q-22 -120 5 -200l329 438q-38 40 -103 40
q-87 0 -148.5 -78.5t-82.5 -199.5zM324 60q87 0 148.5 78.5t82.5 199.5q20 112 -3 192l-326 -435q37 -35 98 -35z" />
    <glyph glyph-name="oslashacute" unicode="&#x1ff;" horiz-adv-x="544" 
d="M82 -78l-63 37l66 95q-36 49 -36 127q0 58 16 114.5t46 105.5t81 79t114 30q45 0 83 -19l58 84l63 -38l-66 -94q34 -48 34 -120q0 -83 -26.5 -156.5t-87 -125t-143.5 -51.5q-44 0 -80 17zM150 196q0 -32 2 -46l194 280q-19 18 -53 18q-38 0 -67 -25.5t-45 -65.5
t-23.5 -81t-7.5 -80zM378 312q0 23 -1 34l-193 -277q18 -17 52 -17q38 0 67.5 28t44.5 70.5t22.5 84t7.5 77.5zM283 590l-32 48l188 151l55 -79z" />
    <glyph glyph-name="Scommaaccent" unicode="&#x218;" horiz-adv-x="506" 
d="M320 713q37 0 66 -7t56 -18.5t43 -15.5l-28 -77q-17 3 -64 21.5t-89 18.5q-50 0 -80.5 -28t-30.5 -71q0 -32 18 -60t44.5 -47.5t57.5 -44.5t57.5 -49t44.5 -61.5t18 -81.5q0 -92 -64.5 -147t-173.5 -55q-54 0 -96 6t-57 12l-15 7l14 77q49 -23 155 -23q64 0 105 28t41 81
q0 38 -25 70.5t-60 58t-70.5 53t-60.5 69t-25 93.5q0 79 58 135t161 56zM161 -315l-36 39q61 41 79 104q-24 0 -42 13t-18 39q0 28 17.5 47t47.5 19q31 0 46.5 -19t15.5 -49q0 -50 -29 -103t-81 -90z" />
    <glyph glyph-name="scommaaccent" unicode="&#x219;" horiz-adv-x="421" 
d="M164 -8q-32 0 -59 3t-58 8.5t-48 7.5l25 82q20 -2 64.5 -15.5t79.5 -13.5q37 0 56.5 17.5t19.5 48.5q0 25 -16.5 46.5t-40 38.5t-47 36t-40 48.5t-16.5 67.5q0 62 40 102.5t113 40.5q23 0 45 -3.5t32 -6t38 -11.5t37 -12l-31 -81q-23 6 -60 23t-66 17q-27 0 -43 -16.5
t-16 -42.5q0 -25 16.5 -46t40.5 -38.5t47.5 -37t40 -50.5t16.5 -70q0 -71 -47 -107t-123 -36zM125 -314l-36 39q61 41 79 104q-24 0 -42 13t-18 39q0 28 17.5 47t47.5 19q31 0 46.5 -19t15.5 -49q0 -50 -29 -103t-81 -90z" />
    <glyph glyph-name="uni021A" unicode="&#x21a;" horiz-adv-x="549" 
d="M171 0l115 629l-102 -2l-104 -5l18 78h501l-18 -78q-37 4 -88 5l-109 2l-99 -536l-11 -93h-103zM159 -314l-36 39q61 41 79 104q-24 0 -42 13t-18 39q0 28 17.5 47t47.5 19q31 0 46.5 -19t15.5 -49q0 -50 -29 -103t-81 -90z" />
    <glyph glyph-name="uni021B" unicode="&#x21b;" horiz-adv-x="405" 
d="M240 500h149v-68l-163 2l-63 -299q-14 -61 23 -61q28 0 50 10t92 56v-62q-66 -49 -104 -67.5t-73 -18.5q-112 0 -79 153l60 291l-66 1v63h79l19 90l76 42h28zM58 -312l-36 39q61 41 79 104q-24 0 -42 13t-18 39q0 28 17.5 47t47.5 19q31 0 46.5 -19t15.5 -49
q0 -50 -29 -103t-81 -90z" />
    <glyph glyph-name="circumflex" unicode="&#x2c6;" horiz-adv-x="384" 
d="M57 541l-36 48l172 122h31l121 -128l-45 -41l-103 77z" />
    <glyph glyph-name="caron" unicode="&#x2c7;" horiz-adv-x="384" 
d="M319 723l36 -48l-168 -118h-38l-118 124l45 41l102 -78z" />
    <glyph glyph-name="breve" unicode="&#x2d8;" horiz-adv-x="398" 
d="M188 519q-62 0 -97 37.5t-35 106.5h60q8 -68 83 -68q70 0 112 74l50 -23q-60 -127 -173 -127z" />
    <glyph glyph-name="dotaccent" unicode="&#x2d9;" horiz-adv-x="186" 
d="M87 508q-24 0 -40 15.5t-16 38.5q0 27 18.5 45.5t47.5 18.5q23 0 38.5 -16t15.5 -39q0 -26 -18.5 -44.5t-45.5 -18.5z" />
    <glyph glyph-name="ring" unicode="&#x2da;" horiz-adv-x="308" 
d="M151 562q23 0 38 15.5t15 38.5t-13.5 38.5t-36.5 15.5q-24 0 -39.5 -15t-15.5 -39t14 -39t38 -15zM148 505q-56 0 -88.5 28t-32.5 76q0 53 37.5 85.5t94.5 32.5q54 0 86.5 -29t32.5 -76q0 -53 -39 -85t-91 -32z" />
    <glyph glyph-name="ogonek" unicode="&#x2db;" horiz-adv-x="213" 
d="M89 -194q-44 0 -68.5 20t-24.5 53q0 52 59 89l126 78v-46l-55 -36q-51 -33 -51 -68q0 -36 47 -36q16 0 32 4t24 8l9 4v-46q-39 -24 -98 -24z" />
    <glyph glyph-name="tilde" unicode="&#x2dc;" horiz-adv-x="424" 
d="M284 539q-39 0 -78 24t-56 24q-36 0 -59 -49l-63 16q17 50 46.5 81.5t66.5 31.5q35 0 72 -24t59 -24q32 0 52 49l61 -16q-14 -51 -40 -82t-61 -31z" />
    <glyph glyph-name="hungarumlaut" unicode="&#x2dd;" horiz-adv-x="507" 
d="M81 506l-36 45l177 165l60 -75zM279 506l-36 45l177 165l60 -75z" />
    <glyph glyph-name="afii10023" unicode="&#x401;" horiz-adv-x="560" 
d="M52 0l105 598l12 102h403l-19 -79q-35 5 -91 6l-201 3l-42 -240l249 5l-20 -86l-242 8l-44 -246l215 4l86 5l-19 -80h-392zM289 776q-24 0 -39.5 16t-15.5 42t16.5 45.5t47.5 19.5q26 0 40.5 -15.5t14.5 -40.5q0 -28 -17 -47.5t-47 -19.5zM482 776q-24 0 -39.5 16
t-15.5 42t16.5 45.5t47.5 19.5q26 0 40.5 -15.5t14.5 -40.5q0 -28 -17.5 -47.5t-46.5 -19.5z" />
    <glyph glyph-name="afii10051" unicode="&#x402;" horiz-adv-x="720" 
d="M175 0l114 621h-117l-88 -5l11 84h508l-19 -77q-25 4 -77 4h-119l-39 -205q55 28 128 28q94 0 142 -49.5t48 -135.5q0 -113 -61.5 -202t-185.5 -135l-29 73q83 27 129.5 98t46.5 154q0 119 -112 119q-26 0 -55.5 -4t-45.5 -8l-17 -4l-48 -263q-4 -20 -6.5 -43.5
t-3.5 -36.5l-1 -13h-103z" />
    <glyph glyph-name="afii10052" unicode="&#x403;" horiz-adv-x="516" 
d="M52 0l105 598l12 102h393l-19 -80q-40 5 -83 6l-199 3l-95 -536l-11 -93h-103zM330 749l-32 48l188 151l55 -79z" />
    <glyph glyph-name="afii10053" unicode="&#x404;" horiz-adv-x="570" 
d="M409 635q-76 0 -137.5 -68t-87.5 -166l268 5v-83l-281 4q-1 -10 -1 -30q0 -227 171 -227q34 0 67 5t48 9l16 5l5 -70q-49 -29 -153 -29q-123 0 -191.5 75t-68.5 210q0 110 49.5 211.5t133.5 164t179 62.5q31 0 59 -7t57 -18.5t45 -15.5l-28 -77q-17 4 -62 22t-88 18z" />
    <glyph glyph-name="afii10054" unicode="&#x405;" horiz-adv-x="505" 
d="M319 713q37 0 66 -7t56 -18.5t43 -15.5l-28 -77q-17 3 -64 21.5t-89 18.5q-50 0 -80.5 -28t-30.5 -71q0 -32 18 -60t44.5 -47.5t57.5 -44.5t57.5 -49t44.5 -61.5t18 -81.5q0 -92 -64.5 -147t-173.5 -55q-54 0 -96 6t-57 12l-15 7l14 77q49 -23 155 -23q64 0 105 28t41 81
q0 38 -25 70.5t-60 58t-70.5 53t-60.5 69t-25 93.5q0 79 58 135t161 56z" />
    <glyph glyph-name="afii10055" unicode="&#x406;" horiz-adv-x="305" 
d="M51 0l106 598l12 103l105 5l-108 -613l-12 -93h-103z" />
    <glyph glyph-name="afii10056" unicode="&#x407;" horiz-adv-x="305" 
d="M51 0l106 598l12 103l105 5l-108 -613l-12 -93h-103zM132 786q-24 0 -39.5 16t-15.5 42t16.5 45.5t47.5 19.5q26 0 40.5 -15.5t14.5 -40.5q0 -28 -17 -47.5t-47 -19.5zM325 786q-24 0 -39.5 16t-15.5 42t16.5 45.5t47.5 19.5q26 0 40.5 -15.5t14.5 -40.5
q0 -28 -17.5 -47.5t-46.5 -19.5z" />
    <glyph glyph-name="afii10057" unicode="&#x408;" horiz-adv-x="304" 
d="M68 90l89 508l12 103l105 5l-108 -615q-11 -61 -38 -114q-18 -33 -43.5 -63.5t-67 -70t-53.5 -52.5l-52 49q13 14 46.5 47t51.5 56t30 50q17 38 28 97z" />
    <glyph glyph-name="afii10058" unicode="&#x409;" horiz-adv-x="924" 
d="M255 700h372l-47 -267h77q102 0 159.5 -48t57.5 -145q0 -106 -87 -173t-210 -67h-170l110 626h-193q-26 -124 -47 -208t-46 -164t-50 -127.5t-56.5 -82t-68 -44.5t-82.5 0v79q55 -8 97 43t86 187t98 391zM627 358h-60l-50 -283h57q89 0 143.5 41.5t54.5 113.5
q0 67 -36 97.5t-109 30.5z" />
    <glyph glyph-name="afii10059" unicode="&#x40a;" horiz-adv-x="980" 
d="M274 706l-54 -307h313l35 199q4 23 7 48.5t3 39.5l1 14l105 5l-48 -272h77q100 0 157 -45.5t60 -138.5q4 -109 -83.5 -179t-213.5 -70h-170l57 325h-313l-41 -232l-12 -93h-103l106 598l12 103zM683 358h-60l-50 -283h57q91 0 146 43.5t54 118.5q-3 64 -39.5 92.5
t-107.5 28.5z" />
    <glyph glyph-name="afii10060" unicode="&#x40b;" horiz-adv-x="714" 
d="M175 0l114 627l-206 -5l10 78h510l-18 -78l-197 5l-39 -205q76 28 145 28q90 0 130.5 -52t22.5 -153l-43 -245h-98l44 249q21 121 -95 121q-26 0 -55.5 -3.5t-45.5 -6.5l-16 -4l-49 -263l-11 -93h-103z" />
    <glyph glyph-name="afii10061" unicode="&#x40c;" horiz-adv-x="599" 
d="M52 0l105 598l12 103l105 5l-54 -305h48q82 90 133 149.5t68 82t49 67.5h101q-92 -122 -291 -329l168 -290q11 -20 24.5 -40t21.5 -31l7 -10l-115 -5l-184 334h-43l-41 -236l-11 -93h-103zM368 750l-32 48l188 151l55 -79z" />
    <glyph glyph-name="afii10062" unicode="&#x40e;" horiz-adv-x="548" 
d="M353 785q-57 0 -101 21t-68 51l63 63q8 -7 22.5 -23.5t23.5 -24.5t26 -15.5t38 -7.5q24 0 41 8.5t42 31.5t34 30l45 -62q-82 -72 -166 -72zM207 0h-99q35 63 109 166l-111 431l-32 103l104 3l78 -313l25 -122l6 -1q24 61 56 119l86 155q24 43 42.5 82.5t25.5 58.5l7 18
h93q-33 -84 -116 -225l-165 -283z" />
    <glyph glyph-name="afii10145" unicode="&#x40f;" horiz-adv-x="717" 
d="M51 0l106 598l12 103l105 5l-112 -632h314l93 524l12 103l105 5l-108 -613l-12 -93h-205l-21 -120l-11 -90l-91 -6l30 216h-217z" />
    <glyph glyph-name="afii10017" unicode="&#x410;" horiz-adv-x="566" 
d="M402 -4l-22 163h-252l-3 -8q-41 -97 -54 -151h-86q17 72 67 177l251 520l94 6l83 -583l22 -118zM281 494l-120 -264h209l-35 263l-11 102h-4q-18 -54 -39 -101z" />
    <glyph glyph-name="afii10018" unicode="&#x411;" horiz-adv-x="584" 
d="M39 0l127 598l16 102h393l-16 -76q-68 3 -101 3l-187 2l-44 -206h62q110 0 166.5 -44.5t56.5 -125.5q0 -111 -84 -182t-210 -71h-179zM212 350l-60 -278h64q85 0 138.5 48t53.5 121q0 56 -33.5 82.5t-108.5 26.5h-54z" />
    <glyph glyph-name="afii10019" unicode="&#x412;" horiz-adv-x="597" 
d="M52 0l105 598l12 102h180q101 0 150 -44t49 -114q0 -56 -38 -105t-93 -68v-2q52 -14 79.5 -48.5t27.5 -83.5q0 -106 -77 -170.5t-194 -64.5h-201zM304 331h-96l-46 -259h95q69 0 117.5 41t48.5 110q0 108 -119 108zM339 629h-78l-40 -226h155q3 2 8 5t18 14.5t23 25
t18 36.5t8 48q0 97 -112 97z" />
    <glyph glyph-name="afii10020" unicode="&#x413;" horiz-adv-x="516" 
d="M52 0l105 598l12 102h393l-19 -80q-40 5 -83 6l-199 3l-95 -536l-11 -93h-103z" />
    <glyph glyph-name="afii10021" unicode="&#x414;" horiz-adv-x="699" 
d="M-66 -206l41 278h46q86 93 139.5 243t105.5 385h375l-112 -628h93l-32 -182l-13 -90l-86 -6l30 206h-472l-19 -110l-13 -90zM335 628q-43 -196 -90 -328.5t-121 -227.5h307l98 556h-194z" />
    <glyph glyph-name="afii10022" unicode="&#x415;" horiz-adv-x="560" 
d="M52 0l105 598l12 102h403l-19 -79q-35 5 -91 6l-201 3l-42 -240l249 5l-20 -86l-242 8l-44 -246l215 4l86 5l-19 -80h-392z" />
    <glyph glyph-name="afii10024" unicode="&#x416;" horiz-adv-x="888" 
d="M346 0l57 324h-48l-280 -329l-126 5q42 38 81 83l260 295q-120 228 -154 321l98 4q39 -116 126 -310h55l36 205l12 103l101 3l-55 -311h56q183 208 245 310l101 -4q-90 -131 -282 -334l152 -284q11 -20 24.5 -40t20.5 -31l8 -10l-112 -5l-172 329h-54l-40 -231l-11 -93
h-99z" />
    <glyph glyph-name="afii10025" unicode="&#x417;" horiz-adv-x="494" 
d="M153 67q81 0 122.5 41.5t41.5 108.5q0 52 -32 80.5t-88 28.5h-52l6 73h58q68 0 105.5 37t37.5 102q0 45 -22.5 73.5t-70.5 28.5q-25 0 -46.5 -5t-49 -14t-47.5 -14l-18 75q17 3 51.5 12t62 14t55.5 5q95 0 141.5 -48t46.5 -114q0 -72 -37.5 -120t-100.5 -66v-3
q101 -29 101 -136q0 -96 -73.5 -166t-192.5 -70q-42 0 -78.5 6t-51.5 12l-15 7l12 75q57 -23 134 -23z" />
    <glyph glyph-name="afii10026" unicode="&#x418;" horiz-adv-x="717" 
d="M51 0l106 598l11 103l106 5l-85 -477q-10 -52 -19 -81h5q19 35 45 68l371 485l95 5l-109 -613l-11 -93h-103l86 478l18 74h-5q-21 -34 -44 -64l-374 -488h-93z" />
    <glyph glyph-name="afii10027" unicode="&#x419;" horiz-adv-x="717" 
d="M452 783q-57 0 -101 21t-68 51l63 63q8 -7 22.5 -23.5t23.5 -24.5t26 -15.5t38 -7.5q24 0 41 8.5t42 31.5t34 30l45 -62q-82 -72 -166 -72zM51 0l106 598l11 103l106 5l-85 -477q-10 -52 -19 -81h5q19 35 45 68l371 485l95 5l-109 -613l-11 -93h-103l86 478l18 74h-5
q-21 -34 -44 -64l-374 -488h-93z" />
    <glyph glyph-name="afii10028" unicode="&#x41a;" horiz-adv-x="599" 
d="M52 0l105 598l12 103l105 5l-54 -305h48q82 90 133 149.5t68 82t49 67.5h101q-92 -122 -291 -329l168 -290q11 -20 24.5 -40t21.5 -31l7 -10l-115 -5l-184 334h-43l-41 -236l-11 -93h-103z" />
    <glyph glyph-name="afii10029" unicode="&#x41b;" horiz-adv-x="660" 
d="M257 700h371l-107 -607q-4 -20 -7.5 -43.5t-4.5 -36.5l-1 -13h-103l111 626h-195q-26 -123 -46.5 -207t-45.5 -163.5t-50 -127t-56 -82.5t-68 -45.5t-82 -0.5l-2 79q55 -8 97.5 38t89 185.5t99.5 397.5z" />
    <glyph glyph-name="afii10030" unicode="&#x41c;" horiz-adv-x="842" 
d="M394 170h-13l-127 292q-8 18 -15 38t-10 30l-3 11h-5q-5 -50 -9 -75l-67 -383l-10 -83h-83l104 587l14 114l81 3l139 -328l26 -75h6q19 39 46 75l246 325l96 3l-107 -611l-12 -93h-100l85 483l17 78h-5q-23 -38 -52 -76z" />
    <glyph glyph-name="afii10031" unicode="&#x41d;" horiz-adv-x="717" 
d="M463 0l58 325h-314l-41 -232l-12 -93h-103l106 598l12 103l105 5l-54 -307h314l35 199l12 103l105 5l-108 -613l-12 -93h-103z" />
    <glyph glyph-name="afii10032" unicode="&#x41e;" horiz-adv-x="713" 
d="M315 60q89 0 154 79t86 199q12 54 8 108t-18 97t-47 70t-81 27q-89 0 -153 -79t-85 -199q-12 -54 -8.5 -108t16.5 -97t46.5 -70t81.5 -27zM292 -10q-88 0 -144.5 50.5t-74 127.5t-1.5 169q30 171 125.5 272t244.5 101q66 0 115.5 -31.5t73.5 -81t34 -111.5t-3 -123
q-30 -171 -125.5 -272t-244.5 -101z" />
    <glyph glyph-name="afii10033" unicode="&#x41f;" horiz-adv-x="707" 
d="M52 0l105 597l12 103h506l-107 -607l-11 -93h-103l111 626h-304l-95 -533l-11 -93h-103z" />
    <glyph glyph-name="afii10034" unicode="&#x420;" horiz-adv-x="582" 
d="M286 257h-91l-29 -164l-11 -93h-103l105 598l12 102h176q110 0 169 -51t59 -136q0 -113 -82 -184.5t-205 -71.5zM261 628l-53 -298h80q86 0 134.5 44.5t48.5 126.5q0 61 -39 94t-113 33h-58z" />
    <glyph glyph-name="afii10035" unicode="&#x421;" horiz-adv-x="566" 
d="M409 635q-64 0 -120.5 -51.5t-87.5 -129.5t-31 -157q0 -227 171 -227q34 0 67 5t48 9l16 5l5 -70q-49 -29 -153 -29q-123 0 -191.5 75t-68.5 210q0 110 49.5 211.5t133.5 164t179 62.5q31 0 59 -7t57 -18.5t45 -15.5l-28 -77q-17 4 -62 22t-88 18z" />
    <glyph glyph-name="afii10036" unicode="&#x422;" horiz-adv-x="551" 
d="M172 0l115 629l-102 -2l-104 -5l18 78h501l-18 -78q-37 4 -88 5l-109 2l-99 -536l-11 -93h-103z" />
    <glyph glyph-name="afii10037" unicode="&#x423;" horiz-adv-x="548" 
d="M207 0h-99q35 63 109 166l-111 431l-32 103l104 3l78 -313l25 -122l6 -1q24 61 56 119l86 155q24 43 42.5 82.5t25.5 58.5l7 18h93q-33 -84 -116 -225l-165 -283z" />
    <glyph glyph-name="afii10038" unicode="&#x424;" horiz-adv-x="795" 
d="M422 639l14 86l95 5l-19 -91q120 -1 187.5 -61.5t67.5 -156.5q0 -150 -97.5 -240t-274.5 -90l-2 -10l-15 -93h-93l21 103q-120 0 -187 60.5t-67 157.5q0 151 96.5 240.5t273.5 89.5zM666 406q0 70 -42 116t-127 47l-87 -408q119 1 187.5 70t68.5 175zM153 324
q0 -70 41.5 -116.5t126.5 -46.5l86 408q-119 -1 -186.5 -69.5t-67.5 -175.5z" />
    <glyph glyph-name="afii10039" unicode="&#x425;" horiz-adv-x="602" 
d="M416 -5l-121 289l-129 -163l-93 -126l-102 10q55 79 132 168l161 187l-97 234l-49 106l108 5l113 -274l103 133q24 32 45 66t31 52l9 18l102 1q-33 -72 -113 -169l-146 -177l107 -259l44 -96z" />
    <glyph glyph-name="afii10040" unicode="&#x426;" horiz-adv-x="744" 
d="M51 0l105 598q5 23 8.5 48.5t4.5 39.5l1 15l105 5l-112 -632h314l91 524q5 23 8.5 48.5t4.5 39.5l1 15l105 5l-112 -632h93l-33 -184l-12 -90l-86 -6l29 206h-515z" />
    <glyph glyph-name="afii10041" unicode="&#x427;" horiz-adv-x="616" 
d="M362 0l55 309q-52 -24 -138 -24q-110 0 -163 61.5t-27 185.5l14 66q5 23 7.5 48.5t3.5 39.5v15l106 5l-34 -185q-14 -79 16.5 -120.5t118.5 -41.5q63 0 108 16l39 223q4 23 6.5 48.5t3.5 39.5l1 15l106 5l-109 -613l-11 -93h-103z" />
    <glyph glyph-name="afii10042" unicode="&#x428;" horiz-adv-x="977" 
d="M51 0l106 598l11 103l106 5l-113 -632h238l94 524l11 103l106 5l-113 -632h238l94 524l11 103l106 5l-109 -613l-11 -93h-775z" />
    <glyph glyph-name="afii10043" unicode="&#x429;" horiz-adv-x="1004" 
d="M51 0l105 598q5 23 8.5 48.5t4.5 39.5l1 15l105 5l-112 -632h238l91 524q5 23 8.5 48.5t4.5 39.5l1 15l105 5l-112 -632h238l91 524q5 23 8.5 48.5t4.5 39.5l1 15l105 5l-112 -632h93l-33 -184l-12 -90l-86 -6l29 206h-775z" />
    <glyph glyph-name="afii10044" unicode="&#x42a;" horiz-adv-x="670" 
d="M81 618l5 82h287l-47 -267h77q100 0 157 -45.5t60 -138.5q4 -109 -83.5 -179t-213.5 -70h-170l110 630l-102 -4zM373 358h-60l-50 -283h57q91 0 146 43.5t52 118.5q-1 64 -37.5 92.5t-107.5 28.5z" />
    <glyph glyph-name="afii10045" unicode="&#x42b;" horiz-adv-x="830" 
d="M273 705l-48 -272h66q107 0 167.5 -48t60.5 -141q0 -113 -82.5 -178.5t-198.5 -65.5h-186l105 598q4 23 6.5 48.5t3.5 39.5l1 14zM282 358h-70l-50 -283h78q82 0 130.5 43t48.5 119q0 59 -37 90t-100 31zM576 0l106 598l12 103l105 5l-108 -613l-12 -93h-103z" />
    <glyph glyph-name="afii10046" unicode="&#x42c;" horiz-adv-x="569" 
d="M273 705l-48 -272h66q107 0 167.5 -48t60.5 -141q0 -113 -82.5 -178.5t-198.5 -65.5h-186l105 598q4 23 6.5 48.5t3.5 39.5l1 14zM282 358h-70l-50 -283h78q82 0 130.5 43t48.5 119q0 59 -37 90t-100 31z" />
    <glyph glyph-name="afii10047" unicode="&#x42d;" horiz-adv-x="568" 
d="M157 395l259 -5q1 8 1 24q0 99 -35 162.5t-114 63.5q-25 0 -46.5 -5t-49 -14t-47.5 -14l-18 75q17 3 51.5 12t62 14t55.5 5q117 0 181 -84t64 -210q0 -77 -24.5 -152.5t-69.5 -137.5t-116 -100.5t-156 -38.5q-47 0 -85.5 6t-53.5 12l-16 7l20 85q69 -31 145 -31
q82 0 151.5 67.5t91.5 182.5l-256 -9z" />
    <glyph glyph-name="afii10048" unicode="&#x42e;" horiz-adv-x="976" 
d="M554 -10q-128 0 -185.5 98t-36.5 237h-125l-41 -232l-12 -93h-103l106 598l12 103l105 5l-54 -307h128q39 144 130 227.5t226 83.5q88 0 144.5 -50.5t74 -127.5t1.5 -169q-30 -171 -125.5 -272t-244.5 -101zM586 60q87 0 148.5 78.5t82.5 199.5q12 54 9 108t-16.5 97
t-49 70t-88.5 27q-87 0 -148.5 -78.5t-82.5 -199.5q-12 -54 -9 -108t16.5 -97t49 -70t88.5 -27z" />
    <glyph glyph-name="afii10049" unicode="&#x42f;" horiz-adv-x="607" 
d="M457 0l-105 -5l46 262h-73l-36 2l-188 -259h-119q36 37 66 77l158 205q-98 49 -98 162q0 116 81.5 186t204.5 70h180l-105 -598zM209 462q0 -66 39 -99.5t105 -33.5h57l53 296h-67q-88 0 -137.5 -45t-49.5 -118z" />
    <glyph glyph-name="afii10065" unicode="&#x430;" horiz-adv-x="539" 
d="M498 500l-88 -412l-15 -88h-88l8 84q-65 -58 -102 -76t-71 -18q-77 0 -99 89q-23 94 23 215q50 131 143 186q50 30 105 30q66 0 114 -39l49 35zM182 67q18 0 48 18.5t101 74.5l52 245q-22 43 -72 43q-73 0 -127 -107q-47 -94 -46 -189q2 -83 44 -85z" />
    <glyph glyph-name="afii10066" unicode="&#x431;" horiz-adv-x="554" 
d="M494 323q0 -61 -15.5 -118.5t-45.5 -106.5t-79.5 -78.5t-110.5 -29.5q-83 0 -130.5 53t-47.5 156q0 88 37 225q23 85 58 145.5t71 90t82 48t83.5 23t82.5 12.5t72 18v-81q-22 -11 -59 -18.5t-71.5 -11.5t-76 -19t-75.5 -39t-65.5 -74t-51.5 -121l5 -1q25 55 68.5 84.5
t96.5 29.5q78 0 125 -50t47 -137zM166 196q0 -78 20.5 -111t65.5 -33q38 0 67.5 28t44.5 70.5t22.5 84t7.5 77.5q0 72 -19.5 104t-65.5 32q-38 0 -67 -25.5t-45 -65.5t-23.5 -81t-7.5 -80z" />
    <glyph glyph-name="afii10067" unicode="&#x432;" horiz-adv-x="488" 
d="M206 -10q-164 0 -164 173q0 140 78 243.5t202 103.5q115 0 115 -102q0 -52 -37 -88t-86 -52v-4q92 -5 92 -90q0 -81 -64.5 -132.5t-135.5 -51.5zM222 54q38 0 64.5 30.5t26.5 75.5q0 65 -70 65q-17 0 -103 -14q-2 -30 -2 -43q0 -114 84 -114zM343 399q0 48 -47 48
q-48 0 -87.5 -52t-58.5 -128l119 20q74 46 74 112z" />
    <glyph glyph-name="afii10068" unicode="&#x433;" horiz-adv-x="407" 
d="M294 300l-73 -73t-71 -72q-25 -26 -26 -50q0 -33 37 -33q32 0 77 22.5t85 64.5l-3 -69q-100 -98 -191 -98q-43 0 -69.5 23t-25.5 62q3 63 61 123q23 24 70.5 71t68.5 69q29 29 30 56q1 15 -9.5 22.5t-26.5 7.5q-67 0 -160 -87l3 69q100 98 201 98q40 0 63.5 -21.5
t22.5 -62.5q-2 -57 -64 -122z" />
    <glyph glyph-name="afii10069" unicode="&#x434;" horiz-adv-x="542" 
d="M291 490q72 0 101 -54q-10 99 -47.5 159t-104.5 113l40 48q98 -62 148 -150.5t50 -218.5q0 -50 -7.5 -101t-27 -105.5t-48 -96t-76 -68t-106.5 -26.5q-82 0 -124 47t-42 130q0 79 29 152t86.5 122t128.5 49zM226 52q63 0 104 80.5t41 197.5q0 95 -75 95q-68 0 -108 -81
t-40 -184q0 -108 78 -108z" />
    <glyph glyph-name="afii10070" unicode="&#x435;" horiz-adv-x="479" 
d="M380 70q-104 -80 -186 -80q-74 0 -114.5 53t-37.5 142q5 138 83.5 231.5t185.5 93.5q63 0 96.5 -29.5t31.5 -81.5q-2 -48 -39 -80t-130 -64l-126 -43q-2 -22 -2 -31q-2 -61 24 -87.5t64 -26.5q57 0 150 65v-62zM286 444q-47 0 -81 -47t-51 -121l67 25q71 27 92.5 46.5
t22.5 48.5q1 20 -13 34t-37 14z" />
    <glyph glyph-name="afii10072" unicode="&#x436;" horiz-adv-x="822" 
d="M425 160l-14 -67l-15 -93h-87l54 257l-154 -190q-69 -77 -135 -77q-16 0 -27.5 1.5t-29.5 5.5t-31 6l17 81q20 -4 42 -15.5t40 -11.5q42 0 83.5 82.5t41.5 187.5q0 53 -16.5 82t-37.5 29q-26 0 -78 -45v58q64 59 120 59q44 0 68.5 -36t24.5 -99q0 -108 -52 -209l143 182
l11 49l16 103l89 5l-56 -262l155 190q63 77 135 77q16 0 27.5 -1.5t29.5 -5.5t31 -6l-17 -81q-20 4 -42 15.5t-40 11.5q-42 0 -83.5 -82.5t-41.5 -187.5q0 -54 14.5 -82.5t34.5 -28.5q31 0 83 45v-58q-64 -59 -120 -59q-44 0 -68.5 36t-24.5 102q0 94 51 205z" />
    <glyph glyph-name="afii10073" unicode="&#x437;" horiz-adv-x="416" 
d="M124 59q54 0 82 25.5t28 64.5q0 77 -72 77h-51v65h68q41 0 65 26.5t24 64.5q0 28 -13.5 46t-41.5 18q-21 0 -57.5 -14.5t-65.5 -19.5l-19 75q13 2 62 12.5t82 10.5q69 0 109 -33.5t40 -87.5q0 -43 -30 -80.5t-80 -48.5l-1 -3q37 -7 57.5 -35.5t20.5 -65.5q0 -72 -53 -119
t-136 -47q-42 0 -79 8t-53 16l-16 9l15 63q52 -27 115 -27z" />
    <glyph glyph-name="afii10074" unicode="&#x438;" horiz-adv-x="532" 
d="M123 500h98l-77 -364q-10 -48 10 -59.5t63 16.5l107 69l73 338h94l-90 -423l-13 -77l-89 -1l8 87l-103 -70q-37 -26 -72 -26q-54 0 -74 41t-7 105l58 276z" />
    <glyph glyph-name="afii10075" unicode="&#x439;" horiz-adv-x="532" 
d="M333 597q-57 0 -101 21t-68 51l63 63q8 -7 22.5 -23.5t23.5 -24.5t26 -15.5t38 -7.5q24 0 41 8.5t42 31.5t34 30l45 -62q-82 -72 -166 -72zM123 500h98l-77 -364q-10 -48 10 -59.5t63 16.5l107 69l73 338h94l-90 -423l-13 -77l-89 -1l8 87l-103 -70q-37 -26 -72 -26
q-54 0 -74 41t-7 105l58 276z" />
    <glyph glyph-name="afii10076" unicode="&#x43a;" horiz-adv-x="479" 
d="M411 0l-106 -5l-135 248l-31 -150l-15 -93h-98l84 397l16 103l100 5l-53 -248q155 157 220 243h99q-148 -175 -224 -244l86 -160z" />
    <glyph glyph-name="afii10077" unicode="&#x43b;" horiz-adv-x="536" 
d="M294 0l92 434h-122q-63 -265 -125 -362t-163 -72v80q72 -9 117 81t108 339h292l-88 -417l-13 -83h-98z" />
    <glyph glyph-name="afii10078" unicode="&#x43c;" horiz-adv-x="696" 
d="M97 0h-77l121 500l95 5l86 -323l239 318l90 5l-81 -412l-13 -93h-96l57 283l27 97h-7q-26 -46 -57 -87l-190 -253h-15l-69 250l-22 99h-6q-8 -58 -18 -100l-46 -192z" />
    <glyph glyph-name="afii10079" unicode="&#x43d;" horiz-adv-x="540" 
d="M298 0l47 221h-179l-27 -128l-15 -93h-98l84 397l16 103l100 5l-46 -218h179l23 110l16 103l100 5l-87 -412l-15 -93h-98z" />
    <glyph glyph-name="afii10080" unicode="&#x43e;" horiz-adv-x="527" 
d="M295 448q-42 0 -73 -29.5t-47 -76t-23.5 -91.5t-7.5 -88q0 -61 17 -86t57 -25q36 0 64 23.5t43.5 57t25.5 75.5t13 74.5t3 58.5q0 55 -16.5 81t-55.5 26zM469 336q0 -58 -17 -117t-48.5 -111t-85 -85t-118.5 -33q-74 0 -116 46t-42 131q0 79 28.5 155.5t92 132
t148.5 55.5q74 0 116 -46t42 -128z" />
    <glyph glyph-name="afii10081" unicode="&#x43f;" horiz-adv-x="532" 
d="M394 0h-98l77 364q10 48 -10 59.5t-63 -16.5l-108 -70l-72 -337h-94l90 423l13 77l99 3l-19 -90l104 71q37 26 72 26q54 0 74 -41t7 -105l-58 -276z" />
    <glyph glyph-name="afii10082" unicode="&#x440;" horiz-adv-x="541" 
d="M122 12l-38 -174l-15 -88h-98l145 670l13 77l99 3l-19 -86q66 59 104 77.5t76 18.5q72 0 93 -87q22 -93 -22 -215q-49 -132 -142 -188q-50 -30 -106 -30q-48 0 -90 22zM344 429q-20 0 -51 -18t-100 -73l2 13l-54 -251q22 -48 74 -48q74 0 126 108q46 93 45 187
q-2 81 -42 82z" />
    <glyph glyph-name="afii10083" unicode="&#x441;" horiz-adv-x="455" 
d="M297 441q-64 0 -108.5 -79.5t-44.5 -180.5q0 -61 24.5 -87.5t58.5 -26.5q58 0 147 65v-62q-103 -80 -174 -80q-75 0 -115.5 52.5t-40.5 142.5q0 135 79 230t177 95q25 0 46.5 -5t46.5 -14.5t36 -12.5l-31 -81q-19 6 -50 25t-51 19z" />
    <glyph glyph-name="afii10084" unicode="&#x442;" horiz-adv-x="779" 
d="M641 0h-97l77 364q10 48 -10.5 59.5t-63.5 -16.5l-93 -60l-54 -259l-14 -88h-98l76 364q10 48 -10.5 59.5t-63.5 -16.5l-97 -63l-74 -344h-93l90 423l13 77l98 3l-18 -83l94 64q37 26 72 26q43 0 65 -24.5t23 -67.5l97 66q37 26 72 26q54 0 74 -41t7 -105l-58 -276z" />
    <glyph glyph-name="afii10085" unicode="&#x443;" horiz-adv-x="483" 
d="M244 -3q-11 -13 -43.5 -51.5t-46.5 -55t-40.5 -46.5t-50.5 -54t-50 -49l-63 69q34 30 107.5 88t105.5 89l-90 428l-20 85l97 5l85 -432q111 165 106 427h93q8 -269 -190 -503z" />
    <glyph glyph-name="afii10086" unicode="&#x444;" horiz-adv-x="760" 
d="M570 695q-61 0 -83 -104l-31 -149q98 68 157 68q47 0 70 -41.5t23 -108.5q0 -80 -29.5 -163.5t-89.5 -145t-134 -61.5q-49 0 -84 29l-36 -177l-14 -93h-95l67 325q-48 -44 -86.5 -64t-81.5 -20t-64.5 39t-21.5 103q0 59 18.5 124t51 122.5t83.5 94.5t110 37q44 0 76 -29
l19 91q39 188 184 188q25 0 43 -2.5t38 -7t36 -6.5l-24 -80q-22 4 -51 17.5t-51 13.5zM571 429q-27 0 -54.5 -13t-75.5 -46l-56 -276q22 -42 71 -42q41 0 78 51t56.5 118.5t19.5 125.5q0 82 -39 82zM166 71q43 0 141 79l-5 -26l58 281q-22 43 -67 43t-84 -53t-58.5 -121
t-19.5 -126q0 -77 35 -77z" />
    <glyph glyph-name="afii10087" unicode="&#x445;" horiz-adv-x="493" 
d="M184 505l78 -195l60 81q23 31 40.5 58.5t23.5 38.5l6 12h106q-37 -66 -124 -158l-87 -92l70 -174l36 -76l-101 -5l-80 197l-44 -61q-28 -39 -49 -72.5t-28 -48.5l-7 -14l-105 6q39 69 127 161l83 86l-68 168q-8 21 -17.5 41.5t-15.5 31.5l-5 10z" />
    <glyph glyph-name="afii10088" unicode="&#x446;" horiz-adv-x="559" 
d="M399 0h-100l10 87l-105 -71q-37 -26 -72 -26q-54 0 -74 41t-7 105l58 276l14 88h98l-77 -364q-10 -48 10 -59.5t63 16.5l108 69l72 338h94l-93 -438h101l-25 -97l-32 -130l-73 -2z" />
    <glyph glyph-name="afii10089" unicode="&#x447;" horiz-adv-x="501" 
d="M357 0l-99 -3l55 256l-104 -70q-37 -26 -72 -26q-54 0 -74 41t-7 105l22 109l14 88h98l-41 -197q-10 -48 10 -59.5t63 16.5l107 69l37 171h94l-90 -423z" />
    <glyph glyph-name="afii10090" unicode="&#x448;" horiz-adv-x="787" 
d="M643 0h-89l9 82l-97 -66q-37 -26 -72 -26q-43 0 -64.5 26t-22.5 70l-103 -70q-37 -26 -72 -26q-54 0 -74 41t-7 105l58 276l14 88h98l-77 -364q-10 -48 10 -59.5t63 16.5l100 65l54 254l14 88h98l-77 -364q-10 -48 10 -59.5t63 16.5l100 64l73 343h94l-90 -423z" />
    <glyph glyph-name="afii10091" unicode="&#x449;" horiz-adv-x="814" 
d="M623 -167l30 167h-99l8 81l-96 -65q-37 -26 -72 -26q-43 0 -64.5 26t-22.5 70l-103 -70q-37 -26 -72 -26q-54 0 -74 41t-7 105l58 276l14 88h98l-77 -364q-10 -48 10 -59.5t63 16.5l100 65l54 254l14 88h98l-77 -364q-10 -48 10 -59.5t63 16.5l99 64l74 343h94l-93 -438
h100l-25 -97l-32 -130z" />
    <glyph glyph-name="afii10092" unicode="&#x44a;" horiz-adv-x="543" 
d="M145 215l6 26q20 85 69 198l-100 -4l-70 -6l6 71h244v-21q-29 -109 -43 -180l53 24q41 15 80 13t67 -33.5t28 -83.5q0 -96 -65.5 -162.5t-154.5 -66.5q-80 0 -113.5 54.5t-6.5 170.5zM294 258l-50 -23q-6 -26 -9 -40q-16 -76 -6.5 -109.5t49.5 -33.5q45 0 79.5 41.5
t34.5 102.5q0 48 -27 65t-71 -3z" />
    <glyph glyph-name="afii10093" unicode="&#x44b;" horiz-adv-x="683" 
d="M53 160l52 237l16 103l100 5l-43 -205l52 23q30 13 61 13.5t56.5 -11t41.5 -39.5t16 -67q0 -96 -65.5 -162.5t-154.5 -66.5q-78 0 -114 43t-18 127zM441 0l84 397l16 103l100 5l-87 -412l-15 -93h-98zM214 258l-50 -23l-18 -87q-20 -96 52 -96q45 0 79.5 41.5t34.5 102.5
q0 48 -27 65t-71 -3z" />
    <glyph glyph-name="afii10094" unicode="&#x44c;" horiz-adv-x="463" 
d="M53 160l52 237l16 103l100 5l-43 -205l52 23q30 13 61 13.5t56.5 -11t41.5 -39.5t16 -67q0 -96 -65.5 -162.5t-154.5 -66.5q-78 0 -114 43t-18 127zM214 258l-50 -23l-18 -87q-20 -96 52 -96q45 0 79.5 41.5t34.5 102.5q0 48 -27 65t-71 -3z" />
    <glyph glyph-name="afii10095" unicode="&#x44d;" horiz-adv-x="447" 
d="M139 57q47 0 85 44t54 115l-181 -8v83l190 -7v13q0 143 -81 143q-20 0 -53.5 -14.5t-62.5 -19.5l-19 80q18 2 64.5 13t72.5 11q92 0 135.5 -54.5t43.5 -148.5q0 -73 -30 -144.5t-89.5 -122t-133.5 -50.5q-38 0 -72.5 8t-49.5 16l-16 9l29 79q57 -45 114 -45z" />
    <glyph glyph-name="afii10096" unicode="&#x44e;" horiz-adv-x="743" 
d="M685 336q0 -58 -17 -117t-48.5 -111t-85 -85t-118.5 -33q-74 0 -116 46t-42 131q0 25 3 54h-95l-27 -128l-15 -93h-98l84 397l16 103l100 5l-46 -218h95q28 96 93 159.5t159 63.5q74 0 116 -46t42 -128zM511 448q-42 0 -73 -29.5t-47 -76t-23.5 -91.5t-7.5 -88
q0 -61 17 -86t57 -25q44 0 76 35t47 86.5t21.5 94t6.5 73.5q0 57 -17 82t-57 25z" />
    <glyph glyph-name="afii10097" unicode="&#x44f;" horiz-adv-x="514" 
d="M272 0l35 166h-37q-24 0 -50 4l-121 -170h-111l156 204q-34 13 -53 41.5t-19 65.5q0 89 72 139t176 50h152l-87 -407l-15 -93h-98zM173 324q0 -43 25.5 -67.5t69.5 -24.5h53l43 202h-67q-52 0 -88 -32.5t-36 -77.5z" />
    <glyph glyph-name="afii10071" unicode="&#x451;" horiz-adv-x="479" 
d="M210 589q-24 0 -39.5 16t-15.5 42t16.5 45.5t47.5 19.5q26 0 40.5 -15.5t14.5 -40.5q0 -28 -17 -47.5t-47 -19.5zM403 589q-24 0 -39.5 16t-15.5 42t16.5 45.5t47.5 19.5q26 0 40.5 -15.5t14.5 -40.5q0 -28 -17.5 -47.5t-46.5 -19.5zM380 70q-104 -80 -186 -80
q-74 0 -114.5 53t-37.5 142q5 138 83.5 231.5t185.5 93.5q63 0 96.5 -29.5t31.5 -81.5q-2 -48 -39 -80t-130 -64l-126 -43q-2 -22 -2 -31q-2 -61 24 -87.5t64 -26.5q57 0 150 65v-62zM286 444q-47 0 -81 -47t-51 -121l67 25q71 27 92.5 46.5t22.5 48.5q1 20 -13 34t-37 14z
" />
    <glyph glyph-name="afii10099" unicode="&#x452;" horiz-adv-x="532" 
d="M466 364l-75 -363q-10 -47 -34.5 -86t-47 -58t-58.5 -45.5t-50 -39.5l-44 54q13 13 39 32.5t42.5 33.5t34 44.5t26.5 72.5l74 355q10 48 -10 59.5t-63 -16.5l-108 -70l-72 -337h-94l120 569h-95v64h109l8 37l13 77l99 3l-25 -117h130v-64h-144l-33 -156l105 71
q37 26 72 26q54 0 74 -41t7 -105z" />
    <glyph glyph-name="afii10100" unicode="&#x453;" horiz-adv-x="407" 
d="M294 300l-73 -73t-71 -72q-25 -26 -26 -50q0 -33 37 -33q32 0 77 22.5t85 64.5l-3 -69q-100 -98 -191 -98q-43 0 -69.5 23t-25.5 62q3 63 61 123q23 24 70.5 71t68.5 69q29 29 30 56q1 15 -9.5 22.5t-26.5 7.5q-67 0 -160 -87l3 69q100 98 201 98q40 0 63.5 -21.5
t22.5 -62.5q-2 -57 -64 -122zM233 586l-32 48l188 151l55 -79z" />
    <glyph glyph-name="afii10101" unicode="&#x454;" horiz-adv-x="456" 
d="M297 441q-47 0 -84 -44.5t-56 -113.5l171 18v-83l-183 -1q-1 -12 -1 -36q0 -61 24.5 -87.5t58.5 -26.5q58 0 147 65v-62q-103 -80 -174 -80q-75 0 -115.5 52.5t-40.5 142.5q0 135 79 230t177 95q25 0 46.5 -5t46.5 -14.5t36 -12.5l-31 -81q-19 6 -50 25t-51 19z" />
    <glyph glyph-name="afii10102" unicode="&#x455;" horiz-adv-x="420" 
d="M164 -8q-32 0 -59 3t-58 8.5t-48 7.5l25 82q20 -2 64.5 -15.5t79.5 -13.5q37 0 56.5 17.5t19.5 48.5q0 25 -16.5 46.5t-40 38.5t-47 36t-40 48.5t-16.5 67.5q0 62 40 102.5t113 40.5q23 0 45 -3.5t32 -6t38 -11.5t37 -12l-31 -81q-23 6 -60 23t-66 17q-27 0 -43 -16.5
t-16 -42.5q0 -25 16.5 -46t40.5 -38.5t47.5 -37t40 -50.5t16.5 -70q0 -71 -47 -107t-123 -36z" />
    <glyph glyph-name="afii10103" unicode="&#x456;" horiz-adv-x="268" 
d="M129 500l99 3l-108 -503h-94l90 423zM199 601q-24 0 -39.5 16t-15.5 42t16.5 45.5t47.5 19.5q24 0 39.5 -16t15.5 -42t-16.5 -45.5t-47.5 -19.5z" />
    <glyph glyph-name="afii10104" unicode="&#x457;" horiz-adv-x="268" 
d="M129 500l99 3l-108 -503h-94l90 423zM87 589q-24 0 -39.5 16t-15.5 42t16.5 45.5t47.5 19.5q26 0 40.5 -15.5t14.5 -40.5q0 -28 -17 -47.5t-47 -19.5zM280 589q-24 0 -39.5 16t-15.5 42t16.5 45.5t47.5 19.5q26 0 40.5 -15.5t14.5 -40.5q0 -28 -17.5 -47.5t-46.5 -19.5z
" />
    <glyph glyph-name="afii10105" unicode="&#x458;" horiz-adv-x="268" 
d="M227 505l-101 -479q-11 -51 -34.5 -94t-44.5 -65.5t-61.5 -61.5t-61.5 -62l-47 49q18 22 50 55.5t47.5 52t33 52t25.5 74.5l78 371l16 103zM198 601q-24 0 -39.5 16t-15.5 42t16.5 45.5t47.5 19.5q24 0 39.5 -16t15.5 -42t-16.5 -45.5t-47.5 -19.5z" />
    <glyph glyph-name="afii10106" unicode="&#x459;" horiz-adv-x="732" 
d="M322 160l60 274h-122q-58 -261 -120 -360t-162 -74v80q72 -9 114 80.5t97 339.5h300l-42 -200l52 23q30 13 61 13.5t56.5 -11t41.5 -39.5t16 -67q0 -96 -65.5 -162.5t-154.5 -66.5q-78 0 -114 43t-18 127zM483 258l-50 -23l-18 -87q-20 -96 52 -96q45 0 79.5 41.5
t34.5 102.5q0 48 -27.5 65t-70.5 -3z" />
    <glyph glyph-name="afii10107" unicode="&#x45a;" horiz-adv-x="740" 
d="M330 160l13 61h-177l-27 -128l-15 -93h-98l84 397l16 103l100 5l-46 -218h178l24 110l16 103l100 5l-43 -205l52 23q30 13 61 13.5t56.5 -11t41.5 -39.5t16 -67q0 -96 -65.5 -162.5t-154.5 -66.5q-78 0 -114 43t-18 127zM491 258l-50 -23l-18 -87q-20 -96 52 -96
q45 0 79.5 41.5t34.5 102.5q0 48 -27.5 65t-70.5 -3z" />
    <glyph glyph-name="afii10108" unicode="&#x45b;" horiz-adv-x="532" 
d="M394 0h-98l77 364q10 48 -10 59.5t-63 -16.5l-108 -70l-72 -337h-94l120 569h-95v64h109l8 37l13 77l99 3l-25 -117h130v-64h-144l-33 -156l105 71q37 26 72 26q54 0 74 -41t7 -105l-58 -276z" />
    <glyph glyph-name="afii10109" unicode="&#x45c;" horiz-adv-x="479" 
d="M411 0l-106 -5l-135 248l-31 -150l-15 -93h-98l84 397l16 103l100 5l-53 -248q155 157 220 243h99q-148 -175 -224 -244l86 -160zM299 589l-32 48l188 151l55 -79z" />
    <glyph glyph-name="afii10110" unicode="&#x45e;" horiz-adv-x="483" 
d="M264 597q-57 0 -101 21t-68 51l63 63q8 -7 22.5 -23.5t23.5 -24.5t26 -15.5t38 -7.5q24 0 41 8.5t42 31.5t34 30l45 -62q-82 -72 -166 -72zM244 -3q-11 -13 -43.5 -51.5t-46.5 -55t-40.5 -46.5t-50.5 -54t-50 -49l-63 69q34 30 107.5 88t105.5 89l-90 428l-20 85l97 5
l85 -432q111 165 106 427h93q8 -269 -190 -503z" />
    <glyph glyph-name="afii10193" unicode="&#x45f;" horiz-adv-x="532" 
d="M161 -237h-56q15 20 20.5 56t18 75t44.5 72l55 -1q-14 -19 -17 -53.5t-15 -73.5t-50 -75zM123 500h98l-77 -364q-10 -48 10 -59.5t63 16.5l107 69l73 338h94l-90 -423l-13 -77l-89 -1l8 87l-103 -70q-37 -26 -72 -26q-54 0 -74 41t-7 105l58 276z" />
    <glyph glyph-name="afii10050" unicode="&#x490;" horiz-adv-x="495" 
d="M498 843h69l-45 -225l-262 9l-94 -534l-12 -93h-103l106 598l12 102h289z" />
    <glyph glyph-name="afii10098" unicode="&#x491;" horiz-adv-x="406" 
d="M375 634h79l-56 -217l-189 5l-72 -339l-13 -83h-98l85 397l15 103h210l14 40z" />
    <glyph glyph-name="Wgrave" unicode="&#x1e80;" horiz-adv-x="875" 
d="M459 700l95 5l26 -481l4 -99h4q15 49 37 100l120 279q40 94 70 196h95q-31 -100 -90 -226l-220 -472l-97 -6l-25 455v116h-4q-13 -57 -35 -113l-175 -452l-104 -6l-48 583q-3 33 -6.5 62.5t-5.5 42.5l-3 13l99 6l37 -477l6 -102h4q12 48 32 99zM548 808l-47 -34l-138 136
l72 61z" />
    <glyph glyph-name="wgrave" unicode="&#x1e81;" horiz-adv-x="708" 
d="M341 500h81l16 -427q134 159 161 427h88q-23 -271 -248 -500h-79l-10 200l2 89h-5q-5 -49 -21 -86q-47 -112 -138 -203h-82l-22 403l-8 97l94 5l20 -426q64 77 103.5 190.5t47.5 230.5zM420 635l-47 -34l-138 136l72 61z" />
    <glyph glyph-name="Wacute" unicode="&#x1e82;" horiz-adv-x="875" 
d="M459 700l95 5l26 -481l4 -99h4q15 49 37 100l120 279q40 94 70 196h95q-31 -100 -90 -226l-220 -472l-97 -6l-25 455v116h-4q-13 -57 -35 -113l-175 -452l-104 -6l-48 583q-3 33 -6.5 62.5t-5.5 42.5l-3 13l99 6l37 -477l6 -102h4q12 48 32 99zM513 785l-32 48l188 151
l55 -79z" />
    <glyph glyph-name="wacute" unicode="&#x1e83;" horiz-adv-x="708" 
d="M341 500h81l16 -427q134 159 161 427h88q-23 -271 -248 -500h-79l-10 200l2 89h-5q-5 -49 -21 -86q-47 -112 -138 -203h-82l-22 403l-8 97l94 5l20 -426q64 77 103.5 190.5t47.5 230.5zM360 590l-32 48l188 151l55 -79z" />
    <glyph glyph-name="Wdieresis" unicode="&#x1e84;" horiz-adv-x="875" 
d="M459 700l95 5l26 -481l4 -99h4q15 49 37 100l120 279q40 94 70 196h95q-31 -100 -90 -226l-220 -472l-97 -6l-25 455v116h-4q-13 -57 -35 -113l-175 -452l-104 -6l-48 583q-3 33 -6.5 62.5t-5.5 42.5l-3 13l99 6l37 -477l6 -102h4q12 48 32 99zM417 785q-24 0 -39.5 16
t-15.5 42t16.5 45.5t47.5 19.5q26 0 40.5 -15.5t14.5 -40.5q0 -28 -17 -47.5t-47 -19.5zM610 785q-24 0 -39.5 16t-15.5 42t16.5 45.5t47.5 19.5q26 0 40.5 -15.5t14.5 -40.5q0 -28 -17.5 -47.5t-46.5 -19.5z" />
    <glyph glyph-name="wdieresis" unicode="&#x1e85;" horiz-adv-x="708" 
d="M341 500h81l16 -427q134 159 161 427h88q-23 -271 -248 -500h-79l-10 200l2 89h-5q-5 -49 -21 -86q-47 -112 -138 -203h-82l-22 403l-8 97l94 5l20 -426q64 77 103.5 190.5t47.5 230.5zM290 589q-24 0 -39.5 16t-15.5 42t16.5 45.5t47.5 19.5q26 0 40.5 -15.5t14.5 -40.5
q0 -28 -17 -47.5t-47 -19.5zM483 589q-24 0 -39.5 16t-15.5 42t16.5 45.5t47.5 19.5q26 0 40.5 -15.5t14.5 -40.5q0 -28 -17.5 -47.5t-46.5 -19.5z" />
    <glyph glyph-name="Ygrave" unicode="&#x1ef2;" horiz-adv-x="542" 
d="M170 0l49 278l-109 330l-36 92l104 5l116 -352l144 224q21 33 38 64t24 45l6 14h97q-33 -63 -100 -158l-185 -263l-33 -186l-12 -93h-103zM391 809l-47 -34l-138 136l72 61z" />
    <glyph glyph-name="ygrave" unicode="&#x1ef3;" horiz-adv-x="479" 
d="M244 -3q-11 -13 -43.5 -51.5t-46.5 -55t-40.5 -46.5t-50.5 -54t-50 -49l-63 69q34 30 107.5 88t105.5 89l-90 428l-20 85l97 5l85 -432q111 165 106 427h93q8 -269 -190 -503zM274 632l-47 -34l-138 136l72 61z" />
    <glyph glyph-name="thinspace" unicode="&#x2009;" horiz-adv-x="40" 
 />
    <glyph glyph-name="endash" unicode="&#x2013;" horiz-adv-x="672" 
d="M80 259v74h511v-74h-511z" />
    <glyph glyph-name="emdash" unicode="&#x2014;" horiz-adv-x="858" 
d="M84 262v74h691v-74h-691z" />
    <glyph glyph-name="quoteleft" unicode="&#x2018;" horiz-adv-x="255" 
d="M229 717l38 -42q-73 -56 -101 -140q25 0 41.5 -13.5t16.5 -41.5t-20 -50.5t-50 -22.5q-66 0 -66 76q0 52 40 121t101 113z" />
    <glyph glyph-name="quoteright" unicode="&#x2019;" horiz-adv-x="252" 
d="M119 407l-38 42q73 56 101 140q-25 0 -41.5 13.5t-16.5 41.5t20 50.5t50 22.5q66 0 66 -76q0 -52 -40 -121t-101 -113z" />
    <glyph glyph-name="quotesinglbase" unicode="&#x201a;" horiz-adv-x="263" 
d="M17 -197l-38 42q73 56 101 140q-25 0 -41.5 13.5t-16.5 41.5t20 50.5t50 22.5q66 0 66 -76q0 -52 -40 -121t-101 -113z" />
    <glyph glyph-name="quotereversed" unicode="&#x201b;" horiz-adv-x="259" 
d="M240 449l-40 -33q-47 40 -72 98t-25 121q0 79 69 79q29 0 47.5 -16.5t18.5 -45.5q0 -30 -19.5 -46t-47.5 -15q5 -84 69 -142z" />
    <glyph glyph-name="quotedblleft" unicode="&#x201c;" horiz-adv-x="459" 
d="M229 717l38 -42q-73 -56 -101 -140q25 0 41.5 -13.5t16.5 -41.5t-20 -50.5t-50 -22.5q-66 0 -66 76q0 52 40 121t101 113zM433 717l38 -42q-73 -56 -101 -140q25 0 41.5 -13.5t16.5 -41.5t-20 -50.5t-50 -22.5q-66 0 -66 76q0 52 40 121t101 113z" />
    <glyph glyph-name="quotedblright" unicode="&#x201d;" horiz-adv-x="456" 
d="M323 407l-38 42q73 56 101 140q-25 0 -41.5 13.5t-16.5 41.5t20 50.5t50 22.5q66 0 66 -76q0 -52 -40 -121t-101 -113zM119 407l-38 42q73 56 101 140q-25 0 -41.5 13.5t-16.5 41.5t20 50.5t50 22.5q66 0 66 -76q0 -52 -40 -121t-101 -113z" />
    <glyph glyph-name="quotedblbase" unicode="&#x201e;" horiz-adv-x="467" 
d="M221 -197l-38 42q73 56 101 140q-25 0 -41.5 13.5t-16.5 41.5t20 50.5t50 22.5q66 0 66 -76q0 -52 -40 -121t-101 -113zM17 -197l-38 42q73 56 101 140q-25 0 -41.5 13.5t-16.5 41.5t20 50.5t50 22.5q66 0 66 -76q0 -52 -40 -121t-101 -113z" />
    <glyph glyph-name="uni201F" unicode="&#x201f;" horiz-adv-x="463" 
d="M240 449l-40 -33q-47 40 -72 98t-25 121q0 79 69 79q29 0 47.5 -16.5t18.5 -45.5q0 -30 -19.5 -46t-47.5 -15q5 -84 69 -142zM444 449l-40 -33q-47 40 -72 98t-25 121q0 79 69 79q29 0 47.5 -16.5t18.5 -45.5q0 -30 -19.5 -46t-47.5 -15q5 -84 69 -142z" />
    <glyph glyph-name="dagger" unicode="&#x2020;" horiz-adv-x="541" 
d="M71 500l194 -5l42 220h93l-52 -220l196 5l-15 -74l-194 5l-130 -634l-53 -47l-40 47l140 634l-196 -5z" />
    <glyph glyph-name="daggerdbl" unicode="&#x2021;" horiz-adv-x="595" 
d="M475 -35l-199 4l-38 -219h-88l45 219l-197 -4l14 74l196 -4l31 190l50 207l-203 -6l14 74l201 -6l36 221h88l-49 -221l202 6l-14 -74l-200 6l-31 -207l-45 -190l201 4z" />
    <glyph glyph-name="bullet" unicode="&#x2022;" horiz-adv-x="286" 
d="M138 228q-34 0 -51 22t-17 52q0 31 18.5 50t55.5 19q35 0 54 -22t19 -49q0 -33 -20.5 -52.5t-58.5 -19.5z" />
    <glyph glyph-name="onedotenleader" unicode="&#x2024;" horiz-adv-x="263" 
d="M89 -15q-29 0 -47 17.5t-18 45.5q0 29 19.5 45.5t51.5 16.5q30 0 47 -16t17 -44q0 -30 -19 -47.5t-51 -17.5z" />
    <glyph glyph-name="twodotenleader" unicode="&#x2025;" horiz-adv-x="518" 
d="M89 -15q-29 0 -47 17.5t-18 45.5q0 29 19.5 45.5t51.5 16.5q30 0 47 -16t17 -44q0 -30 -19 -47.5t-51 -17.5zM344 -15q-29 0 -47 17.5t-18 45.5q0 29 19.5 45.5t51.5 16.5q30 0 47 -16t17 -44q0 -30 -19 -47.5t-51 -17.5z" />
    <glyph glyph-name="ellipsis" unicode="&#x2026;" horiz-adv-x="772" 
d="M89 -15q-29 0 -47 17.5t-18 45.5q0 29 19.5 45.5t51.5 16.5q30 0 47 -16t17 -44q0 -30 -19 -47.5t-51 -17.5zM343 -15q-29 0 -47 17.5t-18 45.5q0 29 19.5 45.5t51.5 16.5q30 0 47 -16t17 -44q0 -30 -19 -47.5t-51 -17.5zM598 -15q-29 0 -47 17.5t-18 45.5
q0 29 19.5 45.5t51.5 16.5q30 0 47 -16t17 -44q0 -30 -19 -47.5t-51 -17.5z" />
    <glyph glyph-name="perthousand" unicode="&#x2030;" horiz-adv-x="1356" 
d="M249 404q52 0 82.5 45.5t30.5 104.5q0 43 -19 70t-59 27q-53 0 -83 -47t-30 -108q0 -92 78 -92zM240 341q-72 0 -118 38.5t-46 111.5q0 90 58.5 156.5t161.5 66.5q78 0 120.5 -42.5t42.5 -107.5q0 -97 -61 -160t-158 -63zM275 0h-98l502 700h97zM675 53q52 0 82.5 45.5
t30.5 104.5q0 43 -19 70t-59 27q-53 0 -83 -47t-30 -108q0 -92 78 -92zM666 -10q-72 0 -118 38.5t-46 111.5q0 90 58.5 156.5t161.5 66.5q78 0 120.5 -42.5t42.5 -107.5q0 -97 -61 -160t-158 -63zM1091 53q52 0 82.5 45.5t30.5 104.5q0 43 -19 70t-59 27q-53 0 -83 -47
t-30 -108q0 -92 78 -92zM1082 -10q-72 0 -118 38.5t-46 111.5q0 90 58.5 156.5t161.5 66.5q78 0 120.5 -42.5t42.5 -107.5q0 -97 -61 -160t-158 -63z" />
    <glyph glyph-name="guilsinglleft" unicode="&#x2039;" horiz-adv-x="364" 
d="M22 283l275 226l51 -65l-233 -174l153 -221l-70 -49l-177 272z" />
    <glyph glyph-name="guilsinglright" unicode="&#x203a;" horiz-adv-x="366" 
d="M329 225l-275 -226l-51 65l233 174l-153 221l70 49l177 -272z" />
    <glyph glyph-name="fraction" unicode="&#x2044;" horiz-adv-x="384" 
d="M46 0h-83l396 701h82z" />
    <glyph glyph-name="Euro" unicode="&#x20ac;" horiz-adv-x="660" 
d="M492 635q-65 0 -118.5 -45.5t-85.5 -119.5h222l-13 -74h-233q-11 -50 -11 -96h227l-12 -74h-210q25 -156 166 -156q34 0 67 5t49 9l15 5l5 -70q-49 -29 -153 -29q-112 0 -179 62t-79 174h-82v74h80q3 48 15 96h-95v74h119q46 108 131.5 175.5t191.5 67.5q31 0 59 -7
t57 -18.5t45 -15.5l-28 -77q-17 4 -62 22t-88 18z" />
    <glyph glyph-name="afii61352" unicode="&#x2116;" horiz-adv-x="1097" 
d="M870 277q39 0 71.5 54.5t32.5 127.5q0 82 -56 82q-42 0 -73.5 -54.5t-31.5 -123.5q0 -86 57 -86zM851 221q-62 0 -95 37.5t-33 99.5q0 100 61 169.5t147 69.5q66 0 100.5 -37.5t34.5 -99.5q0 -96 -64 -167.5t-151 -71.5zM707 110v64h286v-64h-286zM463 -10l-203 475
l-35 101h-3q-2 -61 -10 -106l-64 -367l-12 -93h-85l106 598l12 103l87 5l201 -472q11 -25 20 -51.5t13 -40.5l4 -14l4 1q-1 52 8 104l65 365l12 103l87 5l-125 -706z" />
    <glyph glyph-name="trademark" unicode="&#x2122;" horiz-adv-x="811" 
d="M155 381l51 263l-106 -6l8 62h289l-15 -62l-100 6l-37 -190l-11 -73h-79zM561 417h-14l-56 106q-8 14 -14.5 29.5t-9.5 24.5l-3 9l-2 -1q-2 -35 -9 -73l-13 -66l-9 -64h-68l45 230l11 88l71 4l68 -138l19 -47h2q13 21 32 44l114 137l76 4l-49 -250l-10 -72h-79l29 147
l17 67l-3 1q-15 -22 -45 -59z" />
    <glyph glyph-name="estimated" unicode="&#x212e;" horiz-adv-x="816" 
d="M411 -53q-150 0 -255.5 95t-105.5 230q0 134 105.5 229.5t255.5 95.5q149 0 255 -95.5t106 -229.5v-9h-585q-5 0 -5 -4v-177q0 -12 8 -20q91 -96 222 -96q138 0 232 107h53q-51 -58 -126 -92t-160 -34zM187 281h448q5 0 5 5v178q0 11 -10 21q-90 92 -218 92
q-129 0 -221 -95q-9 -9 -9 -22v-174q0 -5 5 -5z" />
    <glyph glyph-name="uni2139" unicode="&#x2139;" horiz-adv-x="431" 
d="M67 397l228 26l-1 -343q0 -46 71 -52v-28l-299 -1v27q35 0 54 13.5t19 36.5v232q0 45 -72 54v35zM217 634q33 0 56 -23t23 -56t-22.5 -57t-54.5 -24q-33 0 -56.5 21t-23.5 55q0 37 22 60.5t56 23.5z" />
    <glyph glyph-name="uni2150" unicode="&#x2150;" horiz-adv-x="760" 
d="M113 0l-49 40q290 335 568 669l50 -38q-273 -312 -569 -671zM488 323l5 58h244v-31q-80 -117 -183 -363l-73 21q88 179 192 321zM94 674l148 32h18l-74 -382h-69l62 319l-79 -5z" />
    <glyph glyph-name="uni2151" unicode="&#x2151;" horiz-adv-x="801" 
d="M486 20q70 12 115.5 50t65.5 93q-33 -26 -82 -26q-48 0 -79.5 29t-31.5 75q0 62 39 103.5t106 41.5q61 0 95 -38.5t34 -105.5q0 -79 -38.5 -137t-94 -86.5t-123.5 -36.5zM113 0l-49 40q290 335 568 669l50 -38q-273 -312 -569 -671zM94 674l148 32h18l-74 -382h-69
l62 319l-79 -5zM607 187q47 0 73 38q1 6 1 19q0 44 -15.5 70.5t-46.5 26.5q-36 0 -56.5 -24.5t-20.5 -66.5q0 -63 65 -63z" />
    <glyph glyph-name="uni2152" unicode="&#x2152;" horiz-adv-x="1034" 
d="M789 -10q-62 0 -92 39t-30 101q0 110 56 182.5t136 72.5q61 0 91.5 -39.5t30.5 -101.5q0 -110 -55.5 -182t-136.5 -72zM113 0l-49 40q290 335 568 669l50 -38q-273 -312 -569 -671zM800 42q44 0 74 59.5t30 133.5q0 43 -14.5 69.5t-43.5 26.5q-45 0 -73.5 -61.5
t-28.5 -138.5q0 -89 56 -89zM94 674l148 32h18l-74 -382h-69l62 319l-79 -5zM472 350l148 32h18l-74 -382h-69l62 319l-79 -5z" />
    <glyph glyph-name="onethird" unicode="&#x2153;" horiz-adv-x="760" 
d="M119 0l-49 40q290 335 568 669l50 -38q-273 -312 -569 -671zM504 171l6 46h24q41 0 64.5 20t23.5 51q0 46 -63 46q-15 0 -34 -4t-31 -8l-12 -3l3 47q37 16 93 16q58 0 88 -24.5t30 -63.5q0 -35 -28 -63t-73 -38q34 -5 54.5 -25t20.5 -55q0 -52 -39.5 -86.5t-119.5 -34.5
q-28 0 -54 5.5t-39 10.5l-12 6l15 45q33 -16 77 -16q100 0 100 69q0 59 -68 59h-26zM100 674l148 32h18l-74 -382h-69l62 319l-79 -5z" />
    <glyph glyph-name="twothirds" unicode="&#x2154;" horiz-adv-x="842" 
d="M196 0l-49 40q290 335 568 669l50 -38q-273 -312 -569 -671zM591 171l6 46h24q41 0 64.5 20t23.5 51q0 46 -63 46q-15 0 -34 -4t-31 -8l-12 -3l3 47q37 16 93 16q58 0 88 -24.5t30 -63.5q0 -35 -28 -63t-73 -38q34 -5 54.5 -25t20.5 -55q0 -52 -39.5 -86.5t-119.5 -34.5
q-28 0 -54 5.5t-38 10.5l-13 6l15 45q33 -16 77 -16q100 0 100 69q0 59 -68 59h-26zM63 324v30l89 85q51 49 70.5 70t35 47t15.5 52q0 55 -75 55q-20 0 -42 -4.5t-34 -9.5l-11 -5v46q45 24 115 24q53 0 83.5 -25.5t30.5 -71.5q0 -21 -8.5 -42t-17 -35.5t-33 -39.5
t-35.5 -35.5t-47 -42.5l-56 -51l190 12l-5 -59h-265z" />
    <glyph glyph-name="uni2155" unicode="&#x2155;" horiz-adv-x="765" 
d="M113 0l-49 40q290 335 568 669l50 -38q-273 -312 -569 -671zM721 381l-6 -56l-161 8l-24 -92q78 -6 114 -34.5t36 -83.5q0 -58 -42.5 -95.5t-115.5 -37.5q-29 0 -55.5 6t-38.5 12l-12 6l16 40q33 -16 78 -16q99 0 99 77q0 84 -136 84l47 182h201zM94 674l148 32h18
l-74 -382h-69l62 319l-79 -5z" />
    <glyph glyph-name="uni2156" unicode="&#x2156;" horiz-adv-x="839" 
d="M190 0l-49 40q290 335 568 669l50 -38q-273 -312 -569 -671zM57 324v30l89 85q51 49 70.5 70t35 47t15.5 52q0 55 -75 55q-20 0 -42 -4.5t-34 -9.5l-11 -5v46q45 24 115 24q53 0 83.5 -25.5t30.5 -71.5q0 -21 -8.5 -42t-17 -35.5t-33 -39.5t-35.5 -35.5t-47 -42.5
l-56 -51l190 12l-5 -59h-265zM798 381l-6 -56l-161 8l-24 -92q78 -6 114 -34.5t36 -83.5q0 -58 -42.5 -95.5t-115.5 -37.5q-29 0 -55.5 6t-38.5 12l-12 6l16 40q33 -16 78 -16q99 0 99 77q0 84 -136 84l47 182h201z" />
    <glyph glyph-name="uni2157" unicode="&#x2157;" horiz-adv-x="792" 
d="M150 0l-49 40q290 335 568 669l50 -38q-273 -312 -569 -671zM145 499l6 46h24q41 0 64.5 20t23.5 51q0 46 -63 46q-15 0 -34 -4t-31 -8l-12 -3l3 47q37 16 93 16q58 0 88 -24.5t30 -63.5q0 -35 -28 -63t-73 -38q34 -5 54.5 -25t20.5 -55q0 -52 -39.5 -86.5t-119.5 -34.5
q-28 0 -54 5.5t-38 10.5l-13 6l15 45q33 -16 77 -16q100 0 100 69q0 59 -68 59h-26zM750 381l-6 -56l-161 8l-24 -92q78 -6 114 -34.5t36 -83.5q0 -58 -42.5 -95.5t-115.5 -37.5q-29 0 -55.5 6t-38.5 12l-12 6l16 40q33 -16 78 -16q99 0 99 77q0 84 -136 84l47 182h201z" />
    <glyph glyph-name="uni2158" unicode="&#x2158;" horiz-adv-x="841" 
d="M366 458l-7 -45h-78l-9 -45l-8 -52h-69l18 97h-159v32l224 269l60 -7l-49 -250zM197 0l-49 40q290 335 568 669l50 -38q-273 -312 -569 -671zM795 381l-6 -56l-161 8l-24 -92q78 -6 114 -34.5t36 -83.5q0 -58 -42.5 -95.5t-115.5 -37.5q-29 0 -55.5 6t-38.5 12l-12 6
l16 40q33 -16 78 -16q99 0 99 77q0 84 -136 84l47 182h201zM221 577l-104 -120h105l21 112l15 61h-2q-16 -30 -35 -53z" />
    <glyph glyph-name="uni2159" unicode="&#x2159;" horiz-adv-x="763" 
d="M683 358q-139 -26 -182 -143q38 26 83 26q48 0 79.5 -29t31.5 -75q0 -62 -39 -103.5t-106 -41.5q-61 0 -95 38.5t-34 105.5q0 79 38.5 137t94 86.5t123.5 36.5zM113 0l-49 40q290 335 568 669l50 -38q-273 -312 -569 -671zM94 674l148 32h18l-74 -382h-69l62 319l-79 -5z
M562 191q-42 0 -74 -38v-19q0 -44 15.5 -70.5t46.5 -26.5q36 0 56.5 24.5t20.5 66.5q0 63 -65 63z" />
    <glyph glyph-name="uni215A" unicode="&#x215a;" horiz-adv-x="805" 
d="M728 358q-139 -26 -182 -143q38 26 83 26q48 0 79.5 -29t31.5 -75q0 -62 -39 -103.5t-106 -41.5q-61 0 -95 38.5t-34 105.5q0 79 38.5 137t94 86.5t123.5 36.5zM160 0l-49 40q290 335 568 669l50 -38q-273 -312 -569 -671zM352 700l-6 -56l-161 8l-24 -92q78 -6 114 -35
t36 -83q0 -58 -42.5 -95.5t-115.5 -37.5q-29 0 -55.5 6t-38.5 12l-12 6l16 40q33 -16 78 -16q99 0 99 77q0 84 -136 84l47 182h201zM607 191q-42 0 -74 -38v-19q0 -44 15.5 -70.5t46.5 -26.5q36 0 56.5 24.5t20.5 66.5q0 63 -65 63z" />
    <glyph glyph-name="oneeighth" unicode="&#x215b;" horiz-adv-x="788" 
d="M447 76q0 36 25 67t69 52q-56 38 -56 84t36 75.5t100 29.5q46 0 74 -20t28 -56q0 -62 -83 -106q31 -20 48 -40.5t17 -50.5q0 -54 -39.5 -88t-109.5 -34q-48 0 -78.5 22.5t-30.5 64.5zM119 0l-49 40q290 335 568 669l50 -38q-273 -312 -569 -671zM100 674l148 32h18
l-74 -382h-69l62 319l-79 -5zM639 97q0 16 -11 31.5t-23 24.5t-34 23q-61 -37 -61 -86q0 -25 16 -38.5t41 -13.5q31 0 51.5 16t20.5 43zM552 292q0 -22 15 -38t44 -34q46 35 46 79q0 41 -48 41q-25 0 -41 -12.5t-16 -35.5z" />
    <glyph glyph-name="threeeighths" unicode="&#x215c;" horiz-adv-x="822" 
d="M485 76q0 36 25 67t69 52q-56 38 -56 84t36 75.5t100 29.5q46 0 74 -20t28 -56q0 -62 -83 -106q31 -20 48 -40.5t17 -50.5q0 -54 -39.5 -88t-109.5 -34q-48 0 -78.5 22.5t-30.5 64.5zM157 0l-49 40q290 335 568 669l50 -38q-273 -312 -569 -671zM152 499l6 46h24
q41 0 64.5 20t23.5 51q0 46 -63 46q-15 0 -34 -4t-31 -8l-12 -3l3 47q37 16 93 16q58 0 88 -24.5t30 -63.5q0 -35 -28 -63t-73 -38q34 -5 54.5 -25t20.5 -55q0 -52 -39.5 -86.5t-119.5 -34.5q-28 0 -54 5.5t-39 10.5l-12 6l15 45q33 -16 77 -16q100 0 100 69q0 59 -68 59
h-26zM677 97q0 16 -11 31.5t-23 24.5t-34 23q-61 -37 -61 -86q0 -25 16 -38.5t41 -13.5q31 0 51.5 16t20.5 43zM590 292q0 -22 15 -38t44 -34q46 35 46 79q0 41 -48 41q-25 0 -41 -12.5t-16 -35.5z" />
    <glyph glyph-name="fiveeighths" unicode="&#x215d;" horiz-adv-x="822" 
d="M485 76q0 36 25 67t69 52q-56 38 -56 84t36 75.5t100 29.5q46 0 74 -20t28 -56q0 -62 -83 -106q31 -20 48 -40.5t17 -50.5q0 -54 -39.5 -88t-109.5 -34q-48 0 -78.5 22.5t-30.5 64.5zM157 0l-49 40q290 335 568 669l50 -38q-273 -312 -569 -671zM359 700l-6 -56l-161 8
l-24 -92q78 -6 114 -35t36 -83q0 -58 -42.5 -95.5t-115.5 -37.5q-29 0 -55.5 6t-38.5 12l-12 6l16 40q33 -16 78 -16q99 0 99 77q0 84 -136 84l47 182h201zM677 97q0 16 -11 31.5t-23 24.5t-34 23q-61 -37 -61 -86q0 -25 16 -38.5t41 -13.5q31 0 51.5 16t20.5 43zM590 292
q0 -22 15 -38t44 -34q46 35 46 79q0 41 -48 41q-25 0 -41 -12.5t-16 -35.5z" />
    <glyph glyph-name="seveneighths" unicode="&#x215e;" horiz-adv-x="810" 
d="M471 76q0 36 25 67t69 52q-56 38 -56 84t36 75.5t100 29.5q46 0 74 -20t28 -56q0 -62 -83 -106q31 -20 48 -40.5t17 -50.5q0 -54 -39.5 -88t-109.5 -34q-48 0 -78.5 22.5t-30.5 64.5zM143 0l-49 40q290 335 568 669l50 -38q-273 -312 -569 -671zM101 642l5 58h244v-31
q-80 -117 -183 -363l-73 21q88 179 192 321zM663 97q0 16 -11 31.5t-23 24.5t-34 23q-61 -37 -61 -86q0 -25 16 -38.5t41 -13.5q31 0 51.5 16t20.5 43zM576 292q0 -22 15 -38t44 -34q46 35 46 79q0 41 -48 41q-25 0 -41 -12.5t-16 -35.5z" />
    <glyph glyph-name="uni215F" unicode="&#x215f;" horiz-adv-x="644" 
d="M118 0l-49 40q290 335 568 669l50 -38q-273 -312 -569 -671zM99 674l148 32h18l-74 -382h-69l62 319l-79 -5z" />
    <glyph glyph-name="arrowright" unicode="&#x2192;" horiz-adv-x="792" 
d="M600 280l-4 3q-39 35 -74 83.5t-50 81.5l64 34q49 -90 143 -176l50 -46v-29l-50 -46q-94 -86 -143 -176l-64 34q15 33 49.5 80.5t72.5 82.5h-529v74h535z" />
    <glyph glyph-name="arrowboth" unicode="&#x2194;" horiz-adv-x="973" 
d="M180 283l-4 -3h605l-4 3q-39 35 -74 83.5t-50 81.5l64 34q49 -90 143 -176l50 -46v-29l-50 -46q-94 -86 -143 -176l-64 34q15 33 49.5 80.5t72.5 82.5h-593q38 -35 72.5 -82.5t49.5 -80.5l-64 -34q-49 90 -143 176l-50 46v29l50 46q94 86 143 176l64 -34
q-15 -33 -50 -81.5t-74 -83.5z" />
    <glyph glyph-name="arrowupdn" unicode="&#x2195;" horiz-adv-x="651" 
d="M118 425l-34 59q84 46 173 143l46 50h29l46 -50q83 -90 179 -143l-34 -59q-29 13 -80 51t-87 77v-615q36 38 86.5 76t80.5 52l34 -59q-96 -53 -179 -143l-46 -50h-29l-46 50q-89 97 -173 143l34 59q31 -15 79.5 -50.5t85.5 -76.5v613q-38 -41 -86.5 -77.5t-78.5 -49.5z
" />
    <glyph glyph-name="Delta" unicode="&#x2206;" horiz-adv-x="645" 
d="M338 466l-235 -390h362l-65 389q-4 23 -5.5 48.5t-1.5 39.5v14h-4q-1 0 -7.5 -15t-19 -40.5t-24.5 -45.5zM-3 0l-12 29l415 671h52l114 -673l-21 -27h-548z" />
    <glyph glyph-name="minus" unicode="&#x2212;" horiz-adv-x="552" 
d="M88 253v64h371v-64h-371z" />
    <glyph glyph-name="radical" unicode="&#x221a;" horiz-adv-x="657" 
d="M729 750l-404 -750l-96 -5l-73 434h-96v71h179l48 -299q4 -28 6 -57.5t2 -45.5v-16h4q23 56 55 117l287 551h88z" />
    <glyph glyph-name="infinity" unicode="&#x221e;" horiz-adv-x="747" 
d="M226 430q83 0 154 -95q91 95 182 95q50 0 83.5 -31t33.5 -85q0 -69 -45 -119.5t-117 -50.5q-89 0 -154 92q-95 -92 -182 -92q-50 0 -83.5 31t-33.5 85q0 69 45 119.5t117 50.5zM221 359q-41 0 -62.5 -23.5t-21.5 -57.5q0 -63 60 -63q59 0 137 71q-21 25 -31.5 36.5
t-33.5 24t-48 12.5zM522 215q41 0 61.5 23.5t20.5 57.5q0 63 -58 63q-55 0 -138 -73q21 -25 32 -36.5t33 -23t49 -11.5z" />
    <glyph glyph-name="approxequal" unicode="&#x2248;" horiz-adv-x="642" 
d="M231 361q-29 0 -51.5 -15.5t-30.5 -31.5l-8 -16l-53 53q1 4 4 10t15 21.5t27 27.5t41 22t57 10q52 0 109 -32.5t95 -32.5q29 0 51.5 15.5t30.5 31.5l8 16l53 -53q-1 -4 -4 -10t-15 -21.5t-27 -27.5t-41 -22t-57 -10q-53 0 -110 32.5t-94 32.5zM201 179q-29 0 -51.5 -15.5
t-30.5 -31.5l-8 -16l-53 53q1 4 4 10t15 21.5t27 27.5t41 22t57 10q52 0 109 -32.5t95 -32.5q29 0 51.5 15.5t30.5 31.5l8 16l53 -53q-1 -4 -4 -10t-15 -21.5t-27 -27.5t-41 -22t-57 -10q-53 0 -110 32.5t-94 32.5z" />
    <glyph glyph-name="notequal" unicode="&#x2260;" horiz-adv-x="551" 
d="M68 342v74h254l99 150l58 -40l-73 -110h73v-74h-122l-76 -116h198v-74h-247l-106 -161l-58 39l80 122h-80v74h129l76 116h-205z" />
    <glyph glyph-name="lessequal" unicode="&#x2264;" horiz-adv-x="503" 
d="M49 60v74h324l-304 186v29l396 170l-23 -107l-227 -83l188 -101l-22 -99v-69h-332z" />
    <glyph glyph-name="greaterequal" unicode="&#x2265;" horiz-adv-x="507" 
d="M441 299l-393 -165l20 102l226 83l-187 101l22 99l312 -191v-29zM405 134v-74h-357v74h357z" />
    <glyph glyph-name="filledbox" unicode="&#x25a0;" horiz-adv-x="635" 
d="M83 86l-22 22q30 210 -1 489l23 23q279 -31 489 -1l22 -22q-30 -210 1 -490l-22 -22q-280 31 -490 1z" />
    <glyph glyph-name="triagup" unicode="&#x25b2;" horiz-adv-x="723" 
d="M644 92h-623v25l300 486h24l299 -486v-25z" />
    <glyph glyph-name="triagdn" unicode="&#x25bc;" horiz-adv-x="723" 
d="M96 603h623v-25l-299 -486h-24l-300 486v25z" />
    <glyph glyph-name="uni25C6" unicode="&#x25c6;" horiz-adv-x="534" 
d="M60 343v19q104 77 207 208h20q103 -131 207 -208v-19q-105 -78 -207 -209h-20q-102 131 -207 209z" />
    <glyph glyph-name="lozenge" unicode="&#x25ca;" horiz-adv-x="622" 
d="M28 338l2 11l353 351h12l216 -353l-2 -11l-353 -351h-12zM502 348l-137 224l-231 -229l138 -230z" />
    <glyph glyph-name="H18533" unicode="&#x25cf;" horiz-adv-x="637" 
d="M59 351q0 111 78.5 190t189.5 79t190 -79t79 -190t-79 -189.5t-190 -78.5t-189.5 78.5t-78.5 189.5z" />
    <glyph glyph-name="uni2715" unicode="&#x2715;" horiz-adv-x="845" 
d="M662 -7l-114 116l29 29l-145 148l-146 -146l25 -24l-126 -126l-116 116l126 126l29 -29l146 144l-149 148l-29 -29l-116 116l126 126l116 -116l-29 -29l148 -149l144 145l-29 30l126 126l116 -116l-126 -126l-25 25l-145 -146l147 -146l29 29l115 -114z" />
    <glyph glyph-name="uni271A" unicode="&#x271a;" horiz-adv-x="799" 
d="M59 256v186h251v257h196v-257h252v-186h-252v-256h-196v256h-251z" />
    <glyph glyph-name="uni271B" unicode="&#x271b;" horiz-adv-x="799" 
d="M59 286v126h281v287h136v-287h282v-126h-282v-286h-136v286h-281zM350 402v-106h116v106h-116z" />
    <glyph glyph-name="uni271C" unicode="&#x271c;" horiz-adv-x="799" 
d="M59 256v186h251v257h196v-257h252v-186h-252v-256h-196v256h-251zM320 432v-166h176v166h-176z" />
    <glyph glyph-name="uni2722" unicode="&#x2722;" horiz-adv-x="795" 
d="M755 424l-1 -151h-146v39l-162 1v-168h39v-145h-154v145h44v167h-170v-39h-145v151h145v-36h170v168h-44v145h154v-145h-39v-168h162v36h147z" />
    <glyph glyph-name="uni2723" unicode="&#x2723;" horiz-adv-x="921" 
d="M333 629q0 56 39.5 96t95.5 40t96 -40t40 -96q0 -46 -27 -81.5t-70 -47.5v-112h109q13 42 48.5 69t80.5 27q56 0 96 -40t40 -96t-40 -95.5t-96 -39.5q-47 0 -83 27.5t-47 71.5l-108 1v-109q43 -13 70 -49t27 -81q0 -56 -40 -95.5t-96 -39.5t-95.5 39.5t-39.5 95.5
q0 48 29 84.5t74 47.5v106h-110q-12 -44 -48.5 -71.5t-82.5 -27.5q-56 0 -95.5 39.5t-39.5 95.5t39.5 96t95.5 40q45 0 81 -27t49 -69h111v110q-45 11 -74 47t-29 84zM687 348q0 -24 17 -41t41 -17t41.5 17t17.5 41t-17.5 41.5t-41.5 17.5t-41 -17.5t-17 -41.5zM137 348
q0 -24 17 -41t41 -17t41.5 17t17.5 41t-17.5 41.5t-41.5 17.5t-41 -17.5t-17 -41.5zM410 74q0 -24 17 -41t41 -17t41.5 17t17.5 41t-17.5 41.5t-41.5 17.5t-41 -17.5t-17 -41.5zM410 629q0 -24 17 -41t41 -17t41.5 17t17.5 41t-17.5 41.5t-41.5 17.5t-41 -17.5t-17 -41.5z
" />
    <glyph glyph-name="uni2724" unicode="&#x2724;" horiz-adv-x="865" 
d="M333 629q0 44 31 75.5t75 31.5t75.5 -31.5t31.5 -75.5q0 -33 -19 -60.5t-49 -38.5v-142h140q12 30 39 48.5t60 18.5q44 0 75.5 -31.5t31.5 -75.5t-31.5 -75t-75.5 -31q-35 0 -62 19.5t-38 50.5l-139 1v-141q30 -11 49 -38.5t19 -60.5q0 -44 -31.5 -75t-75.5 -31t-75 31
t-31 75q0 35 20.5 63t53.5 39v137h-142q-11 -31 -38.5 -50.5t-61.5 -19.5q-44 0 -75 31t-31 75t31 75.5t75 31.5q33 0 60 -18.5t39 -48.5h143v140q-33 10 -53.5 37.5t-20.5 63.5z" />
    <glyph glyph-name="uni2725" unicode="&#x2725;" horiz-adv-x="865" 
d="M59 348q0 22 42 64.5t64 42.5q14 0 40 -21t46 -46l163 -10l-10 157q-25 20 -46.5 46.5t-21.5 40.5q0 22 42 64.5t64 42.5t64.5 -42.5t42.5 -64.5q0 -14 -21.5 -40.5t-46.5 -46.5l-10 -157l160 10q20 25 46 46t40 21q22 0 64.5 -42.5t42.5 -64.5t-42.5 -64t-64.5 -42
q-15 0 -42.5 22.5t-46.5 48.5l-157 10l10 -162q25 -20 46.5 -46.5t21.5 -40.5q0 -22 -42.5 -64t-64.5 -42t-64 42t-42 64q0 14 21.5 40.5t46.5 46.5l10 162l-159 -10q-20 -26 -48 -48.5t-42 -22.5q-22 0 -64 42t-42 64z" />
    <glyph glyph-name="uni2726" unicode="&#x2726;" horiz-adv-x="825" 
d="M60 351q0 47 69 135.5t157 158.5t135 70t135.5 -70t158.5 -158.5t70 -135.5t-70 -135t-158.5 -157t-135.5 -69t-135 69t-157 157t-69 135z" />
    <glyph glyph-name="uni2727" unicode="&#x2727;" horiz-adv-x="822" 
d="M60 337v31q172 129 345 347h32q173 -218 345 -347v-31q-172 -129 -345 -347h-32q-173 218 -345 347z" />
    <glyph glyph-name="uni2756" unicode="&#x2756;" horiz-adv-x="826" 
d="M253 536v15q82 61 163 164h16q79 -100 163 -164v-15q-86 -65 -163 -165h-16q-79 103 -163 165zM60 345v15q84 64 163 164h16q79 -100 163 -164v-15q-82 -60 -163 -164h-16q-81 104 -163 164zM444 345v15q84 64 163 164h16q81 -103 163 -164v-15q-80 -58 -163 -164h-16
q-81 104 -163 164zM252 155v15q80 58 163 164h16q81 -104 163 -164v-15q-86 -65 -163 -165h-16q-79 103 -163 165z" />
    <glyph glyph-name="uni2766" unicode="&#x2766;" horiz-adv-x="885" 
d="M753 137l36 -33q-100 -116 -267 -113q-117 2 -196.5 81t-79.5 213q0 63 17.5 110t45.5 71.5t62 35t67 6t61 -20.5q-3 47 -18 84q-52 -15 -89 -15q-128 0 -166 138q-85 -36 -85 -151h-50q0 102 60 157t146 55q63 0 120 -32t92 -92q16 6 63 24t73 25.5t68 17t82 7.5t81 -13
l-10 -50q-19 5 -38 7.5t-39.5 2t-36 -1.5t-39 -6.5t-35.5 -8t-38.5 -11t-35.5 -11.5t-38.5 -13.5t-36.5 -13.5q17 -47 20 -101q30 21 69.5 23t74 -13t58.5 -51t24 -85q0 -55 -23.5 -98.5t-57.5 -68.5t-68 -43t-57.5 -32t-23.5 -26q0 -27 39 -27q98 0 169 73z" />
    <glyph glyph-name="uni2776" unicode="&#x2776;" horiz-adv-x="815" 
d="M418 -8q-152 0 -255 104.5t-103 257.5q0 152 103 257.5t255 105.5q151 0 254 -105.5t103 -257.5q0 -150 -104 -256t-253 -106zM333 561v-36l98 9l-74 -413h67l84 476h-18z" />
    <glyph glyph-name="uni2777" unicode="&#x2777;" horiz-adv-x="815" 
d="M418 -8q-152 0 -255 104.5t-103 257.5q0 152 103 257.5t255 105.5q151 0 254 -105.5t103 -257.5q0 -150 -104 -256t-253 -106zM264 154v-33h271l4 54l-194 -6q118 108 166.5 177.5t48.5 135.5q0 52 -33.5 81t-90.5 29q-28 0 -52 -6t-34 -12l-11 -5l-10 -55q47 24 92 24
q72 0 72 -68q0 -57 -52.5 -128.5t-176.5 -187.5z" />
    <glyph glyph-name="uni2778" unicode="&#x2778;" horiz-adv-x="815" 
d="M418 -8q-152 0 -255 104.5t-103 257.5q0 152 103 257.5t255 105.5q151 0 254 -105.5t103 -257.5q0 -150 -104 -256t-253 -106zM384 388l-11 -45h13q108 0 108 -81q0 -44 -32 -70.5t-82 -26.5q-25 0 -48 4.5t-34 8.5l-11 5l-21 -49q42 -24 106 -24q84 0 136.5 45.5
t52.5 109.5q0 41 -24.5 69t-70.5 35q58 12 87.5 46.5t29.5 79.5q0 44 -30.5 69t-85.5 25q-28 0 -55 -5.5t-40 -11.5l-12 -6l-9 -53q43 23 100 23q66 0 66 -57q0 -40 -34.5 -65.5t-78.5 -25.5h-20z" />
    <glyph glyph-name="uni2779" unicode="&#x2779;" horiz-adv-x="815" 
d="M418 -8q-152 0 -255 104.5t-103 257.5q0 152 103 257.5t255 105.5q151 0 254 -105.5t103 -257.5q0 -150 -104 -256t-253 -106zM388 121h64q3 31 8 62l11 50h67l4 49l-62 -1l54 315l-36 4l-294 -334l11 -33h192zM272 277l148 167l34 48h2q-8 -26 -13 -55l-28 -158z" />
    <glyph glyph-name="uni277A" unicode="&#x277a;" horiz-adv-x="815" 
d="M418 -8q-152 0 -255 104.5t-103 257.5q0 152 103 257.5t255 105.5q151 0 254 -105.5t103 -257.5q0 -150 -104 -256t-253 -106zM578 532l5 55h-217l-46 -219q155 -7 155 -102q0 -96 -108 -96q-26 0 -50 4t-35 8l-10 5l-13 -55q37 -17 101 -17q85 0 134 48t49 115
q0 120 -163 140l25 120z" />
    <glyph glyph-name="uni277B" unicode="&#x277b;" horiz-adv-x="815" 
d="M418 -8q-152 0 -255 104.5t-103 257.5q0 152 103 257.5t255 105.5q151 0 254 -105.5t103 -257.5q0 -150 -104 -256t-253 -106zM418 412q-52 0 -84 -29q44 158 242 169v49q-107 -4 -181 -49t-107.5 -115t-33.5 -160q0 -71 34 -116.5t95 -45.5q75 0 117 49t42 118
q0 62 -35 96t-89 34zM321 281q0 27 3 51q25 27 72 27q78 0 78 -85q0 -49 -21 -79t-59 -30t-55.5 33t-17.5 83z" />
    <glyph glyph-name="uni277C" unicode="&#x277c;" horiz-adv-x="815" 
d="M417 716q152 0 255 -104.5t103 -257.5q0 -152 -103 -257.5t-255 -105.5q-151 0 -254 105.5t-103 257.5q0 150 104 256t253 106zM309 587l-4 -60l209 8q-123 -196 -224 -407l69 -25q108 259 229 466v18h-279z" />
    <glyph glyph-name="uni277D" unicode="&#x277d;" horiz-adv-x="815" 
d="M417 716q152 0 255 -104.5t103 -257.5q0 -152 -103 -257.5t-255 -105.5q-151 0 -254 105.5t-103 257.5q0 150 104 256t253 106zM313 472q0 -59 61 -107q-113 -52 -113 -137q0 -53 34.5 -83t95.5 -30q67 0 110.5 39t43.5 96q0 42 -20 70t-56 55q42 20 72 52.5t30 71.5
q0 43 -31 69t-86 26q-61 0 -101 -33t-40 -89zM324 232q0 68 81 112q26 -19 38.5 -29t25 -29t12.5 -40q0 -41 -24 -62t-62 -21q-35 0 -53 19.5t-18 49.5zM509 490q0 -52 -70 -94q-30 21 -45.5 40t-15.5 45q0 30 19 48t54 18q27 0 42.5 -15t15.5 -42z" />
    <glyph glyph-name="uni277E" unicode="&#x277e;" horiz-adv-x="815" 
d="M417 716q152 0 255 -104.5t103 -257.5q0 -152 -103 -257.5t-255 -105.5q-151 0 -254 105.5t-103 257.5q0 150 104 256t253 106zM420 301q53 0 86 23q-45 -162 -240 -162v-48q155 0 237.5 83.5t82.5 241.5q0 75 -37 117t-105 42q-69 0 -109 -50t-40 -115q0 -61 35 -96.5
t90 -35.5zM519 427q0 -21 -4 -55q-33 -18 -71 -18q-39 0 -60 24t-21 65q0 45 21.5 75t56.5 30q78 0 78 -121z" />
    <glyph glyph-name="uni277F" unicode="&#x277f;" horiz-adv-x="815" 
d="M417 716q152 0 255 -104.5t103 -257.5q0 -152 -103 -257.5t-255 -105.5q-151 0 -254 105.5t-103 257.5q0 150 104 256t253 106zM513 438q0 -60 -12.5 -119.5t-42.5 -106t-72 -46.5q-70 0 -70 114q0 59 12.5 118.5t43 106t72.5 46.5q69 0 69 -113zM244 270
q0 -75 32.5 -115t95.5 -40q57 0 100.5 32t67 83t34.5 106t11 111q0 74 -32.5 114t-95.5 40q-57 0 -100.5 -31.5t-67 -83t-34.5 -106t-11 -110.5z" />
    <glyph glyph-name="uni2780" unicode="&#x2780;" horiz-adv-x="815" 
d="M418 -8q-152 0 -255 104.5t-103 257.5q0 152 103 257.5t255 105.5q151 0 254 -105.5t103 -257.5q0 -150 -104 -256t-253 -106zM418 26q135 0 229 96t94 232q0 138 -93 233.5t-230 95.5t-231 -95.5t-94 -233.5t93.5 -233t231.5 -95zM333 525v36l157 36h18l-84 -476h-67
l74 413z" />
    <glyph glyph-name="uni2781" unicode="&#x2781;" horiz-adv-x="815" 
d="M418 -8q-152 0 -255 104.5t-103 257.5q0 152 103 257.5t255 105.5q151 0 254 -105.5t103 -257.5q0 -150 -104 -256t-253 -106zM418 26q135 0 229 96t94 232q0 138 -93 233.5t-230 95.5t-231 -95.5t-94 -233.5t93.5 -233t231.5 -95zM264 121v33q124 116 176.5 187.5
t52.5 128.5q0 68 -72 68q-20 0 -43 -6t-36 -12l-13 -6l10 55q35 23 97 23q57 0 90.5 -29t33.5 -81q0 -66 -48.5 -135.5t-166.5 -177.5l194 6l-4 -54h-271z" />
    <glyph glyph-name="uni2782" unicode="&#x2782;" horiz-adv-x="815" 
d="M418 -8q-152 0 -255 104.5t-103 257.5q0 152 103 257.5t255 105.5q151 0 254 -105.5t103 -257.5q0 -150 -104 -256t-253 -106zM418 26q135 0 229 96t94 232q0 138 -93 233.5t-230 95.5t-231 -95.5t-94 -233.5t93.5 -233t231.5 -95zM364 343l11 45h20q44 0 78.5 25.5
t34.5 65.5q0 57 -66 57q-25 0 -50 -6t-38 -12l-12 -5l9 53q43 23 107 23q55 0 85.5 -25t30.5 -69q0 -45 -29.5 -79.5t-87.5 -46.5q46 -7 70.5 -35t24.5 -69q0 -64 -52.5 -109.5t-136.5 -45.5q-28 0 -54.5 6t-38.5 12l-13 6l21 49q37 -18 93 -18q50 0 82 26.5t32 70.5
q0 81 -108 81h-13z" />
    <glyph glyph-name="uni2783" unicode="&#x2783;" horiz-adv-x="815" 
d="M418 -8q-152 0 -255 104.5t-103 257.5q0 152 103 257.5t255 105.5q151 0 254 -105.5t103 -257.5q0 -150 -104 -256t-253 -106zM418 26q135 0 229 96t94 232q0 138 -93 233.5t-230 95.5t-231 -95.5t-94 -233.5t93.5 -233t231.5 -95zM452 121h-64l19 112h-192l-11 33
l294 334l36 -4l-54 -315l62 1l-4 -49h-67l-11 -50zM420 444l-148 -167l143 2l28 158l13 55h-2q-18 -29 -34 -48z" />
    <glyph glyph-name="uni2784" unicode="&#x2784;" horiz-adv-x="815" 
d="M418 -8q-152 0 -255 104.5t-103 257.5q0 152 103 257.5t255 105.5q151 0 254 -105.5t103 -257.5q0 -150 -104 -256t-253 -106zM418 26q135 0 229 96t94 232q0 138 -93 233.5t-230 95.5t-231 -95.5t-94 -233.5t93.5 -233t231.5 -95zM583 587l-5 -55l-173 6l-25 -120
q163 -20 163 -140q0 -67 -49 -115t-134 -48q-28 0 -53.5 4.5t-36.5 8.5l-11 4l13 55q36 -17 95 -17q108 0 108 96q0 95 -155 102l46 219h217z" />
    <glyph glyph-name="uni2785" unicode="&#x2785;" horiz-adv-x="815" 
d="M418 -8q-152 0 -255 104.5t-103 257.5q0 152 103 257.5t255 105.5q151 0 254 -105.5t103 -257.5q0 -150 -104 -256t-253 -106zM418 26q135 0 229 96t94 232q0 138 -93 233.5t-230 95.5t-231 -95.5t-94 -233.5t93.5 -233t231.5 -95zM418 412q54 0 89 -34t35 -96
q0 -69 -42 -118t-117 -49q-61 0 -95 45.5t-34 116.5q0 90 33.5 160t107.5 115t181 49v-49q-198 -11 -242 -169q32 29 84 29zM321 281q0 -50 17.5 -83t55.5 -33t59 30t21 79q0 85 -78 85q-47 0 -72 -27q-3 -24 -3 -51z" />
    <glyph glyph-name="uni2786" unicode="&#x2786;" horiz-adv-x="815" 
d="M418 -8q-152 0 -255 104.5t-103 257.5q0 152 103 257.5t255 105.5q151 0 254 -105.5t103 -257.5q0 -150 -104 -256t-253 -106zM418 26q135 0 229 96t94 232q0 138 -93 233.5t-230 95.5t-231 -95.5t-94 -233.5t93.5 -233t231.5 -95zM305 527l4 60h279v-18
q-121 -207 -229 -466l-69 25q101 211 224 407z" />
    <glyph glyph-name="uni2787" unicode="&#x2787;" horiz-adv-x="815" 
d="M418 -8q-152 0 -255 104.5t-103 257.5q0 152 103 257.5t255 105.5q151 0 254 -105.5t103 -257.5q0 -150 -104 -256t-253 -106zM418 26q135 0 229 96t94 232q0 138 -93 233.5t-230 95.5t-231 -95.5t-94 -233.5t93.5 -233t231.5 -95zM313 472q0 56 40 89t101 33
q55 0 86 -26t31 -69q0 -39 -30 -71.5t-72 -52.5q36 -27 56 -55t20 -70q0 -57 -43.5 -96t-110.5 -39q-61 0 -95.5 30t-34.5 83q0 85 113 137q-61 48 -61 107zM324 232q0 -30 18 -49.5t53 -19.5q38 0 62 21t24 62q0 21 -12.5 40t-25 29t-38.5 29q-81 -44 -81 -112zM509 490
q0 27 -15.5 42t-42.5 15q-35 0 -54 -18t-19 -48q0 -26 15.5 -45t45.5 -40q70 42 70 94z" />
    <glyph glyph-name="uni2788" unicode="&#x2788;" horiz-adv-x="815" 
d="M418 -8q-152 0 -255 104.5t-103 257.5q0 152 103 257.5t255 105.5q151 0 254 -105.5t103 -257.5q0 -150 -104 -256t-253 -106zM418 26q135 0 229 96t94 232q0 138 -93 233.5t-230 95.5t-231 -95.5t-94 -233.5t93.5 -233t231.5 -95zM420 301q-55 0 -90 35.5t-35 96.5
q0 65 40 115t109 50q68 0 105 -42t37 -117q0 -158 -82.5 -241.5t-237.5 -83.5v48q195 0 240 162q-33 -23 -86 -23zM519 427q0 121 -78 121q-35 0 -56.5 -30t-21.5 -75q0 -41 21 -65t60 -24q38 0 71 18q4 34 4 55z" />
    <glyph glyph-name="uni2789" unicode="&#x2789;" horiz-adv-x="815" 
d="M418 -8q-152 0 -255 104.5t-103 257.5q0 152 103 257.5t255 105.5q151 0 254 -105.5t103 -257.5q0 -150 -104 -256t-253 -106zM418 26q135 0 229 96t94 232q0 138 -93 233.5t-230 95.5t-231 -95.5t-94 -233.5t93.5 -233t231.5 -95zM513 438q0 113 -69 113
q-42 0 -72.5 -46.5t-43 -106t-12.5 -118.5q0 -114 70 -114q42 0 72 46.5t42.5 106t12.5 119.5zM244 270q0 56 11 110.5t34.5 106t67 83t100.5 31.5q63 0 95.5 -40t32.5 -114q0 -56 -11 -111t-34.5 -106t-67 -83t-100.5 -32q-63 0 -95.5 40t-32.5 115z" />
    <glyph glyph-name="uni278A" unicode="&#x278a;" horiz-adv-x="815" 
d="M96 0l-30 29v642l30 29h643l29 -29v-643l-29 -28h-643zM333 561v-36l98 9l-74 -413h67l84 476h-18z" />
    <glyph glyph-name="uni278B" unicode="&#x278b;" horiz-adv-x="815" 
d="M96 0l-30 29v642l30 29h643l29 -29v-643l-29 -28h-643zM264 154v-33h271l4 54l-194 -6q118 108 166.5 177.5t48.5 135.5q0 52 -33.5 81t-90.5 29q-28 0 -52 -6t-34 -12l-11 -5l-10 -55q47 24 92 24q72 0 72 -68q0 -57 -52.5 -128.5t-176.5 -187.5z" />
    <glyph glyph-name="uni278C" unicode="&#x278c;" horiz-adv-x="815" 
d="M96 0l-30 29v642l30 29h643l29 -29v-643l-29 -28h-643zM384 388l-11 -45h13q108 0 108 -81q0 -44 -32 -70.5t-82 -26.5q-25 0 -48 4.5t-34 8.5l-11 5l-21 -49q42 -24 106 -24q84 0 136.5 45.5t52.5 109.5q0 41 -24.5 69t-70.5 35q58 12 87.5 46.5t29.5 79.5
q0 44 -30.5 69t-85.5 25q-28 0 -55 -5.5t-40 -11.5l-12 -6l-9 -53q43 23 100 23q66 0 66 -57q0 -40 -34.5 -65.5t-78.5 -25.5h-20z" />
    <glyph glyph-name="uni278D" unicode="&#x278d;" horiz-adv-x="815" 
d="M96 0l-30 29v642l30 29h643l29 -29v-643l-29 -28h-643zM388 121h64q3 31 8 62l11 50h67l4 49l-62 -1l54 315l-36 4l-294 -334l11 -33h192zM272 277l148 167l34 48h2q-8 -26 -13 -55l-28 -158z" />
    <glyph glyph-name="uni278E" unicode="&#x278e;" horiz-adv-x="815" 
d="M96 0l-30 29v642l30 29h643l29 -29v-643l-29 -28h-643zM578 532l5 55h-217l-46 -219q155 -7 155 -102q0 -96 -108 -96q-26 0 -50 4t-35 8l-10 5l-13 -55q37 -17 101 -17q85 0 134 48t49 115q0 120 -163 140l25 120z" />
    <glyph glyph-name="uni278F" unicode="&#x278f;" horiz-adv-x="815" 
d="M96 0l-30 29v642l30 29h643l29 -29v-643l-29 -28h-643zM418 412q-52 0 -84 -29q44 158 242 169v49q-107 -4 -181 -49t-107.5 -115t-33.5 -160q0 -71 34 -116.5t95 -45.5q75 0 117 49t42 118q0 62 -35 96t-89 34zM321 281q0 27 3 51q25 27 72 27q78 0 78 -85
q0 -49 -21 -79t-59 -30t-55.5 33t-17.5 83z" />
    <glyph glyph-name="uni2790" unicode="&#x2790;" horiz-adv-x="815" 
d="M96 0l-30 29v642l30 29h643l29 -29v-643l-29 -28h-643zM309 587l-4 -60l209 8q-123 -196 -224 -407l69 -25q108 259 229 466v18h-279z" />
    <glyph glyph-name="uni2791" unicode="&#x2791;" horiz-adv-x="815" 
d="M96 0l-30 29v642l30 29h643l29 -29v-643l-29 -28h-643zM313 472q0 -59 61 -107q-113 -52 -113 -137q0 -53 34.5 -83t95.5 -30q67 0 110.5 39t43.5 96q0 42 -20 70t-56 55q42 20 72 52.5t30 71.5q0 43 -31 69t-86 26q-61 0 -101 -33t-40 -89zM324 232q0 68 81 112
q26 -19 38.5 -29t25 -29t12.5 -40q0 -41 -24 -62t-62 -21q-35 0 -53 19.5t-18 49.5zM509 490q0 -52 -70 -94q-30 21 -45.5 40t-15.5 45q0 30 19 48t54 18q27 0 42.5 -15t15.5 -42z" />
    <glyph glyph-name="uni2792" unicode="&#x2792;" horiz-adv-x="815" 
d="M96 0l-30 29v642l30 29h643l29 -29v-643l-29 -28h-643zM420 301q53 0 86 23q-45 -162 -240 -162v-48q155 0 237.5 83.5t82.5 241.5q0 75 -37 117t-105 42q-69 0 -109 -50t-40 -115q0 -61 35 -96.5t90 -35.5zM519 427q0 -21 -4 -55q-33 -18 -71 -18q-39 0 -60 24t-21 65
q0 45 21.5 75t56.5 30q78 0 78 -121z" />
    <glyph glyph-name="uni2793" unicode="&#x2793;" horiz-adv-x="815" 
d="M96 0l-30 29v642l30 29h643l29 -29v-643l-29 -28h-643zM513 438q0 -60 -12.5 -119.5t-42.5 -106t-72 -46.5q-70 0 -70 114q0 59 12.5 118.5t43 106t72.5 46.5q69 0 69 -113zM244 270q0 -75 32.5 -115t95.5 -40q57 0 100.5 32t67 83t34.5 106t11 111q0 74 -32.5 114
t-95.5 40q-57 0 -100.5 -31.5t-67 -83t-34.5 -106t-11 -110.5z" />
    <glyph glyph-name="uni2794" unicode="&#x2794;" horiz-adv-x="800" 
d="M616 280l-4 3q-43 39 -85 88.5t-55 76.5h90q50 -76 123 -142l50 -46v-29l-50 -46q-72 -67 -123 -142h-90q12 26 54.5 74.5t86.5 88.5h-542v74h545z" />
    <glyph glyph-name="uni2799" unicode="&#x2799;" horiz-adv-x="791" 
d="M498 280v202h37q49 -90 143 -176l50 -46v-29l-50 -46q-94 -86 -143 -176h-37v197h-434v74h434z" />
    <glyph glyph-name="uni279B" unicode="&#x279b;" horiz-adv-x="785" 
d="M58 211v69l475 1q-75 20 -140 70t-87 97l70 46q26 -47 137.5 -125t208.5 -109v-29q-97 -31 -208.5 -109t-137.5 -125l-70 46q22 47 87 97t140 70z" />
    <glyph glyph-name="uni27B3" unicode="&#x27b3;" horiz-adv-x="1198" 
d="M819 61h-10v145h-295l-23 -21q-94 -86 -143 -176l-64 34q15 33 50 81.5t74 83.5l42 37l-42 38q-39 35 -74 83.5t-50 81.5l64 34q49 -90 143 -176l29 -26h289v153h10q21 -7 56 -21t120 -61.5t142 -100.5v-9q-57 -52 -136.5 -97t-130.5 -64zM240 245l-42 38
q-66 60 -116 150l65 34q46 -79 134 -161l50 -46v-29l-50 -46q-84 -77 -133 -159l-65 35q48 86 115 147z" />
    <glyph glyph-name="uni27B4" unicode="&#x27b4;" horiz-adv-x="1082" 
d="M615 -34l-7 7l103 103l-209 209l-31 1q-125 6 -225 -23l-22 69q35 13 93.5 22.5t111.5 6.5l56 -4l-3 57q-3 52 6.5 110.5t22.5 93.5l69 -21q-29 -102 -23 -225l2 -39l204 -205l108 109l7 -8q10 -20 25 -54.5t41.5 -128t29.5 -171.5l-6 -6q-77 3 -165.5 27.5t-138.5 47.5z
M336 506l-3 56q-4 87 24 189l70 -22q-23 -93 -19 -209l3 -68l-20 -20l-68 3q-115 4 -207 -19l-21 71q93 28 185 22z" />
    <glyph glyph-name="uni27B5" unicode="&#x27b5;" horiz-adv-x="1194" 
d="M372 61h-10q-8 3 -21.5 7.5t-53 21.5t-76.5 36.5t-84 50.5t-83 64v9q57 53 136.5 98.5t130.5 65.5l51 19h10v-153h289l29 26q94 86 143 176l64 -34q-15 -33 -50 -81.5t-74 -83.5l-42 -38l42 -37q39 -35 74 -83.5t50 -81.5l-64 -34q-49 90 -143 176l-23 21h-295v-145z
M983 283l-42 -38l42 -37q67 -61 115 -147l-65 -35q-49 82 -133 159l-50 46v29l50 46q88 82 134 161l65 -34q-50 -90 -116 -150z" />
    <glyph glyph-name="uni27B6" unicode="&#x27b6;" horiz-adv-x="890" 
d="M533 647l7 7q20 10 54.5 25t128 42t170.5 30l6 -6q-3 -78 -27 -166.5t-46 -138.5l-23 -49l-7 -8l-108 109l-204 -205l-2 -39q-6 -123 23 -225l-69 -21q-13 35 -22.5 93.5t-6.5 110.5l3 57l-56 -4q-53 -3 -111.5 6.5t-93.5 22.5l22 69q100 -29 225 -23l31 1l209 209z
M258 58l3 56l-56 -3q-92 -6 -185 22l21 71q92 -23 207 -19l68 3l20 -20l-3 -68q-4 -116 19 -209l-70 -22q-28 102 -24 189z" />
    <glyph glyph-name="uni27BB" unicode="&#x27bb;" horiz-adv-x="876" 
d="M684 280l-4 3q-39 35 -74 83.5t-50 81.5l64 34q49 -90 143 -176l50 -46v-29l-50 -46q-94 -86 -143 -176l-64 34q15 33 49.5 80.5t72.5 82.5h-163q-112 0 -233.5 -21.5t-205.5 -46.5v216q11 -2 75 -18t111.5 -26t120.5 -20t133 -10h168z" />
    <glyph glyph-name="uni27BC" unicode="&#x27bc;" horiz-adv-x="903" 
d="M711 280l-4 3q-39 35 -74 83.5t-50 81.5l64 34q49 -90 143 -176l50 -46v-29l-50 -46q-94 -86 -143 -176l-64 34q15 33 49.5 80.5t72.5 82.5h-284q-15 -29 -61.5 -48t-101.5 -19h-192q6 2 16 7.5t23.5 16.5t23 29.5t9.5 40.5v24q0 31 -16.5 54.5t-29.5 31t-21 9.5h40h47.5
t44.5 0.5t35 0.5h13q57 0 105.5 -20.5t64.5 -52.5h290z" />
    <glyph glyph-name="uni27BD" unicode="&#x27bd;" horiz-adv-x="911" 
d="M719 280l-4 3q-39 35 -74 83.5t-50 81.5l64 34q49 -90 143 -176l50 -46v-29l-50 -46q-94 -86 -143 -176l-64 34q15 33 49.5 80.5t72.5 82.5h-284l-54 -67h-301l72 84v44l-72 85l301 1l54 -73h290z" />
    <glyph glyph-name="uni27BE" unicode="&#x27be;" horiz-adv-x="792" 
d="M63 190v105h477q-63 69 -99 145l94 48q51 -92 139 -174l53 -48v-43l-53 -48q-87 -80 -139 -173l-94 48q13 28 40.5 69t54.5 71h-473zM583 279l4 -2h-505v-69h499q-36 -32 -68 -76t-47 -74l60 -31q47 82 135 162l47 42v27l-47 43q-90 81 -135 162l-60 -31q14 -31 47 -76
t70 -77z" />
    <glyph glyph-name="commaaccent" unicode="&#xf6c3;" horiz-adv-x="170" 
d="M50 -306l-36 39q61 41 79 104q-24 0 -42 13t-18 39q0 28 17.5 47t47.5 19q31 0 46.5 -19t15.5 -49q0 -50 -29 -103t-81 -90z" />
    <glyph glyph-name="uniFFFD" unicode="&#xfffd;" horiz-adv-x="1022" 
d="M30 267l481 482l481 -482l-481 -480zM496 480q41 0 64 -16.5t23 -44.5q0 -30 -23 -57.5t-50 -46t-50 -48t-23 -63.5q0 -31 22 -51.5t52 -20.5q35 0 71 30l-33 42q-11 -9 -21 -9q-7 0 -12 6.5t-5 13.5q0 14 15.5 30.5t37.5 33t44.5 36t38 48t15.5 60.5q0 49 -37.5 84
t-117.5 35q-38 0 -69.5 -9.5t-43.5 -18.5l-13 -10v-62q46 38 115 38zM501 -35q25 0 40 14t15 38q0 22 -13.5 34.5t-36.5 12.5q-25 0 -40.5 -13t-15.5 -36q0 -22 14 -36t37 -14z" />
    <glyph glyph-name="A.sc" horiz-adv-x="548" 
d="M383 -5l-22 135h-248l-5 -10q-35 -64 -56 -120h-79q27 71 102 200l230 401l74 6l80 -505q3 -22 9 -47.5t10 -40.5l4 -14zM258 391l-108 -194h200l-30 192q-4 28 -5.5 55t-0.5 40v13h-2q-21 -44 -54 -106z" />
    <glyph glyph-name="B.sc" horiz-adv-x="554" 
d="M42 0l102 524q9 47 9 77h148q93 0 139.5 -39t46.5 -106q0 -50 -28 -90t-77 -59l-1 -3q42 -8 68.5 -37t26.5 -77q0 -83 -68 -136.5t-172 -53.5h-194zM265 269h-77l-39 -200h96q62 0 98.5 32.5t36.5 80.5q0 87 -115 87zM295 532h-57l-38 -197h129q67 43 67 108
q0 89 -101 89z" />
    <glyph glyph-name="C.sc" horiz-adv-x="549" 
d="M356 535q-91 0 -141.5 -69.5t-50.5 -194.5q0 -92 41 -148t124 -56q36 0 69.5 7.5t49.5 15.5l16 8v-67q-6 -4 -17.5 -10.5t-53 -17.5t-90.5 -11q-107 0 -173.5 73t-66.5 194q0 93 34 171.5t103.5 129t161.5 50.5q34 0 58.5 -4.5t63 -18t49.5 -16.5l-32 -76q-16 5 -41.5 16
t-49.5 17.5t-54 6.5z" />
    <glyph glyph-name="D.sc" horiz-adv-x="646" 
d="M42 0l102 523q9 47 9 77h166q138 0 205 -59.5t67 -183.5q0 -150 -100 -253.5t-262 -103.5h-187zM311 528h-73l-89 -456h80q121 0 192 76t71 207q0 173 -181 173z" />
    <glyph glyph-name="E.sc" horiz-adv-x="520" 
d="M511 601l-11 -79q-40 6 -83 7l-178 4l-39 -199l205 3l-10 -75l-208 4l-39 -199l197 4l81 8l-12 -79h-372l97 498l14 103h358z" />
    <glyph glyph-name="F.sc" horiz-adv-x="495" 
d="M501 601l-10 -79q-59 5 -90 6l-162 5l-43 -220l215 3l-10 -75l-218 4l-29 -152l-13 -93l-99 -5l97 503l14 103h348z" />
    <glyph glyph-name="G.sc" horiz-adv-x="611" 
d="M339 67q19 0 37.5 1.5t27.5 3.5l9 2l20 104q9 43 13 89l94 5l-48 -248q-51 -32 -165 -32q-125 0 -195.5 72t-70.5 195q0 90 34 168.5t106 130.5t169 52q34 0 64.5 -4.5t47.5 -9t45 -13.5t41 -12l-28 -76q-9 2 -40.5 14t-64 19t-71.5 7q-92 0 -147 -76t-55 -193
q0 -89 44 -144t133 -55z" />
    <glyph glyph-name="H.sc" horiz-adv-x="680" 
d="M430 0l51 263h-294l-33 -170l-13 -93h-98l96 498l14 103l100 5l-52 -269h294l31 161l14 103l100 5l-99 -513l-13 -93h-98z" />
    <glyph glyph-name="I.sc" horiz-adv-x="293" 
d="M43 0l96 498l14 103l100 5l-99 -513l-13 -93h-98z" />
    <glyph glyph-name="J.sc" horiz-adv-x="291" 
d="M60 90l80 408l14 103l99 5l-100 -515q-8 -42 -26.5 -79t-31.5 -54t-54 -62.5t-56 -62.5l-48 48q15 19 37.5 45.5t32 38.5t21.5 32t19 41.5t13 51.5z" />
    <glyph glyph-name="K.sc" horiz-adv-x="559" 
d="M187 267l-34 -174l-13 -93h-98l97 498l14 103l100 5l-52 -272h52q76 82 128 149t65 93l14 25h98q-6 -11 -20 -33t-77 -99t-151 -165l182 -304h-103l-154 267h-48z" />
    <glyph glyph-name="L.sc" horiz-adv-x="509" 
d="M43 0l96 498l14 103l100 5l-99 -513l-4 -21l305 9l-20 -81h-392z" />
    <glyph glyph-name="M.sc" horiz-adv-x="791" 
d="M153 601l93 5l134 -358l276 353l96 5l-100 -515l-12 -91h-99l76 390l19 78h-4q-19 -36 -45 -70l-230 -286h-14l-111 278q-6 16 -12 36t-9 32l-3 13h-3q-2 -42 -10 -81l-56 -300l-12 -90h-85l96 496z" />
    <glyph glyph-name="N.sc" horiz-adv-x="672" 
d="M478 224l52 261l17 116l85 2l-93 -483l-19 -120h-64l-216 395l-31 67l-4 -1q-3 -39 -10 -79l-50 -262q-7 -34 -11.5 -64t-5.5 -43l-1 -13h-85l99 511l12 90l76 5l208 -390l27 -60l5 1q2 33 9 67z" />
    <glyph glyph-name="O.sc" horiz-adv-x="682" 
d="M62 254q0 68 20.5 131t59.5 113.5t101.5 81t139.5 30.5q107 0 173 -68.5t66 -192.5q0 -94 -33.5 -173.5t-108.5 -132.5t-179 -53q-107 0 -173 70t-66 194zM163 261q0 -90 38.5 -145t116.5 -55q96 0 149.5 76t53.5 206q0 88 -38 142t-117 54q-93 0 -148 -75.5t-55 -202.5z
" />
    <glyph glyph-name="P.sc" horiz-adv-x="558" 
d="M260 187h-89l-18 -94l-13 -93h-98l97 498l14 103h147q104 0 167 -43.5t63 -128.5q0 -113 -72 -177.5t-198 -64.5zM237 526l-52 -264h103q71 0 108.5 45.5t37.5 109.5q0 50 -34.5 79.5t-99.5 29.5h-63z" />
    <glyph glyph-name="Q.sc" horiz-adv-x="682" 
d="M62 254q0 68 20.5 131t59.5 113.5t101.5 81t139.5 30.5q107 0 173 -68.5t66 -192.5q0 -104 -43 -191.5t-125 -131.5l44 -103q7 -18 16.5 -37t15.5 -29l5 -10l-105 -5l-60 155q-38 -7 -69 -7q-107 0 -173 70t-66 194zM163 261q0 -90 38.5 -145t116.5 -55q96 0 149.5 76
t53.5 206q0 88 -38 142t-117 54q-93 0 -148 -75.5t-55 -202.5z" />
    <glyph glyph-name="R.sc" horiz-adv-x="575" 
d="M179 223l-25 -130l-13 -93h-98l96 498l14 103h162q108 0 159.5 -46.5t51.5 -124.5q0 -74 -40 -123t-112 -70l66 -161l38 -76l-101 -5l-88 228h-110zM238 526l-46 -234h65q176 0 176 132q0 102 -127 102h-68z" />
    <glyph glyph-name="S.sc" horiz-adv-x="505" 
d="M291 535q-48 0 -75 -24.5t-27 -62.5q0 -33 24 -58t58.5 -44t69.5 -40t59 -57t24 -84q0 -70 -57 -123t-160 -53q-57 0 -104 9.5t-65 18.5l-19 9l28 72q72 -32 164 -32q114 0 114 93q0 32 -24.5 57.5t-59 44t-69 39.5t-59 55t-24.5 79q0 73 54.5 124.5t146.5 51.5
q34 0 64.5 -4.5t47 -9.5t41.5 -13.5t35 -11.5l-31 -77q-18 5 -43.5 16t-51 18t-61.5 7z" />
    <glyph glyph-name="T.sc" horiz-adv-x="503" 
d="M145 0l103 528l-106 -3l-79 -5l16 81h456l-17 -83q-52 6 -79 7l-98 3l-85 -435l-13 -93h-98z" />
    <glyph glyph-name="U.sc" horiz-adv-x="653" 
d="M621 601l-67 -343q-23 -120 -91.5 -194.5t-180.5 -74.5q-121 0 -172 69t-26 198l47 244q5 26 8.5 51.5t4.5 37.5l1 12h104l-67 -346q-37 -188 112 -188q136 0 174 201l45 232q5 27 8.5 52t4.5 37l1 12h94z" />
    <glyph glyph-name="V.sc" horiz-adv-x="545" 
d="M166 607l63 -394q4 -28 5.5 -55t1.5 -40l-1 -13h2q21 44 54 106l129 243q51 96 70 147h86q-26 -68 -102 -199l-230 -401l-74 -6l-80 505q-3 22 -9 47.5t-10 40.5l-4 14z" />
    <glyph glyph-name="W.sc" horiz-adv-x="836" 
d="M441 601l75 4l25 -386l4 -109h4q20 53 46 105l102 206q25 51 46 96t29 65l8 19h84q-33 -76 -98 -200l-212 -401l-85 -6l-25 365v102h-4q-16 -56 -36 -99l-164 -362l-87 -6l-55 505q-3 27 -7 52.5t-7 37.5l-3 12l99 5l39 -388l6 -98h4q16 51 35 93z" />
    <glyph glyph-name="X.sc" horiz-adv-x="566" 
d="M382 -2l-116 244l-90 -113q-28 -33 -52 -65t-34 -48l-10 -16h-94q39 66 124 166l123 146l-97 206q-8 18 -19.5 39t-18.5 33l-7 11l107 5l109 -233l85 107q26 33 47 63.5t29 44.5l8 13h92q-27 -55 -110 -155l-119 -142l103 -219q8 -19 20 -40t20 -33l7 -12z" />
    <glyph glyph-name="Y.sc" horiz-adv-x="502" 
d="M150 0l47 239l-105 281l-36 81l98 5l111 -300l116 171q25 37 43.5 69t25.5 46l6 14l84 -5q-19 -56 -91 -152l-160 -213l-28 -143l-13 -93h-98z" />
    <glyph glyph-name="Z.sc" horiz-adv-x="522" 
d="M-3 25l393 507l-197 -6l-89 -9l12 84h411v-25l-394 -507l205 6q21 0 41.5 2.5t30.5 4.5l11 2l-13 -84h-411v25z" />
    <glyph glyph-name="afii10017.sc" horiz-adv-x="548" 
d="M383 -5l-22 135h-248l-5 -10q-35 -64 -56 -120h-79q27 71 102 200l230 401l74 6l80 -505q3 -22 9 -47.5t10 -40.5l4 -14zM258 391l-108 -194h200l-30 192q-4 28 -5.5 55t-0.5 40v13h-2q-21 -44 -54 -106z" />
    <glyph glyph-name="afii10018.sc" horiz-adv-x="562" 
d="M42 0l100 515q4 22 7 43.5t3 31.5l1 11h368l-15 -77q-41 4 -88 5l-179 4l-33 -167h86q97 0 147.5 -40.5t50.5 -110.5q0 -101 -74.5 -158t-170.5 -57h-203zM284 293h-92l-43 -221h98q68 0 105 37.5t37 95.5q0 44 -28 66t-77 22z" />
    <glyph glyph-name="afii10019.sc" horiz-adv-x="554" 
d="M42 0l102 524q9 47 9 77h148q93 0 139.5 -39t46.5 -106q0 -50 -28 -90t-77 -59l-1 -3q42 -8 68.5 -37t26.5 -77q0 -83 -68 -136.5t-172 -53.5h-194zM265 269h-77l-39 -200h96q62 0 98.5 32.5t36.5 80.5q0 87 -115 87zM295 532h-57l-38 -197h129q67 43 67 108
q0 89 -101 89z" />
    <glyph glyph-name="afii10020.sc" horiz-adv-x="477" 
d="M501 601l-9 -81q-51 6 -76 7l-177 6l-85 -440l-13 -93l-99 -5l97 503l14 103h348z" />
    <glyph glyph-name="afii10021.sc" horiz-adv-x="665" 
d="M-69 -186l47 258h48q74 82 121.5 198t91.5 331h362l-103 -529h80l-31 -162l-13 -90l-88 -6l33 186h-431l-17 -90l-13 -90zM305 527q-70 -318 -183 -455h283l89 455h-189z" />
    <glyph glyph-name="afii10022.sc" horiz-adv-x="520" 
d="M511 601l-11 -79q-40 6 -83 7l-178 4l-39 -199l205 3l-10 -75l-208 4l-39 -199l197 4l81 8l-12 -79h-372l97 498l14 103h358z" />
    <glyph glyph-name="afii10023.sc" horiz-adv-x="520" 
d="M511 601l-11 -79q-40 6 -83 7l-178 4l-39 -199l205 3l-10 -75l-208 4l-39 -199l197 4l81 8l-12 -79h-372l97 498l14 103h358zM240 666q-24 0 -39.5 16t-15.5 42t16.5 45.5t47.5 19.5q26 0 40.5 -15.5t14.5 -40.5q0 -28 -17 -47.5t-47 -19.5zM433 666q-24 0 -39.5 16
t-15.5 42t16.5 45.5t47.5 19.5q26 0 40.5 -15.5t14.5 -40.5q0 -28 -17.5 -47.5t-46.5 -19.5z" />
    <glyph glyph-name="afii10024.sc" horiz-adv-x="866" 
d="M541 606l-53 -273h72l129 146q33 37 59 67.5t35 42.5l9 12h92q0 -1 -13 -19t-49 -60.5t-82 -91.5l-123 -129l169 -301h-104l-144 267h-63l-34 -174l-13 -93h-98l52 267h-50l-248 -267h-121l294 313l-67 119q-26 46 -47 87.5t-29 60.5l-8 19l87 7q19 -51 58 -127l76 -146
h68l32 165l14 103z" />
    <glyph glyph-name="afii10025.sc" horiz-adv-x="485" 
d="M251 610q89 0 137.5 -37t48.5 -105q0 -63 -38.5 -106t-106.5 -49v-3q52 -6 80 -42t28 -81q0 -85 -63 -140t-160 -55q-53 0 -97 10.5t-62 21.5l-18 10l23 64q58 -34 145 -34q61 0 95.5 32t34.5 86q0 43 -23.5 69t-74.5 26h-62l8 73h64q124 0 124 103q0 38 -22.5 61.5
t-63.5 23.5q-27 0 -48.5 -6t-46.5 -16t-43 -15l-24 70q7 2 25.5 8.5t27.5 9.5t25.5 8t28 7t27.5 4t31 2z" />
    <glyph glyph-name="afii10026.sc" horiz-adv-x="679" 
d="M43 0l96 498l14 103l98 5l-74 -383l-28 -109h3q33 49 70 94l324 393h93l-98 -508l-13 -93h-96l77 396q4 22 10 44.5t10 34.5l4 12l-3 1q-30 -45 -55 -75l-339 -413h-93z" />
    <glyph glyph-name="afii10027.sc" horiz-adv-x="679" 
d="M412 667q-57 0 -101 21t-68 51l63 63q5 -5 27 -30.5t39 -34.5t44 -9q23 0 41 9.5t41.5 32.5t34.5 31l45 -62q-82 -72 -166 -72zM43 0l96 498l14 103l98 5l-74 -383l-28 -109h3q33 49 70 94l324 393h93l-98 -508l-13 -93h-96l77 396q4 22 10 44.5t10 34.5l4 12l-3 1
q-30 -45 -55 -75l-339 -413h-93z" />
    <glyph glyph-name="afii10028.sc" horiz-adv-x="559" 
d="M187 267l-34 -174l-13 -93h-98l97 498l14 103l100 5l-52 -272h52q76 82 128 149t65 93l14 25h98q-6 -11 -20 -33t-77 -99t-151 -165l182 -304h-103l-154 267h-48z" />
    <glyph glyph-name="afii10029.sc" horiz-adv-x="642" 
d="M392 0l102 527h-205q-45 -221 -93 -343.5t-99.5 -163.5t-119.5 -24v79q78 -11 127.5 100t114.5 426h383l-99 -508l-13 -93h-98z" />
    <glyph glyph-name="afii10030.sc" horiz-adv-x="791" 
d="M153 601l93 5l134 -358l276 353l96 5l-100 -515l-12 -91h-99l76 390l19 78h-4q-19 -36 -45 -70l-230 -286h-14l-111 278q-6 16 -12 36t-9 32l-3 13h-3q-2 -42 -10 -81l-56 -300l-12 -90h-85l96 496z" />
    <glyph glyph-name="afii10031.sc" horiz-adv-x="680" 
d="M430 0l51 263h-294l-33 -170l-13 -93h-98l96 498l14 103l100 5l-52 -269h294l31 161l14 103l100 5l-99 -513l-13 -93h-98z" />
    <glyph glyph-name="afii10032.sc" horiz-adv-x="682" 
d="M62 254q0 68 20.5 131t59.5 113.5t101.5 81t139.5 30.5q107 0 173 -68.5t66 -192.5q0 -94 -33.5 -173.5t-108.5 -132.5t-179 -53q-107 0 -173 70t-66 194zM163 261q0 -90 38.5 -145t116.5 -55q96 0 149.5 76t53.5 206q0 88 -38 142t-117 54q-93 0 -148 -75.5t-55 -202.5z
" />
    <glyph glyph-name="afii10033.sc" horiz-adv-x="679" 
d="M429 0l102 527h-293l-85 -434l-13 -93h-98l97 498l14 103h486l-99 -508l-13 -93h-98z" />
    <glyph glyph-name="afii10034.sc" horiz-adv-x="558" 
d="M260 187h-89l-18 -94l-13 -93h-98l97 498l14 103h147q104 0 167 -43.5t63 -128.5q0 -113 -72 -177.5t-198 -64.5zM237 526l-52 -264h103q71 0 108.5 45.5t37.5 109.5q0 50 -34.5 79.5t-99.5 29.5h-63z" />
    <glyph glyph-name="afii10035.sc" horiz-adv-x="549" 
d="M356 535q-91 0 -141.5 -69.5t-50.5 -194.5q0 -92 41 -148t124 -56q36 0 69.5 7.5t49.5 15.5l16 8v-67q-6 -4 -17.5 -10.5t-53 -17.5t-90.5 -11q-107 0 -173.5 73t-66.5 194q0 93 34 171.5t103.5 129t161.5 50.5q34 0 58.5 -4.5t63 -18t49.5 -16.5l-32 -76q-16 5 -41.5 16
t-49.5 17.5t-54 6.5z" />
    <glyph glyph-name="afii10036.sc" horiz-adv-x="503" 
d="M145 0l103 528l-106 -3l-79 -5l16 81h456l-17 -83q-52 6 -79 7l-98 3l-85 -435l-13 -93h-98z" />
    <glyph glyph-name="afii10037.sc" horiz-adv-x="510" 
d="M430 393q-43 -70 -125.5 -197t-124.5 -196h-91q25 42 102 141l-103 383q-6 22 -12.5 41t-9.5 27l-4 9l103 6l71 -283q5 -20 10 -43.5t7 -39t1 -15.5h2q22 52 48 96l71 120q26 44 47 86t30 62l8 21l81 -10q-27 -72 -111 -208z" />
    <glyph glyph-name="afii10038.sc" horiz-adv-x="736" 
d="M474 631l-15 -74q119 -3 176.5 -57t57.5 -136q0 -121 -84 -206t-245 -89l-8 -74h-91l14 74q-119 2 -176.5 56.5t-57.5 136.5q0 120 83.5 205.5t243.5 89.5l9 69zM599 345q0 138 -153 143l-68 -350q102 4 161.5 60t59.5 147zM139 281q0 -138 153 -143l67 350
q-102 -4 -161 -60t-59 -147z" />
    <glyph glyph-name="afii10039.sc" horiz-adv-x="566" 
d="M382 -2l-116 244l-90 -113q-28 -33 -52 -65t-34 -48l-10 -16h-94q39 66 124 166l123 146l-97 206q-8 18 -19.5 39t-18.5 33l-7 11l107 5l109 -233l85 107q26 33 47 63.5t29 44.5l8 13h92q-27 -55 -110 -155l-119 -142l103 -219q8 -19 20 -40t20 -33l7 -12z" />
    <glyph glyph-name="afii10040.sc" horiz-adv-x="704" 
d="M485 -186l33 186h-475l96 498l15 103l99 5l-103 -534h294l82 426l15 103l99 5l-103 -534h80l-32 -162l-12 -90z" />
    <glyph glyph-name="afii10041.sc" horiz-adv-x="583" 
d="M333 0l41 215q-56 -20 -118 -20q-223 0 -181 221l16 82l14 103l100 5l-36 -188q-14 -75 10.5 -112t92.5 -39q50 -2 116 19l41 212l14 103l100 5l-99 -513l-13 -93h-98z" />
    <glyph glyph-name="afii10042.sc" horiz-adv-x="879" 
d="M43 0l96 498l14 103l100 5l-103 -534h200l82 426l14 103l100 5l-103 -534h200l82 426l14 103l100 5l-99 -513l-13 -93h-684z" />
    <glyph glyph-name="afii10043.sc" horiz-adv-x="903" 
d="M43 0l96 498l15 103l99 5l-103 -534h200l82 426l15 103l99 5l-103 -534h200l82 426l15 103l99 5l-103 -534h80l-32 -162l-12 -90l-88 -6l33 186h-674z" />
    <glyph glyph-name="afii10044.sc" horiz-adv-x="626" 
d="M65 529l5 72h254l-41 -215h88q101 0 150 -42t49 -115q0 -97 -72 -163t-191 -66h-192l100 515l3 19zM360 313h-92l-46 -240h82q76 0 119.5 38.5t43.5 101.5q0 47 -28.5 73.5t-78.5 26.5z" />
    <glyph glyph-name="afii10045.sc" horiz-adv-x="790" 
d="M42 0l100 515q4 22 6.5 43.5t3.5 31.5v11l100 5l-42 -220h88q101 0 150 -42t49 -115q0 -97 -72 -163t-191 -66h-192zM287 313h-92l-46 -240h82q76 0 119.5 38.5t43.5 101.5q0 47 -28.5 73.5t-78.5 26.5zM540 0l96 498l14 103l100 5l-99 -513l-13 -93h-98z" />
    <glyph glyph-name="afii10046.sc" horiz-adv-x="553" 
d="M42 0l100 515q4 22 6.5 43.5t3.5 31.5v11l100 5l-42 -220h88q101 0 150 -42t49 -115q0 -97 -72 -163t-191 -66h-192zM287 313h-92l-46 -240h82q76 0 119.5 38.5t43.5 101.5q0 47 -28.5 73.5t-78.5 26.5z" />
    <glyph glyph-name="afii10047.sc" horiz-adv-x="561" 
d="M142 335l259 -10v8q0 97 -41 149.5t-117 52.5q-27 0 -48.5 -6t-46.5 -16t-43 -15l-24 73q7 2 25.5 8.5t27.5 9.5t25.5 8t28 7t27.5 4t31 2q125 0 189 -72t64 -201q0 -150 -85.5 -247.5t-221.5 -97.5q-53 0 -97 10.5t-62 21.5l-18 10l23 64q59 -31 144 -31q89 0 143 52.5
t70 140.5l-253 -8v83z" />
    <glyph glyph-name="afii10048.sc" horiz-adv-x="917" 
d="M297 249v14h-110l-33 -170l-13 -93h-98l96 498l14 103l100 5l-52 -269h104q23 119 103 196t210 77q107 0 173 -67t66 -189q0 -71 -20 -135.5t-58.5 -116t-101 -82t-141.5 -30.5q-108 0 -173.5 67.5t-65.5 191.5zM398 256q0 -87 39 -141t116 -54q102 0 152.5 75.5
t50.5 211.5q0 84 -39 137.5t-116 53.5q-102 0 -152.5 -74.5t-50.5 -208.5z" />
    <glyph glyph-name="afii10049.sc" horiz-adv-x="585" 
d="M433 0h-98l43 222h-104l-173 -222h-114q33 38 64 77l140 168q-98 33 -98 141q0 86 71.5 150.5t195.5 64.5h185l-99 -508zM195 386q0 -98 117 -98h79l47 240h-88q-70 0 -112.5 -36.5t-42.5 -105.5z" />
    <glyph glyph-name="afii10050.sc" horiz-adv-x="478" 
d="M43 0l96 498l14 103h273l45 149h69l-48 -225l-253 8l-85 -440l-13 -93h-98z" />
    <glyph glyph-name="afii10051.sc" horiz-adv-x="652" 
d="M147 0l103 528l-185 -8l6 81h466l-16 -81l-178 8l-33 -166q67 20 119 20q97 0 135 -57t21 -148q-17 -88 -59 -141t-126 -92l-35 54q103 52 125 171q14 70 -9 103.5t-87 33.5q-35 0 -97 -11l-39 -202l-13 -93h-98z" />
    <glyph glyph-name="afii10052.sc" horiz-adv-x="477" 
d="M501 601l-9 -81q-51 6 -76 7l-177 6l-85 -440l-13 -93l-99 -5l97 503l14 103h348zM300 667l-32 48l188 151l55 -79z" />
    <glyph glyph-name="afii10053.sc" horiz-adv-x="548" 
d="M356 535q-78 0 -127 -52t-61 -148l239 4v-78l-243 6q1 -91 42 -145.5t123 -54.5q36 0 69.5 7.5t49.5 15.5l16 8v-67q-6 -4 -17.5 -10.5t-53 -17.5t-90.5 -11q-107 0 -173.5 73t-66.5 194q0 93 34 171.5t103.5 129t161.5 50.5q34 0 58.5 -4.5t63 -18t49.5 -16.5l-32 -76
q-16 5 -41.5 16t-49.5 17.5t-54 6.5z" />
    <glyph glyph-name="afii10054.sc" horiz-adv-x="505" 
d="M291 535q-48 0 -75 -24.5t-27 -62.5q0 -33 24 -58t58.5 -44t69.5 -40t59 -57t24 -84q0 -70 -57 -123t-160 -53q-57 0 -104 9.5t-65 18.5l-19 9l28 72q72 -32 164 -32q114 0 114 93q0 32 -24.5 57.5t-59 44t-69 39.5t-59 55t-24.5 79q0 73 54.5 124.5t146.5 51.5
q34 0 64.5 -4.5t47 -9.5t41.5 -13.5t35 -11.5l-31 -77q-18 5 -43.5 16t-51 18t-61.5 7z" />
    <glyph glyph-name="afii10055.sc" horiz-adv-x="293" 
d="M43 0l96 498l14 103l100 5l-99 -513l-13 -93h-98z" />
    <glyph glyph-name="afii10056.sc" horiz-adv-x="293" 
d="M43 0l96 498l14 103l100 5l-99 -513l-13 -93h-98zM108 666q-24 0 -39.5 16t-15.5 42t16.5 45.5t47.5 19.5q26 0 40.5 -15.5t14.5 -40.5q0 -28 -17 -47.5t-47 -19.5zM301 666q-24 0 -39.5 16t-15.5 42t16.5 45.5t47.5 19.5q26 0 40.5 -15.5t14.5 -40.5q0 -28 -17.5 -47.5
t-46.5 -19.5z" />
    <glyph glyph-name="afii10057.sc" horiz-adv-x="291" 
d="M60 90l80 408l14 103l99 5l-100 -515q-8 -42 -26.5 -79t-31.5 -54t-54 -62.5t-56 -62.5l-48 48q15 19 37.5 45.5t32 38.5t21.5 32t19 41.5t13 51.5z" />
    <glyph glyph-name="afii10058.sc" horiz-adv-x="904" 
d="M393 0l101 527h-205q-45 -221 -93 -343.5t-99.5 -163.5t-119.5 -24v79q78 -11 127.5 100t114.5 426h383l-41 -215h88q101 0 150 -42t49 -115q0 -97 -72 -163t-191 -66h-192zM638 313h-92l-46 -240h82q76 0 119.5 38.5t43.5 101.5q0 47 -28.5 73.5t-78.5 26.5z" />
    <glyph glyph-name="afii10059.sc" horiz-adv-x="939" 
d="M428 0l51 263h-292l-33 -170l-13 -93h-98l96 498l14 103l100 5l-52 -269h292l35 178q4 22 6.5 43.5t3.5 31.5v11l100 5l-42 -220h88q101 0 150 -42t49 -115q0 -97 -72 -163t-191 -66h-192zM673 313h-92l-46 -240h82q76 0 119.5 38.5t43.5 101.5q0 47 -28.5 73.5
t-78.5 26.5z" />
    <glyph glyph-name="afii10060.sc" horiz-adv-x="661" 
d="M147 0l103 528l-185 -8l6 81h466l-16 -81l-178 8l-32 -164q66 18 118 18q197 0 157 -205l-35 -177h-93l35 180q24 126 -90 126q-40 0 -106 -12l-39 -201l-13 -93h-98z" />
    </font>
</defs>
</svg>
