<svg xmlns="http://www.w3.org/2000/svg">
<defs>
<font id="PermianSansTypeface" horiz-adv-x="500" >
  <font-face 
    font-family="PermianSansTypeface"
    font-weight="400"
    font-stretch="normal"
    units-per-em="1000"
    panose-1="2 0 0 0 0 0 0 0 0 0"
    ascent="750"
    descent="-250"
    x-height="500"
    cap-height="700"
    bbox="-85 -361 1312 1119"
    underline-thickness="50"
    underline-position="-200"
    unicode-range="U+0020-FFFD"
  />
<missing-glyph horiz-adv-x="634" 
d="M47 0l-23 22v489l23 22h490l22 -22v-490l-22 -21h-490zM55 51l21 -20h432l19 19v432l-19 20h-432l-21 -20v-431zM183 323v89l-1 14l13 1v-7q7 7 21 7q29 0 29 -32q0 -18 -9.5 -28.5t-25.5 -10.5q-5 0 -15 4v-25l1 -12h-13zM143 357v7q-12 -8 -23 -8q-21 0 -21 23v36
l-1 11h14v-43q0 -16 13 -16q10 0 17 5v54h13v-54l1 -14zM496 331l-4 -8q-39 15 -39 69q0 53 39 70l4 -9q-31 -15 -31 -60q0 -47 31 -62zM261 359l1 11q4 0 11 -1.5t11 -1.5q13 0 13 8q0 6 -16 12q-19 6 -19 21q0 19 22 19q5 0 11.5 -1t9.5 -1l-1 -11q-5 0 -11 1.5t-10 1.5
q-10 0 -10 -8q0 -7 17 -12q18 -7 18 -21q0 -20 -24 -20q-5 0 -13.5 1.5t-9.5 1.5zM195 412v-41q10 -5 16 -5q21 0 21 25t-19 25q-11 0 -18 -4zM298 102v-1q-1 -1 -1 -2q0 -2 3 -2l7 -1q11 0 11 -9q0 -11 -15 -11t-15 9q0 6 6 8q-2 2 -2 4l3 6q-6 1 -6 9q0 13 14 13q3 0 7 -2
q3 3 10 3v-5q-5 0 -8 -1q4 -2 4 -7q0 -12 -14 -12q-3 0 -4 1zM378 77v40l-1 7h6v-3q6 4 10 4q13 0 13 -15q0 -18 -16 -18q-5 0 -7 2v-12l1 -5h-6zM212 192v11l-1 6l6 1v-41l1 -7h-6v3q-4 -4 -9 -4q-14 0 -14 16q0 17 15 17q4 0 8 -2zM238 246q0 18 16 18q15 0 15 -15
q0 -18 -16 -18q-15 0 -15 15zM228 176q0 18 16 18q14 0 14 -15q0 -18 -16 -18q-14 0 -14 15zM130 181l-7 -19h-6l-5 19l-1 7h-1q0 -4 -1 -7l-5 -19h-6l-8 25l-2 7h6l5 -19l2 -8l5 20l2 7h6l5 -18l2 -9q1 4 2 9l3 8l2 10h5q0 -6 -3 -13zM427 168v-5q-2 -2 -5 -2q-5 0 -5 4
q-6 -4 -10 -4q-9 0 -9 9q0 8 10 9q3 1 9 1v2q0 7 -8 7l-9 -1v4q4 2 10 2q13 0 13 -11q0 -2 -0.5 -7.5t-0.5 -7.5t2 -2zM167 178h-22q0 -12 11 -12l9 2v-4q-4 -3 -11 -3q-15 0 -15 16q0 17 15 17t13 -16zM265 114v-16l1 -6h-7v20q0 7 -6 7t-8 -2v-25h-6v48h6v-19q6 4 11 4

<glyph glyph-name="f_f" unicode="ff" horiz-adv-x="738" 
d="M288 681q-49 0 -67.5 -29.5t-18.5 -80.5v-71h253v47q0 102 47 157.5t134 55.5q30 0 75 -9t67 -11l-8 -82q-27 2 -70.5 12.5t-66.5 10.5q-49 0 -67.5 -29.5t-18.5 -80.5v-71h171l-5 -73l-166 2v-336l5 -93h-98l1 430h-253v-337l5 -93h-98l1 431l-67 1v68h67v47
q0 102 47 157.5t134 55.5q30 0 69.5 -8.5t62.5 -10.5l-11 -81q-24 3 -62 12t-62 9z" />
    <glyph glyph-name="fi" unicode="fi" horiz-adv-x="647" 
d="M466 0v429h-264v-336l5 -93h-98l1 431l-67 1v68h67v47q0 102 47 157.5t134 55.5q30 0 69 -8.5t60 -10.5l-8 -82q-26 3 -63 12.5t-61 9.5q-49 0 -67.5 -29.5t-18.5 -80.5v-71h357v-407l5 -93h-98zM510 627q-26 0 -42.5 16t-16.5 41q0 26 18 41t46 15q27 0 42.5 -14.5
t15.5 -39.5q0 -27 -17 -43t-46 -16z" />
    <glyph glyph-name="fl" unicode="fl" horiz-adv-x="640" 
d="M453 0v603q0 16 2.5 31.5t4.5 23.5l3 7q-20 -7 -48 -7q-27 0 -65 11.5t-63 11.5q-49 0 -67.5 -29.5t-18.5 -80.5v-71h171l-5 -73l-166 2v-336l5 -93h-97v431l-67 1v68h67v47q0 102 47 157.5t134 55.5q28 0 73 -10t73 -10q48 0 110 16v-663l5 -93h-98z" />
    <glyph glyph-name="f_f_i" unicode="ffi" horiz-adv-x="992" 
d="M811 0v430h-264v-337l5 -93h-98l1 430h-253v-337l5 -93h-98l1 430h-67v70h67v47q0 102 47 157.5t134 55.5q30 0 69.5 -8.5t62.5 -10.5l-11 -81q-24 3 -62 12t-62 9q-49 0 -67.5 -29.5t-18.5 -80.5v-71h253v47q0 102 47 157.5t134 55.5q30 0 69 -8.5t60 -10.5l-8 -82
q-26 3 -63 12.5t-61 9.5q-49 0 -67.5 -29.5t-18.5 -80.5v-71h357v-407l5 -93h-98zM855 627q-26 0 -42.5 16t-16.5 41q0 26 18 41t46 15q27 0 42.5 -14.5t15.5 -39.5q0 -27 -17 -43t-46 -16z" />
    <glyph glyph-name="f_f_l" unicode="ffl" horiz-adv-x="986" 
d="M799 0v603q0 16 2.5 31.5t4.5 23.5l3 7q-20 -7 -48 -7q-27 0 -65 11.5t-63 11.5q-49 0 -67.5 -29.5t-18.5 -80.5v-71h171l-5 -73l-166 2v-336l5 -93h-97v430h-253v-337l5 -93h-98l1 431l-67 1v68h67v47q0 102 47 157.5t134 55.5q30 0 69.5 -8.5t62.5 -10.5l-11 -81
q-24 3 -62 12t-62 9q-49 0 -67.5 -29.5t-18.5 -80.5v-71h253v47q0 102 47 157.5t134 55.5q28 0 73 -10t73 -10q48 0 110 16v-663l5 -93h-98z" />
    <glyph glyph-name="f_f_b" unicode="ffb" horiz-adv-x="1311" 
d="M799 31v572q0 16 2.5 31.5t4.5 23.5l3 7q-20 -7 -48 -7q-27 0 -65 11.5t-63 11.5q-49 0 -67.5 -29.5t-18.5 -80.5v-71h171l-5 -73l-166 2v-336l5 -93h-97v430h-253v-337l5 -93h-98l1 431l-67 1v68h67v47q0 102 47 157.5t134 55.5q30 0 69.5 -8.5t62.5 -10.5l-11 -81
q-24 3 -62 12t-62 9q-49 0 -67.5 -29.5t-18.5 -80.5v-71h253v47q0 102 47 157.5t134 55.5q28 0 73 -10t73 -10q48 0 110 16l-2 -296q67 51 157 51q100 0 153.5 -67t53.5 -166q0 -134 -69 -210.5t-184 -76.5q-122 0 -202 40zM1017 431q-73 0 -127 -33q2 -38 2 -96v-216
q48 -25 108 -25q157 0 157 196q0 82 -35 128t-105 46z" />
    <glyph glyph-name="f_f_h" unicode="ffh" horiz-adv-x="1294" 
d="M799 1v602q0 16 2.5 31.5t4.5 23.5l3 7q-20 -7 -48 -7q-27 0 -65 11.5t-63 11.5q-49 0 -67.5 -29.5t-18.5 -80.5v-71h171l-5 -73l-166 2v-336l5 -93h-97v430h-253v-337l5 -93h-98l1 431l-67 1v68h67v47q0 102 47 157.5t134 55.5q30 0 69.5 -8.5t62.5 -10.5l-11 -81
q-24 3 -62 12t-62 9q-49 0 -67.5 -29.5t-18.5 -80.5v-71h253v47q0 102 47 157.5t134 55.5q28 0 73 -10t73 -10q48 0 110 16l-2 -305q73 60 174 60q147 0 147 -168v-259l5 -83h-98v317q0 113 -101 113q-63 0 -127 -34q2 -20 2 -95v-218l5 -83h-98z" />
    <glyph glyph-name="f_f_j" unicode="ffj" horiz-adv-x="985" 
d="M288 681q-49 0 -67.5 -29.5t-18.5 -80.5v-71h253v47q0 102 47 157.5t134 55.5q30 0 65.5 -9t56.5 -11l-12 -82q-24 3 -57 13t-56 10q-49 0 -67.5 -29.5t-18.5 -80.5v-71h351v-474q0 -69 -21 -119q-21 -49 -121 -164l-51 44q7 9 22.5 27.5t21.5 26t15.5 21t15.5 25.5
t11 27q14 42 14 112v404h-258v-337l5 -93h-98l1 430h-253v-337l5 -93h-98l1 431l-67 1v68h67v47q0 102 47 157.5t134 55.5q30 0 69.5 -8.5t62.5 -10.5l-11 -81q-24 3 -62 12t-62 9zM849 627q-26 0 -42.5 16t-16.5 41q0 26 18 41t46 15q27 0 42.5 -14.5t15.5 -39.5
q0 -27 -17 -43t-46 -16z" />
    <glyph glyph-name="f_f_k" unicode="ffk" horiz-adv-x="1243" 
d="M799 0v603q0 16 2.5 31.5t4.5 23.5l3 7q-20 -7 -48 -7q-27 0 -65 11.5t-63 11.5q-49 0 -67.5 -29.5t-18.5 -80.5v-71h171l-5 -73l-166 2v-336l5 -93h-97v430h-253v-337l5 -93h-98l1 431l-67 1v68h67v47q0 102 47 157.5t134 55.5q30 0 69.5 -8.5t62.5 -10.5l-11 -81
q-24 3 -62 12t-62 9q-49 0 -67.5 -29.5t-18.5 -80.5v-71h253v47q0 102 47 157.5t134 55.5q28 0 73 -10t73 -10q48 0 110 16v-468h49l78 97q28 35 49.5 65.5t28.5 43.5l7 12l92 -6q-33 -66 -104 -149l-80 -93l151 -184l66 -74l-110 -5l-181 224h-46v-126l5 -93h-98z" />
    <glyph glyph-name="f_b" unicode="fb" horiz-adv-x="966" 
d="M672 431q-73 0 -127 -33q2 -38 2 -96v-216q48 -25 108 -25q157 0 157 196q0 82 -35 128t-105 46zM416 658q-27 0 -65 11.5t-63 11.5q-49 0 -67.5 -29.5t-18.5 -80.5v-71h171l-5 -73l-166 2v-336l5 -93h-98l1 431l-67 1v68h67v47q0 102 47 157.5t134 55.5q27 0 73 -10
t73 -10q48 0 110 16l-2 -296q67 51 157 51q100 0 153.5 -67t53.5 -166q0 -134 -69 -210.5t-184 -76.5q-122 0 -202 40v572q0 16 2.5 31.5t5.5 23.5l2 7q-20 -7 -48 -7z" />
    <glyph glyph-name="f_h" unicode="fh" horiz-adv-x="949" 
d="M454 1v602q0 16 2.5 31.5t5.5 23.5l2 7q-20 -7 -48 -7q-27 0 -65 11.5t-63 11.5q-49 0 -67.5 -29.5t-18.5 -80.5v-71h171l-5 -73l-166 2v-336l5 -93h-98l1 431l-67 1v68h67v47q0 102 47 157.5t134 55.5q27 0 73 -10t73 -10q48 0 110 16l-2 -305q73 60 174 60
q147 0 147 -168v-259l5 -83h-98v317q0 113 -101 113q-63 0 -127 -34q2 -20 2 -95v-218l5 -83h-98z" />
    <glyph glyph-name="f_k" unicode="fk" horiz-adv-x="898" 
d="M454 0v603q0 16 2.5 31.5t5.5 23.5l2 7q-20 -7 -48 -7q-27 0 -65 11.5t-63 11.5q-49 0 -67.5 -29.5t-18.5 -80.5v-71h171l-5 -73l-166 2v-336l5 -93h-98l1 431l-67 1v68h67v47q0 102 47 157.5t134 55.5q27 0 73 -10t73 -10q48 0 110 16v-468h49l78 97q28 35 49.5 65.5
t28.5 43.5l7 12l92 -6q-33 -66 -104 -149l-80 -93l151 -184l66 -74l-110 -5l-181 224h-46v-126l5 -93h-98z" />
    <glyph glyph-name="f_j" unicode="fj" horiz-adv-x="640" 
d="M202 430v-337l5 -93h-98l1 431l-67 1v68h67v47q0 102 47 157.5t134 55.5q28 0 65 -9.5t61 -11.5l-14 -81q-26 3 -58 13t-57 10q-49 0 -67.5 -29.5t-18.5 -80.5v-71h351v-474q0 -69 -21 -119q-21 -49 -121 -164l-51 44q7 9 22.5 27.5t21.5 26t15.5 21t15.5 25.5t11 27
q14 42 14 112v404h-258zM504 627q-26 0 -42.5 16t-16.5 41q0 26 18 41t46 15q27 0 42.5 -14.5t15.5 -39.5q0 -27 -17 -43t-46 -16z" />
    <glyph glyph-name=".notdef" horiz-adv-x="634" 
d="M47 0l-23 22v489l23 22h490l22 -22v-490l-22 -21h-490zM55 51l21 -20h432l19 19v432l-19 20h-432l-21 -20v-431zM183 323v89l-1 14l13 1v-7q7 7 21 7q29 0 29 -32q0 -18 -9.5 -28.5t-25.5 -10.5q-5 0 -15 4v-25l1 -12h-13zM143 357v7q-12 -8 -23 -8q-21 0 -21 23v36
l-1 11h14v-43q0 -16 13 -16q10 0 17 5v54h13v-54l1 -14zM496 331l-4 -8q-39 15 -39 69q0 53 39 70l4 -9q-31 -15 -31 -60q0 -47 31 -62zM261 359l1 11q4 0 11 -1.5t11 -1.5q13 0 13 8q0 6 -16 12q-19 6 -19 21q0 19 22 19q5 0 11.5 -1t9.5 -1l-1 -11q-5 0 -11 1.5t-10 1.5
q-10 0 -10 -8q0 -7 17 -12q18 -7 18 -21q0 -20 -24 -20q-5 0 -13.5 1.5t-9.5 1.5zM195 412v-41q10 -5 16 -5q21 0 21 25t-19 25q-11 0 -18 -4zM298 102v-1q-1 -1 -1 -2q0 -2 3 -2l7 -1q11 0 11 -9q0 -11 -15 -11t-15 9q0 6 6 8q-2 2 -2 4l3 6q-6 1 -6 9q0 13 14 13q3 0 7 -2
q3 3 10 3v-5q-5 0 -8 -1q4 -2 4 -7q0 -12 -14 -12q-3 0 -4 1zM378 77v40l-1 7h6v-3q6 4 10 4q13 0 13 -15q0 -18 -16 -18q-5 0 -7 2v-12l1 -5h-6zM212 192v11l-1 6l6 1v-41l1 -7h-6v3q-4 -4 -9 -4q-14 0 -14 16q0 17 15 17q4 0 8 -2zM238 246q0 18 16 18q15 0 15 -15
q0 -18 -16 -18q-15 0 -15 15zM228 176q0 18 16 18q14 0 14 -15q0 -18 -16 -18q-14 0 -14 15zM130 181l-7 -19h-6l-5 19l-1 7h-1q0 -4 -1 -7l-5 -19h-6l-8 25l-2 7h6l5 -19l2 -8l5 20l2 7h6l5 -18l2 -9q1 4 2 9l3 8l2 10h5q0 -6 -3 -13zM427 168v-5q-2 -2 -5 -2q-5 0 -5 4
q-6 -4 -10 -4q-9 0 -9 9q0 8 10 9q3 1 9 1v2q0 7 -8 7l-9 -1v4q4 2 10 2q13 0 13 -11q0 -2 -0.5 -7.5t-0.5 -7.5t2 -2zM167 178h-22q0 -12 11 -12l9 2v-4q-4 -3 -11 -3q-15 0 -15 16q0 17 15 17t13 -16zM265 114v-16l1 -6h-7v20q0 7 -6 7t-8 -2v-25h-6v48h6v-19q6 4 11 4
q9 0 9 -11zM492 178h-22q2 -12 12 -12l8 2v-4q-4 -3 -10 -3q-16 0 -16 16q0 17 16 17q14 0 12 -16zM389 184v-22h-6v20q0 7 -6 7q-4 0 -8 -2v-25h-6v47l6 1v-20q4 4 11 4q9 0 9 -10zM442 114v-16l1 -6h-6v20q0 7 -7 7q-6 0 -8 -2v-19l1 -6h-7v48h6v-19q6 4 11 4q9 0 9 -11z
M190 92v3q-4 -3 -10 -3q-10 0 -10 10v17l-1 5h7v-20q0 -7 6 -7q4 0 8 2v25h6v-32h-6zM294 184v-17l1 -5h-7v20q0 7 -6 7q-4 0 -8 -2v-25h-6v32h6v-4q4 4 10 4q10 0 10 -10zM353 76l-6 1q1 4 5 14l1 1l-9 25l-3 7h7l6 -18l2 -8q1 4 3 8l2 6l3 12h5q0 -1 -3 -13l-8 -19z
M341 216h-5q0 4 5 14v2l-9 25l-3 6l7 1l6 -19l2 -8q1 4 3 9l2 6q3 9 3 11h6l-4 -12l-8 -20zM393 385v10h40v-10h-40zM244 249q0 -13 10 -13q9 0 9 10q0 14 -10 14q-9 0 -9 -11zM234 179q0 -13 10 -13q8 0 8 11q0 13 -9 13t-9 -11zM212 168v19q-3 3 -7 3q-10 0 -10 -12t9 -12
q4 0 8 2zM208 232l1 6q6 -2 10 -2q6 0 6 4t-7 5q-9 3 -9 10q0 9 10 9q2 0 5 -0.5t5 -0.5l-1 -5q-2 0 -5 0.5t-4 0.5q-5 0 -5 -4q0 -2 8 -5t8 -10q0 -9 -11 -9q-2 0 -5.5 0.5t-5.5 0.5zM139 93v5q2 0 5.5 -0.5t4.5 -0.5q7 0 7 3t-8 6q-9 3 -9 10q0 9 10 9q3 0 6 -1t4 -1
l-1 -5q-2 0 -4.5 1t-4.5 1q-5 0 -5 -4q0 -3 8 -6q9 -4 9 -9q0 -9 -12 -9q-2 0 -5.5 0.5t-4.5 0.5zM383 117v-18q3 -3 8 -3q9 0 9 12q0 11 -9 11q-6 0 -8 -2zM456 183l-8 -21h-6l-9 25l-3 7h7l6 -19l2 -8h1q0 4 2 8l3 10q2 6 2 9h6zM212 109q0 -12 10 -12l8 1v-4q-4 -2 -9 -2
q-15 0 -15 15q0 18 15 18q1 0 4 -1t5 -1l-1 -5q-1 0 -4 1t-5 1q-8 0 -8 -11zM323 189h-4v4l4 1l3 7h2v-7h12v-5h-12v-17q0 -6 6 -6l6 1v-4q-3 -2 -7 -2q-10 0 -10 11v17zM285 232h-7v31l6 1v-5q5 5 8 5q2 0 4.5 -1.5t3.5 -1.5l-2 -5q-1 0 -3.5 1.5t-3.5 1.5q-3 0 -7 -4v-18z
M313 232h-7v31l6 1v-5q5 5 8 5q2 0 4.5 -1.5t3.5 -1.5l-3 -5l-6 3q-3 0 -7 -4v-18zM357 412q0 9 10 9q8 0 8 -8q0 -9 -9 -9t-9 8zM357 364q0 9 10 9q8 0 8 -9q0 -8 -9 -8t-9 8zM328 92v41l-1 7h6v-42l1 -6h-6zM296 92q-2 -4 -2 -5q0 -7 10 -7q9 0 9 6q0 5 -6 5h-7q-1 0 -2 1
h-2zM295 113q0 -7 8 -7q7 0 7 7t-8 7q-7 0 -7 -7zM416 169q0 1 0.5 3.5t0.5 4.5q-5 0 -7 -1q-6 -1 -6 -6q0 -4 5 -4q4 0 7 3zM145 182h16q0 8 -7 8t-9 -8zM470 182h16q0 8 -7 8t-9 -8zM367 220l-2 2q4 4 4 9q-4 0 -4 4t4 4t4 -5q0 -10 -6 -14zM306 188l-2 2q4 6 4 9
q-4 0 -4 4t4 4t4 -5q0 -8 -6 -14z" />
    <glyph glyph-name=".null" horiz-adv-x="0" 
 />
    <glyph glyph-name="nonmarkingreturn" horiz-adv-x="333" 
 />
    <glyph glyph-name="space" unicode=" " horiz-adv-x="235" 
 />
    <glyph glyph-name="exclam" unicode="!" horiz-adv-x="291" 
d="M143 -15q-29 0 -47 17.5t-18 45.5q0 29 19.5 45.5t51.5 16.5q30 0 47 -16t17 -44q0 -30 -19 -47.5t-51 -17.5zM104 230l-11 471l104 5l-10 -476h-83z" />
    <glyph glyph-name="quotedbl" unicode="&#x22;" horiz-adv-x="387" 
d="M77 463l-16 238l104 5l-15 -243h-73zM237 463l-16 238l104 5l-15 -243h-73z" />
    <glyph glyph-name="numbersign" unicode="#" horiz-adv-x="741" 
d="M95 383v74h173l52 135h82l-52 -135h159l52 135h82l-52 -135h92v-74h-120l-63 -166h143v-74h-172l-54 -143h-83l55 143h-159l-54 -143h-83l55 143h-93v74h121l64 166h-145zM322 383l-63 -166h158l64 166h-159z" />
    <glyph glyph-name="dollar" unicode="$" horiz-adv-x="517" 
d="M242 62q63 0 101 27t38 74q0 33 -18.5 56.5t-47.5 37t-65 24.5t-71.5 25.5t-64.5 34t-47.5 55t-18.5 83.5q0 69 48.5 119.5t138.5 62.5l-7 144q38 14 78 0l-8 -142q39 -2 76 -11.5t55 -18.5l18 -9l-29 -68q-73 30 -147 30q-59 0 -95.5 -26.5t-36.5 -70.5q0 -43 34.5 -70
t83.5 -43.5t97.5 -36t83 -60.5t34.5 -104q0 -73 -49.5 -122t-136.5 -62l9 -144q-37 -14 -78 0l6 139q-42 1 -85 11t-65 19l-22 10l28 70q82 -34 163 -34z" />
    <glyph glyph-name="percent" unicode="%" horiz-adv-x="944" 
d="M282 0h-98l478 700h97zM234 404q42 0 66.5 32.5t24.5 78.5q0 57 -25 96.5t-74 39.5q-42 0 -66 -32t-24 -79q0 -59 23.5 -97.5t74.5 -38.5zM222 341q-82 0 -130 53t-48 123q0 91 50 144t146 53q82 0 130 -53t48 -123q0 -91 -50 -144t-146 -53zM716 53q42 0 66.5 32.5
t24.5 78.5q0 57 -25 96.5t-74 39.5q-42 0 -66 -32t-24 -79q0 -59 23.5 -97.5t74.5 -38.5zM704 -10q-82 0 -130 53t-48 123q0 91 50 144t146 53q82 0 130 -53t48 -123q0 -91 -50 -144t-146 -53z" />
    <glyph glyph-name="ampersand" unicode="&#x26;" horiz-adv-x="695" 
d="M654 60h18v-60h-40q-90 0 -177 70q-88 -80 -194 -80q-89 0 -146 45t-57 115q0 67 34.5 111.5t99.5 92.5q-90 103 -93 177q-5 84 46.5 133.5t133.5 49.5q87 0 132 -39t45 -105q0 -32 -9 -57.5t-34.5 -54t-44.5 -45.5t-64 -54l53 -61q81 -92 108 -120q57 80 83 177l60 -17
q-26 -112 -97 -205q80 -73 143 -73zM282 62q65 0 124 51q-25 25 -129 146l-50 55q-74 -59 -74 -142q0 -48 33.5 -79t95.5 -31zM188 544q1 -28 15 -56.5t26.5 -44.5t39.5 -45q49 43 73 79.5t24 80.5q0 46 -24 69t-68 23q-41 0 -65 -30t-21 -76z" />
    <glyph glyph-name="quotesingle" unicode="'" horiz-adv-x="227" 
d="M77 463l-16 238l104 5l-15 -243h-73z" />
    <glyph glyph-name="parenleft" unicode="(" horiz-adv-x="340" 
d="M361 -154l-29 -56q-91 34 -157 112.5t-97.5 177.5t-31.5 209q0 170 74 310t216 203l25 -63q-106 -54 -166.5 -174.5t-60.5 -265.5q0 -150 62 -277.5t165 -175.5z" />
    <glyph glyph-name="parenright" unicode=")" horiz-adv-x="342" 
d="M-19 746l29 56q91 -34 157 -112.5t97.5 -177.5t31.5 -209q0 -170 -74 -310t-216 -203l-25 63q106 54 166.5 174.5t60.5 265.5q0 150 -62 277.5t-165 175.5z" />
    <glyph glyph-name="asterisk" unicode="*" horiz-adv-x="543" 
d="M318 823l-22 -143l11 -9l130 66q20 10 37.5 0t23.5 -30q6 -19 -2 -36.5t-29 -21.5l-145 -25l-4 -13l102 -102q15 -18 11.5 -36.5t-21.5 -31.5q-14 -12 -34 -9.5t-30 21.5l-68 129h-14l-67 -129q-10 -19 -30 -21.5t-34 9.5q-18 13 -21.5 31.5t11.5 36.5l102 103l-4 12
l-145 25q-21 4 -29 21.5t-2 36.5q6 20 23.5 30t37.5 0l130 -66l11 7l-22 146q-3 21 11.5 34.5t34.5 13.5q21 0 36 -13.5t11 -35.5z" />
    <glyph glyph-name="plus" unicode="+" horiz-adv-x="519" 
d="M54 248v74h165v169h80v-169h166v-74h-166v-168h-80v168h-165z" />
    <glyph glyph-name="comma" unicode="," horiz-adv-x="262" 
d="M101 -188l-40 33q64 58 69 142q-28 -1 -47.5 15t-19.5 46q0 29 18.5 45.5t47.5 16.5q69 0 69 -79q0 -63 -25 -121t-72 -98z" />
    <glyph glyph-name="hyphen" unicode="-" horiz-adv-x="443" 
d="M76 252v69l291 10v-69z" />
    <glyph glyph-name="period" unicode="." horiz-adv-x="257" 
d="M126 -15q-28 0 -45 17t-17 46t18 45.5t50 16.5q30 0 45.5 -16t15.5 -44q0 -31 -17.5 -48t-49.5 -17z" />
    <glyph glyph-name="slash" unicode="/" horiz-adv-x="485" 
d="M35 -174h-83l431 874h82z" />
    <glyph glyph-name="zero" unicode="0" horiz-adv-x="627" 
d="M318 65q64 0 102.5 74t38.5 181q0 86 -15 154.5t-50.5 114.5t-87.5 46q-66 0 -102 -73.5t-36 -181.5q0 -64 8 -118.5t24.5 -99.5t46.5 -71t71 -26zM302 -10q-74 0 -129 50t-81 125.5t-26 163.5q0 176 66 278.5t193 102.5q74 0 129 -50t81 -125.5t26 -163.5
q0 -176 -66 -278.5t-193 -102.5z" />
    <glyph glyph-name="one" unicode="1" horiz-adv-x="389" 
d="M30 591l-5 59l245 56h16v-706h-98v605z" />
    <glyph glyph-name="two" unicode="2" horiz-adv-x="502" 
d="M322 506q0 122 -117 122q-35 0 -73 -8.5t-58 -17.5l-21 -9v82q66 35 168 35q92 0 145.5 -48.5t53.5 -148.5q0 -86 -51.5 -173.5t-151.5 -191.5l-72 -75l231 3l74 5l-8 -81h-413v50l134 147q84 92 121.5 164t37.5 145z" />
    <glyph glyph-name="three" unicode="3" horiz-adv-x="529" 
d="M156 333l5 74h23q75 0 116 35.5t41 93.5q0 42 -29.5 67t-83.5 25q-38 0 -77 -8.5t-59 -17.5l-19 -9v82q68 35 164 35q94 0 147 -42.5t53 -118.5q0 -59 -36.5 -105.5t-107.5 -65.5q80 -14 127 -62t47 -120q0 -89 -64.5 -147.5t-181.5 -58.5q-43 0 -87 7t-67 15l-23 7
l20 80q72 -27 156 -27q69 0 108 33t39 91q0 57 -46 97t-138 40h-27z" />
    <glyph glyph-name="four" unicode="4" horiz-adv-x="587" 
d="M344 -10v159h-298l-28 46l368 519h52v-490l114 1l-8 -76h-106v-66l5 -93h-99zM298 462l-174 -243l220 4v236q0 21 2 44.5t4 36.5l1 13h-3q-18 -46 -50 -91z" />
    <glyph glyph-name="five" unicode="5" horiz-adv-x="528" 
d="M451 700l-5 -89l-267 7l-10 -168q300 -40 300 -245q0 -94 -62.5 -154.5t-179.5 -60.5q-94 0 -181 29l20 79q95 -26 157 -26q74 0 110 35.5t36 97.5q0 70 -72 112t-207 54l18 329h343z" />
    <glyph glyph-name="six" unicode="6" horiz-adv-x="565" 
d="M466 645q-135 -19 -210.5 -79.5t-93.5 -176.5q58 42 140 42q101 0 155.5 -54t54.5 -153q0 -101 -58.5 -167.5t-168.5 -66.5q-102 0 -160 77q-65 86 -65 240q0 366 396 414zM280 352q-69 0 -122 -44q-3 -103 31.5 -173.5t109.5 -70.5q59 0 87.5 39.5t28.5 109.5
q0 139 -135 139z" />
    <glyph glyph-name="seven" unicode="7" horiz-adv-x="470" 
d="M35 611l8 89h412v-17q-132 -283 -262 -696l-100 29q89 241 266 607l-227 -5z" />
    <glyph glyph-name="eight" unicode="8" horiz-adv-x="573" 
d="M65 174q0 67 41.5 117t99.5 75q-58 35 -90 74t-32 95q0 80 59.5 127.5t149.5 47.5q87 0 142 -43.5t54 -116.5q-1 -58 -40 -101t-90 -69q71 -40 110.5 -83t39.5 -111q0 -86 -65.5 -141.5t-155.5 -55.5q-101 0 -162 48.5t-61 136.5zM415 177q0 22 -9.5 42t-21 33.5
t-37 31.5t-39.5 26t-47 26q-41 -26 -71 -66.5t-30 -89.5q0 -50 32 -82.5t93 -32.5q56 0 93 29.5t37 82.5zM179 546q0 -44 31.5 -74t94.5 -64q44 30 66 60t23 73q1 42 -26.5 67.5t-78.5 25.5q-50 0 -80 -24t-30 -64z" />
    <glyph glyph-name="nine" unicode="9" horiz-adv-x="565" 
d="M98 55q135 18 210.5 79t93.5 177q-66 -42 -156 -42q-81 0 -137.5 56t-56.5 151q0 101 58.5 167.5t168.5 66.5q102 0 160 -77q65 -86 65 -240q0 -366 -396 -414zM284 348q68 0 121 44q2 65 -10 118t-45.5 89.5t-84.5 36.5q-59 0 -87.5 -39.5t-28.5 -109.5
q0 -64 34.5 -101.5t100.5 -37.5z" />
    <glyph glyph-name="colon" unicode=":" horiz-adv-x="281" 
d="M138 -15q-28 0 -45 17t-17 46t18 45.5t50 16.5q30 0 45.5 -16t15.5 -44q0 -31 -17.5 -48t-49.5 -17zM138 336q-28 0 -45 17t-17 46t18 45.5t50 16.5q30 0 45.5 -16t15.5 -44q0 -31 -17.5 -48t-49.5 -17z" />
    <glyph glyph-name="semicolon" unicode=";" horiz-adv-x="289" 
d="M140 337q-28 0 -45 17t-17 46t18 45.5t50 16.5q30 0 45.5 -16t15.5 -44q0 -31 -17.5 -48t-49.5 -17zM116 -188l-40 33q64 58 69 142q-28 -1 -47.5 15t-19.5 46q0 29 18.5 45.5t47.5 16.5q69 0 69 -79q0 -63 -25 -121t-72 -98z" />
    <glyph glyph-name="less" unicode="&#x3c;" horiz-adv-x="471" 
d="M42 299l348 210v-97l-224 -127l224 -129v-96l-348 210v29z" />
    <glyph glyph-name="equal" unicode="=" horiz-adv-x="577" 
d="M83 342v74h411v-74h-411zM83 152v74h411v-74h-411z" />
    <glyph glyph-name="greater" unicode="&#x3e;" horiz-adv-x="471" 
d="M81 509l348 -210v-29l-348 -210v96l224 129l-224 127v97z" />
    <glyph glyph-name="question" unicode="?" horiz-adv-x="448" 
d="M193 635q-39 0 -75 -12t-53 -24l-17 -12v79q6 5 17.5 13t53 21.5t89.5 13.5q101 0 148 -44.5t47 -106.5q0 -34 -14 -65t-35.5 -52.5t-46 -42.5t-46 -36.5t-35.5 -33t-14 -32.5q0 -9 6.5 -17.5t15.5 -8.5q12 0 26 12l42 -53q-44 -38 -89 -38q-39 0 -66.5 25.5t-27.5 65.5
q0 36 19 66t46 52.5t54 44t46 49.5t19 60q0 35 -29 55.5t-81 20.5zM200 -15q-29 0 -47 17.5t-18 45.5q0 29 19.5 45.5t51.5 16.5q30 0 47 -16t17 -44q0 -30 -19 -47.5t-51 -17.5z" />
    <glyph glyph-name="at" unicode="@" horiz-adv-x="926" 
d="M675 -10q-75 0 -106 63q-6 -7 -16.5 -17.5t-46 -28t-73.5 -17.5q-83 0 -134.5 59t-51.5 150q0 102 58 166.5t147 64.5q33 0 61.5 -9t40.5 -19l13 -9l72 42h11v-328q0 -43 33 -43q26 0 44.5 28.5t26.5 68.5t8 84q0 141 -80.5 224t-221.5 83q-78 0 -139 -27.5t-98 -74
t-56 -105t-19 -124.5q0 -76 24 -140t68.5 -109.5t114 -66.5t154.5 -10l8 -66q-208 -31 -338 73t-130 297q0 186 112.5 304t326.5 118q159 0 266 -94t107 -264q0 -105 -54 -189t-132 -84zM558 100l-1 237q-38 22 -92 22q-61 0 -91 -39.5t-30 -105.5q0 -70 29 -110.5t87 -40.5
q27 0 51.5 9.5t35.5 18.5z" />
    <glyph glyph-name="A" unicode="A" horiz-adv-x="622" 
d="M160 176l-8 -25q-30 -91 -39 -151h-87q9 64 49 177l188 520l89 6l216 -583q12 -33 24 -62.5t18 -42.5l7 -13l-103 -6l-66 180h-288zM300 600h-4q-11 -54 -27 -101l-85 -252h238l-91 251z" />
    <glyph glyph-name="B" unicode="B" horiz-adv-x="615" 
d="M103 0v598l-6 102h210q109 0 164 -47.5t55 -128.5q0 -52 -27.5 -93.5t-70.5 -61.5v-2q60 -16 94 -61t34 -101q0 -98 -66.5 -151.5t-181.5 -53.5h-205zM317 331h-118v-260h117q64 0 102.5 35t38.5 97q0 58 -37.5 93t-102.5 35zM296 629h-97v-226h166q3 1 7 4t14.5 13
t19 22t15 31.5t6.5 41.5q0 114 -131 114z" />
    <glyph glyph-name="C" unicode="C" horiz-adv-x="594" 
d="M365 635q-90 0 -145.5 -77.5t-55.5 -193.5q0 -59 12.5 -110t38.5 -93.5t72 -66.5t108 -24q40 0 75.5 5t50.5 9l15 5l17 -70q-52 -29 -165 -29q-149 0 -237.5 94.5t-88.5 244.5q0 176 82.5 280t236.5 104q28 0 57 -3.5t61 -9t49 -7.5l-14 -78q-1 0 -66 10t-103 10z" />
    <glyph glyph-name="D" unicode="D" horiz-adv-x="723" 
d="M103 0v598l-6 102h197q179 0 276 -89.5t97 -247.5q0 -177 -105.5 -270t-268.5 -93h-190zM273 628h-72v-556h115q114 0 180 74t66 200q0 134 -76.5 208t-212.5 74z" />
    <glyph glyph-name="E" unicode="E" horiz-adv-x="590" 
d="M103 0v598l-6 102h433l-5 -79q-49 5 -97 6l-227 3v-240l279 5l-5 -86l-274 8v-246l250 3l79 6l-5 -80h-422z" />
    <glyph glyph-name="F" unicode="F" horiz-adv-x="556" 
d="M103 0v598l-6 102h423l-5 -80q-43 5 -96 6l-218 3v-259l269 5l-5 -86l-264 8v-204l5 -93h-103z" />
    <glyph glyph-name="G" unicode="G" horiz-adv-x="669" 
d="M405 635q-113 0 -177.5 -72.5t-64.5 -198.5q0 -60 12.5 -111t39 -94t73.5 -67.5t110 -24.5q24 0 50 2t40 4l14 2v134l-6 103l99 5v-302q-76 -25 -197 -25q-163 0 -250 92.5t-87 246.5q0 177 89.5 280.5t262.5 103.5q32 0 64 -3.5t67.5 -9t50.5 -7.5l-14 -78
q-15 2 -48.5 7.5t-66 9t-61.5 3.5z" />
    <glyph glyph-name="H" unicode="H" horiz-adv-x="756" 
d="M555 0v325h-354v-232l5 -93h-103v598l-6 103l104 5v-307h354v199l-6 103l104 5v-613l5 -93h-103z" />
    <glyph glyph-name="I" unicode="I" horiz-adv-x="304" 
d="M103 0v598l-6 103l104 5v-613l5 -93h-103z" />
    <glyph glyph-name="J" unicode="J" horiz-adv-x="303" 
d="M103 90v508l-6 103l104 5v-615q0 -61 -18 -114q-12 -33 -32 -62.5t-56 -71.5t-44 -52l-60 49q11 15 38 47.5t41.5 55.5t22.5 50q10 37 10 97z" />
    <glyph glyph-name="K" unicode="K" horiz-adv-x="628" 
d="M103 0v598l-6 103l104 5v-311h70q102 132 142 190t72 115h102q-37 -66 -86 -134.5t-157 -200.5l220 -295q11 -15 26.5 -32.5t25.5 -27.5l9 -10l-119 -5l-243 327h-62v-229l5 -93h-103z" />
    <glyph glyph-name="L" unicode="L" horiz-adv-x="544" 
d="M530 80l-5 -80h-422v598l-6 102l104 5v-634l245 4z" />
    <glyph glyph-name="M" unicode="M" horiz-adv-x="906" 
d="M451 170h-14l-208 313q-11 16 -22 34.5t-16 28.5l-5 11l-3 -1q4 -41 4 -90v-383l5 -83h-89v587l-6 114l90 5l222 -335l40 -67h3q21 40 40 69l215 328l96 5v-613l5 -93h-101v488l5 86l-4 1q-20 -43 -45 -80z" />
    <glyph glyph-name="N" unicode="N" horiz-adv-x="749" 
d="M565 -10l-338 499l-44 77h-3q8 -61 8 -87v-386l5 -93h-90v598l-6 103l88 5l337 -499q10 -14 21 -34t17 -33l7 -12l3 1q-8 52 -8 92v377l-6 103l91 5v-706z" />
    <glyph glyph-name="O" unicode="O" horiz-adv-x="751" 
d="M384 60q101 0 151.5 77.5t50.5 200.5q0 46 -6.5 87.5t-22.5 81.5t-40.5 69t-63 46.5t-86.5 17.5q-101 0 -151.5 -77.5t-50.5 -200.5q0 -46 6.5 -87.5t22.5 -81.5t40.5 -69t63 -46.5t86.5 -17.5zM364 -10q-98 0 -168 50.5t-101.5 127.5t-31.5 169q0 172 81 272.5
t243 100.5q98 0 168 -50.5t101.5 -127.5t31.5 -169q0 -172 -81 -272.5t-243 -100.5z" />
    <glyph glyph-name="P" unicode="P" horiz-adv-x="598" 
d="M103 0v598l-6 102h196q128 0 195.5 -60t67.5 -167q0 -96 -71 -161t-182 -65h-102v-154l5 -93h-103zM279 628h-78v-308h102q71 0 112 42t41 110t-44 112t-133 44z" />
    <glyph glyph-name="Q" unicode="Q" horiz-adv-x="768" 
d="M372 -10q-98 0 -170.5 50.5t-106.5 127.5t-34 169q0 171 85.5 272t248.5 101q98 0 170.5 -50.5t106.5 -127.5t34 -169q0 -238 -154 -329l86 -141l52 -76l-113 -5l-109 188q-50 -10 -96 -10zM392 61q102 0 157 78t55 199q0 45 -7.5 87t-25 81.5t-43.5 68.5t-65.5 46.5
t-87.5 17.5q-102 0 -157 -78t-55 -199q0 -45 7.5 -87t25 -81.5t43.5 -68.5t65.5 -46.5t87.5 -17.5z" />
    <glyph glyph-name="R" unicode="R" horiz-adv-x="635" 
d="M103 0v598l-6 102h196q127 0 195 -56t68 -151q0 -74 -38 -122t-100 -66l134 -229l52 -76l-113 -5l-160 283h-130v-185l5 -93h-103zM279 628h-78v-280h102q72 0 112.5 38.5t40.5 101.5q0 140 -177 140z" />
    <glyph glyph-name="S" unicode="S" horiz-adv-x="555" 
d="M289 633q-61 0 -94.5 -26.5t-33.5 -72.5q0 -51 33.5 -81.5t106.5 -58.5q40 -15 64 -25.5t53.5 -28.5t45 -37t26.5 -48t11 -65q0 -94 -70 -147t-197 -53q-49 0 -91.5 6t-60.5 12l-17 7v77q73 -23 169 -23q79 0 124.5 28t45.5 83q0 53 -40 82.5t-126 59.5q-82 29 -128 74.5
t-46 124.5q0 86 64 139t173 53q41 0 100.5 -9t79.5 -11l-14 -80q-24 2 -81 11t-97 9z" />
    <glyph glyph-name="T" unicode="T" horiz-adv-x="585" 
d="M245 0v629l-145 -4l-79 -5l3 80h542l-4 -81q-40 5 -80 6l-139 4v-536l5 -93h-103z" />
    <glyph glyph-name="U" unicode="U" horiz-adv-x="735" 
d="M640 706v-455q0 -117 -71.5 -191t-208.5 -74q-126 0 -195.5 71.5t-69.5 194.5v346l-6 103l104 5v-455q0 -86 46 -138t136 -52q85 0 131 52.5t46 137.5v347l-6 103z" />
    <glyph glyph-name="V" unicode="V" horiz-adv-x="624" 
d="M354 199l117 348q30 89 39 153h87q-9 -67 -49 -179l-188 -520l-89 -6l-216 583q-12 33 -24 62.5t-19 42.5l-6 13l103 6l183 -502q9 -26 17 -53t11 -41l3 -14h4q8 51 27 107z" />
    <glyph glyph-name="W" unicode="W" horiz-adv-x="946" 
d="M427 700l94 5l116 -446q9 -36 17 -74t12 -59l3 -20h4q13 70 37 153l79 267q22 73 33 174h95q-15 -108 -53 -221l-152 -477l-99 -6l-116 445q-8 29 -14.5 62t-9.5 51l-3 19h-3q-9 -64 -25 -131l-107 -440l-107 -6l-171 583l-39 118l105 6l126 -447l35 -151h4q15 86 31 152
z" />
    <glyph glyph-name="X" unicode="X" horiz-adv-x="632" 
d="M492 -5l-187 295l-89 -138q-25 -40 -47 -78t-31 -56l-10 -18h-105q41 80 116 183l125 170l-160 241l-73 106l122 5l177 -287l92 146q24 37 42.5 71t25.5 49l7 16h102q-30 -69 -101 -168l-127 -177l171 -259l66 -96z" />
    <glyph glyph-name="Y" unicode="Y" horiz-adv-x="579" 
d="M240 0v278l-186 330l-58 92l112 5l194 -354l119 230q17 33 30.5 63t18.5 43l4 13h97q-22 -64 -80 -158l-153 -263v-186l5 -93h-103z" />
    <glyph glyph-name="Z" unicode="Z" horiz-adv-x="573" 
d="M53 621l5 79h470v-10l-349 -618l248 3l97 5l-5 -80h-480v10l348 618l-228 -3z" />
    <glyph glyph-name="bracketleft" unicode="[" horiz-adv-x="306" 
d="M90 -199v984h178v-51h-100v-882h100v-51h-178z" />
    <glyph glyph-name="backslash" unicode="\" horiz-adv-x="485" 
d="M533 -174h-83l-430 874h82z" />
    <glyph glyph-name="bracketright" unicode="]" horiz-adv-x="306" 
d="M216 785v-984h-178v51h100v882h-100v51h178z" />
    <glyph glyph-name="asciicircum" unicode="^" horiz-adv-x="467" 
d="M233 679l-130 -146h-103l219 227h29l219 -227h-104z" />
    <glyph glyph-name="underscore" unicode="_" horiz-adv-x="503" 
d="M21 -173v74h461v-74h-461z" />
    <glyph glyph-name="grave" unicode="`" horiz-adv-x="550" 
d="M270 632l-40 -42l-187 154l67 69z" />
    <glyph glyph-name="a" unicode="a" horiz-adv-x="538" 
d="M503 88v-69q-30 -29 -76 -29q-65 0 -81 62q-70 -62 -158 -62q-69 0 -104.5 38t-35.5 94q0 59 41 100.5t120 53.5q55 9 136 9v31q0 63 -26.5 88.5t-85.5 25.5q-40 0 -77.5 -8t-55.5 -16l-17 -8v75q65 37 178 37q180 0 177 -180q0 -19 -1.5 -71t-2 -96t-0.5 -71
q0 -24 21 -24q9 0 21 5t20 10zM217 66q61 0 124 40q0 43 2 127q-76 -6 -112 -15q-48 -12 -68.5 -33t-20.5 -52q0 -29 20 -48t55 -19z" />
    <glyph glyph-name="b" unicode="b" horiz-adv-x="596" 
d="M84 30v617l-6 103l99 5l-2 -296q67 51 157 51q100 0 153.5 -67t53.5 -166q0 -134 -69 -210.5t-184 -76.5q-122 0 -202 40zM302 430q-73 0 -127 -33q2 -38 2 -96v-216q48 -25 108 -25q157 0 157 196q0 82 -35 128t-105 46z" />
    <glyph glyph-name="c" unicode="c" horiz-adv-x="484" 
d="M287 431q-68 0 -102 -46t-34 -127q0 -83 40.5 -135.5t114.5 -52.5q33 0 65 7t47 13l15 7v-74q-52 -33 -141 -33q-114 0 -175 67t-61 177q0 121 67 198.5t167 77.5q30 0 75 -9.5t67 -10.5l-8 -82q-24 2 -69 12.5t-68 10.5z" />
    <glyph glyph-name="d" unicode="d" horiz-adv-x="597" 
d="M299 510q69 0 118 -33v170q0 25 -1.5 51t-3.5 39l-2 13l99 5v-651l6 -103l-90 -5l-3 46q-59 -52 -145 -52q-104 0 -162.5 69t-58.5 172q0 127 67.5 203t175.5 76zM304 65q64 0 113 29v306q-43 41 -112 41q-72 0 -112 -53t-40 -134q0 -83 39.5 -136t111.5 -53z" />
    <glyph glyph-name="e" unicode="e" horiz-adv-x="553" 
d="M297 510q114 0 165.5 -73.5t35.5 -189.5h-347q9 -177 178 -177q31 0 65.5 7t53.5 13l20 7v-73q-64 -34 -169 -34q-115 0 -179 65.5t-64 176.5q0 131 67 204.5t174 73.5zM293 442q-56 0 -92.5 -36t-46.5 -95l249 4q2 55 -25.5 91t-84.5 36z" />
    <glyph glyph-name="f" unicode="f" horiz-adv-x="393" 
d="M288 681q-49 0 -67.5 -29.5t-18.5 -80.5v-71h171l-5 -73l-166 2v-336l5 -93h-98v431l-66 1v68h67v47q0 102 47 157.5t134 55.5q30 0 75 -9t67 -11l-8 -82q-27 2 -70.5 12.5t-66.5 10.5z" />
    <glyph glyph-name="g" unicode="g" horiz-adv-x="569" 
d="M257 141q-33 0 -54 5q-17 -24 -16 -47q2 -29 45 -32l111 -6q173 -9 173 -146q0 -77 -65 -123t-171 -48q-104 -2 -168 34.5t-64 112.5q0 83 83 125q-20 22 -20 56q0 48 45 89q-46 20 -71.5 60.5t-25.5 92.5q0 87 57 141.5t156 54.5q58 0 102 -21l169 13l-3 -65h-108v-3
q46 -34 46 -104q0 -76 -60 -132.5t-161 -56.5zM223 -18q-26 1 -54 10q-33 -38 -33 -76q0 -49 39.5 -76.5t117.5 -27.5q144 0 144 91q0 66 -93 72zM263 442q-52 0 -80.5 -31.5t-28.5 -82.5q0 -56 30 -87.5t90 -31.5q50 0 79.5 32t29.5 84q0 117 -120 117z" />
    <glyph glyph-name="h" unicode="h" horiz-adv-x="582" 
d="M499 342v-259l5 -83h-98v317q0 113 -101 113q-63 0 -127 -34q2 -20 2 -95v-218l5 -83h-98v647l-6 103l99 5l-2 -305q73 60 174 60q147 0 147 -168z" />
    <glyph glyph-name="i" unicode="i" horiz-adv-x="269" 
d="M132 610q-26 0 -42.5 16t-16.5 41q0 26 18 41t46 15q27 0 42.5 -14.5t15.5 -39.5q0 -27 -17 -43t-46 -16zM88 0v397l-6 103l99 5v-412l5 -93h-98z" />
    <glyph glyph-name="j" unicode="j" horiz-adv-x="268" 
d="M181 505v-479q0 -69 -21 -119q-21 -49 -121 -164l-51 44q7 9 22.5 27.5t21.5 26t15.5 21t15.5 25.5t11 27q14 42 14 112v371l-6 103zM132 610q-26 0 -42.5 16t-16.5 41q0 26 18 41t46 15q27 0 42.5 -14.5t15.5 -39.5q0 -27 -17 -43t-46 -16z" />
    <glyph glyph-name="k" unicode="k" horiz-adv-x="526" 
d="M87 0v648l-6 103l99 5v-468h52l78 97q28 35 48.5 65.5t27.5 43.5l6 12l92 -6q-32 -63 -103 -146l-80 -93l144 -187l65 -74l-109 -5l-175 224h-46v-126l5 -93h-98z" />
    <glyph glyph-name="l" unicode="l" horiz-adv-x="280" 
d="M93 0v648l-6 103l99 5v-663l5 -93h-98z" />
    <glyph glyph-name="m" unicode="m" horiz-adv-x="875" 
d="M484 342v-259l5 -83h-98v317q0 57 -21 85t-72 28q-56 0 -119 -34q2 -20 2 -95v-218l5 -83h-98v397l-6 103l92 5l3 -55q74 60 168 60q87 0 121 -69q80 69 180 69q75 0 110.5 -45t35.5 -123v-259l5 -83h-98v317q0 113 -100 113q-56 0 -120 -34q5 -28 5 -54z" />
    <glyph glyph-name="n" unicode="n" horiz-adv-x="583" 
d="M500 342v-259l5 -83h-98v309q0 61 -25 91t-81 30q-58 0 -122 -34q2 -20 2 -95v-218l5 -83h-98v397l-6 103l92 5l3 -56q76 61 165 61q158 0 158 -168z" />
    <glyph glyph-name="o" unicode="o" horiz-adv-x="598" 
d="M291 441q-62 0 -100.5 -49t-38.5 -120q0 -105 40 -158.5t115 -53.5q61 0 100 49.5t39 119.5q0 105 -40 158.5t-115 53.5zM286 -10q-107 0 -168 65.5t-61 172.5q0 132 68 207t187 75q107 0 168 -65t61 -172q0 -132 -68 -207.5t-187 -75.5z" />
    <glyph glyph-name="p" unicode="p" horiz-adv-x="599" 
d="M88 -250v647l-6 103l92 5l3 -48q59 53 153 53q104 0 158.5 -67t54.5 -166q0 -133 -69 -210t-184 -77q-61 0 -109 29v-186l5 -83h-98zM181 301v-202q47 -39 115 -39q72 0 111 51.5t39 135.5q0 88 -35 135.5t-105 47.5q-73 0 -127 -33q2 -16 2 -96z" />
    <glyph glyph-name="q" unicode="q" horiz-adv-x="607" 
d="M427 -250v297q-60 -57 -156 -57q-106 0 -160.5 67.5t-54.5 170.5q0 131 70 206.5t190 75.5q71 0 132 -36l40 26h32v-667l5 -83h-98zM293 70q81 0 134 38v299q-52 34 -115 34q-77 0 -118 -53t-41 -137q0 -82 36.5 -131.5t103.5 -49.5z" />
    <glyph glyph-name="r" unicode="r" horiz-adv-x="439" 
d="M88 0v397l-6 103l94 5l2 -76q69 81 126 81q24 0 42.5 -5.5t45 -19.5t33.5 -17l-35 -78q-15 6 -36 17t-36.5 16.5t-33.5 5.5q-41 0 -105 -62q2 -12 2 -71v-213l5 -83h-98z" />
    <glyph glyph-name="s" unicode="s" horiz-adv-x="449" 
d="M217 -10q-35 0 -88.5 9.5t-73.5 11.5l8 82q19 -2 73 -13t86 -11q97 0 97 60q0 29 -27 46.5t-93 40.5q-137 45 -137 155q0 65 43.5 102t113.5 37q39 0 86 -9.5t69 -10.5l-8 -81q-30 2 -74.5 12t-75.5 10q-35 0 -54.5 -15.5t-19.5 -40.5q0 -31 23.5 -47.5t96.5 -42.5
q69 -24 103 -58.5t34 -90.5q0 -68 -48.5 -107t-133.5 -39z" />
    <glyph glyph-name="t" unicode="t" horiz-adv-x="417" 
d="M109 432l-70 1v56l67 11l51 116h39v-116h185l-3 -72l-182 2v-271q0 -95 91 -95q23 0 46.5 4t35.5 8l12 4v-69q-46 -21 -115 -21q-162 0 -162 165v196z" />
    <glyph glyph-name="u" unicode="u" horiz-adv-x="583" 
d="M408 -4l-4 53q-74 -59 -166 -59q-155 0 -155 168v259l-5 83h98v-317q0 -113 101 -113q64 0 125 33v314l-5 83h98v-396l6 -103z" />
    <glyph glyph-name="v" unicode="v" 
d="M428 331l-130 -331l-91 -5l-147 402l-42 103l105 5l106 -304q9 -28 17 -57.5t11 -45.5l3 -16h4q11 56 32 117l56 160q20 64 32 141h85q-7 -81 -41 -169z" />
    <glyph glyph-name="w" unicode="w" horiz-adv-x="772" 
d="M687 298l-102 -298l-92 -5l-91 305l-24 103h-4q-6 -55 -18 -102l-74 -301l-101 -5l-123 402l-35 103l95 5l88 -297q8 -28 15.5 -59.5t10.5 -48.5l3 -18h4q5 59 23 128l49 189l22 101l93 7l84 -291l33 -132h4q15 65 33 130l38 132q22 85 27 154h87q-3 -76 -45 -202z" />
    <glyph glyph-name="x" unicode="x" horiz-adv-x="536" 
d="M385 334l-62 -81l131 -177l59 -76l-116 -5l-140 198l-57 -78q-28 -38 -47.5 -66.5t-24.5 -38.5l-6 -10h-96q26 48 108 151l78 98l-114 168q-14 21 -30 41.5t-24 31.5l-9 10l116 5l129 -197l49 72q23 34 40.5 64t24.5 43l6 13h96q-44 -78 -111 -166z" />
    <glyph glyph-name="y" unicode="y" horiz-adv-x="496" 
d="M210 -254l-92 4q10 69 79 227l8 19l-145 401l-42 103l107 5l97 -294q9 -28 17 -59.5t12 -49.5l4 -18h4q13 65 38 136l34 99q41 118 48 181h88q-6 -68 -58 -202l-120 -307q-29 -74 -48.5 -135.5t-24.5 -85.5z" />
    <glyph glyph-name="z" unicode="z" horiz-adv-x="481" 
d="M53 421l7 79h372v-10l-255 -418l190 3l69 4l-8 -79h-387v10l254 418l-160 -3z" />
    <glyph glyph-name="braceleft" unicode="{" horiz-adv-x="339" 
d="M125 452v185q0 74 29.5 111t94.5 37h54v-51h-23q-45 0 -61 -25t-16 -72v-207q0 -74 -52 -120q52 -39 52 -109v-252q0 -47 16 -72t61 -25h23v-51h-54q-65 0 -94.5 37t-29.5 111v227q0 73 -27 101q-35 -13 -71 -16l-9 44q58 16 82.5 46.5t24.5 100.5z" />
    <glyph glyph-name="bar" unicode="|" horiz-adv-x="258" 
d="M90 -259v1024h78v-1024h-78z" />
    <glyph glyph-name="braceright" unicode="}" horiz-adv-x="340" 
d="M215 134v-185q0 -74 -29.5 -111t-94.5 -37h-54v51h23q45 0 61 25t16 72v207q0 73 51 119q-51 39 -51 110v252q0 47 -16 72t-61 25h-23v51h54q65 0 94.5 -37t29.5 -111v-227q0 -74 27 -102q28 12 71 17l9 -44q-58 -16 -82.5 -46.5t-24.5 -100.5z" />
    <glyph glyph-name="asciitilde" unicode="~" horiz-adv-x="605" 
d="M201 291q-29 0 -51.5 -15.5t-30.5 -31.5l-8 -16l-53 53q1 4 4 10t15 21.5t27 27.5t41 22t57 10q52 0 109 -32.5t95 -32.5q29 0 51.5 15.5t30.5 31.5l8 16l53 -53q-1 -4 -4 -10t-15 -21.5t-27 -27.5t-41 -22t-57 -10q-53 0 -110 32.5t-94 32.5z" />
    <glyph glyph-name="uni00A0" unicode="&#xa0;" horiz-adv-x="235" 
 />
    <glyph glyph-name="exclamdown" unicode="&#xa1;" horiz-adv-x="284" 
d="M183 269l11 -471h-104l10 471h83zM141 514q30 0 50.5 -19.5t20.5 -47.5t-20.5 -47.5t-50.5 -19.5q-29 0 -50.5 19.5t-21.5 47.5t21 47.5t51 19.5z" />
    <glyph glyph-name="cent" unicode="&#xa2;" horiz-adv-x="489" 
d="M278 431q-68 0 -102 -46t-34 -127q0 -83 40.5 -135.5t114.5 -52.5q33 0 65 7t47 13l15 7v-74q-38 -23 -102 -31v-106h-78v106q-96 11 -146.5 76.5t-50.5 165.5q0 109 55.5 183.5t141.5 88.5v104h78v-103q9 -1 44 -8.5t57 -8.5l-8 -82q-24 2 -69 12.5t-68 10.5z" />
    <glyph glyph-name="sterling" unicode="&#xa3;" horiz-adv-x="567" 
d="M237 478l9 -122h218v-74h-212q2 -49 -6.5 -88.5t-20.5 -61t-28.5 -36.5t-25.5 -19.5t-15 -6.5l349 12l-5 -82h-442v64q4 2 11.5 5.5t26 18.5t32 35.5t22.5 57.5t6 82l-2 19h-97v74h91l-8 104q-9 117 46 186t169 69q30 0 75 -9t67 -11l-8 -82q-27 2 -70.5 12.5t-66.5 10.5
q-60 0 -91 -35t-24 -123z" />
    <glyph glyph-name="yen" unicode="&#xa5;" horiz-adv-x="655" 
d="M121 260v74h130l-154 274l-58 92l112 5l194 -354l119 230q17 33 30.5 63t17.5 43l5 13h97q-22 -64 -80 -158l-121 -208h119v-74h-151v-97h151v-74h-151l5 -89h-103v89h-162v74h162v97h-162z" />
    <glyph glyph-name="brokenbar" unicode="&#xa6;" horiz-adv-x="240" 
d="M159 373h-78v392h78v-392zM81 143h78v-402h-78v402z" />
    <glyph glyph-name="section" unicode="&#xa7;" horiz-adv-x="515" 
d="M59 374q0 71 67 126q-23 31 -23 76q0 65 52 102t136 37q35 0 83 -9.5t71 -10.5l-8 -81q-30 2 -77 12t-78 10q-45 0 -69.5 -15.5t-24.5 -40.5q0 -29 27.5 -47.5t67 -30.5t79 -28t67 -52t27.5 -91q0 -70 -68 -126q24 -32 24 -76q0 -65 -52 -102t-136 -37q-35 0 -83 9.5
t-71 10.5l8 81q30 -2 77 -12t78 -10q45 0 69.5 15.5t24.5 40.5q0 29 -27.5 47.5t-67 30.5t-79 28t-67 52t-27.5 91zM144 385q0 -30 20 -52t44 -32.5t64 -25.5t62 -27q37 29 37 72q0 30 -20 52t-44.5 32t-64.5 25.5t-62 26.5q-36 -28 -36 -71z" />
    <glyph glyph-name="dieresis" unicode="&#xa8;" horiz-adv-x="502" 
d="M149 627q-26 0 -42.5 16t-16.5 41q0 26 18 41t46 15q27 0 42.5 -14.5t15.5 -39.5q0 -27 -17 -43t-46 -16zM349 627q-26 0 -42.5 16t-16.5 41q0 26 18 41t46 15q27 0 42.5 -14.5t15.5 -39.5q0 -27 -17 -43t-46 -16z" />
    <glyph glyph-name="copyright" unicode="&#xa9;" horiz-adv-x="816" 
d="M409 -8q-152 0 -255 104.5t-103 257.5q0 152 103 257.5t255 105.5q151 0 254 -105.5t103 -257.5q0 -150 -104 -256t-253 -106zM409 68q113 0 191.5 83.5t78.5 202.5q0 121 -77.5 204t-192.5 83t-192.5 -83t-77.5 -204t77 -203.5t193 -82.5zM415 494q-55 0 -79 -32
t-24 -96t30.5 -101t90.5 -37q24 0 48.5 5t36.5 10l13 5v-64q-42 -25 -117 -25q-86 0 -135 52.5t-49 136.5q0 93 55 153t135 60q23 0 59 -7.5t53 -8.5l-11 -69q-17 2 -52 10t-54 8z" />
    <glyph glyph-name="guillemotleft" unicode="&#xab;" horiz-adv-x="543" 
d="M164 283l-42 -38l42 -37q39 -35 74 -83.5t50 -81.5l-64 -34q-49 90 -143 176l-50 46v29l50 46q94 86 143 176l64 -34q-15 -33 -50 -81.5t-74 -83.5zM374 283l-42 -38l42 -37q67 -61 115 -147l-65 -35q-49 82 -133 159l-50 46v29l50 46q88 82 134 161l65 -34
q-50 -90 -116 -150z" />
    <glyph glyph-name="logicalnot" unicode="&#xac;" horiz-adv-x="580" 
d="M83 248v74h412v-185h-67v111h-345z" />
    <glyph glyph-name="registered" unicode="&#xae;" horiz-adv-x="490" 
d="M245 338q-80 0 -135 54.5t-55 133.5t55 134t135 55t135 -55t55 -134t-55.5 -133.5t-134.5 -54.5zM245 389q55 0 92 40t37 97q0 58 -37 98t-92 40t-92.5 -40t-37.5 -98t37.5 -97.5t92.5 -39.5zM175 438v157l-2 33h78q38 0 58.5 -16.5t20.5 -45.5q0 -35 -35 -51l26 -53
l13 -24l-56 -2l-28 66h-27v-34l2 -30h-50zM241 593h-18v-57h20q36 0 36 29q0 28 -38 28z" />
    <glyph glyph-name="macron" unicode="&#xaf;" horiz-adv-x="364" 
d="M45 539v74h274v-74h-274z" />
    <glyph glyph-name="degree" unicode="&#xb0;" horiz-adv-x="409" 
d="M208 512q38 0 60 24.5t22 60.5q0 43 -23 73.5t-67 30.5q-38 0 -60 -25t-22 -61q0 -44 21.5 -73.5t68.5 -29.5zM197 452q-68 0 -107.5 43.5t-39.5 101.5q0 75 41 119t121 44q68 0 107.5 -43.5t39.5 -101.5q0 -75 -41 -119t-121 -44z" />
    <glyph glyph-name="plusminus" unicode="&#xb1;" horiz-adv-x="547" 
d="M78 308v74h155v139h80v-139h156v-74h-156v-138h-80v138h-155zM78 60v74h391v-74h-391z" />
    <glyph glyph-name="acute" unicode="&#xb4;" horiz-adv-x="294" 
d="M83 590l-40 42l160 181l67 -69z" />
    <glyph glyph-name="mu" unicode="&#xb5;" horiz-adv-x="588" 
d="M88 -202v619l-5 83h98v-317q0 -113 101 -113q64 0 125 33v314l-5 83h98v-396l6 -103l-93 -5l-4 53q-74 -59 -158 -59q-53 0 -92 28l-2 -2q25 -84 25 -179v-39h-94z" />
    <glyph glyph-name="paragraph" unicode="&#xb6;" horiz-adv-x="738" 
d="M336 0q-132 0 -203.5 67.5t-71.5 181.5q0 119 79 185t235 66h261v-500h-300zM158 260q0 -91 48 -138.5t140 -47.5h26v359h-24q-94 0 -142 -47t-48 -126zM450 434v-360h108v360h-108z" />
    <glyph glyph-name="periodcentered" unicode="&#xb7;" horiz-adv-x="261" 
d="M130 218q-24 0 -41.5 17t-17.5 42q0 24 18.5 41.5t42.5 17.5t41 -17t17 -42q0 -24 -18 -41.5t-42 -17.5z" />
    <glyph glyph-name="cedilla" unicode="&#xb8;" horiz-adv-x="240" 
d="M125 -200q-68 0 -125 34l17 40q49 -21 88 -21q49 0 49 26q0 20 -30 27t-50 -2l-21 25l41 93l32 -4l8 -62q46 -3 73 -22.5t27 -51.5q0 -34 -31 -58t-78 -24z" />
    <glyph glyph-name="guillemotright" unicode="&#xbb;" horiz-adv-x="543" 
d="M255 43q15 33 50 81.5t74 83.5l41 37l-41 38q-39 35 -74 83.5t-50 81.5l64 34q49 -90 143 -176l50 -46v-29l-50 -46q-94 -86 -143 -176zM54 61q48 86 115 147l41 37l-41 38q-66 60 -116 150l65 34q46 -79 134 -161l50 -46v-29l-50 -46q-84 -77 -133 -159z" />
    <glyph glyph-name="onequarter" unicode="&#xbc;" horiz-adv-x="722" 
d="M543 -10v107h-157l-16 25l180 282l65 -9v-251h63l-4 -47h-59v-55l2 -52h-74zM125 0l-53 35l480 677l53 -33zM48 634l-3 42l146 32l14 -2v-382h-72v319zM520 274l-82 -131l104 3v129l4 49h-2q-6 -21 -24 -50z" />
    <glyph glyph-name="onehalf" unicode="&#xbd;" horiz-adv-x="712" 
d="M125 0l-53 35l480 677l53 -33zM567 267q0 63 -64 63q-17 0 -35 -4t-28 -8l-9 -4v53q35 19 91 19q51 0 83.5 -27.5t32.5 -82.5q0 -93 -144 -226l169 11l-3 -61h-246v30q78 83 115.5 137.5t37.5 99.5zM48 634l-3 42l146 32l14 -2v-382h-72v319z" />
    <glyph glyph-name="threequarters" unicode="&#xbe;" horiz-adv-x="777" 
d="M597 -10v107h-157l-16 25l180 282l65 -9v-251h63l-4 -47h-59v-55l2 -52h-74zM187 0l-53 35l480 677l53 -33zM105 502l7 47q99 0 99 60q0 42 -62 42q-19 0 -39.5 -4t-31.5 -8l-10 -4v56q46 19 98 19t85 -23t33 -64q0 -74 -76 -93q44 -6 68 -32t24 -67q0 -46 -37.5 -79
t-104.5 -33q-28 0 -54.5 3.5t-39.5 7.5l-12 4l16 56q33 -13 81 -13q76 0 76 56q0 29 -33.5 49.5t-86.5 19.5zM574 274l-82 -131l104 3v129l4 49h-2q-6 -21 -24 -50z" />
    <glyph glyph-name="questiondown" unicode="&#xbf;" horiz-adv-x="443" 
d="M263 -147q39 0 75 12t53 24l17 12v-73q-6 -5 -17.5 -13t-53 -21.5t-89.5 -13.5q-100 0 -147.5 44t-47.5 104q0 39 21 75t50.5 62t59.5 48.5t51 44.5t21 41q0 14 -9 23t-23 9q-12 0 -23.5 -5.5t-16.5 -11.5l-6 -5l-34 51q44 38 89 38q39 0 66.5 -25.5t27.5 -65.5
q0 -37 -18 -68t-43.5 -53t-51 -43t-43.5 -48.5t-18 -59.5q0 -36 29.5 -59t80.5 -23zM244 509q30 0 50.5 -19.5t20.5 -47.5t-20.5 -47.5t-50.5 -19.5q-29 0 -50.5 19.5t-21.5 47.5t21 47.5t51 19.5z" />
    <glyph glyph-name="Agrave" unicode="&#xc0;" horiz-adv-x="622" 
d="M160 176l-8 -25q-30 -91 -39 -151h-87q9 64 49 177l188 520l89 6l216 -583q12 -33 24 -62.5t18 -42.5l7 -13l-103 -6l-66 180h-288zM300 600h-4q-11 -54 -27 -101l-85 -252h238l-91 251zM366 801l-40 -42l-187 154l67 69z" />
    <glyph glyph-name="Aacute" unicode="&#xc1;" horiz-adv-x="622" 
d="M160 176l-8 -25q-30 -91 -39 -151h-87q9 64 49 177l188 520l89 6l216 -583q12 -33 24 -62.5t18 -42.5l7 -13l-103 -6l-66 180h-288zM300 600h-4q-11 -54 -27 -101l-85 -252h238l-91 251zM285 760l-40 42l160 181l67 -69z" />
    <glyph glyph-name="Acircumflex" unicode="&#xc2;" horiz-adv-x="622" 
d="M160 176l-8 -25q-30 -91 -39 -151h-87q9 64 49 177l188 520l89 6l216 -583q12 -33 24 -62.5t18 -42.5l7 -13l-103 -6l-66 180h-288zM300 600h-4q-11 -54 -27 -101l-85 -252h238l-91 251zM191 762l-46 51l152 126h20l151 -124l-46 -53l-115 78z" />
    <glyph glyph-name="Atilde" unicode="&#xc3;" horiz-adv-x="622" 
d="M160 176l-8 -25q-30 -91 -39 -151h-87q9 64 49 177l188 520l89 6l216 -583q12 -33 24 -62.5t18 -42.5l7 -13l-103 -6l-66 180h-288zM300 600h-4q-11 -54 -27 -101l-85 -252h238l-91 251zM376 774q-35 0 -73 28t-56 28q-39 0 -52 -49l-66 16q9 56 39.5 84.5t71.5 28.5
q35 0 73 -28t59 -28q36 0 47 49l64 -16q-9 -57 -38 -85t-69 -28z" />
    <glyph glyph-name="Adieresis" unicode="&#xc4;" horiz-adv-x="622" 
d="M160 176l-8 -25q-30 -91 -39 -151h-87q9 64 49 177l188 520l89 6l216 -583q12 -33 24 -62.5t18 -42.5l7 -13l-103 -6l-66 180h-288zM300 600h-4q-11 -54 -27 -101l-85 -252h238l-91 251zM196 775q-26 0 -42.5 16t-16.5 41q0 26 18 41t46 15q27 0 42.5 -14.5t15.5 -39.5
q0 -27 -17 -43t-46 -16zM396 775q-26 0 -42.5 16t-16.5 41q0 26 18 41t46 15q27 0 42.5 -14.5t15.5 -39.5q0 -27 -17 -43t-46 -16z" />
    <glyph glyph-name="Aring" unicode="&#xc5;" horiz-adv-x="622" 
d="M160 176l-8 -25q-30 -91 -39 -151h-87q9 64 49 177l188 520l89 6l216 -583q12 -33 24 -62.5t18 -42.5l7 -13l-103 -6l-66 180h-288zM300 600h-4q-11 -54 -27 -101l-85 -252h238l-91 251zM304 750q-54 0 -89.5 30t-35.5 81t35.5 81t89.5 30t89 -30t35 -81t-35 -81t-89 -30
zM304 807q24 0 38 15t14 39t-14 39t-38 15t-38.5 -15t-14.5 -39t14.5 -39t38.5 -15z" />
    <glyph glyph-name="AE" unicode="&#xc6;" horiz-adv-x="882" 
d="M395 0v159h-229l-4 -8q-47 -82 -71 -151h-95q20 60 88 177l310 523h428l-5 -79l-324 9v-240l279 5l-5 -86l-274 8v-246l329 9l-5 -80h-422zM361 505l-155 -275h189v340q-14 -30 -34 -65z" />
    <glyph glyph-name="Ccedilla" unicode="&#xc7;" horiz-adv-x="595" 
d="M382 -200q-68 0 -125 34l17 40q49 -21 88 -21q49 0 49 26q0 20 -30 27t-50 -2l-21 25l28 64q-127 16 -201 107.5t-74 228.5q0 176 82.5 280t236.5 104q28 0 57 -3.5t61 -9t49 -7.5l-14 -78q-1 0 -66 10t-103 10q-90 0 -145.5 -77.5t-55.5 -193.5q0 -59 12.5 -110
t38.5 -93.5t72 -66.5t108 -24q40 0 75 5t51 9l15 5l17 -70q-52 -29 -165 -29h-3l5 -34q46 -3 73 -22.5t27 -51.5q0 -34 -31 -58t-78 -24z" />
    <glyph glyph-name="Egrave" unicode="&#xc8;" horiz-adv-x="590" 
d="M103 0v598l-6 102h433l-5 -79q-49 5 -97 6l-227 3v-240l279 5l-5 -86l-274 8v-246l250 3l79 6l-5 -80h-422zM409 803l-40 -42l-187 154l67 69z" />
    <glyph glyph-name="Eacute" unicode="&#xc9;" horiz-adv-x="590" 
d="M103 0v598l-6 102h433l-5 -79q-49 5 -97 6l-227 3v-240l279 5l-5 -86l-274 8v-246l250 3l79 6l-5 -80h-422zM279 765l-40 42l160 181l67 -69z" />
    <glyph glyph-name="Ecircumflex" unicode="&#xca;" horiz-adv-x="590" 
d="M103 0v598l-6 102h433l-5 -79q-49 5 -97 6l-227 3v-240l279 5l-5 -86l-274 8v-246l250 3l79 6l-5 -80h-422zM203 768l-46 51l152 126h20l151 -124l-46 -53l-115 78z" />
    <glyph glyph-name="Edieresis" unicode="&#xcb;" horiz-adv-x="590" 
d="M103 0v598l-6 102h433l-5 -79q-49 5 -97 6l-227 3v-240l279 5l-5 -86l-274 8v-246l250 3l79 6l-5 -80h-422zM224 776q-26 0 -42.5 16t-16.5 41q0 26 18 41t46 15q27 0 42.5 -14.5t15.5 -39.5q0 -27 -17 -43t-46 -16zM424 776q-26 0 -42.5 16t-16.5 41q0 26 18 41t46 15
q27 0 42.5 -14.5t15.5 -39.5q0 -27 -17 -43t-46 -16z" />
    <glyph glyph-name="Igrave" unicode="&#xcc;" horiz-adv-x="304" 
d="M103 0v598l-6 103l104 5v-613l5 -93h-103zM221 800l-40 -42l-187 154l67 69z" />
    <glyph glyph-name="Iacute" unicode="&#xcd;" horiz-adv-x="304" 
d="M103 0v598l-6 103l104 5v-613l5 -93h-103zM133 757l-40 42l160 181l67 -69z" />
    <glyph glyph-name="Icircumflex" unicode="&#xce;" horiz-adv-x="304" 
d="M103 0v598l-6 103l104 5v-613l5 -93h-103zM36 763l-46 51l152 126h20l151 -124l-46 -53l-115 78z" />
    <glyph glyph-name="Idieresis" unicode="&#xcf;" horiz-adv-x="304" 
d="M103 0v598l-6 103l104 5v-613l5 -93h-103zM48 776q-26 0 -42.5 16t-16.5 41q0 26 18 41t46 15q27 0 42.5 -14.5t15.5 -39.5q0 -27 -17 -43t-46 -16zM248 776q-26 0 -42.5 16t-16.5 41q0 26 18 41t46 15q27 0 42.5 -14.5t15.5 -39.5q0 -27 -17 -43t-46 -16z" />
    <glyph glyph-name="Eth" unicode="&#xd0;" horiz-adv-x="730" 
d="M10 295v74h100v229l-6 102h197q179 0 276 -89.5t97 -247.5q0 -177 -105.5 -270t-268.5 -93h-190v295h-100zM280 628h-72v-259h126v-74h-126v-223h115q114 0 180 74t66 200q0 134 -76.5 208t-212.5 74z" />
    <glyph glyph-name="Ntilde" unicode="&#xd1;" horiz-adv-x="749" 
d="M565 -10l-338 499l-44 77h-3q8 -61 8 -87v-386l5 -93h-90v598l-6 103l88 5l337 -499q10 -14 21 -34t17 -33l7 -12l3 1q-8 52 -8 92v377l-6 103l91 5v-706zM445 775q-35 0 -73 28t-56 28q-39 0 -52 -49l-66 16q9 56 39.5 84.5t71.5 28.5q35 0 73 -28t59 -28q36 0 47 49
l64 -16q-9 -57 -38 -85t-69 -28z" />
    <glyph glyph-name="Ograve" unicode="&#xd2;" horiz-adv-x="751" 
d="M384 60q101 0 151.5 77.5t50.5 200.5q0 46 -6.5 87.5t-22.5 81.5t-40.5 69t-63 46.5t-86.5 17.5q-101 0 -151.5 -77.5t-50.5 -200.5q0 -46 6.5 -87.5t22.5 -81.5t40.5 -69t63 -46.5t86.5 -17.5zM364 -10q-98 0 -168 50.5t-101.5 127.5t-31.5 169q0 172 81 272.5
t243 100.5q98 0 168 -50.5t101.5 -127.5t31.5 -169q0 -172 -81 -272.5t-243 -100.5zM476 803l-40 -42l-187 154l67 69z" />
    <glyph glyph-name="Oacute" unicode="&#xd3;" horiz-adv-x="751" 
d="M384 60q101 0 151.5 77.5t50.5 200.5q0 46 -6.5 87.5t-22.5 81.5t-40.5 69t-63 46.5t-86.5 17.5q-101 0 -151.5 -77.5t-50.5 -200.5q0 -46 6.5 -87.5t22.5 -81.5t40.5 -69t63 -46.5t86.5 -17.5zM364 -10q-98 0 -168 50.5t-101.5 127.5t-31.5 169q0 172 81 272.5
t243 100.5q98 0 168 -50.5t101.5 -127.5t31.5 -169q0 -172 -81 -272.5t-243 -100.5zM340 756l-40 42l160 181l67 -69z" />
    <glyph glyph-name="Ocircumflex" unicode="&#xd4;" horiz-adv-x="751" 
d="M384 60q101 0 151.5 77.5t50.5 200.5q0 46 -6.5 87.5t-22.5 81.5t-40.5 69t-63 46.5t-86.5 17.5q-101 0 -151.5 -77.5t-50.5 -200.5q0 -46 6.5 -87.5t22.5 -81.5t40.5 -69t63 -46.5t86.5 -17.5zM364 -10q-98 0 -168 50.5t-101.5 127.5t-31.5 169q0 172 81 272.5
t243 100.5q98 0 168 -50.5t101.5 -127.5t31.5 -169q0 -172 -81 -272.5t-243 -100.5zM260 763l-46 51l152 126h20l151 -124l-46 -53l-115 78z" />
    <glyph glyph-name="Otilde" unicode="&#xd5;" horiz-adv-x="751" 
d="M384 60q101 0 151.5 77.5t50.5 200.5q0 46 -6.5 87.5t-22.5 81.5t-40.5 69t-63 46.5t-86.5 17.5q-101 0 -151.5 -77.5t-50.5 -200.5q0 -46 6.5 -87.5t22.5 -81.5t40.5 -69t63 -46.5t86.5 -17.5zM364 -10q-98 0 -168 50.5t-101.5 127.5t-31.5 169q0 172 81 272.5
t243 100.5q98 0 168 -50.5t101.5 -127.5t31.5 -169q0 -172 -81 -272.5t-243 -100.5zM440 774q-35 0 -73 28t-56 28q-39 0 -52 -49l-66 16q9 56 39.5 84.5t71.5 28.5q35 0 73 -28t59 -28q36 0 47 49l64 -16q-9 -57 -38 -85t-69 -28z" />
    <glyph glyph-name="Odieresis" unicode="&#xd6;" horiz-adv-x="751" 
d="M384 60q101 0 151.5 77.5t50.5 200.5q0 46 -6.5 87.5t-22.5 81.5t-40.5 69t-63 46.5t-86.5 17.5q-101 0 -151.5 -77.5t-50.5 -200.5q0 -46 6.5 -87.5t22.5 -81.5t40.5 -69t63 -46.5t86.5 -17.5zM364 -10q-98 0 -168 50.5t-101.5 127.5t-31.5 169q0 172 81 272.5
t243 100.5q98 0 168 -50.5t101.5 -127.5t31.5 -169q0 -172 -81 -272.5t-243 -100.5zM268 775q-26 0 -42.5 16t-16.5 41q0 26 18 41t46 15q27 0 42.5 -14.5t15.5 -39.5q0 -27 -17 -43t-46 -16zM468 775q-26 0 -42.5 16t-16.5 41q0 26 18 41t46 15q27 0 42.5 -14.5t15.5 -39.5
q0 -27 -17 -43t-46 -16z" />
    <glyph glyph-name="multiply" unicode="&#xd7;" horiz-adv-x="533" 
d="M124 88l-56 56l142 142l-142 142l57 57l141 -142l142 142l57 -57l-142 -142l142 -142l-56 -56l-143 142z" />
    <glyph glyph-name="Oslash" unicode="&#xd8;" horiz-adv-x="751" 
d="M158 -62l-63 37l66 94q-98 98 -98 268q0 172 81 272.5t243 100.5q104 0 178 -58l54 78l63 -38l-65 -94q71 -95 71 -235q0 -172 -81 -272.5t-243 -100.5q-81 0 -145 35zM165 362q0 -136 53 -216l297 431q-56 63 -148 63q-101 0 -151.5 -77.5t-50.5 -200.5zM384 60
q101 0 151.5 77.5t50.5 200.5q0 103 -32 175l-288 -417q47 -36 118 -36z" />
    <glyph glyph-name="Ugrave" unicode="&#xd9;" horiz-adv-x="735" 
d="M640 706v-455q0 -117 -71.5 -191t-208.5 -74q-126 0 -195.5 71.5t-69.5 194.5v346l-6 103l104 5v-455q0 -86 46 -138t136 -52q85 0 131 52.5t46 137.5v347l-6 103zM452 803l-40 -42l-187 154l67 69z" />
    <glyph glyph-name="Uacute" unicode="&#xda;" horiz-adv-x="735" 
d="M640 706v-455q0 -117 -71.5 -191t-208.5 -74q-126 0 -195.5 71.5t-69.5 194.5v346l-6 103l104 5v-455q0 -86 46 -138t136 -52q85 0 131 52.5t46 137.5v347l-6 103zM350 758l-40 42l160 181l67 -69z" />
    <glyph glyph-name="Ucircumflex" unicode="&#xdb;" horiz-adv-x="735" 
d="M640 706v-455q0 -117 -71.5 -191t-208.5 -74q-126 0 -195.5 71.5t-69.5 194.5v346l-6 103l104 5v-455q0 -86 46 -138t136 -52q85 0 131 52.5t46 137.5v347l-6 103zM257 762l-46 51l152 126h20l151 -124l-46 -53l-115 78z" />
    <glyph glyph-name="Udieresis" unicode="&#xdc;" horiz-adv-x="735" 
d="M640 706v-455q0 -117 -71.5 -191t-208.5 -74q-126 0 -195.5 71.5t-69.5 194.5v346l-6 103l104 5v-455q0 -86 46 -138t136 -52q85 0 131 52.5t46 137.5v347l-6 103zM273 775q-26 0 -42.5 16t-16.5 41q0 26 18 41t46 15q27 0 42.5 -14.5t15.5 -39.5q0 -27 -17 -43t-46 -16z
M473 775q-26 0 -42.5 16t-16.5 41q0 26 18 41t46 15q27 0 42.5 -14.5t15.5 -39.5q0 -27 -17 -43t-46 -16z" />
    <glyph glyph-name="Yacute" unicode="&#xdd;" horiz-adv-x="579" 
d="M240 0v278l-186 330l-58 92l112 5l194 -354l119 230q17 33 30.5 63t18.5 43l4 13h97q-22 -64 -80 -158l-153 -263v-186l5 -93h-103zM274 770l-40 42l160 181l67 -69z" />
    <glyph glyph-name="Thorn" unicode="&#xde;" horiz-adv-x="597" 
d="M201 700v-104h92q127 0 195 -64.5t68 -172.5q0 -97 -71.5 -166.5t-181.5 -69.5h-102v-30l5 -93h-103v598l-6 102h104zM279 527h-78v-336h102q70 0 111.5 48t41.5 119q0 73 -44 121t-133 48z" />
    <glyph glyph-name="germandbls" unicode="&#xdf;" horiz-adv-x="660" 
d="M471 -10q-35 0 -88.5 9.5t-73.5 11.5l8 82q21 -2 72.5 -13t78.5 -11q70 0 70 60q0 25 -23 43.5t-55.5 32t-65 30t-55.5 48.5t-23 77q0 31 13.5 57t33 44t39.5 35.5t33.5 40.5t13.5 50q0 44 -31.5 69t-90.5 25q-73 0 -99 -32.5t-26 -98.5v-457l5 -93h-98v432h-66v68h67v47
q0 102 55 157.5t162 55.5q98 0 159 -47t61 -114q0 -40 -15 -72t-36.5 -52.5t-43 -38t-36.5 -36t-15 -37.5q0 -24 23 -42.5t55.5 -33.5t65 -32.5t55.5 -47.5t23 -71q0 -67 -42 -106.5t-110 -39.5z" />
    <glyph glyph-name="agrave" unicode="&#xe0;" horiz-adv-x="538" 
d="M503 88v-69q-30 -29 -76 -29q-65 0 -81 62q-70 -62 -158 -62q-69 0 -104.5 38t-35.5 94q0 59 41 100.5t120 53.5q55 9 136 9v31q0 63 -26.5 88.5t-85.5 25.5q-40 0 -77.5 -8t-55.5 -16l-17 -8v75q65 37 178 37q180 0 177 -180q0 -19 -1.5 -71t-2 -96t-0.5 -71
q0 -24 21 -24q9 0 21 5t20 10zM217 66q61 0 124 40q0 43 2 127q-76 -6 -112 -15q-48 -12 -68.5 -33t-20.5 -52q0 -29 20 -48t55 -19zM342 639l-40 -42l-187 154l67 69z" />
    <glyph glyph-name="aacute" unicode="&#xe1;" horiz-adv-x="538" 
d="M503 88v-69q-30 -29 -76 -29q-65 0 -81 62q-70 -62 -158 -62q-69 0 -104.5 38t-35.5 94q0 59 41 100.5t120 53.5q55 9 136 9v31q0 63 -26.5 88.5t-85.5 25.5q-40 0 -77.5 -8t-55.5 -16l-17 -8v75q65 37 178 37q180 0 177 -180q0 -19 -1.5 -71t-2 -96t-0.5 -71
q0 -24 21 -24q9 0 21 5t20 10zM217 66q61 0 124 40q0 43 2 127q-76 -6 -112 -15q-48 -12 -68.5 -33t-20.5 -52q0 -29 20 -48t55 -19zM215 590l-40 42l160 181l67 -69z" />
    <glyph glyph-name="acircumflex" unicode="&#xe2;" horiz-adv-x="538" 
d="M503 88v-69q-30 -29 -76 -29q-65 0 -81 62q-70 -62 -158 -62q-69 0 -104.5 38t-35.5 94q0 59 41 100.5t120 53.5q55 9 136 9v31q0 63 -26.5 88.5t-85.5 25.5q-40 0 -77.5 -8t-55.5 -16l-17 -8v75q65 37 178 37q180 0 177 -180q0 -19 -1.5 -71t-2 -96t-0.5 -71
q0 -24 21 -24q9 0 21 5t20 10zM217 66q61 0 124 40q0 43 2 127q-76 -6 -112 -15q-48 -12 -68.5 -33t-20.5 -52q0 -29 20 -48t55 -19zM142 609l-46 51l152 126h20l151 -124l-46 -53l-115 78z" />
    <glyph glyph-name="atilde" unicode="&#xe3;" horiz-adv-x="538" 
d="M503 88v-69q-30 -29 -76 -29q-65 0 -81 62q-70 -62 -158 -62q-69 0 -104.5 38t-35.5 94q0 59 41 100.5t120 53.5q55 9 136 9v31q0 63 -26.5 88.5t-85.5 25.5q-40 0 -77.5 -8t-55.5 -16l-17 -8v75q65 37 178 37q180 0 177 -180q0 -19 -1.5 -71t-2 -96t-0.5 -71
q0 -24 21 -24q9 0 21 5t20 10zM217 66q61 0 124 40q0 43 2 127q-76 -6 -112 -15q-48 -12 -68.5 -33t-20.5 -52q0 -29 20 -48t55 -19zM337 611q-35 0 -73 28t-56 28q-39 0 -52 -49l-66 16q9 56 39.5 84.5t71.5 28.5q35 0 73 -28t59 -28q36 0 47 49l64 -16q-9 -57 -38 -85
t-69 -28z" />
    <glyph glyph-name="adieresis" unicode="&#xe4;" horiz-adv-x="538" 
d="M503 88v-69q-30 -29 -76 -29q-65 0 -81 62q-70 -62 -158 -62q-69 0 -104.5 38t-35.5 94q0 59 41 100.5t120 53.5q55 9 136 9v31q0 63 -26.5 88.5t-85.5 25.5q-40 0 -77.5 -8t-55.5 -16l-17 -8v75q65 37 178 37q180 0 177 -180q0 -19 -1.5 -71t-2 -96t-0.5 -71
q0 -24 21 -24q9 0 21 5t20 10zM217 66q61 0 124 40q0 43 2 127q-76 -6 -112 -15q-48 -12 -68.5 -33t-20.5 -52q0 -29 20 -48t55 -19zM156 610q-26 0 -42.5 16t-16.5 41q0 26 18 41t46 15q27 0 42.5 -14.5t15.5 -39.5q0 -27 -17 -43t-46 -16zM356 610q-26 0 -42.5 16
t-16.5 41q0 26 18 41t46 15q27 0 42.5 -14.5t15.5 -39.5q0 -27 -17 -43t-46 -16z" />
    <glyph glyph-name="aring" unicode="&#xe5;" horiz-adv-x="538" 
d="M503 88v-69q-30 -29 -76 -29q-65 0 -81 62q-70 -62 -158 -62q-69 0 -104.5 38t-35.5 94q0 59 41 100.5t120 53.5q55 9 136 9v31q0 63 -26.5 88.5t-85.5 25.5q-40 0 -77.5 -8t-55.5 -16l-17 -8v75q65 37 178 37q180 0 177 -180q0 -19 -1.5 -71t-2 -96t-0.5 -71
q0 -24 21 -24q9 0 21 5t20 10zM217 66q61 0 124 40q0 43 2 127q-76 -6 -112 -15q-48 -12 -68.5 -33t-20.5 -52q0 -29 20 -48t55 -19zM268 593q-54 0 -89.5 30t-35.5 81t35.5 81t89.5 30t89 -30t35 -81t-35 -81t-89 -30zM268 650q24 0 38 15t14 39t-14 39t-38 15t-38.5 -15
t-14.5 -39t14.5 -39t38.5 -15z" />
    <glyph glyph-name="ae" unicode="&#xe6;" horiz-adv-x="840" 
d="M584 510q114 0 165.5 -73.5t35.5 -189.5h-347q9 -177 178 -177q31 0 65.5 7t54.5 13l19 7v-73q-64 -34 -169 -34q-134 0 -198 88q-96 -88 -200 -88q-69 0 -104.5 38t-35.5 94q0 59 41 100.5t120 53.5q55 9 136 9v31q0 64 -28.5 89t-96.5 25q-35 0 -69 -7t-51 -13l-17 -7
v75q65 32 160 32q127 0 170 -71q66 71 171 71zM217 70q76 0 147 50q-21 50 -21 112v1q-76 -6 -112 -15q-48 -12 -68.5 -33t-20.5 -52q0 -29 20.5 -46t54.5 -17zM580 442q-56 0 -92.5 -36t-46.5 -95l249 4q2 55 -25.5 91t-84.5 36z" />
    <glyph glyph-name="ccedilla" unicode="&#xe7;" horiz-adv-x="486" 
d="M285 -202q-68 0 -125 34l17 40q49 -21 88 -21q49 0 49 26q0 20 -30 27t-50 -2l-21 25l29 67q-90 15 -137.5 79t-47.5 161q0 121 67 198.5t167 77.5q30 0 75 -9.5t67 -10.5l-8 -82q-24 2 -69 12.5t-68 10.5q-68 0 -102 -46t-34 -127q0 -83 40.5 -135.5t114.5 -52.5
q33 0 65 7t47 13l15 7v-74q-52 -33 -141 -33h-4l5 -36q46 -3 73 -22.5t27 -51.5q0 -34 -31 -58t-78 -24z" />
    <glyph glyph-name="egrave" unicode="&#xe8;" horiz-adv-x="553" 
d="M297 510q114 0 165.5 -73.5t35.5 -189.5h-347q9 -177 178 -177q31 0 65.5 7t53.5 13l20 7v-73q-64 -34 -169 -34q-115 0 -179 65.5t-64 176.5q0 131 67 204.5t174 73.5zM293 442q-56 0 -92.5 -36t-46.5 -95l249 4q2 55 -25.5 91t-84.5 36zM378 627l-40 -42l-187 154
l67 69z" />
    <glyph glyph-name="eacute" unicode="&#xe9;" horiz-adv-x="553" 
d="M297 510q114 0 165.5 -73.5t35.5 -189.5h-347q9 -177 178 -177q31 0 65.5 7t53.5 13l20 7v-73q-64 -34 -169 -34q-115 0 -179 65.5t-64 176.5q0 131 67 204.5t174 73.5zM293 442q-56 0 -92.5 -36t-46.5 -95l249 4q2 55 -25.5 91t-84.5 36zM261 590l-40 42l160 181l67 -69
z" />
    <glyph glyph-name="ecircumflex" unicode="&#xea;" horiz-adv-x="553" 
d="M297 510q114 0 165.5 -73.5t35.5 -189.5h-347q9 -177 178 -177q31 0 65.5 7t53.5 13l20 7v-73q-64 -34 -169 -34q-115 0 -179 65.5t-64 176.5q0 131 67 204.5t174 73.5zM293 442q-56 0 -92.5 -36t-46.5 -95l249 4q2 55 -25.5 91t-84.5 36zM175 597l-46 51l152 126h20
l151 -124l-46 -53l-115 78z" />
    <glyph glyph-name="edieresis" unicode="&#xeb;" horiz-adv-x="553" 
d="M297 510q114 0 165.5 -73.5t35.5 -189.5h-347q9 -177 178 -177q31 0 65.5 7t53.5 13l20 7v-73q-64 -34 -169 -34q-115 0 -179 65.5t-64 176.5q0 131 67 204.5t174 73.5zM293 442q-56 0 -92.5 -36t-46.5 -95l249 4q2 55 -25.5 91t-84.5 36zM193 610q-26 0 -42.5 16
t-16.5 41q0 26 18 41t46 15q27 0 42.5 -14.5t15.5 -39.5q0 -27 -17 -43t-46 -16zM393 610q-26 0 -42.5 16t-16.5 41q0 26 18 41t46 15q27 0 42.5 -14.5t15.5 -39.5q0 -27 -17 -43t-46 -16z" />
    <glyph glyph-name="igrave" unicode="&#xec;" horiz-adv-x="269" 
d="M88 0v397l-6 103l99 5v-412l5 -93h-98zM188 632l-40 -42l-187 154l67 69z" />
    <glyph glyph-name="iacute" unicode="&#xed;" horiz-adv-x="269" 
d="M88 0v397l-6 103l99 5v-412l5 -93h-98zM110 590l-40 42l160 181l67 -69z" />
    <glyph glyph-name="icircumflex" unicode="&#xee;" horiz-adv-x="269" 
d="M88 0v397l-6 103l99 5v-412l5 -93h-98zM19 597l-46 51l152 126h20l151 -124l-46 -53l-115 78z" />
    <glyph glyph-name="idieresis" unicode="&#xef;" horiz-adv-x="269" 
d="M88 0v397l-6 103l99 5v-412l5 -93h-98zM32 610q-26 0 -42.5 16t-16.5 41q0 26 18 41t46 15q27 0 42.5 -14.5t15.5 -39.5q0 -27 -17 -43t-46 -16zM232 610q-26 0 -42.5 16t-16.5 41q0 26 18 41t46 15q27 0 42.5 -14.5t15.5 -39.5q0 -27 -17 -43t-46 -16z" />
    <glyph glyph-name="eth" unicode="&#xf0;" horiz-adv-x="595" 
d="M186 510l-44 53l111 93q-60 27 -156 39l12 77q131 -18 213 -57l109 92l43 -52l-91 -77q146 -110 146 -371q0 -133 -64 -225t-180 -92q-107 0 -167.5 68.5t-60.5 171.5q0 101 60 167t163 66q84 0 143 -50q-21 141 -107 207zM430 303q0 18 -2 50q-57 34 -126 34
q-73 0 -110.5 -46t-37.5 -113q0 -71 35.5 -118t100.5 -47q68 0 104 63.5t36 176.5z" />
    <glyph glyph-name="ntilde" unicode="&#xf1;" horiz-adv-x="583" 
d="M500 342v-259l5 -83h-98v309q0 61 -25 91t-81 30q-58 0 -122 -34q2 -20 2 -95v-218l5 -83h-98v397l-6 103l92 5l3 -56q76 61 165 61q158 0 158 -168zM355 610q-35 0 -73 28t-56 28q-39 0 -52 -49l-66 16q9 56 39.5 84.5t71.5 28.5q35 0 73 -28t59 -28q36 0 47 49l64 -16
q-9 -57 -38 -85t-69 -28z" />
    <glyph glyph-name="ograve" unicode="&#xf2;" horiz-adv-x="598" 
d="M291 441q-62 0 -100.5 -49t-38.5 -120q0 -105 40 -158.5t115 -53.5q61 0 100 49.5t39 119.5q0 105 -40 158.5t-115 53.5zM286 -10q-107 0 -168 65.5t-61 172.5q0 132 68 207t187 75q107 0 168 -65t61 -172q0 -132 -68 -207.5t-187 -75.5zM375 632l-40 -42l-187 154l67 69
z" />
    <glyph glyph-name="oacute" unicode="&#xf3;" horiz-adv-x="598" 
d="M291 441q-62 0 -100.5 -49t-38.5 -120q0 -105 40 -158.5t115 -53.5q61 0 100 49.5t39 119.5q0 105 -40 158.5t-115 53.5zM286 -10q-107 0 -168 65.5t-61 172.5q0 132 68 207t187 75q107 0 168 -65t61 -172q0 -132 -68 -207.5t-187 -75.5zM275 588l-40 42l160 181l67 -69z
" />
    <glyph glyph-name="ocircumflex" unicode="&#xf4;" horiz-adv-x="598" 
d="M291 441q-62 0 -100.5 -49t-38.5 -120q0 -105 40 -158.5t115 -53.5q61 0 100 49.5t39 119.5q0 105 -40 158.5t-115 53.5zM286 -10q-107 0 -168 65.5t-61 172.5q0 132 68 207t187 75q107 0 168 -65t61 -172q0 -132 -68 -207.5t-187 -75.5zM184 597l-46 51l152 126h20
l151 -124l-46 -53l-115 78z" />
    <glyph glyph-name="otilde" unicode="&#xf5;" horiz-adv-x="598" 
d="M291 441q-62 0 -100.5 -49t-38.5 -120q0 -105 40 -158.5t115 -53.5q61 0 100 49.5t39 119.5q0 105 -40 158.5t-115 53.5zM286 -10q-107 0 -168 65.5t-61 172.5q0 132 68 207t187 75q107 0 168 -65t61 -172q0 -132 -68 -207.5t-187 -75.5zM363 611q-35 0 -73 28t-56 28
q-39 0 -52 -49l-66 16q9 56 39.5 84.5t71.5 28.5q35 0 73 -28t59 -28q36 0 47 49l64 -16q-9 -57 -38 -85t-69 -28z" />
    <glyph glyph-name="odieresis" unicode="&#xf6;" horiz-adv-x="598" 
d="M291 441q-62 0 -100.5 -49t-38.5 -120q0 -105 40 -158.5t115 -53.5q61 0 100 49.5t39 119.5q0 105 -40 158.5t-115 53.5zM286 -10q-107 0 -168 65.5t-61 172.5q0 132 68 207t187 75q107 0 168 -65t61 -172q0 -132 -68 -207.5t-187 -75.5zM195 610q-26 0 -42.5 16
t-16.5 41q0 26 18 41t46 15q27 0 42.5 -14.5t15.5 -39.5q0 -27 -17 -43t-46 -16zM395 610q-26 0 -42.5 16t-16.5 41q0 26 18 41t46 15q27 0 42.5 -14.5t15.5 -39.5q0 -27 -17 -43t-46 -16z" />
    <glyph glyph-name="divide" unicode="&#xf7;" horiz-adv-x="556" 
d="M67 248v74h421v-74h-421zM272 396q-29 0 -47 17.5t-18 45.5q0 29 19.5 45.5t51.5 16.5q30 0 47 -16t17 -44q0 -30 -19 -47.5t-51 -17.5zM272 50q-29 0 -47 17.5t-18 45.5q0 29 19.5 45.5t51.5 16.5q30 0 47 -16t17 -44q0 -30 -19 -47.5t-51 -17.5z" />
    <glyph glyph-name="oslash" unicode="&#xf8;" horiz-adv-x="598" 
d="M118 -78l-63 37l65 94q-63 65 -63 175q0 132 68 207t187 75q62 0 110 -23l61 88l63 -38l-65 -93q60 -65 60 -171q0 -132 -68 -207.5t-187 -75.5q-58 0 -106 21zM291 441q-62 0 -100.5 -49t-38.5 -120q0 -87 27 -138l196 283q-35 24 -84 24zM446 229q0 80 -25 132
l-195 -280q34 -21 81 -21q61 0 100 49.5t39 119.5z" />
    <glyph glyph-name="ugrave" unicode="&#xf9;" horiz-adv-x="583" 
d="M408 -4l-4 53q-74 -59 -166 -59q-155 0 -155 168v259l-5 83h98v-317q0 -113 101 -113q64 0 125 33v314l-5 83h98v-396l6 -103zM389 632l-40 -42l-187 154l67 69z" />
    <glyph glyph-name="uacute" unicode="&#xfa;" horiz-adv-x="583" 
d="M408 -4l-4 53q-74 -59 -166 -59q-155 0 -155 168v259l-5 83h98v-317q0 -113 101 -113q64 0 125 33v314l-5 83h98v-396l6 -103zM273 589l-40 42l160 181l67 -69z" />
    <glyph glyph-name="ucircumflex" unicode="&#xfb;" horiz-adv-x="583" 
d="M408 -4l-4 53q-74 -59 -166 -59q-155 0 -155 168v259l-5 83h98v-317q0 -113 101 -113q64 0 125 33v314l-5 83h98v-396l6 -103zM181 597l-46 51l152 126h20l151 -124l-46 -53l-115 78z" />
    <glyph glyph-name="udieresis" unicode="&#xfc;" horiz-adv-x="583" 
d="M408 -4l-4 53q-74 -59 -166 -59q-155 0 -155 168v259l-5 83h98v-317q0 -113 101 -113q64 0 125 33v314l-5 83h98v-396l6 -103zM194 611q-26 0 -42.5 16t-16.5 41q0 26 18 41t46 15q27 0 42.5 -14.5t15.5 -39.5q0 -27 -17 -43t-46 -16zM394 611q-26 0 -42.5 16t-16.5 41
q0 26 18 41t46 15q27 0 42.5 -14.5t15.5 -39.5q0 -27 -17 -43t-46 -16z" />
    <glyph glyph-name="yacute" unicode="&#xfd;" horiz-adv-x="496" 
d="M210 -254l-92 4q10 69 79 227l8 19l-145 401l-42 103l107 5l97 -294q9 -28 17 -59.5t12 -49.5l4 -18h4q13 65 38 136l34 99q41 118 48 181h88q-6 -68 -58 -202l-120 -307q-29 -74 -48.5 -135.5t-24.5 -85.5zM237 590l-40 42l160 181l67 -69z" />
    <glyph glyph-name="thorn" unicode="&#xfe;" horiz-adv-x="599" 
d="M87 -250v896l-6 103l95 5v-297q59 53 153 53q104 0 158.5 -67t54.5 -166q0 -133 -69 -210t-184 -77q-61 0 -109 29v-186l5 -83h-98zM180 301v-202q47 -39 115 -39q72 0 111 51.5t39 135.5q0 88 -35 135.5t-105 47.5q-73 0 -127 -33q2 -16 2 -96z" />
    <glyph glyph-name="ydieresis" unicode="&#xff;" horiz-adv-x="496" 
d="M210 -254l-92 4q10 69 79 227l8 19l-145 401l-42 103l107 5l97 -294q9 -28 17 -59.5t12 -49.5l4 -18h4q13 65 38 136l34 99q41 118 48 181h88q-6 -68 -58 -202l-120 -307q-29 -74 -48.5 -135.5t-24.5 -85.5zM154 609q-26 0 -42.5 16t-16.5 41q0 26 18 41t46 15
q27 0 42.5 -14.5t15.5 -39.5q0 -27 -17 -43t-46 -16zM354 609q-26 0 -42.5 16t-16.5 41q0 26 18 41t46 15q27 0 42.5 -14.5t15.5 -39.5q0 -27 -17 -43t-46 -16z" />
    <glyph glyph-name="Amacron" unicode="&#x100;" horiz-adv-x="622" 
d="M160 176l-8 -25q-30 -91 -39 -151h-87q9 64 49 177l188 520l89 6l216 -583q12 -33 24 -62.5t18 -42.5l7 -13l-103 -6l-66 180h-288zM300 600h-4q-11 -54 -27 -101l-85 -252h238l-91 251zM165 816v74h274v-74h-274z" />
    <glyph glyph-name="amacron" unicode="&#x101;" horiz-adv-x="538" 
d="M503 88v-69q-30 -29 -76 -29q-65 0 -81 62q-70 -62 -158 -62q-69 0 -104.5 38t-35.5 94q0 59 41 100.5t120 53.5q55 9 136 9v31q0 63 -26.5 88.5t-85.5 25.5q-40 0 -77.5 -8t-55.5 -16l-17 -8v75q65 37 178 37q180 0 177 -180q0 -19 -1.5 -71t-2 -96t-0.5 -71
q0 -24 21 -24q9 0 21 5t20 10zM217 66q61 0 124 40q0 43 2 127q-76 -6 -112 -15q-48 -12 -68.5 -33t-20.5 -52q0 -29 20 -48t55 -19zM126 650v74h274v-74h-274z" />
    <glyph glyph-name="Abreve" unicode="&#x102;" horiz-adv-x="622" 
d="M160 176l-8 -25q-30 -91 -39 -151h-87q9 64 49 177l188 520l89 6l216 -583q12 -33 24 -62.5t18 -42.5l7 -13l-103 -6l-66 180h-288zM300 600h-4q-11 -54 -27 -101l-85 -252h238l-91 251zM309 775q-52 0 -95 34t-60 96l57 20q29 -74 98 -74q70 0 97 74l56 -19
q-17 -62 -59 -96.5t-94 -34.5z" />
    <glyph glyph-name="abreve" unicode="&#x103;" horiz-adv-x="538" 
d="M503 88v-69q-30 -29 -76 -29q-65 0 -81 62q-70 -62 -158 -62q-69 0 -104.5 38t-35.5 94q0 59 41 100.5t120 53.5q55 9 136 9v31q0 63 -26.5 88.5t-85.5 25.5q-40 0 -77.5 -8t-55.5 -16l-17 -8v75q65 37 178 37q180 0 177 -180q0 -19 -1.5 -71t-2 -96t-0.5 -71
q0 -24 21 -24q9 0 21 5t20 10zM217 66q61 0 124 40q0 43 2 127q-76 -6 -112 -15q-48 -12 -68.5 -33t-20.5 -52q0 -29 20 -48t55 -19zM262 611q-52 0 -95 34t-60 96l57 20q29 -74 98 -74q70 0 97 74l56 -19q-17 -62 -59 -96.5t-94 -34.5z" />
    <glyph glyph-name="Aogonek" unicode="&#x104;" horiz-adv-x="623" 
d="M553 -192q-39 0 -65 22t-26 58q0 71 85 110l-33 -2l-66 180h-288l-8 -25q-30 -91 -39 -151h-87q9 64 49 177l188 520l89 6l216 -583q12 -33 24 -62.5t18 -42.5l7 -13q-34 -15 -56.5 -41.5t-22.5 -51.5q0 -45 53 -45q13 0 28.5 3t24.5 5l9 3v-45q-42 -22 -100 -22z
M300 600h-4q-11 -54 -27 -101l-85 -252h238l-91 251z" />
    <glyph glyph-name="aogonek" unicode="&#x105;" horiz-adv-x="538" 
d="M409 -194q-39 0 -65 22t-26 58q0 67 80 108q-41 11 -52 58q-70 -62 -158 -62q-69 0 -104.5 38t-35.5 94q0 59 41 100.5t120 53.5q55 9 136 9v31q0 63 -26.5 88.5t-85.5 25.5q-40 0 -77.5 -8t-55.5 -16l-17 -8v75q65 37 178 37q180 0 177 -180q0 -19 -1.5 -71t-2 -96
t-0.5 -71q0 -24 21 -24q9 0 21 5t20 10l7 5v-69q-15 -14 -37 -22q-31 -15 -51.5 -40.5t-20.5 -49.5q0 -45 53 -45q13 0 28.5 3t24.5 5l9 3v-45q-42 -22 -100 -22zM217 66q61 0 124 40q0 43 2 127q-76 -6 -112 -15q-48 -12 -68.5 -33t-20.5 -52q0 -29 20 -48t55 -19z" />
    <glyph glyph-name="Cacute" unicode="&#x106;" horiz-adv-x="594" 
d="M365 635q-90 0 -145.5 -77.5t-55.5 -193.5q0 -59 12.5 -110t38.5 -93.5t72 -66.5t108 -24q40 0 75.5 5t50.5 9l15 5l17 -70q-52 -29 -165 -29q-149 0 -237.5 94.5t-88.5 244.5q0 176 82.5 280t236.5 104q28 0 57 -3.5t61 -9t49 -7.5l-14 -78q-1 0 -66 10t-103 10z
M351 763l-40 42l160 181l67 -69z" />
    <glyph glyph-name="cacute" unicode="&#x107;" horiz-adv-x="484" 
d="M287 431q-68 0 -102 -46t-34 -127q0 -83 40.5 -135.5t114.5 -52.5q33 0 65 7t47 13l15 7v-74q-52 -33 -141 -33q-114 0 -175 67t-61 177q0 121 67 198.5t167 77.5q30 0 75 -9.5t67 -10.5l-8 -82q-24 2 -69 12.5t-68 10.5zM254 590l-40 42l160 181l67 -69z" />
    <glyph glyph-name="Ccircumflex" unicode="&#x108;" horiz-adv-x="594" 
d="M365 635q-90 0 -145.5 -77.5t-55.5 -193.5q0 -59 12.5 -110t38.5 -93.5t72 -66.5t108 -24q40 0 75.5 5t50.5 9l15 5l17 -70q-52 -29 -165 -29q-149 0 -237.5 94.5t-88.5 244.5q0 176 82.5 280t236.5 104q28 0 57 -3.5t61 -9t49 -7.5l-14 -78q-1 0 -66 10t-103 10z
M254 766l-46 51l152 126h20l151 -124l-46 -53l-115 78z" />
    <glyph glyph-name="ccircumflex" unicode="&#x109;" horiz-adv-x="484" 
d="M287 431q-68 0 -102 -46t-34 -127q0 -83 40.5 -135.5t114.5 -52.5q33 0 65 7t47 13l15 7v-74q-52 -33 -141 -33q-114 0 -175 67t-61 177q0 121 67 198.5t167 77.5q30 0 75 -9.5t67 -10.5l-8 -82q-24 2 -69 12.5t-68 10.5zM172 589l-46 51l152 126h20l151 -124l-46 -53
l-115 78z" />
    <glyph glyph-name="Cdotaccent" unicode="&#x10a;" horiz-adv-x="594" 
d="M365 635q-90 0 -145.5 -77.5t-55.5 -193.5q0 -59 12.5 -110t38.5 -93.5t72 -66.5t108 -24q40 0 75.5 5t50.5 9l15 5l17 -70q-52 -29 -165 -29q-149 0 -237.5 94.5t-88.5 244.5q0 176 82.5 280t236.5 104q28 0 57 -3.5t61 -9t49 -7.5l-14 -78q-1 0 -66 10t-103 10z
M376 775q-24 0 -41.5 17t-17.5 42q0 24 18.5 41.5t42.5 17.5t41 -17t17 -42q0 -24 -18 -41.5t-42 -17.5z" />
    <glyph glyph-name="cdotaccent" unicode="&#x10b;" horiz-adv-x="484" 
d="M287 431q-68 0 -102 -46t-34 -127q0 -83 40.5 -135.5t114.5 -52.5q33 0 65 7t47 13l15 7v-74q-52 -33 -141 -33q-114 0 -175 67t-61 177q0 121 67 198.5t167 77.5q30 0 75 -9.5t67 -10.5l-8 -82q-24 2 -69 12.5t-68 10.5zM284 610q-24 0 -41.5 17t-17.5 42
q0 24 18.5 41.5t42.5 17.5t41 -17t17 -42q0 -24 -18 -41.5t-42 -17.5z" />
    <glyph glyph-name="Ccaron" unicode="&#x10c;" horiz-adv-x="594" 
d="M365 635q-90 0 -145.5 -77.5t-55.5 -193.5q0 -59 12.5 -110t38.5 -93.5t72 -66.5t108 -24q40 0 75.5 5t50.5 9l15 5l17 -70q-52 -29 -165 -29q-149 0 -237.5 94.5t-88.5 244.5q0 176 82.5 280t236.5 104q28 0 57 -3.5t61 -9t49 -7.5l-14 -78q-1 0 -66 10t-103 10z
M490 946l46 -51l-155 -128h-14l-154 126l46 53l115 -78z" />
    <glyph glyph-name="ccaron" unicode="&#x10d;" horiz-adv-x="484" 
d="M287 431q-68 0 -102 -46t-34 -127q0 -83 40.5 -135.5t114.5 -52.5q33 0 65 7t47 13l15 7v-74q-52 -33 -141 -33q-114 0 -175 67t-61 177q0 121 67 198.5t167 77.5q30 0 75 -9.5t67 -10.5l-8 -82q-24 2 -69 12.5t-68 10.5zM405 776l46 -51l-155 -128h-14l-154 126l46 53
l115 -78z" />
    <glyph glyph-name="Dcaron" unicode="&#x10e;" horiz-adv-x="723" 
d="M103 0v598l-6 102h197q179 0 276 -89.5t97 -247.5q0 -177 -105.5 -270t-268.5 -93h-190zM273 628h-72v-556h115q114 0 180 74t66 200q0 134 -76.5 208t-212.5 74zM446 949l46 -51l-155 -128h-14l-154 126l46 53l115 -78z" />
    <glyph glyph-name="dcaron" unicode="&#x10f;" horiz-adv-x="625" 
d="M598 491l-36 30q57 51 63 128q-25 -1 -43 13.5t-18 41.5q0 26 17 41.5t43 15.5q63 0 63 -72q0 -57 -23 -109.5t-66 -88.5zM299 510q69 0 118 -33v170q0 25 -1.5 51t-3.5 39l-2 13l99 5v-651l6 -103l-90 -5l-3 46q-59 -52 -145 -52q-104 0 -162.5 69t-58.5 172
q0 127 67.5 203t175.5 76zM304 65q64 0 113 29v306q-43 41 -112 41q-72 0 -112 -53t-40 -134q0 -83 39.5 -136t111.5 -53z" />
    <glyph glyph-name="Dcroat" unicode="&#x110;" horiz-adv-x="730" 
d="M10 295v74h100v229l-6 102h197q179 0 276 -89.5t97 -247.5q0 -177 -105.5 -270t-268.5 -93h-190v295h-100zM280 628h-72v-259h146v-74h-146v-223h115q114 0 180 74t66 200q0 134 -76.5 208t-212.5 74z" />
    <glyph glyph-name="dcroat" unicode="&#x111;" horiz-adv-x="597" 
d="M271 574v69h146v4q0 25 -1.5 51t-3.5 39l-2 13l99 5v-112h76v-69h-76v-470l6 -103l-90 -5l-3 46q-59 -52 -145 -52q-104 0 -162.5 69t-58.5 172q0 127 67.5 203t175.5 76q69 0 118 -33v97h-146zM304 65q64 0 113 29v306q-43 41 -112 41q-72 0 -112 -53t-40 -134
q0 -83 39.5 -136t111.5 -53z" />
    <glyph glyph-name="Emacron" unicode="&#x112;" horiz-adv-x="590" 
d="M103 0v598l-6 102h433l-5 -79q-49 5 -97 6l-227 3v-240l279 5l-5 -86l-274 8v-246l250 3l79 6l-5 -80h-422zM176 816v74h274v-74h-274z" />
    <glyph glyph-name="emacron" unicode="&#x113;" horiz-adv-x="553" 
d="M297 510q114 0 165.5 -73.5t35.5 -189.5h-347q9 -177 178 -177q31 0 65.5 7t53.5 13l20 7v-73q-64 -34 -169 -34q-115 0 -179 65.5t-64 176.5q0 131 67 204.5t174 73.5zM293 442q-56 0 -92.5 -36t-46.5 -95l249 4q2 55 -25.5 91t-84.5 36zM156 649v74h274v-74h-274z" />
    <glyph glyph-name="Ebreve" unicode="&#x114;" horiz-adv-x="590" 
d="M103 0v598l-6 102h433l-5 -79q-49 5 -97 6l-227 3v-240l279 5l-5 -86l-274 8v-246l250 3l79 6l-5 -80h-422zM329 775q-52 0 -95 34t-60 96l57 20q29 -74 98 -74q70 0 97 74l56 -19q-17 -62 -59 -96.5t-94 -34.5z" />
    <glyph glyph-name="ebreve" unicode="&#x115;" horiz-adv-x="553" 
d="M297 510q114 0 165.5 -73.5t35.5 -189.5h-347q9 -177 178 -177q31 0 65.5 7t53.5 13l20 7v-73q-64 -34 -169 -34q-115 0 -179 65.5t-64 176.5q0 131 67 204.5t174 73.5zM293 442q-56 0 -92.5 -36t-46.5 -95l249 4q2 55 -25.5 91t-84.5 36zM299 611q-52 0 -95 34t-60 96
l57 20q29 -74 98 -74q70 0 97 74l56 -19q-17 -62 -59 -96.5t-94 -34.5z" />
    <glyph glyph-name="Edotaccent" unicode="&#x116;" horiz-adv-x="590" 
d="M103 0v598l-6 102h433l-5 -79q-49 5 -97 6l-227 3v-240l279 5l-5 -86l-274 8v-246l250 3l79 6l-5 -80h-422zM321 775q-24 0 -41.5 17t-17.5 42q0 24 18.5 41.5t42.5 17.5t41 -17t17 -42q0 -24 -18 -41.5t-42 -17.5z" />
    <glyph glyph-name="edotaccent" unicode="&#x117;" horiz-adv-x="553" 
d="M297 510q114 0 165.5 -73.5t35.5 -189.5h-347q9 -177 178 -177q31 0 65.5 7t53.5 13l20 7v-73q-64 -34 -169 -34q-115 0 -179 65.5t-64 176.5q0 131 67 204.5t174 73.5zM293 442q-56 0 -92.5 -36t-46.5 -95l249 4q2 55 -25.5 91t-84.5 36zM299 611q-24 0 -41.5 17
t-17.5 42q0 24 18.5 41.5t42.5 17.5t41 -17t17 -42q0 -24 -18 -41.5t-42 -17.5z" />
    <glyph glyph-name="Eogonek" unicode="&#x118;" horiz-adv-x="590" 
d="M103 0v598l-6 102h433l-5 -79q-49 5 -97 6l-227 3v-240l279 5l-5 -86l-274 8v-246l250 3l79 6l-5 -80h1q-34 -15 -56.5 -41.5t-22.5 -51.5q0 -45 53 -45q13 0 28.5 3t24.5 5l9 3v-45q-42 -22 -100 -22q-39 0 -65 22t-26 58q0 74 94 114h-362z" />
    <glyph glyph-name="eogonek" unicode="&#x119;" horiz-adv-x="553" 
d="M337 -192q-39 0 -65 22t-26 58q0 62 70 102h-17q-115 0 -179 65.5t-64 176.5q0 131 67 204.5t174 73.5q114 0 165.5 -73.5t35.5 -189.5h-347q9 -177 178 -177q31 0 65.5 7t53.5 13l20 7v-73q-27 -14 -71 -24q-32 -15 -53.5 -40.5t-21.5 -50.5q0 -45 53 -45q13 0 28.5 3
t24.5 5l9 3v-45q-42 -22 -100 -22zM293 442q-56 0 -92.5 -36t-46.5 -95l249 4q2 55 -25.5 91t-84.5 36z" />
    <glyph glyph-name="Ecaron" unicode="&#x11a;" horiz-adv-x="590" 
d="M103 0v598l-6 102h433l-5 -79q-49 5 -97 6l-227 3v-240l279 5l-5 -86l-274 8v-246l250 3l79 6l-5 -80h-422zM437 952l46 -51l-155 -128h-14l-154 126l46 53l115 -78z" />
    <glyph glyph-name="ecaron" unicode="&#x11b;" horiz-adv-x="553" 
d="M297 510q114 0 165.5 -73.5t35.5 -189.5h-347q9 -177 178 -177q31 0 65.5 7t53.5 13l20 7v-73q-64 -34 -169 -34q-115 0 -179 65.5t-64 176.5q0 131 67 204.5t174 73.5zM293 442q-56 0 -92.5 -36t-46.5 -95l249 4q2 55 -25.5 91t-84.5 36zM410 775l46 -51l-155 -128h-14
l-154 126l46 53l115 -78z" />
    <glyph glyph-name="Gcircumflex" unicode="&#x11c;" horiz-adv-x="669" 
d="M405 635q-113 0 -177.5 -72.5t-64.5 -198.5q0 -60 12.5 -111t39 -94t73.5 -67.5t110 -24.5q24 0 50 2t40 4l14 2v134l-6 103l99 5v-302q-76 -25 -197 -25q-163 0 -250 92.5t-87 246.5q0 177 89.5 280.5t262.5 103.5q32 0 64 -3.5t67.5 -9t50.5 -7.5l-14 -78
q-15 2 -48.5 7.5t-66 9t-61.5 3.5zM266 768l-46 51l152 126h20l151 -124l-46 -53l-115 78z" />
    <glyph glyph-name="gcircumflex" unicode="&#x11d;" horiz-adv-x="569" 
d="M257 141q-33 0 -54 5q-17 -24 -16 -47q2 -29 45 -32l111 -6q173 -9 173 -146q0 -77 -65 -123t-171 -48q-104 -2 -168 34.5t-64 112.5q0 83 83 125q-20 22 -20 56q0 48 45 89q-46 20 -71.5 60.5t-25.5 92.5q0 87 57 141.5t156 54.5q58 0 102 -21l169 13l-3 -65h-108v-3
q46 -34 46 -104q0 -76 -60 -132.5t-161 -56.5zM223 -18q-26 1 -54 10q-33 -38 -33 -76q0 -49 39.5 -76.5t117.5 -27.5q144 0 144 91q0 66 -93 72zM263 442q-52 0 -80.5 -31.5t-28.5 -82.5q0 -56 30 -87.5t90 -31.5q50 0 79.5 32t29.5 84q0 117 -120 117zM159 593l-46 51
l152 126h20l151 -124l-46 -53l-115 78z" />
    <glyph glyph-name="Gbreve" unicode="&#x11e;" horiz-adv-x="669" 
d="M405 635q-113 0 -177.5 -72.5t-64.5 -198.5q0 -60 12.5 -111t39 -94t73.5 -67.5t110 -24.5q24 0 50 2t40 4l14 2v134l-6 103l99 5v-302q-76 -25 -197 -25q-163 0 -250 92.5t-87 246.5q0 177 89.5 280.5t262.5 103.5q32 0 64 -3.5t67.5 -9t50.5 -7.5l-14 -78
q-15 2 -48.5 7.5t-66 9t-61.5 3.5zM388 775q-52 0 -95 34t-60 96l57 20q29 -74 98 -74q70 0 97 74l56 -19q-17 -62 -59 -96.5t-94 -34.5z" />
    <glyph glyph-name="gbreve" unicode="&#x11f;" horiz-adv-x="569" 
d="M257 141q-33 0 -54 5q-17 -24 -16 -47q2 -29 45 -32l111 -6q173 -9 173 -146q0 -77 -65 -123t-171 -48q-104 -2 -168 34.5t-64 112.5q0 83 83 125q-20 22 -20 56q0 48 45 89q-46 20 -71.5 60.5t-25.5 92.5q0 87 57 141.5t156 54.5q58 0 102 -21l169 13l-3 -65h-108v-3
q46 -34 46 -104q0 -76 -60 -132.5t-161 -56.5zM223 -18q-26 1 -54 10q-33 -38 -33 -76q0 -49 39.5 -76.5t117.5 -27.5q144 0 144 91q0 66 -93 72zM263 442q-52 0 -80.5 -31.5t-28.5 -82.5q0 -56 30 -87.5t90 -31.5q50 0 79.5 32t29.5 84q0 117 -120 117zM273 610
q-52 0 -95 34t-60 96l57 20q29 -74 98 -74q70 0 97 74l56 -19q-17 -62 -59 -96.5t-94 -34.5z" />
    <glyph glyph-name="Gdotaccent" unicode="&#x120;" horiz-adv-x="669" 
d="M405 635q-113 0 -177.5 -72.5t-64.5 -198.5q0 -60 12.5 -111t39 -94t73.5 -67.5t110 -24.5q24 0 50 2t40 4l14 2v134l-6 103l99 5v-302q-76 -25 -197 -25q-163 0 -250 92.5t-87 246.5q0 177 89.5 280.5t262.5 103.5q32 0 64 -3.5t67.5 -9t50.5 -7.5l-14 -78
q-15 2 -48.5 7.5t-66 9t-61.5 3.5zM390 775q-24 0 -41.5 17t-17.5 42q0 24 18.5 41.5t42.5 17.5t41 -17t17 -42q0 -24 -18 -41.5t-42 -17.5z" />
    <glyph glyph-name="gdotaccent" unicode="&#x121;" horiz-adv-x="569" 
d="M257 141q-33 0 -54 5q-17 -24 -16 -47q2 -29 45 -32l111 -6q173 -9 173 -146q0 -77 -65 -123t-171 -48q-104 -2 -168 34.5t-64 112.5q0 83 83 125q-20 22 -20 56q0 48 45 89q-46 20 -71.5 60.5t-25.5 92.5q0 87 57 141.5t156 54.5q58 0 102 -21l169 13l-3 -65h-108v-3
q46 -34 46 -104q0 -76 -60 -132.5t-161 -56.5zM223 -18q-26 1 -54 10q-33 -38 -33 -76q0 -49 39.5 -76.5t117.5 -27.5q144 0 144 91q0 66 -93 72zM263 442q-52 0 -80.5 -31.5t-28.5 -82.5q0 -56 30 -87.5t90 -31.5q50 0 79.5 32t29.5 84q0 117 -120 117zM268 611
q-24 0 -41.5 17t-17.5 42q0 24 18.5 41.5t42.5 17.5t41 -17t17 -42q0 -24 -18 -41.5t-42 -17.5z" />
    <glyph glyph-name="Gcommaaccent" unicode="&#x122;" horiz-adv-x="669" 
d="M405 635q-113 0 -177.5 -72.5t-64.5 -198.5q0 -60 12.5 -111t39 -94t73.5 -67.5t110 -24.5q24 0 50 2t40 4l14 2v134l-6 103l99 5v-302q-76 -25 -197 -25q-163 0 -250 92.5t-87 246.5q0 177 89.5 280.5t262.5 103.5q32 0 64 -3.5t67.5 -9t50.5 -7.5l-14 -78
q-15 2 -48.5 7.5t-66 9t-61.5 3.5zM293 -320q77 52 85 116q-26 2 -43.5 19t-17.5 42q0 27 18 43.5t46 16.5t46.5 -18.5t18.5 -53.5q0 -62 -33 -119.5t-88 -86.5z" />
    <glyph glyph-name="gcommaaccent" unicode="&#x123;" horiz-adv-x="569" 
d="M360 847q-77 -52 -85 -116q26 -2 43.5 -19t17.5 -42q0 -27 -18 -43.5t-46 -16.5t-46.5 18.5t-18.5 53.5q0 62 33 119.5t88 86.5zM257 141q-33 0 -54 5q-17 -24 -16 -47q2 -29 45 -32l111 -6q173 -9 173 -146q0 -77 -65 -123t-171 -48q-104 -2 -168 34.5t-64 112.5
q0 83 83 125q-20 22 -20 56q0 48 45 89q-46 20 -71.5 60.5t-25.5 92.5q0 87 57 141.5t156 54.5q58 0 102 -21l169 13l-3 -65h-108v-3q46 -34 46 -104q0 -76 -60 -132.5t-161 -56.5zM223 -18q-26 1 -54 10q-33 -38 -33 -76q0 -49 39.5 -76.5t117.5 -27.5q144 0 144 91
q0 66 -93 72zM263 442q-52 0 -80.5 -31.5t-28.5 -82.5q0 -56 30 -87.5t90 -31.5q50 0 79.5 32t29.5 84q0 117 -120 117z" />
    <glyph glyph-name="Hcircumflex" unicode="&#x124;" horiz-adv-x="756" 
d="M555 0v325h-354v-232l5 -93h-103v598l-6 103l104 5v-307h354v199l-6 103l104 5v-613l5 -93h-103zM259 766l-46 51l152 126h20l151 -124l-46 -53l-115 78z" />
    <glyph glyph-name="hcircumflex" unicode="&#x125;" horiz-adv-x="582" 
d="M499 342v-259l5 -83h-98v317q0 113 -101 113q-63 0 -127 -34q2 -20 2 -95v-218l5 -83h-98v647l-6 103l99 5l-2 -305q73 60 174 60q147 0 147 -168zM53 794l-46 51l152 126h20l151 -124l-46 -53l-115 78z" />
    <glyph glyph-name="Hbar" unicode="&#x126;" horiz-adv-x="763" 
d="M16 495v74h91v29l-6 103l104 5v-137h354v29l-6 103l104 5v-137h89v-74h-89v-402l5 -93h-103v325h-354v-232l5 -93h-103v495h-91zM205 399h354v96h-354v-96z" />
    <glyph glyph-name="hbar" unicode="&#x127;" horiz-adv-x="582" 
d="M10 569v74h77v4l-6 103l99 5l-1 -112h165v-74h-165l-1 -119q73 60 174 60q147 0 147 -168v-259l5 -83h-98v317q0 113 -101 113q-63 0 -127 -34q2 -20 2 -95v-218l5 -83h-98v569h-77z" />
    <glyph glyph-name="Itilde" unicode="&#x128;" horiz-adv-x="304" 
d="M103 0v598l-6 103l104 5v-613l5 -93h-103zM220 775q-35 0 -73 28t-56 28q-39 0 -52 -49l-66 16q9 56 39.5 84.5t71.5 28.5q35 0 73 -28t59 -28q36 0 47 49l64 -16q-9 -57 -38 -85t-69 -28z" />
    <glyph glyph-name="itilde" unicode="&#x129;" horiz-adv-x="269" 
d="M88 0v397l-6 103l99 5v-412l5 -93h-98zM205 611q-35 0 -73 28t-56 28q-39 0 -52 -49l-66 16q9 56 39.5 84.5t71.5 28.5q35 0 73 -28t59 -28q36 0 47 49l64 -16q-9 -57 -38 -85t-69 -28z" />
    <glyph glyph-name="Imacron" unicode="&#x12a;" horiz-adv-x="304" 
d="M103 0v598l-6 103l104 5v-613l5 -93h-103zM15 816v74h274v-74h-274z" />
    <glyph glyph-name="imacron" unicode="&#x12b;" horiz-adv-x="269" 
d="M88 0v397l-6 103l99 5v-412l5 -93h-98zM-2 649v74h274v-74h-274z" />
    <glyph glyph-name="Ibreve" unicode="&#x12c;" horiz-adv-x="304" 
d="M103 0v598l-6 103l104 5v-613l5 -93h-103zM152 775q-52 0 -95 34t-60 96l57 20q29 -74 98 -74q70 0 97 74l56 -19q-17 -62 -59 -96.5t-94 -34.5z" />
    <glyph glyph-name="ibreve" unicode="&#x12d;" horiz-adv-x="269" 
d="M88 0v397l-6 103l99 5v-412l5 -93h-98zM133 609q-52 0 -95 34t-60 96l57 20q29 -74 98 -74q70 0 97 74l56 -19q-17 -62 -59 -96.5t-94 -34.5z" />
    <glyph glyph-name="Iogonek" unicode="&#x12e;" horiz-adv-x="304" 
d="M103 0v598l-6 103l104 5v-613l5 -93q-34 -15 -56.5 -41.5t-22.5 -51.5q0 -45 53 -45q13 0 28.5 3t24.5 5l9 3v-45q-42 -22 -100 -22q-39 0 -65 22t-26 58q0 74 94 114h-42z" />
    <glyph glyph-name="iogonek" unicode="&#x12f;" horiz-adv-x="269" 
d="M132 610q-26 0 -42.5 16t-16.5 41q0 26 18 41t46 15q27 0 42.5 -14.5t15.5 -39.5q0 -27 -17 -43t-46 -16zM88 0v397l-6 103l99 5v-412l5 -93h-98zM122 -194q-39 0 -65 22t-26 58q0 74 94 114h61q-34 -15 -56.5 -41.5t-22.5 -51.5q0 -45 53 -45q13 0 28.5 3t24.5 5l9 3
v-45q-42 -22 -100 -22z" />
    <glyph glyph-name="Idotaccent" unicode="&#x130;" horiz-adv-x="304" 
d="M103 0v598l-6 103l104 5v-613l5 -93h-103zM151 775q-24 0 -41.5 17t-17.5 42q0 24 18.5 41.5t42.5 17.5t41 -17t17 -42q0 -24 -18 -41.5t-42 -17.5z" />
    <glyph glyph-name="dotlessi" unicode="&#x131;" horiz-adv-x="269" 
d="M88 0v397l-6 103l99 5v-412l5 -93h-98z" />
    <glyph glyph-name="IJ" unicode="&#x132;" horiz-adv-x="599" 
d="M103 0v598l-6 103l104 5v-613l5 -93h-103zM399 90v508l-6 103l104 5v-615q0 -61 -18 -114q-12 -33 -32 -62.5t-56 -71.5t-44 -52l-60 49q11 15 38 47.5t41.5 55.5t22.5 50q10 37 10 97z" />
    <glyph glyph-name="ij" unicode="&#x133;" horiz-adv-x="529" 
d="M132 610q-26 0 -42.5 16t-16.5 41q0 26 18 41t46 15q27 0 42.5 -14.5t15.5 -39.5q0 -27 -17 -43t-46 -16zM88 0v397l-6 103l99 5v-412l5 -93h-98zM442 505v-479q0 -69 -21 -119q-21 -49 -121 -164l-51 44q7 9 22.5 27.5t21.5 26t15.5 21t15.5 25.5t11 27q14 42 14 112
v371l-6 103zM393 610q-26 0 -42.5 16t-16.5 41q0 26 18 41t46 15q27 0 42.5 -14.5t15.5 -39.5q0 -27 -17 -43t-46 -16z" />
    <glyph glyph-name="Jcircumflex" unicode="&#x134;" horiz-adv-x="303" 
d="M103 90v508l-6 103l104 5v-615q0 -61 -18 -114q-12 -33 -32 -62.5t-56 -71.5t-44 -52l-60 49q11 15 38 47.5t41.5 55.5t22.5 50q10 37 10 97zM35 768l-46 51l152 126h20l151 -124l-46 -53l-115 78z" />
    <glyph glyph-name="jcircumflex" unicode="&#x135;" horiz-adv-x="268" 
d="M181 505v-479q0 -69 -21 -119q-21 -49 -121 -164l-51 44q7 9 22.5 27.5t21.5 26t15.5 21t15.5 25.5t11 27q14 42 14 112v371l-6 103zM19 596l-46 51l152 126h20l151 -124l-46 -53l-115 78z" />
    <glyph glyph-name="Kcommaaccent" unicode="&#x136;" horiz-adv-x="628" 
d="M103 0v598l-6 103l104 5v-311h70q102 132 142 190t72 115h102q-37 -66 -86 -134.5t-157 -200.5l220 -295q11 -15 26.5 -32.5t25.5 -27.5l9 -10l-119 -5l-243 327h-62v-229l5 -93h-103zM254 -319q77 52 85 116q-26 2 -43.5 19t-17.5 42q0 27 18 43.5t46 16.5t46.5 -18.5
t18.5 -53.5q0 -62 -33 -119.5t-88 -86.5z" />
    <glyph glyph-name="kcommaaccent" unicode="&#x137;" horiz-adv-x="526" 
d="M87 0v648l-6 103l99 5v-468h52l78 97q28 35 48.5 65.5t27.5 43.5l6 12l92 -6q-32 -63 -103 -146l-80 -93l144 -187l65 -74l-109 -5l-175 224h-46v-126l5 -93h-98zM181 -319q77 52 85 116q-26 2 -43.5 19t-17.5 42q0 27 18 43.5t46 16.5t46.5 -18.5t18.5 -53.5
q0 -62 -33 -119.5t-88 -86.5z" />
    <glyph glyph-name="Lacute" unicode="&#x139;" horiz-adv-x="544" 
d="M530 80l-5 -80h-422v598l-6 102l104 5v-634l245 4zM148 748l-40 42l160 181l67 -69z" />
    <glyph glyph-name="lacute" unicode="&#x13a;" horiz-adv-x="280" 
d="M93 0v648l-6 103l99 5v-663l5 -93h-98zM123 798l-40 42l160 181l67 -69z" />
    <glyph glyph-name="Lcommaaccent" unicode="&#x13b;" horiz-adv-x="543" 
d="M530 80l-5 -80h-422v598l-6 102l104 5v-634l245 4zM233 -319q77 52 85 116q-26 2 -43.5 19t-17.5 42q0 27 18 43.5t46 16.5t46.5 -18.5t18.5 -53.5q0 -62 -33 -119.5t-88 -86.5z" />
    <glyph glyph-name="lcommaaccent" unicode="&#x13c;" horiz-adv-x="279" 
d="M93 0v648l-6 103l99 5v-663l5 -93h-98zM51 -319q77 52 85 116q-26 2 -43.5 19t-17.5 42q0 27 18 43.5t46 16.5t46.5 -18.5t18.5 -53.5q0 -62 -33 -119.5t-88 -86.5z" />
    <glyph glyph-name="Lcaron" unicode="&#x13d;" horiz-adv-x="544" 
d="M530 80l-5 -80h-422v598l-6 102l104 5v-634l245 4zM398 421l-38 31q61 57 66 136q-27 -1 -45.5 14t-18.5 44q0 27 17.5 43t45.5 16q65 0 65 -75q0 -131 -92 -209z" />
    <glyph glyph-name="lcaron" unicode="&#x13e;" horiz-adv-x="306" 
d="M280 491l-36 30q57 51 63 128q-25 -1 -43 13.5t-18 41.5q0 26 17 41.5t43 15.5q63 0 63 -72q0 -57 -23 -109.5t-66 -88.5zM93 0v648l-6 103l99 5v-663l5 -93h-98z" />
    <glyph glyph-name="Ldot" unicode="&#x13f;" horiz-adv-x="616" 
d="M516 320q-24 0 -41.5 17t-17.5 42q0 24 18.5 41.5t42.5 17.5t41 -17t17 -42q0 -24 -18 -41.5t-42 -17.5zM530 80l-5 -80h-422v598l-6 102l104 5v-634l245 4z" />
    <glyph glyph-name="ldot" unicode="&#x140;" horiz-adv-x="423" 
d="M346 320q-24 0 -41.5 17t-17.5 42q0 24 18.5 41.5t42.5 17.5t41 -17t17 -42q0 -24 -18 -41.5t-42 -17.5zM93 0v648l-6 103l99 5v-663l5 -93h-98z" />
    <glyph glyph-name="Lslash" unicode="&#x141;" horiz-adv-x="567" 
d="M28 200l-35 63l133 73v262l-6 102l104 5v-314l132 73l35 -62l-167 -93v-238l245 4l84 5l-5 -80h-422v254z" />
    <glyph glyph-name="lslash" unicode="&#x142;" horiz-adv-x="390" 
d="M46 213l-32 60l133 73v302l-6 103l99 5v-358l105 58l32 -59l-137 -76v-228l5 -93h-98v269z" />
    <glyph glyph-name="Nacute" unicode="&#x143;" horiz-adv-x="749" 
d="M565 -10l-338 499l-44 77h-3q8 -61 8 -87v-386l5 -93h-90v598l-6 103l88 5l337 -499q10 -14 21 -34t17 -33l7 -12l3 1q-8 52 -8 92v377l-6 103l91 5v-706zM369 748l-40 42l160 181l67 -69z" />
    <glyph glyph-name="nacute" unicode="&#x144;" horiz-adv-x="583" 
d="M500 342v-259l5 -83h-98v309q0 61 -25 91t-81 30q-58 0 -122 -34q2 -20 2 -95v-218l5 -83h-98v397l-6 103l92 5l3 -56q76 61 165 61q158 0 158 -168zM267 593l-40 42l160 181l67 -69z" />
    <glyph glyph-name="Ncommaaccent" unicode="&#x145;" horiz-adv-x="749" 
d="M565 -10l-338 499l-44 77h-3q8 -61 8 -87v-386l5 -93h-90v598l-6 103l88 5l337 -499q10 -14 21 -34t17 -33l7 -12l3 1q-8 52 -8 92v377l-6 103l91 5v-706zM281 -319q77 52 85 116q-26 2 -43.5 19t-17.5 42q0 27 18 43.5t46 16.5t46.5 -18.5t18.5 -53.5q0 -62 -33 -119.5
t-88 -86.5z" />
    <glyph glyph-name="ncommaaccent" unicode="&#x146;" horiz-adv-x="583" 
d="M500 342v-259l5 -83h-98v309q0 61 -25 91t-81 30q-58 0 -122 -34q2 -20 2 -95v-218l5 -83h-98v397l-6 103l92 5l3 -56q76 61 165 61q158 0 158 -168zM204 -319q77 52 85 116q-26 2 -43.5 19t-17.5 42q0 27 18 43.5t46 16.5t46.5 -18.5t18.5 -53.5q0 -62 -33 -119.5
t-88 -86.5z" />
    <glyph glyph-name="Ncaron" unicode="&#x147;" horiz-adv-x="749" 
d="M565 -10l-338 499l-44 77h-3q8 -61 8 -87v-386l5 -93h-90v598l-6 103l88 5l337 -499q10 -14 21 -34t17 -33l7 -12l3 1q-8 52 -8 92v377l-6 103l91 5v-706zM497 951l46 -51l-155 -128h-14l-154 126l46 53l115 -78z" />
    <glyph glyph-name="ncaron" unicode="&#x148;" horiz-adv-x="583" 
d="M500 342v-259l5 -83h-98v309q0 61 -25 91t-81 30q-58 0 -122 -34q2 -20 2 -95v-218l5 -83h-98v397l-6 103l92 5l3 -56q76 61 165 61q158 0 158 -168zM417 777l46 -51l-155 -128h-14l-154 126l46 53l115 -78z" />
    <glyph glyph-name="Eng" unicode="&#x14a;" horiz-adv-x="749" 
d="M550 -12l3 14l-326 487l-41 67h-3q5 -51 5 -77v-386l5 -93h-90v598l-6 103l91 5l334 -499l42 -69l3 1q-5 42 -5 82v377l-6 103l91 5v-615q0 -61 -18 -114q-12 -36 -33 -67.5t-55.5 -69.5t-43.5 -49l-49 44q12 17 36.5 45t40.5 52.5t25 55.5z" />
    <glyph glyph-name="eng" unicode="&#x14b;" horiz-adv-x="581" 
d="M358 -194l-51 44q7 9 22.5 27.5t21.5 26t15.5 21t15.5 25.5t11 27q14 38 14 108v224q0 61 -25 91t-81 30q-58 0 -122 -34q2 -20 2 -95v-218l5 -83h-98v397l-6 103l92 5l3 -56q76 61 165 61q158 0 158 -168v-252q0 -73 -21 -120q-21 -49 -121 -164z" />
    <glyph glyph-name="Omacron" unicode="&#x14c;" horiz-adv-x="751" 
d="M384 60q101 0 151.5 77.5t50.5 200.5q0 46 -6.5 87.5t-22.5 81.5t-40.5 69t-63 46.5t-86.5 17.5q-101 0 -151.5 -77.5t-50.5 -200.5q0 -46 6.5 -87.5t22.5 -81.5t40.5 -69t63 -46.5t86.5 -17.5zM364 -10q-98 0 -168 50.5t-101.5 127.5t-31.5 169q0 172 81 272.5
t243 100.5q98 0 168 -50.5t101.5 -127.5t31.5 -169q0 -172 -81 -272.5t-243 -100.5zM242 816v74h274v-74h-274z" />
    <glyph glyph-name="omacron" unicode="&#x14d;" horiz-adv-x="598" 
d="M291 441q-62 0 -100.5 -49t-38.5 -120q0 -105 40 -158.5t115 -53.5q61 0 100 49.5t39 119.5q0 105 -40 158.5t-115 53.5zM286 -10q-107 0 -168 65.5t-61 172.5q0 132 68 207t187 75q107 0 168 -65t61 -172q0 -132 -68 -207.5t-187 -75.5zM156 649v74h274v-74h-274z" />
    <glyph glyph-name="Obreve" unicode="&#x14e;" horiz-adv-x="751" 
d="M384 60q101 0 151.5 77.5t50.5 200.5q0 46 -6.5 87.5t-22.5 81.5t-40.5 69t-63 46.5t-86.5 17.5q-101 0 -151.5 -77.5t-50.5 -200.5q0 -46 6.5 -87.5t22.5 -81.5t40.5 -69t63 -46.5t86.5 -17.5zM364 -10q-98 0 -168 50.5t-101.5 127.5t-31.5 169q0 172 81 272.5
t243 100.5q98 0 168 -50.5t101.5 -127.5t31.5 -169q0 -172 -81 -272.5t-243 -100.5zM377 775q-52 0 -95 34t-60 96l57 20q29 -74 98 -74q70 0 97 74l56 -19q-17 -62 -59 -96.5t-94 -34.5z" />
    <glyph glyph-name="obreve" unicode="&#x14f;" horiz-adv-x="598" 
d="M291 441q-62 0 -100.5 -49t-38.5 -120q0 -105 40 -158.5t115 -53.5q61 0 100 49.5t39 119.5q0 105 -40 158.5t-115 53.5zM286 -10q-107 0 -168 65.5t-61 172.5q0 132 68 207t187 75q107 0 168 -65t61 -172q0 -132 -68 -207.5t-187 -75.5zM297 610q-52 0 -95 34t-60 96
l57 20q29 -74 98 -74q70 0 97 74l56 -19q-17 -62 -59 -96.5t-94 -34.5z" />
    <glyph glyph-name="Ohungarumlaut" unicode="&#x150;" horiz-adv-x="751" 
d="M384 60q101 0 151.5 77.5t50.5 200.5q0 46 -6.5 87.5t-22.5 81.5t-40.5 69t-63 46.5t-86.5 17.5q-101 0 -151.5 -77.5t-50.5 -200.5q0 -46 6.5 -87.5t22.5 -81.5t40.5 -69t63 -46.5t86.5 -17.5zM364 -10q-98 0 -168 50.5t-101.5 127.5t-31.5 169q0 172 81 272.5
t243 100.5q98 0 168 -50.5t101.5 -127.5t31.5 -169q0 -172 -81 -272.5t-243 -100.5zM275 763l-40 42l160 181l67 -69zM466 763l-40 42l160 181l67 -69z" />
    <glyph glyph-name="ohungarumlaut" unicode="&#x151;" horiz-adv-x="598" 
d="M291 441q-62 0 -100.5 -49t-38.5 -120q0 -105 40 -158.5t115 -53.5q61 0 100 49.5t39 119.5q0 105 -40 158.5t-115 53.5zM286 -10q-107 0 -168 65.5t-61 172.5q0 132 68 207t187 75q107 0 168 -65t61 -172q0 -132 -68 -207.5t-187 -75.5zM183 593l-40 42l160 181l67 -69z
M374 593l-40 42l160 181l67 -69z" />
    <glyph glyph-name="OE" unicode="&#x152;" horiz-adv-x="993" 
d="M392 710q49 0 124 -10h417l-5 -79l-324 9v-240l279 5l-5 -86l-274 8v-246l329 9l-5 -80h-412q-70 -10 -124 -10q-84 0 -148.5 29t-103.5 78.5t-58.5 110t-19.5 129.5q0 173 82 273t248 100zM398 61q56 0 108 10v553q-53 16 -126 16q-110 0 -163 -77t-53 -201
q0 -58 11.5 -108.5t37 -95.5t73 -71t112.5 -26z" />
    <glyph glyph-name="oe" unicode="&#x153;" horiz-adv-x="912" 
d="M656 510q114 0 165.5 -73.5t35.5 -189.5h-347q9 -177 178 -177q31 0 65.5 7t54.5 13l19 7v-73q-64 -34 -169 -34q-120 0 -186 72q-74 -72 -187 -72q-107 0 -168 65.5t-61 172.5q0 132 68 207t187 75q113 0 171 -74q66 74 174 74zM306 60q78 0 122 80q-13 40 -13 92
q0 60 15 108q-4 13 -11.5 26t-23 32t-43 31t-62.5 12q-62 0 -100.5 -49t-38.5 -120q0 -105 40 -158.5t115 -53.5zM652 442q-56 0 -92.5 -36t-46.5 -95l249 4q2 55 -25.5 91t-84.5 36z" />
    <glyph glyph-name="Racute" unicode="&#x154;" horiz-adv-x="635" 
d="M103 0v598l-6 102h196q127 0 195 -56t68 -151q0 -74 -38 -122t-100 -66l134 -229l52 -76l-113 -5l-160 283h-130v-185l5 -93h-103zM279 628h-78v-280h102q72 0 112.5 38.5t40.5 101.5q0 140 -177 140zM280 761l-40 42l160 181l67 -69z" />
    <glyph glyph-name="racute" unicode="&#x155;" horiz-adv-x="439" 
d="M88 0v397l-6 103l94 5l2 -76q69 81 126 81q24 0 42.5 -5.5t45 -19.5t33.5 -17l-35 -78q-15 6 -36 17t-36.5 16.5t-33.5 5.5q-41 0 -105 -62q2 -12 2 -71v-213l5 -83h-98zM225 590l-40 42l160 181l67 -69z" />
    <glyph glyph-name="Rcommaaccent" unicode="&#x156;" horiz-adv-x="635" 
d="M103 0v598l-6 102h196q127 0 195 -56t68 -151q0 -74 -38 -122t-100 -66l134 -229l52 -76l-113 -5l-160 283h-130v-185l5 -93h-103zM279 628h-78v-280h102q72 0 112.5 38.5t40.5 101.5q0 140 -177 140zM235 -319q77 52 85 116q-26 2 -43.5 19t-17.5 42q0 27 18 43.5
t46 16.5t46.5 -18.5t18.5 -53.5q0 -62 -33 -119.5t-88 -86.5z" />
    <glyph glyph-name="rcommaaccent" unicode="&#x157;" horiz-adv-x="440" 
d="M88 0v397l-6 103l94 5l2 -76q69 81 126 81q24 0 42.5 -5.5t45 -19.5t33.5 -17l-35 -78q-15 6 -36 17t-36.5 16.5t-33.5 5.5q-41 0 -105 -62q2 -12 2 -71v-213l5 -83h-98zM62 -319q77 52 85 116q-26 2 -43.5 19t-17.5 42q0 27 18 43.5t46 16.5t46.5 -18.5t18.5 -53.5
q0 -62 -33 -119.5t-88 -86.5z" />
    <glyph glyph-name="Rcaron" unicode="&#x158;" horiz-adv-x="635" 
d="M103 0v598l-6 102h196q127 0 195 -56t68 -151q0 -74 -38 -122t-100 -66l134 -229l52 -76l-113 -5l-160 283h-130v-185l5 -93h-103zM279 628h-78v-280h102q72 0 112.5 38.5t40.5 101.5q0 140 -177 140zM422 945l46 -51l-155 -128h-14l-154 126l46 53l115 -78z" />
    <glyph glyph-name="rcaron" unicode="&#x159;" horiz-adv-x="439" 
d="M88 0v397l-6 103l94 5l2 -76q69 81 126 81q24 0 42.5 -5.5t45 -19.5t33.5 -17l-35 -78q-15 6 -36 17t-36.5 16.5t-33.5 5.5q-41 0 -105 -62q2 -12 2 -71v-213l5 -83h-98zM377 774l46 -51l-155 -128h-14l-154 126l46 53l115 -78z" />
    <glyph glyph-name="Sacute" unicode="&#x15a;" horiz-adv-x="555" 
d="M289 633q-61 0 -94.5 -26.5t-33.5 -72.5q0 -51 33.5 -81.5t106.5 -58.5q40 -15 64 -25.5t53.5 -28.5t45 -37t26.5 -48t11 -65q0 -94 -70 -147t-197 -53q-49 0 -91.5 6t-60.5 12l-17 7v77q73 -23 169 -23q79 0 124.5 28t45.5 83q0 53 -40 82.5t-126 59.5q-82 29 -128 74.5
t-46 124.5q0 86 64 139t173 53q41 0 100.5 -9t79.5 -11l-14 -80q-24 2 -81 11t-97 9zM262 763l-40 42l160 181l67 -69z" />
    <glyph glyph-name="sacute" unicode="&#x15b;" horiz-adv-x="449" 
d="M217 -10q-35 0 -88.5 9.5t-73.5 11.5l8 82q19 -2 73 -13t86 -11q97 0 97 60q0 29 -27 46.5t-93 40.5q-137 45 -137 155q0 65 43.5 102t113.5 37q39 0 86 -9.5t69 -10.5l-8 -81q-30 2 -74.5 12t-75.5 10q-35 0 -54.5 -15.5t-19.5 -40.5q0 -31 23.5 -47.5t96.5 -42.5
q69 -24 103 -58.5t34 -90.5q0 -68 -48.5 -107t-133.5 -39zM201 587l-40 42l160 181l67 -69z" />
    <glyph glyph-name="Scircumflex" unicode="&#x15c;" horiz-adv-x="555" 
d="M289 633q-61 0 -94.5 -26.5t-33.5 -72.5q0 -51 33.5 -81.5t106.5 -58.5q40 -15 64 -25.5t53.5 -28.5t45 -37t26.5 -48t11 -65q0 -94 -70 -147t-197 -53q-49 0 -91.5 6t-60.5 12l-17 7v77q73 -23 169 -23q79 0 124.5 28t45.5 83q0 53 -40 82.5t-126 59.5q-82 29 -128 74.5
t-46 124.5q0 86 64 139t173 53q41 0 100.5 -9t79.5 -11l-14 -80q-24 2 -81 11t-97 9zM177 762l-46 51l152 126h20l151 -124l-46 -53l-115 78z" />
    <glyph glyph-name="scircumflex" unicode="&#x15d;" horiz-adv-x="449" 
d="M217 -10q-35 0 -88.5 9.5t-73.5 11.5l8 82q19 -2 73 -13t86 -11q97 0 97 60q0 29 -27 46.5t-93 40.5q-137 45 -137 155q0 65 43.5 102t113.5 37q39 0 86 -9.5t69 -10.5l-8 -81q-30 2 -74.5 12t-75.5 10q-35 0 -54.5 -15.5t-19.5 -40.5q0 -31 23.5 -47.5t96.5 -42.5
q69 -24 103 -58.5t34 -90.5q0 -68 -48.5 -107t-133.5 -39zM119 592l-46 51l152 126h20l151 -124l-46 -53l-115 78z" />
    <glyph glyph-name="Scedilla" unicode="&#x15e;" horiz-adv-x="556" 
d="M267 -200q-68 0 -125 34l17 40q49 -21 88 -21q49 0 49 26q0 20 -30 27t-50 -2l-21 25l27 61q-46 1 -85 7t-55 12l-17 6v77q73 -23 169 -23q79 0 124.5 28t45.5 83q0 53 -40 82.5t-126 59.5q-82 29 -128 74.5t-46 124.5q0 86 64 139t173 53q41 0 100.5 -9t79.5 -11
l-14 -80q-24 2 -81 11t-97 9q-61 0 -94.5 -26.5t-33.5 -72.5q0 -51 33.5 -81.5t106.5 -58.5q40 -15 64 -25.5t53.5 -28.5t45 -37t26.5 -48t11 -65q0 -87 -60 -139t-170 -59l5 -36q46 -3 73 -22.5t27 -51.5q0 -34 -31 -58t-78 -24z" />
    <glyph glyph-name="scedilla" unicode="&#x15f;" horiz-adv-x="449" 
d="M223 -202q-68 0 -125 34l17 40q49 -21 88 -21q49 0 49 26q0 20 -30 27t-50 -2l-21 25l28 65q-19 2 -59.5 9.5t-64.5 9.5l8 82q19 -2 73 -13t86 -11q97 0 97 60q0 29 -27 46.5t-93 40.5q-137 45 -137 155q0 65 43.5 102t113.5 37q39 0 86 -9.5t69 -10.5l-8 -81
q-30 2 -74.5 12t-75.5 10q-35 0 -54.5 -15.5t-19.5 -40.5q0 -31 23.5 -47.5t96.5 -42.5q69 -24 103 -58.5t34 -90.5q0 -65 -45.5 -104t-126.5 -42l5 -36q46 -3 73 -22.5t27 -51.5q0 -34 -31 -58t-78 -24z" />
    <glyph glyph-name="Scaron" unicode="&#x160;" horiz-adv-x="555" 
d="M289 633q-61 0 -94.5 -26.5t-33.5 -72.5q0 -51 33.5 -81.5t106.5 -58.5q40 -15 64 -25.5t53.5 -28.5t45 -37t26.5 -48t11 -65q0 -94 -70 -147t-197 -53q-49 0 -91.5 6t-60.5 12l-17 7v77q73 -23 169 -23q79 0 124.5 28t45.5 83q0 53 -40 82.5t-126 59.5q-82 29 -128 74.5
t-46 124.5q0 86 64 139t173 53q41 0 100.5 -9t79.5 -11l-14 -80q-24 2 -81 11t-97 9zM417 957l46 -51l-155 -128h-14l-154 126l46 53l115 -78z" />
    <glyph glyph-name="scaron" unicode="&#x161;" horiz-adv-x="449" 
d="M217 -10q-35 0 -88.5 9.5t-73.5 11.5l8 82q19 -2 73 -13t86 -11q97 0 97 60q0 29 -27 46.5t-93 40.5q-137 45 -137 155q0 65 43.5 102t113.5 37q39 0 86 -9.5t69 -10.5l-8 -81q-30 2 -74.5 12t-75.5 10q-35 0 -54.5 -15.5t-19.5 -40.5q0 -31 23.5 -47.5t96.5 -42.5
q69 -24 103 -58.5t34 -90.5q0 -68 -48.5 -107t-133.5 -39zM351 793l46 -51l-155 -128h-14l-154 126l46 53l115 -78z" />
    <glyph glyph-name="Tcommaaccent" unicode="&#x162;" horiz-adv-x="587" 
d="M246 0v629l-145 -4l-79 -5l3 80h542l-4 -81q-40 5 -80 6l-139 4v-536l5 -93h-103zM206 -320q77 52 85 116q-26 2 -43.5 19t-17.5 42q0 27 18 43.5t46 16.5t46.5 -18.5t18.5 -53.5q0 -62 -33 -119.5t-88 -86.5z" />
    <glyph glyph-name="tcommaaccent" unicode="&#x163;" horiz-adv-x="418" 
d="M109 432l-70 1v56l67 11l51 116h39v-116h185l-3 -72l-182 2v-271q0 -95 91 -95q23 0 46.5 4t35.5 8l12 4v-69q-46 -21 -115 -21q-162 0 -162 165v196zM143 -319q77 52 85 116q-26 2 -43.5 19t-17.5 42q0 27 18 43.5t46 16.5t46.5 -18.5t18.5 -53.5q0 -62 -33 -119.5
t-88 -86.5z" />
    <glyph glyph-name="Tcaron" unicode="&#x164;" horiz-adv-x="585" 
d="M245 0v629l-145 -4l-79 -5l3 80h542l-4 -81q-40 5 -80 6l-139 4v-536l5 -93h-103zM410 948l46 -51l-155 -128h-14l-154 126l46 53l115 -78z" />
    <glyph glyph-name="tcaron" unicode="&#x165;" horiz-adv-x="417" 
d="M323 523l-41 26q33 44 37 100q-25 -1 -43 13.5t-18 41.5q0 26 17 41.5t43 15.5q63 0 63 -72q0 -94 -58 -166zM109 432l-70 1v56l67 11l51 116h39v-116h185l-3 -72l-182 2v-271q0 -95 91 -95q23 0 46.5 4t35.5 8l12 4v-69q-46 -21 -115 -21q-162 0 -162 165v196z" />
    <glyph glyph-name="Tbar" unicode="&#x166;" horiz-adv-x="610" 
d="M107 325v74h150v230l-145 -4l-79 -5l3 80h542l-4 -81q-40 5 -80 6l-139 4v-230h150v-74h-150v-232l5 -93h-103v325h-150z" />
    <glyph glyph-name="tbar" unicode="&#x167;" horiz-adv-x="419" 
d="M110 432l-70 1v56l67 11l51 116h39v-116h185l-3 -72l-182 2v-116h159v-59h-159v-96q0 -95 91 -95q23 0 46.5 4t35.5 8l12 4v-69q-46 -21 -115 -21q-162 0 -162 165v100h-53v59h53v37z" />
    <glyph glyph-name="Utilde" unicode="&#x168;" horiz-adv-x="735" 
d="M640 706v-455q0 -117 -71.5 -191t-208.5 -74q-126 0 -195.5 71.5t-69.5 194.5v346l-6 103l104 5v-455q0 -86 46 -138t136 -52q85 0 131 52.5t46 137.5v347l-6 103zM443 775q-35 0 -73 28t-56 28q-39 0 -52 -49l-66 16q9 56 39.5 84.5t71.5 28.5q35 0 73 -28t59 -28
q36 0 47 49l64 -16q-9 -57 -38 -85t-69 -28z" />
    <glyph glyph-name="utilde" unicode="&#x169;" horiz-adv-x="583" 
d="M408 -4l-4 53q-74 -59 -166 -59q-155 0 -155 168v259l-5 83h98v-317q0 -113 101 -113q64 0 125 33v314l-5 83h98v-396l6 -103zM368 611q-35 0 -73 28t-56 28q-39 0 -52 -49l-66 16q9 56 39.5 84.5t71.5 28.5q35 0 73 -28t59 -28q36 0 47 49l64 -16q-9 -57 -38 -85
t-69 -28z" />
    <glyph glyph-name="Umacron" unicode="&#x16a;" horiz-adv-x="735" 
d="M640 706v-455q0 -117 -71.5 -191t-208.5 -74q-126 0 -195.5 71.5t-69.5 194.5v346l-6 103l104 5v-455q0 -86 46 -138t136 -52q85 0 131 52.5t46 137.5v347l-6 103zM238 816v74h274v-74h-274z" />
    <glyph glyph-name="umacron" unicode="&#x16b;" horiz-adv-x="583" 
d="M408 -4l-4 53q-74 -59 -166 -59q-155 0 -155 168v259l-5 83h98v-317q0 -113 101 -113q64 0 125 33v314l-5 83h98v-396l6 -103zM150 649v74h274v-74h-274z" />
    <glyph glyph-name="Ubreve" unicode="&#x16c;" horiz-adv-x="735" 
d="M640 706v-455q0 -117 -71.5 -191t-208.5 -74q-126 0 -195.5 71.5t-69.5 194.5v346l-6 103l104 5v-455q0 -86 46 -138t136 -52q85 0 131 52.5t46 137.5v347l-6 103zM377 775q-52 0 -95 34t-60 96l57 20q29 -74 98 -74q70 0 97 74l56 -19q-17 -62 -59 -96.5t-94 -34.5z" />
    <glyph glyph-name="ubreve" unicode="&#x16d;" horiz-adv-x="583" 
d="M408 -4l-4 53q-74 -59 -166 -59q-155 0 -155 168v259l-5 83h98v-317q0 -113 101 -113q64 0 125 33v314l-5 83h98v-396l6 -103zM298 610q-52 0 -95 34t-60 96l57 20q29 -74 98 -74q70 0 97 74l56 -19q-17 -62 -59 -96.5t-94 -34.5z" />
    <glyph glyph-name="Uring" unicode="&#x16e;" horiz-adv-x="735" 
d="M640 706v-455q0 -117 -71.5 -191t-208.5 -74q-126 0 -195.5 71.5t-69.5 194.5v346l-6 103l104 5v-455q0 -86 46 -138t136 -52q85 0 131 52.5t46 137.5v347l-6 103zM373 750q-54 0 -89.5 30t-35.5 81t35.5 81t89.5 30t89 -30t35 -81t-35 -81t-89 -30zM373 807q24 0 38 15
t14 39t-14 39t-38 15t-38.5 -15t-14.5 -39t14.5 -39t38.5 -15z" />
    <glyph glyph-name="uring" unicode="&#x16f;" horiz-adv-x="583" 
d="M408 -4l-4 53q-74 -59 -166 -59q-155 0 -155 168v259l-5 83h98v-317q0 -113 101 -113q64 0 125 33v314l-5 83h98v-396l6 -103zM300 599q-54 0 -89.5 30t-35.5 81t35.5 81t89.5 30t89 -30t35 -81t-35 -81t-89 -30zM300 656q24 0 38 15t14 39t-14 39t-38 15t-38.5 -15
t-14.5 -39t14.5 -39t38.5 -15z" />
    <glyph glyph-name="Uhungarumlaut" unicode="&#x170;" horiz-adv-x="735" 
d="M640 706v-455q0 -117 -71.5 -191t-208.5 -74q-126 0 -195.5 71.5t-69.5 194.5v346l-6 103l104 5v-455q0 -86 46 -138t136 -52q85 0 131 52.5t46 137.5v347l-6 103zM276 762l-40 42l160 181l67 -69zM467 762l-40 42l160 181l67 -69z" />
    <glyph glyph-name="uhungarumlaut" unicode="&#x171;" horiz-adv-x="583" 
d="M408 -4l-4 53q-74 -59 -166 -59q-155 0 -155 168v259l-5 83h98v-317q0 -113 101 -113q64 0 125 33v314l-5 83h98v-396l6 -103zM189 590l-40 42l160 181l67 -69zM380 590l-40 42l160 181l67 -69z" />
    <glyph glyph-name="Uogonek" unicode="&#x172;" horiz-adv-x="737" 
d="M380 -198q-39 0 -65 22t-26 58q0 64 73 104h-1q-126 0 -195.5 71.5t-69.5 194.5v346l-6 103l104 5v-455q0 -86 46 -138t136 -52q85 0 131 52.5t46 137.5v347l-6 103l94 5v-455q0 -99 -51.5 -168.5t-152.5 -89.5q-31 -15 -51.5 -40.5t-20.5 -49.5q0 -45 53 -45
q13 0 28.5 3t24.5 5l9 3v-45q-42 -22 -100 -22z" />
    <glyph glyph-name="uogonek" unicode="&#x173;" horiz-adv-x="583" 
d="M408 -4l-4 53q-74 -59 -166 -59q-155 0 -155 168v259l-5 83h98v-317q0 -113 101 -113q64 0 125 33v314l-5 83h98v-396l6 -103h1q-34 -15 -56.5 -41.5t-22.5 -51.5q0 -45 53 -45q13 0 28.5 2.5t24.5 5.5l9 3v-45q-42 -22 -100 -22q-39 0 -65 22t-26 58q0 71 86 111z" />
    <glyph glyph-name="Wcircumflex" unicode="&#x174;" horiz-adv-x="946" 
d="M427 700l94 5l116 -446q9 -36 17 -74t12 -59l3 -20h4q13 70 37 153l79 267q22 73 33 174h95q-15 -108 -53 -221l-152 -477l-99 -6l-116 445q-8 29 -14.5 62t-9.5 51l-3 19h-3q-9 -64 -25 -131l-107 -440l-107 -6l-171 583l-39 118l105 6l126 -447l35 -151h4q15 86 31 152
zM361 763l-46 51l152 126h20l151 -124l-46 -53l-115 78z" />
    <glyph glyph-name="wcircumflex" unicode="&#x175;" horiz-adv-x="772" 
d="M687 298l-102 -298l-92 -5l-91 305l-24 103h-4q-6 -55 -18 -102l-74 -301l-101 -5l-123 402l-35 103l95 5l88 -297q8 -28 15.5 -59.5t10.5 -48.5l3 -18h4q5 59 23 128l49 189l22 101l93 7l84 -291l33 -132h4q15 65 33 130l38 132q22 85 27 154h87q-3 -76 -45 -202z
M266 591l-46 51l152 126h20l151 -124l-46 -53l-115 78z" />
    <glyph glyph-name="Ycircumflex" unicode="&#x176;" horiz-adv-x="579" 
d="M240 0v278l-186 330l-58 92l112 5l194 -354l119 230q17 33 30.5 63t18.5 43l4 13h97q-22 -64 -80 -158l-153 -263v-186l5 -93h-103zM174 761l-46 51l152 126h20l151 -124l-46 -53l-115 78z" />
    <glyph glyph-name="ycircumflex" unicode="&#x177;" horiz-adv-x="496" 
d="M210 -254l-92 4q10 69 79 227l8 19l-145 401l-42 103l107 5l97 -294q9 -28 17 -59.5t12 -49.5l4 -18h4q13 65 38 136l34 99q41 118 48 181h88q-6 -68 -58 -202l-120 -307q-29 -74 -48.5 -135.5t-24.5 -85.5zM141 592l-46 51l152 126h20l151 -124l-46 -53l-115 78z" />
    <glyph glyph-name="Ydieresis" unicode="&#x178;" horiz-adv-x="579" 
d="M240 0v278l-186 330l-58 92l112 5l194 -354l119 230q17 33 30.5 63t18.5 43l4 13h97q-22 -64 -80 -158l-153 -263v-186l5 -93h-103zM195 775q-26 0 -42.5 16t-16.5 41q0 26 18 41t46 15q27 0 42.5 -14.5t15.5 -39.5q0 -27 -17 -43t-46 -16zM395 775q-26 0 -42.5 16
t-16.5 41q0 26 18 41t46 15q27 0 42.5 -14.5t15.5 -39.5q0 -27 -17 -43t-46 -16z" />
    <glyph glyph-name="Zacute" unicode="&#x179;" horiz-adv-x="573" 
d="M53 621l5 79h470v-10l-349 -618l248 3l97 5l-5 -80h-480v10l348 618l-228 -3zM273 760l-40 42l160 181l67 -69z" />
    <glyph glyph-name="zacute" unicode="&#x17a;" horiz-adv-x="481" 
d="M53 421l7 79h372v-10l-255 -418l190 3l69 4l-8 -79h-387v10l254 418l-160 -3zM191 591l-40 42l160 181l67 -69z" />
    <glyph glyph-name="Zdotaccent" unicode="&#x17b;" horiz-adv-x="573" 
d="M53 621l5 79h470v-10l-349 -618l248 3l97 5l-5 -80h-480v10l348 618l-228 -3zM287 775q-24 0 -41.5 17t-17.5 42q0 24 18.5 41.5t42.5 17.5t41 -17t17 -42q0 -24 -18 -41.5t-42 -17.5z" />
    <glyph glyph-name="zdotaccent" unicode="&#x17c;" horiz-adv-x="481" 
d="M53 421l7 79h372v-10l-255 -418l190 3l69 4l-8 -79h-387v10l254 418l-160 -3zM244 611q-24 0 -41.5 17t-17.5 42q0 24 18.5 41.5t42.5 17.5t41 -17t17 -42q0 -24 -18 -41.5t-42 -17.5z" />
    <glyph glyph-name="Zcaron" unicode="&#x17d;" horiz-adv-x="573" 
d="M53 621l5 79h470v-10l-349 -618l248 3l97 5l-5 -80h-480v10l348 618l-228 -3zM396 957l46 -51l-155 -128h-14l-154 126l46 53l115 -78z" />
    <glyph glyph-name="zcaron" unicode="&#x17e;" horiz-adv-x="481" 
d="M53 421l7 79h372v-10l-255 -418l190 3l69 4l-8 -79h-387v10l254 418l-160 -3zM364 789l46 -51l-155 -128h-14l-154 126l46 53l115 -78z" />
    <glyph glyph-name="florin" unicode="&#x192;" horiz-adv-x="429" 
d="M145 -60v491l-116 1v68h117v47q0 102 47 157.5t134 55.5q30 0 75 -9t67 -11l-8 -82q-27 2 -70.5 12.5t-66.5 10.5q-49 0 -67.5 -29.5t-18.5 -80.5v-71h171l-5 -73l-166 2v-465q0 -102 -47 -157.5t-134 -55.5q-30 0 -75 9t-67 11l8 82q27 -2 70.5 -12.5t66.5 -10.5
q49 0 67 29.5t18 80.5z" />
    <glyph glyph-name="Aringacute" unicode="&#x1fa;" horiz-adv-x="622" 
d="M160 176l-8 -25q-30 -91 -39 -151h-87q9 64 49 177l188 520l89 6l216 -583q12 -33 24 -62.5t18 -42.5l7 -13l-103 -6l-66 180h-288zM300 600h-4q-11 -54 -27 -101l-85 -252h238l-91 251zM308 739q-43 0 -71 24t-28 64t28 64t71 24q42 0 70 -24t28 -64t-28 -64t-70 -24z
M308 784q19 0 30 12t11 31q0 18 -11.5 30t-29.5 12q-19 0 -30.5 -12t-11.5 -30q0 -19 11.5 -31t30.5 -12zM308 935l-33 34l132 150l55 -57z" />
    <glyph glyph-name="aringacute" unicode="&#x1fb;" horiz-adv-x="538" 
d="M503 88v-69q-30 -29 -76 -29q-65 0 -81 62q-70 -62 -158 -62q-69 0 -104.5 38t-35.5 94q0 59 41 100.5t120 53.5q55 9 136 9v31q0 63 -26.5 88.5t-85.5 25.5q-40 0 -77.5 -8t-55.5 -16l-17 -8v75q65 37 178 37q180 0 177 -180q0 -19 -1.5 -71t-2 -96t-0.5 -71
q0 -24 21 -24q9 0 21 5t20 10zM217 66q61 0 124 40q0 43 2 127q-76 -6 -112 -15q-48 -12 -68.5 -33t-20.5 -52q0 -29 20 -48t55 -19zM253 570q-51 0 -84.5 28.5t-33.5 76.5t33.5 76.5t84.5 28.5t84 -28.5t33 -76.5t-33 -76.5t-84 -28.5zM253 624q23 0 36 14t13 37
q0 22 -13 36.5t-36 14.5q-22 0 -36 -14.5t-14 -36.5q0 -23 14 -37t36 -14zM248 804l-36 39l147 167l62 -64z" />
    <glyph glyph-name="AEacute" unicode="&#x1fc;" horiz-adv-x="882" 
d="M395 0v159h-229l-4 -8q-47 -82 -71 -151h-95q20 60 88 177l310 523h428l-5 -79l-324 9v-240l279 5l-5 -86l-274 8v-246l329 9l-5 -80h-422zM361 505l-155 -275h189v340q-14 -30 -34 -65zM572 763l-40 42l160 181l67 -69z" />
    <glyph glyph-name="aeacute" unicode="&#x1fd;" horiz-adv-x="840" 
d="M584 510q114 0 165.5 -73.5t35.5 -189.5h-347q9 -177 178 -177q31 0 65.5 7t54.5 13l19 7v-73q-64 -34 -169 -34q-134 0 -198 88q-96 -88 -200 -88q-69 0 -104.5 38t-35.5 94q0 59 41 100.5t120 53.5q55 9 136 9v31q0 64 -28.5 89t-96.5 25q-35 0 -69 -7t-51 -13l-17 -7
v75q65 32 160 32q127 0 170 -71q66 71 171 71zM217 70q76 0 147 50q-21 50 -21 112v1q-76 -6 -112 -15q-48 -12 -68.5 -33t-20.5 -52q0 -29 20.5 -46t54.5 -17zM580 442q-56 0 -92.5 -36t-46.5 -95l249 4q2 55 -25.5 91t-84.5 36zM410 590l-40 42l160 181l67 -69z" />
    <glyph glyph-name="Oslashacute" unicode="&#x1fe;" horiz-adv-x="751" 
d="M362 761l-40 42l160 181l67 -69zM158 -62l-63 37l66 94q-98 98 -98 268q0 172 81 272.5t243 100.5q104 0 178 -58l54 78l63 -38l-65 -94q71 -95 71 -235q0 -172 -81 -272.5t-243 -100.5q-81 0 -145 35zM165 362q0 -136 53 -216l297 431q-56 63 -148 63
q-101 0 -151.5 -77.5t-50.5 -200.5zM384 60q101 0 151.5 77.5t50.5 200.5q0 103 -32 175l-288 -417q47 -36 118 -36z" />
    <glyph glyph-name="oslashacute" unicode="&#x1ff;" horiz-adv-x="598" 
d="M118 -78l-63 37l65 94q-63 65 -63 175q0 132 68 207t187 75q62 0 110 -23l61 88l63 -38l-65 -93q60 -65 60 -171q0 -132 -68 -207.5t-187 -75.5q-58 0 -106 21zM291 441q-62 0 -100.5 -49t-38.5 -120q0 -87 27 -138l196 283q-35 24 -84 24zM446 229q0 80 -25 132
l-195 -280q34 -21 81 -21q61 0 100 49.5t39 119.5zM281 590l-40 42l160 181l67 -69z" />
    <glyph glyph-name="Scommaaccent" unicode="&#x218;" horiz-adv-x="555" 
d="M289 633q-61 0 -94.5 -26.5t-33.5 -72.5q0 -51 33.5 -81.5t106.5 -58.5q40 -15 64 -25.5t53.5 -28.5t45 -37t26.5 -48t11 -65q0 -94 -70 -147t-197 -53q-49 0 -91.5 6t-60.5 12l-17 7v77q73 -23 169 -23q79 0 124.5 28t45.5 83q0 53 -40 82.5t-126 59.5q-82 29 -128 74.5
t-46 124.5q0 86 64 139t173 53q41 0 100.5 -9t79.5 -11l-14 -80q-24 2 -81 11t-97 9zM173 -319q77 52 85 116q-26 2 -43.5 19t-17.5 42q0 27 18 43.5t46 16.5t46.5 -18.5t18.5 -53.5q0 -62 -33 -119.5t-88 -86.5z" />
    <glyph glyph-name="scommaaccent" unicode="&#x219;" horiz-adv-x="449" 
d="M217 -10q-35 0 -88.5 9.5t-73.5 11.5l8 82q19 -2 73 -13t86 -11q97 0 97 60q0 29 -27 46.5t-93 40.5q-137 45 -137 155q0 65 43.5 102t113.5 37q39 0 86 -9.5t69 -10.5l-8 -81q-30 2 -74.5 12t-75.5 10q-35 0 -54.5 -15.5t-19.5 -40.5q0 -31 23.5 -47.5t96.5 -42.5
q69 -24 103 -58.5t34 -90.5q0 -68 -48.5 -107t-133.5 -39zM126 -320q77 52 85 116q-26 2 -43.5 19t-17.5 42q0 27 18 43.5t46 16.5t46.5 -18.5t18.5 -53.5q0 -62 -33 -119.5t-88 -86.5z" />
    <glyph glyph-name="uni021A" unicode="&#x21a;" horiz-adv-x="587" 
d="M246 0v629l-145 -4l-79 -5l3 80h542l-4 -81q-40 5 -80 6l-139 4v-536l5 -93h-103zM206 -320q77 52 85 116q-26 2 -43.5 19t-17.5 42q0 27 18 43.5t46 16.5t46.5 -18.5t18.5 -53.5q0 -62 -33 -119.5t-88 -86.5z" />
    <glyph glyph-name="uni021B" unicode="&#x21b;" horiz-adv-x="418" 
d="M109 432l-70 1v56l67 11l51 116h39v-116h185l-3 -72l-182 2v-271q0 -95 91 -95q23 0 46.5 4t35.5 8l12 4v-69q-46 -21 -115 -21q-162 0 -162 165v196zM143 -319q77 52 85 116q-26 2 -43.5 19t-17.5 42q0 27 18 43.5t46 16.5t46.5 -18.5t18.5 -53.5q0 -62 -33 -119.5
t-88 -86.5z" />
    <glyph glyph-name="circumflex" unicode="&#x2c6;" horiz-adv-x="384" 
d="M76 538l-46 51l152 126h20l151 -124l-46 -53l-115 78z" />
    <glyph glyph-name="caron" unicode="&#x2c7;" horiz-adv-x="384" 
d="M306 722l46 -51l-155 -128h-14l-154 126l46 53l115 -78z" />
    <glyph glyph-name="breve" unicode="&#x2d8;" horiz-adv-x="398" 
d="M199 519q-52 0 -95 34t-60 96l57 20q29 -74 98 -74q70 0 97 74l56 -19q-17 -62 -59 -96.5t-94 -34.5z" />
    <glyph glyph-name="dotaccent" unicode="&#x2d9;" horiz-adv-x="186" 
d="M92 508q-24 0 -41.5 17t-17.5 42q0 24 18.5 41.5t42.5 17.5t41 -17t17 -42q0 -24 -18 -41.5t-42 -17.5z" />
    <glyph glyph-name="ring" unicode="&#x2da;" horiz-adv-x="308" 
d="M154 505q-54 0 -89.5 30t-35.5 81t35.5 81t89.5 30t89 -30t35 -81t-35 -81t-89 -30zM154 562q24 0 38 15t14 39t-14 39t-38 15t-38.5 -15t-14.5 -39t14.5 -39t38.5 -15z" />
    <glyph glyph-name="ogonek" unicode="&#x2db;" horiz-adv-x="213" 
d="M115 -194q-39 0 -65 22t-26 58q0 74 94 114h61q-34 -15 -56.5 -41.5t-22.5 -51.5q0 -45 53 -45q13 0 28.5 3t24.5 5l9 3v-45q-42 -22 -100 -22z" />
    <glyph glyph-name="tilde" unicode="&#x2dc;" horiz-adv-x="424" 
d="M285 531q-35 0 -73 28t-56 28q-39 0 -52 -49l-66 16q9 56 39.5 84.5t71.5 28.5q35 0 73 -28t59 -28q36 0 47 49l64 -16q-9 -57 -38 -85t-69 -28z" />
    <glyph glyph-name="hungarumlaut" unicode="&#x2dd;" horiz-adv-x="507" 
d="M84 501l-40 42l160 181l67 -69zM275 501l-40 42l160 181l67 -69z" />
    <glyph glyph-name="afii10023" unicode="&#x401;" horiz-adv-x="590" 
d="M103 0v598l-6 102h433l-5 -79q-49 5 -97 6l-227 3v-240l279 5l-5 -86l-274 8v-246l250 3l79 6l-5 -80h-422zM217 776q-26 0 -42.5 16t-16.5 41q0 26 18 41t46 15q27 0 42.5 -14.5t15.5 -39.5q0 -27 -17 -43t-46 -16zM417 776q-26 0 -42.5 16t-16.5 41q0 26 18 41t46 15
q27 0 42.5 -14.5t15.5 -39.5q0 -27 -17 -43t-46 -16z" />
    <glyph glyph-name="afii10051" unicode="&#x402;" horiz-adv-x="764" 
d="M245 0v629l-145 -4l-79 -5l3 80h542l-4 -81q-40 5 -80 6l-139 4v-197q64 18 138 18q107 0 175 -53t68 -162q0 -174 -192 -247l-37 68q69 31 100 71.5t31 109.5q0 65 -46 99t-114 34q-76 0 -123 -10v-267l5 -93h-103z" />
    <glyph glyph-name="afii10052" unicode="&#x403;" horiz-adv-x="517" 
d="M103 0v598l-6 102h403l-5 -77q-33 4 -69 4l-225 2v-536l5 -93h-103zM253 731l-40 42l160 181l67 -69z" />
    <glyph glyph-name="afii10053" unicode="&#x404;" horiz-adv-x="596" 
d="M365 633q-80 0 -133.5 -64.5t-63.5 -179.5l294 6v-83l-296 4q6 -112 66 -178t171 -66q28 0 63 5t56 11l21 5v-78q-61 -25 -163 -25q-143 0 -230.5 94.5t-87.5 244.5q0 176 82.5 280t236.5 104q28 0 57 -3.5t61 -9t49 -7.5l-14 -80q-1 0 -66 10t-103 10z" />
    <glyph glyph-name="afii10054" unicode="&#x405;" horiz-adv-x="555" 
d="M289 633q-61 0 -94.5 -26.5t-33.5 -72.5q0 -51 33.5 -81.5t106.5 -58.5q40 -15 64 -25.5t53.5 -28.5t45 -37t26.5 -48t11 -65q0 -94 -70 -147t-197 -53q-49 0 -91.5 6t-60.5 12l-17 7v77q73 -23 169 -23q79 0 124.5 28t45.5 83q0 53 -40 82.5t-126 59.5q-82 29 -128 74.5
t-46 124.5q0 86 64 139t173 53q41 0 100.5 -9t79.5 -11l-14 -80q-24 2 -81 11t-97 9z" />
    <glyph glyph-name="afii10055" unicode="&#x406;" horiz-adv-x="304" 
d="M103 0v598l-6 103l104 5v-613l5 -93h-103z" />
    <glyph glyph-name="afii10056" unicode="&#x407;" horiz-adv-x="304" 
d="M103 0v598l-6 103l104 5v-613l5 -93h-103zM53 796q-26 0 -42.5 16t-16.5 41q0 26 18 41t46 15q27 0 42.5 -14.5t15.5 -39.5q0 -27 -17 -43t-46 -16zM253 796q-26 0 -42.5 16t-16.5 41q0 26 18 41t46 15q27 0 42.5 -14.5t15.5 -39.5q0 -27 -17 -43t-46 -16z" />
    <glyph glyph-name="afii10057" unicode="&#x408;" horiz-adv-x="303" 
d="M103 90v508l-6 103l104 5v-615q0 -61 -18 -114q-12 -33 -32 -62.5t-56 -71.5t-44 -52l-60 49q11 15 38 47.5t41.5 55.5t22.5 50q10 37 10 97z" />
    <glyph glyph-name="afii10058" unicode="&#x409;" horiz-adv-x="976" 
d="M192 700h389v-247h93q129 0 196 -57.5t67 -164.5q0 -98 -71.5 -164.5t-181.5 -66.5h-201v626h-207q-5 -70 -8.5 -114t-9.5 -103t-12.5 -95.5t-16.5 -82.5t-22 -74.5t-29 -59t-37.5 -49.5t-46.5 -33.5t-58 -21.5l-29 85q30 7 53.5 24.5t40.5 40.5t30 66t21.5 83.5
t16 111.5t12.5 132.5t11 163.5zM581 378v-303h103q72 0 112.5 38.5t40.5 103.5q0 73 -43.5 117t-133.5 44h-79z" />
    <glyph glyph-name="afii10059" unicode="&#x40a;" horiz-adv-x="1028" 
d="M535 0v327h-334v-234l5 -93h-103v598l-6 103l104 5v-305h334v197l-6 103l104 5v-253h93q129 0 196 -57.5t67 -164.5q0 -98 -71.5 -164.5t-181.5 -66.5h-201zM633 378v-303h103q72 0 112.5 38.5t40.5 103.5q0 73 -43.5 117t-133.5 44h-79z" />
    <glyph glyph-name="afii10060" unicode="&#x40b;" horiz-adv-x="770" 
d="M245 0v629l-145 -4l-79 -5l3 80h542l-4 -81q-40 5 -80 6l-139 4v-197q66 18 122 18q249 0 249 -231v-219h-98v209q0 161 -163 161q-25 0 -52.5 -2t-42.5 -4l-15 -3v-268l5 -93h-103z" />
    <glyph glyph-name="afii10061" unicode="&#x40c;" horiz-adv-x="628" 
d="M103 0v598l-6 103l104 5v-311h70q102 132 142 190t72 115h102q-37 -66 -86 -134.5t-157 -200.5l220 -295q11 -15 26.5 -32.5t25.5 -27.5l9 -10l-119 -5l-243 327h-62v-229l5 -93h-103zM325 749l-40 42l160 181l67 -69z" />
    <glyph glyph-name="afii10062" unicode="&#x40e;" horiz-adv-x="576" 
d="M309 783q-112 0 -184 70l54 68q4 -4 16 -15t17 -15t15.5 -12.5t18 -12t18 -8t21.5 -6.5t24 -2q15 0 28.5 3.5t22 6.5t23 13t18 13t20 18t18.5 17l54 -68q-28 -27 -77 -48.5t-107 -21.5zM278 0h-99q31 76 77 166l-198 431l-53 103l106 3l152 -336l45 -113h3q15 51 39 109
l72 178q17 43 29.5 82.5t16.5 58.5l4 18h90q-18 -85 -81 -225l-123 -279q-30 -69 -50 -118t-25 -64z" />
    <glyph glyph-name="afii10145" unicode="&#x40f;" horiz-adv-x="756" 
d="M103 0v598l-6 103l104 5v-632h354v524l-6 103l104 5v-613l5 -93h-225v-120l5 -90l-90 -6l-8 216h-237z" />
    <glyph glyph-name="afii10017" unicode="&#x410;" horiz-adv-x="622" 
d="M160 176l-8 -25q-30 -91 -39 -151h-87q9 64 49 177l188 520l89 6l216 -583q12 -33 24 -62.5t18 -42.5l7 -13l-103 -6l-66 180h-288zM300 600h-4q-11 -54 -27 -101l-85 -252h238l-91 251z" />
    <glyph glyph-name="afii10018" unicode="&#x411;" horiz-adv-x="607" 
d="M103 0v598l-6 102h413l-5 -80q-41 4 -93 5l-211 4v-206h92q126 0 194.5 -55.5t68.5 -144.5q0 -104 -71.5 -163.5t-191.5 -59.5h-190zM201 350v-278h84q84 0 127.5 37.5t43.5 102.5q0 138 -171 138h-84z" />
    <glyph glyph-name="afii10019" unicode="&#x412;" horiz-adv-x="615" 
d="M103 0v598l-6 102h210q109 0 164 -47.5t55 -128.5q0 -52 -27.5 -93.5t-70.5 -61.5v-2q60 -16 94 -61t34 -101q0 -98 -66.5 -151.5t-181.5 -53.5h-205zM317 331h-118v-260h117q64 0 102.5 35t38.5 97q0 58 -37.5 93t-102.5 35zM296 629h-97v-226h166q3 1 7 4t14.5 13
t19 22t15 31.5t6.5 41.5q0 114 -131 114z" />
    <glyph glyph-name="afii10020" unicode="&#x413;" horiz-adv-x="517" 
d="M103 0v598l-6 102h403l-5 -77q-33 4 -69 4l-225 2v-536l5 -93h-103z" />
    <glyph glyph-name="afii10021" unicode="&#x414;" horiz-adv-x="726" 
d="M19 -206l-10 278h50q31 38 53.5 93.5t35 104.5t22 135t12.5 136.5t9 158.5h405v-628h93v-182l5 -90l-85 -6l-8 206h-502v-110l5 -90zM273 628q-10 -202 -34 -332t-80 -224h339v556h-225z" />
    <glyph glyph-name="afii10022" unicode="&#x415;" horiz-adv-x="590" 
d="M103 0v598l-6 102h433l-5 -79q-49 5 -97 6l-227 3v-240l279 5l-5 -86l-274 8v-246l250 3l79 6l-5 -80h-422z" />
    <glyph glyph-name="afii10024" unicode="&#x416;" horiz-adv-x="944" 
d="M424 0v328h-62l-238 -333l-117 5q34 35 63 75l211 290q-116 144 -160.5 207t-79.5 127l104 6q26 -49 36.5 -68.5t54.5 -81.5t118 -158h70v201l-6 103l104 5v-309h73q74 91 118 152.5t58.5 88.5t32.5 67l100 -6q-30 -55 -45 -80t-65 -93t-129 -161l215 -295
q11 -15 25.5 -32.5t24.5 -27.5l9 -10l-117 -5l-238 333h-62v-235l5 -93h-103z" />
    <glyph glyph-name="afii10025" unicode="&#x417;" horiz-adv-x="520" 
d="M199 67q81 0 119.5 36t38.5 98q0 61 -35.5 94.5t-103.5 33.5h-70v73h77q59 0 89.5 31t30.5 83q0 54 -29 88t-92 34q-32 0 -91 -9.5t-67 -10.5l-13 75q16 2 50 7.5t64.5 9t61.5 3.5q108 0 162 -51t54 -137q0 -54 -29 -96t-84 -61v-3q58 -11 91.5 -56t33.5 -105
q0 -94 -67 -154t-188 -60q-42 0 -82.5 6t-59.5 12l-19 7v75q72 -23 158 -23z" />
    <glyph glyph-name="afii10026" unicode="&#x418;" horiz-adv-x="766" 
d="M103 0v598l-6 103l104 5v-478q0 -27 -2 -54.5t-4 -41.5l-2 -14l5 -1q22 52 50 97l322 487l93 5v-613l5 -93h-103v492q0 23 1.5 46t3.5 34l2 12l-4 1q-14 -42 -45 -91l-327 -494h-93z" />
    <glyph glyph-name="afii10027" unicode="&#x419;" horiz-adv-x="766" 
d="M394 787q-111 0 -184 71l54 64q25 -23 39.5 -34t39.5 -21.5t51 -10.5q36 0 64.5 16.5t65.5 49.5l54 -64q-73 -71 -184 -71zM103 0v598l-6 103l104 5v-478q0 -27 -2 -54.5t-4 -41.5l-2 -14l5 -1q21 53 50 97l322 487l93 5v-613l5 -93h-103v492q0 23 1.5 46t3.5 34l2 12
l-4 1q-13 -43 -45 -91l-327 -494h-93z" />
    <glyph glyph-name="afii10028" unicode="&#x41a;" horiz-adv-x="628" 
d="M103 0v598l-6 103l104 5v-311h70q102 132 142 190t72 115h102q-37 -66 -86 -134.5t-157 -200.5l220 -295q11 -15 26.5 -32.5t25.5 -27.5l9 -10l-119 -5l-243 327h-62v-229l5 -93h-103z" />
    <glyph glyph-name="afii10029" unicode="&#x41b;" horiz-adv-x="682" 
d="M190 700h389v-607l5 -93h-103v626h-207q-5 -70 -8.5 -114t-9.5 -103t-12.5 -95.5t-16.5 -82.5t-22 -74.5t-29 -59t-37.5 -49.5t-46.5 -33.5t-58 -21.5l-29 85q30 7 53.5 24.5t40.5 40.5t30 66t21.5 83.5t16 111.5t12.5 132.5t11 163.5z" />
    <glyph glyph-name="afii10030" unicode="&#x41c;" horiz-adv-x="906" 
d="M451 170h-14l-208 313q-11 16 -22 34.5t-16 28.5l-5 11l-3 -1q4 -41 4 -90v-383l5 -83h-89v587l-6 114l90 5l222 -335l40 -67h3q21 40 40 69l215 328l96 5v-613l5 -93h-101v488l5 86l-4 1q-20 -43 -45 -80z" />
    <glyph glyph-name="afii10031" unicode="&#x41d;" horiz-adv-x="756" 
d="M555 0v325h-354v-232l5 -93h-103v598l-6 103l104 5v-307h354v199l-6 103l104 5v-613l5 -93h-103z" />
    <glyph glyph-name="afii10032" unicode="&#x41e;" horiz-adv-x="751" 
d="M384 60q101 0 151.5 77.5t50.5 200.5q0 46 -6.5 87.5t-22.5 81.5t-40.5 69t-63 46.5t-86.5 17.5q-101 0 -151.5 -77.5t-50.5 -200.5q0 -46 6.5 -87.5t22.5 -81.5t40.5 -69t63 -46.5t86.5 -17.5zM364 -10q-98 0 -168 50.5t-101.5 127.5t-31.5 169q0 172 81 272.5
t243 100.5q98 0 168 -50.5t101.5 -127.5t31.5 -169q0 -172 -81 -272.5t-243 -100.5z" />
    <glyph glyph-name="afii10033" unicode="&#x41f;" horiz-adv-x="746" 
d="M103 0v597l-6 103h546v-607l5 -93h-103v626h-344v-533l5 -93h-103z" />
    <glyph glyph-name="afii10034" unicode="&#x420;" horiz-adv-x="598" 
d="M103 0v598l-6 102h196q128 0 195.5 -60t67.5 -167q0 -96 -71 -161t-182 -65h-102v-154l5 -93h-103zM279 628h-78v-308h102q71 0 112 42t41 110t-44 112t-133 44z" />
    <glyph glyph-name="afii10035" unicode="&#x421;" horiz-adv-x="594" 
d="M365 635q-90 0 -145.5 -77.5t-55.5 -193.5q0 -59 12.5 -110t38.5 -93.5t72 -66.5t108 -24q40 0 75.5 5t50.5 9l15 5l17 -70q-52 -29 -165 -29q-149 0 -237.5 94.5t-88.5 244.5q0 176 82.5 280t236.5 104q28 0 57 -3.5t61 -9t49 -7.5l-14 -78q-1 0 -66 10t-103 10z" />
    <glyph glyph-name="afii10036" unicode="&#x422;" horiz-adv-x="585" 
d="M245 0v629l-145 -4l-79 -5l3 80h542l-4 -81q-40 5 -80 6l-139 4v-536l5 -93h-103z" />
    <glyph glyph-name="afii10037" unicode="&#x423;" horiz-adv-x="576" 
d="M278 0h-99q31 76 77 166l-198 431l-53 103l106 3l152 -336l45 -113h3q15 51 39 109l72 178q17 43 29.5 82.5t16.5 58.5l4 18h90q-18 -85 -81 -225l-123 -279q-30 -69 -50 -118t-25 -64z" />
    <glyph glyph-name="afii10038" unicode="&#x424;" horiz-adv-x="854" 
d="M708 366q0 105 -58.5 160t-166.5 55h-10v-432h10q107 0 166 55.5t59 161.5zM362 649h19l-5 101l97 5v-106h19q83 0 145.5 -23t98.5 -63t53 -89.5t17 -107.5q0 -55 -17.5 -104t-53 -90.5t-98 -66t-145.5 -24.5h-19l5 -101h-96l-1 101h-19q-83 0 -145.5 24.5t-98 66
t-53 90.5t-17.5 104q0 58 17 107.5t53 89.5t98.5 63t145.5 23zM146 366q0 -106 59 -161.5t166 -55.5h10v432h-10q-108 0 -166.5 -55t-58.5 -160z" />
    <glyph glyph-name="afii10039" unicode="&#x425;" horiz-adv-x="632" 
d="M492 -5l-187 295l-89 -138q-25 -40 -47 -78t-31 -56l-10 -18h-105q41 80 116 183l125 170l-160 241l-73 106l122 5l177 -287l92 146q24 37 42.5 71t25.5 49l7 16h102q-30 -69 -101 -168l-127 -177l171 -259l66 -96z" />
    <glyph glyph-name="afii10040" unicode="&#x426;" horiz-adv-x="783" 
d="M103 0v598l-6 103l104 5v-632h354v524l-6 103l104 5v-632h93v-184l5 -90l-85 -6l-8 206h-555z" />
    <glyph glyph-name="afii10041" unicode="&#x427;" horiz-adv-x="668" 
d="M467 0v278q-72 -23 -165 -23q-134 0 -192 69t-58 182v92l-6 103l104 5v-184q0 -193 166 -193q37 0 75 3.5t57 7.5l19 3v255l-6 103l104 5v-613l5 -93h-103z" />
    <glyph glyph-name="afii10042" unicode="&#x428;" horiz-adv-x="1016" 
d="M103 0v598l-6 103l104 5v-632h258v524l-6 103l104 5v-632h258v524l-6 103l104 5v-613l5 -93h-815z" />
    <glyph glyph-name="afii10043" unicode="&#x429;" horiz-adv-x="1043" 
d="M103 0v598l-6 103l104 5v-632h258v524l-6 103l104 5v-632h258v524l-6 103l104 5v-632h93v-184l5 -90l-85 -6l-8 206h-815z" />
    <glyph glyph-name="afii10044" unicode="&#x42a;" horiz-adv-x="691" 
d="M21 621l-1 79h277v-247h102q113 0 183 -62t70 -165q0 -101 -70.5 -163.5t-182.5 -62.5h-200v628l-106 -2zM297 378v-303h87q78 0 123 42.5t45 108.5q0 70 -45 111t-124 41h-86z" />
    <glyph glyph-name="afii10045" unicode="&#x42b;" horiz-adv-x="864" 
d="M663 0v598l-6 103l104 5v-613l5 -93h-103zM103 0v598l-6 102l104 5v-252h102q113 0 183 -62t70 -165q0 -101 -70.5 -163.5t-182.5 -62.5h-200zM201 378v-303h87q78 0 123 42.5t45 108.5q0 70 -45 111t-124 41h-86z" />
    <glyph glyph-name="afii10046" unicode="&#x42c;" horiz-adv-x="595" 
d="M103 0v598l-6 102l104 5v-252h102q113 0 183 -62t70 -165q0 -101 -70.5 -163.5t-182.5 -62.5h-200zM201 378v-303h87q78 0 123 42.5t45 108.5q0 70 -45 111t-124 41h-86z" />
    <glyph glyph-name="afii10047" unicode="&#x42d;" horiz-adv-x="603" 
d="M232 65q91 0 141.5 66t59.5 184l-281 -8v88l282 -5q-5 113 -59 177t-150 64q-46 0 -88 -12t-61 -24l-20 -12v83q7 5 20.5 13t62.5 21.5t107 13.5q136 0 215.5 -94t79.5 -239q0 -81 -20 -151.5t-59 -125.5t-101 -86.5t-140 -31.5q-39 0 -73 6.5t-63 15.5t-42 11l20 84
q8 -1 66 -19.5t103 -18.5z" />
    <glyph glyph-name="afii10048" unicode="&#x42e;" horiz-adv-x="1008" 
d="M621 -10q-73 0 -130.5 27.5t-94 75t-55.5 106.5t-21 126h-119v-232l5 -93h-103v598l-6 103l104 5v-307h122q13 145 93.5 228t227.5 83q98 0 168 -50.5t101.5 -127.5t31.5 -169q0 -172 -81 -272.5t-243 -100.5zM641 60q101 0 151.5 77.5t50.5 200.5q0 46 -6.5 87.5
t-22.5 81.5t-40.5 69t-63 46.5t-86.5 17.5q-101 0 -151.5 -77.5t-50.5 -200.5q0 -46 6.5 -87.5t22.5 -81.5t40.5 -69t63 -46.5t86.5 -17.5z" />
    <glyph glyph-name="afii10049" unicode="&#x42f;" horiz-adv-x="637" 
d="M534 700v-598l6 -102l-104 -5v252h-102q-23 0 -34 1l-155 -248h-112l177 271q-61 27 -95 80t-34 123q0 101 70.5 163.5t182.5 62.5h200zM436 322v303h-87q-78 0 -123 -42.5t-45 -108.5q0 -70 45 -111t124 -41h86z" />
    <glyph glyph-name="afii10065" unicode="&#x430;" horiz-adv-x="544" 
d="M503 88v-69q-30 -29 -76 -29q-65 0 -81 62q-70 -62 -158 -62q-69 0 -104.5 38t-35.5 94q0 59 41 100.5t120 53.5q55 9 136 9v31q0 63 -26.5 88.5t-85.5 25.5q-40 0 -77.5 -8t-55.5 -16l-17 -8v75q65 37 178 37q180 0 177 -180q0 -19 -1.5 -71t-2 -96t-0.5 -71
q0 -24 21 -24q9 0 21 5t20 10zM217 66q61 0 124 40q0 43 2 127q-76 -6 -112 -15q-48 -12 -68.5 -33t-20.5 -52q0 -29 20 -48t55 -19z" />
    <glyph glyph-name="afii10066" unicode="&#x431;" horiz-adv-x="611" 
d="M305 415q-61 0 -98.5 -46t-37.5 -112q0 -98 39 -147.5t113 -49.5q61 0 98.5 45.5t37.5 111.5q0 98 -39 148t-113 50zM139 390l5 -1q61 99 182 99q105 0 166.5 -64t61.5 -166q0 -126 -68 -197t-186 -71q-105 0 -166.5 75t-61.5 222q0 107 14 182t49 134.5t98 93t157 43.5
q47 5 78.5 10t39.5 8l8 3l11 -86q-32 -14 -135 -24q-120 -13 -178 -75t-75 -186z" />
    <glyph glyph-name="afii10067" unicode="&#x432;" horiz-adv-x="530" 
d="M88 0v397l-6 103h196q84 0 130 -33t46 -90q0 -44 -25 -75t-66 -40v-3q50 -6 81 -33.5t31 -74.5q0 -74 -53.5 -112.5t-129.5 -38.5h-204zM291 221h-111v-150h104q49 0 73 22t24 58q0 70 -90 70zM272 429h-92v-139h99q38 0 61 20t23 51q0 68 -91 68z" />
    <glyph glyph-name="afii10068" unicode="&#x433;" horiz-adv-x="426" 
d="M88 0v397l-6 103h323l-4 -80q-40 5 -80 5h-140v-342l5 -83h-98z" />
    <glyph glyph-name="afii10069" unicode="&#x434;" horiz-adv-x="605" 
d="M158 500h332v-428h78v-151l5 -83l-85 -5l-7 167h-371v-79l5 -83l-85 -5l-10 239h43q49 44 69.5 139.5t25.5 288.5zM236 427q-7 -278 -80 -355h241v355h-161z" />
    <glyph glyph-name="afii10070" unicode="&#x435;" horiz-adv-x="553" 
d="M297 510q114 0 165.5 -73.5t35.5 -189.5h-347q9 -177 178 -177q31 0 65.5 7t53.5 13l20 7v-73q-64 -34 -169 -34q-115 0 -179 65.5t-64 176.5q0 131 67 204.5t174 73.5zM293 442q-56 0 -92.5 -36t-46.5 -95l249 4q2 55 -25.5 91t-84.5 36z" />
    <glyph glyph-name="afii10072" unicode="&#x436;" horiz-adv-x="807" 
d="M359 286v111l-6 103l95 5v-219h55l84 99q29 34 51 63t29 40l7 12h93q-24 -48 -111 -147l-83 -95l154 -183l65 -75l-110 -5l-183 226h-51v-128l5 -93h-94v221h-51l-183 -226l-108 5q45 50 65 75l149 179l-85 99q-38 44 -65 81t-35 52l-8 14h96q21 -38 86 -115l84 -99h55z
" />
    <glyph glyph-name="afii10073" unicode="&#x437;" horiz-adv-x="465" 
d="M177 64q64 0 98 24t34 63q0 70 -92 70h-85v73h86q37 0 58 18t21 51q0 70 -94 70q-23 0 -46 -3.5t-51.5 -9.5t-39.5 -8l-16 77q15 2 44.5 8t56.5 9.5t59 3.5q82 0 134.5 -35t52.5 -100q0 -41 -22.5 -72.5t-62.5 -42.5v-3q46 -7 71.5 -37t25.5 -72q0 -70 -58.5 -114
t-153.5 -44q-48 0 -87 8t-54 16l-14 9v70q51 -29 135 -29z" />
    <glyph glyph-name="afii10074" unicode="&#x438;" horiz-adv-x="616" 
d="M88 0v397l-6 103l99 5v-309l-6 -95h4q17 41 46 84l210 315l93 5v-412l5 -93h-98v325q0 19 1.5 38t3.5 28l1 9h-3q-14 -34 -38 -70l-219 -330h-93z" />
    <glyph glyph-name="afii10075" unicode="&#x439;" horiz-adv-x="616" 
d="M309 599q-112 0 -184 70l54 68q1 -1 12.5 -11.5t13.5 -12t12 -10t14 -10.5t13.5 -8.5t15 -8t14.5 -5t17.5 -4.5t17.5 -1q25 0 51 12.5t38 22.5t41 36l54 -68q-72 -70 -184 -70zM88 0v397l-6 103l99 5v-309l-6 -95h4q17 41 46 84l210 315l93 5v-412l5 -93h-98v325
q0 19 1.5 38t3.5 28l1 9h-3q-14 -34 -38 -70l-219 -330h-93z" />
    <glyph glyph-name="afii10076" unicode="&#x43a;" horiz-adv-x="525" 
d="M88 0v397l-6 103l99 5v-218h51l73 98q26 36 45.5 64.5t25.5 39.5l6 11h96q-25 -50 -95 -138l-81 -102l145 -185l65 -75l-110 -5l-174 225h-47v-127l5 -93h-98z" />
    <glyph glyph-name="afii10077" unicode="&#x43b;" horiz-adv-x="568" 
d="M387 0v427h-162q-8 -226 -44 -318.5t-137 -114.5l-27 80q49 13 74.5 54t37.5 126.5t15 245.5h336v-417l5 -83h-98z" />
    <glyph glyph-name="afii10078" unicode="&#x43c;" horiz-adv-x="746" 
d="M86 0l3 397l-4 103l95 5l151 -245l40 -67h2q18 31 40 66l150 241l91 5l6 -412q0 -20 2 -43.5t4 -36.5l1 -13h-98l-6 296l3 92l-2 1q-20 -43 -43 -79l-151 -240h-15l-149 236q-10 15 -20 33.5t-15 29.5l-5 11l-2 -1q4 -44 4 -88l-1 -198l5 -93h-86z" />
    <glyph glyph-name="afii10079" unicode="&#x43d;" horiz-adv-x="591" 
d="M410 0v217h-229v-124l5 -93h-98v397l-6 103l99 5v-214h229v106l-6 103l99 5v-412l5 -93h-98z" />
    <glyph glyph-name="afii10080" unicode="&#x43e;" horiz-adv-x="598" 
d="M291 441q-62 0 -100.5 -49t-38.5 -120q0 -105 40 -158.5t115 -53.5q61 0 100 49.5t39 119.5q0 105 -40 158.5t-115 53.5zM286 -10q-107 0 -168 65.5t-61 172.5q0 132 68 207t187 75q107 0 168 -65t61 -172q0 -132 -68 -207.5t-187 -75.5z" />
    <glyph glyph-name="afii10081" unicode="&#x43f;" horiz-adv-x="593" 
d="M88 0v397l-6 103h423v-417l5 -83h-98v427h-231v-344l5 -83h-98z" />
    <glyph glyph-name="afii10082" unicode="&#x440;" horiz-adv-x="599" 
d="M88 -250v647l-6 103l92 5l3 -48q59 53 153 53q104 0 158.5 -67t54.5 -166q0 -133 -69 -210t-184 -77q-61 0 -109 29v-186l5 -83h-98zM181 301v-202q47 -39 115 -39q72 0 111 51.5t39 135.5q0 88 -35 135.5t-105 47.5q-73 0 -127 -33q2 -16 2 -96z" />
    <glyph glyph-name="afii10083" unicode="&#x441;" horiz-adv-x="484" 
d="M287 431q-68 0 -102 -46t-34 -127q0 -83 40.5 -135.5t114.5 -52.5q33 0 65 7t47 13l15 7v-74q-52 -33 -141 -33q-114 0 -175 67t-61 177q0 121 67 198.5t167 77.5q30 0 75 -9.5t67 -10.5l-8 -82q-24 2 -69 12.5t-68 10.5z" />
    <glyph glyph-name="afii10084" unicode="&#x442;" horiz-adv-x="472" 
d="M192 0v430l-95 -2l-73 -6l3 78h422l-4 -78q-26 5 -70 6l-90 2v-347l5 -83h-98z" />
    <glyph glyph-name="afii10085" unicode="&#x443;" horiz-adv-x="496" 
d="M210 -254l-92 4q10 69 79 227l8 19l-145 401l-42 103l107 5l97 -294q9 -28 17 -59.5t12 -49.5l4 -18h4q13 65 38 136l34 99q41 118 48 181h88q-6 -68 -58 -202l-120 -307q-29 -74 -48.5 -135.5t-24.5 -85.5z" />
    <glyph glyph-name="afii10086" unicode="&#x444;" horiz-adv-x="831" 
d="M369 -250v267q-48 -27 -108 -27q-103 0 -153.5 67.5t-50.5 172.5q0 127 66 203.5t168 76.5q23 0 42.5 -4.5t27.5 -9.5l8 -4v155l-6 103l99 5v-272q54 27 108 27q103 0 153.5 -67.5t50.5 -172.5q0 -127 -66 -203.5t-168 -76.5q-23 0 -42.5 4.5t-27.5 9.5l-8 4v-175l5 -83
h-98zM541 441q-38 0 -79 -13v-357q24 -15 67 -15q74 0 111 52.5t37 137.5q0 195 -136 195zM290 59q38 0 79 13v357q-24 15 -67 15q-74 0 -111 -52.5t-37 -137.5q0 -195 136 -195z" />
    <glyph glyph-name="afii10087" unicode="&#x445;" horiz-adv-x="536" 
d="M385 334l-62 -81l131 -177l59 -76l-116 -5l-140 198l-57 -78q-28 -38 -47.5 -66.5t-24.5 -38.5l-6 -10h-96q26 48 108 151l78 98l-114 168q-14 21 -30 41.5t-24 31.5l-9 10l116 5l129 -197l49 72q23 34 40.5 64t24.5 43l6 13h96q-44 -78 -111 -166z" />
    <glyph glyph-name="afii10088" unicode="&#x446;" horiz-adv-x="620" 
d="M503 -167l-7 167h-408v397l-6 103l99 5v-433h231v325l-6 103l99 5v-433h78v-151l5 -83z" />
    <glyph glyph-name="afii10089" unicode="&#x447;" horiz-adv-x="535" 
d="M354 0v192q-51 -31 -138 -31q-75 0 -118.5 38t-43.5 119v79l-6 103l99 5v-168q0 -54 23 -77t76 -23q28 0 55 4t40 8l13 4v144l-6 103l99 5v-412l5 -93h-98z" />
    <glyph glyph-name="afii10090" unicode="&#x448;" horiz-adv-x="853" 
d="M88 0v397l-6 103l99 5v-432h199v324l-6 103l99 5v-432h199v324l-6 103l99 5v-422l5 -83h-682z" />
    <glyph glyph-name="afii10091" unicode="&#x449;" horiz-adv-x="880" 
d="M88 0v397l-6 103l99 5v-433h199v325l-6 103l99 5v-433h199v325l-6 103l99 5v-433h78v-151l5 -83l-85 -5l-7 167h-668z" />
    <glyph glyph-name="afii10092" unicode="&#x44a;" horiz-adv-x="602" 
d="M173 0v429l-73 -2l-74 -5l2 78h238v-165h85q211 0 211 -161q0 -84 -57 -129t-154 -45h-178zM346 267h-80v-199h89q48 0 77 27.5t29 77.5q0 46 -30.5 70t-84.5 24z" />
    <glyph glyph-name="afii10093" unicode="&#x44b;" horiz-adv-x="737" 
d="M556 0v397l-6 103l99 5v-412l5 -93h-98zM88 0v397l-6 103l99 5v-170h97q92 0 145.5 -39.5t53.5 -121.5q0 -83 -55 -128.5t-144 -45.5h-190zM260 267h-79v-199h79q56 0 85.5 26.5t29.5 73.5q0 99 -115 99z" />
    <glyph glyph-name="afii10094" unicode="&#x44c;" horiz-adv-x="517" 
d="M88 0v397l-6 103l99 5v-170h97q92 0 145.5 -39.5t53.5 -121.5q0 -83 -55 -128.5t-144 -45.5h-190zM261 267h-80v-199h80q56 0 85.5 26.5t29.5 73.5q0 99 -115 99z" />
    <glyph glyph-name="afii10095" unicode="&#x44d;" horiz-adv-x="490" 
d="M193 431q-29 0 -75 -10t-58 -12l-16 80q15 2 44.5 8t55.5 9.5t55 3.5q104 0 169.5 -64t65.5 -183q0 -126 -67 -199.5t-185 -73.5q-34 0 -67 7t-49 14l-16 7v75q49 -23 128 -23q69 0 111.5 38.5t48.5 108.5l-212 -9v83l212 -7q-7 65 -45 106t-100 41z" />
    <glyph glyph-name="afii10096" unicode="&#x44e;" horiz-adv-x="822" 
d="M516 -14q-103 0 -162 63.5t-62 167.5h-111v-124l5 -93h-98v397l-6 103l99 5v-214h115q15 105 79 164.5t167 59.5q106 0 165 -67t59 -175q0 -134 -66 -210.5t-184 -76.5zM521 441q-61 0 -97.5 -49t-36.5 -120q0 -212 150 -212q61 0 97.5 49t36.5 120q0 212 -150 212z" />
    <glyph glyph-name="afii10097" unicode="&#x44f;" horiz-adv-x="540" 
d="M359 173h-108l-98 -173h-109l120 193q-45 16 -73 51t-28 87q0 79 57 124t152 45h180v-407l5 -93h-98v173zM162 340q0 -44 29.5 -71t83.5 -27h84v185h-91q-47 0 -76.5 -22.5t-29.5 -64.5z" />
    <glyph glyph-name="afii10071" unicode="&#x451;" horiz-adv-x="553" 
d="M194 610q-26 0 -42.5 16t-16.5 41q0 26 18 41t46 15q27 0 42.5 -14.5t15.5 -39.5q0 -27 -17 -43t-46 -16zM394 610q-26 0 -42.5 16t-16.5 41q0 26 18 41t46 15q27 0 42.5 -14.5t15.5 -39.5q0 -27 -17 -43t-46 -16zM297 510q114 0 165.5 -73.5t35.5 -189.5h-347
q9 -177 178 -177q31 0 65.5 7t53.5 13l20 7v-73q-64 -34 -169 -34q-115 0 -179 65.5t-64 176.5q0 131 67 204.5t174 73.5zM293 442q-56 0 -92.5 -36t-46.5 -95l249 4q2 55 -25.5 91t-84.5 36z" />
    <glyph glyph-name="afii10099" unicode="&#x452;" horiz-adv-x="594" 
d="M-8 540v73h95v34l-6 103l99 5l-1 -142h194v-73h-195v-114q70 24 155 24t135.5 -49t50.5 -156v-157q0 -58 -17 -107q-11 -34 -33.5 -66t-56 -66.5t-40.5 -43.5l-59 55q11 16 35 43.5t39.5 50.5t23.5 50q10 32 10 84v149q0 133 -132 133q-41 0 -110 -11q1 -17 1 -58v-218
l5 -83h-98v540h-95z" />
    <glyph glyph-name="afii10100" unicode="&#x453;" horiz-adv-x="426" 
d="M88 0v397l-6 103h323l-4 -80q-40 5 -80 5h-140v-342l5 -83h-98zM229 590l-40 42l160 181l67 -69z" />
    <glyph glyph-name="afii10101" unicode="&#x454;" horiz-adv-x="487" 
d="M292 428q-67 0 -102 -39t-39 -107l216 9v-83l-213 9q11 -68 51 -107.5t106 -39.5q32 0 63.5 7t47.5 13l16 7v-74q-54 -33 -151 -33q-110 0 -170.5 66t-60.5 172q0 130 67 206t172 76q24 0 48.5 -3.5t53 -9.5t44.5 -8l-16 -80q-6 1 -38.5 7.5t-53.5 9t-41 2.5z" />
    <glyph glyph-name="afii10102" unicode="&#x455;" horiz-adv-x="449" 
d="M217 -10q-35 0 -88.5 9.5t-73.5 11.5l8 82q19 -2 73 -13t86 -11q97 0 97 60q0 29 -27 46.5t-93 40.5q-137 45 -137 155q0 65 43.5 102t113.5 37q39 0 86 -9.5t69 -10.5l-8 -81q-30 2 -74.5 12t-75.5 10q-35 0 -54.5 -15.5t-19.5 -40.5q0 -31 23.5 -47.5t96.5 -42.5
q69 -24 103 -58.5t34 -90.5q0 -68 -48.5 -107t-133.5 -39z" />
    <glyph glyph-name="afii10103" unicode="&#x456;" horiz-adv-x="269" 
d="M132 610q-26 0 -42.5 16t-16.5 41q0 26 18 41t46 15q27 0 42.5 -14.5t15.5 -39.5q0 -27 -17 -43t-46 -16zM88 0v397l-6 103l99 5v-412l5 -93h-98z" />
    <glyph glyph-name="afii10104" unicode="&#x457;" horiz-adv-x="269" 
d="M88 0v397l-6 103l99 5v-412l5 -93h-98zM51 630q-24 0 -40 15t-16 39t17 38.5t44 14.5q25 0 40 -14t15 -37q0 -26 -16.5 -41t-43.5 -15zM203 630q-24 0 -40 15t-16 39t17 38.5t44 14.5q25 0 40 -14t15 -37q0 -26 -16.5 -41t-43.5 -15z" />
    <glyph glyph-name="afii10105" unicode="&#x458;" horiz-adv-x="268" 
d="M181 505v-479q0 -69 -21 -119q-21 -49 -121 -164l-51 44q7 9 22.5 27.5t21.5 26t15.5 21t15.5 25.5t11 27q14 42 14 112v371l-6 103zM132 610q-26 0 -42.5 16t-16.5 41q0 26 18 41t46 15q27 0 42.5 -14.5t15.5 -39.5q0 -27 -17 -43t-46 -16z" />
    <glyph glyph-name="afii10106" unicode="&#x459;" horiz-adv-x="806" 
d="M387 427h-162q-8 -226 -44 -318.5t-137 -114.5l-27 80q49 13 74.5 54t37.5 126.5t15 245.5h336v-163h87q91 0 145 -39.5t54 -116.5q0 -86 -59.5 -133.5t-146.5 -47.5h-173v427zM550 267h-70v-197h79q49 0 77.5 27.5t28.5 75.5q0 44 -31 69t-84 25z" />
    <glyph glyph-name="afii10107" unicode="&#x45a;" horiz-adv-x="843" 
d="M425 0v217h-244v-124l5 -93h-98v397l-6 103l99 5v-214h244v106l-6 103l99 5v-168h87q91 0 145 -39.5t54 -116.5q0 -86 -59.5 -133.5t-146.5 -47.5h-173zM588 267h-70v-197h79q49 0 77.5 27.5t28.5 75.5q0 44 -31 69t-84 25z" />
    <glyph glyph-name="afii10108" unicode="&#x45b;" horiz-adv-x="594" 
d="M-8 540v73h95v34l-6 103l99 5l-1 -142h194v-73h-195v-114q70 24 155 24t135.5 -49t50.5 -156v-162l5 -83h-103v237q0 133 -132 133q-41 0 -110 -11q1 -17 1 -58v-218l5 -83h-98v540h-95z" />
    <glyph glyph-name="afii10109" unicode="&#x45c;" horiz-adv-x="525" 
d="M88 0v397l-6 103l99 5v-218h51l73 98q26 36 45.5 64.5t25.5 39.5l6 11h96q-25 -50 -95 -138l-81 -102l145 -185l65 -75l-110 -5l-174 225h-47v-127l5 -93h-98zM254 592l-40 42l160 181l67 -69z" />
    <glyph glyph-name="afii10110" unicode="&#x45e;" horiz-adv-x="496" 
d="M250 610q-106 0 -184 75l54 68q25 -23 39.5 -34t39.5 -21.5t51 -10.5q36 0 64.5 16.5t65.5 49.5l54 -68q-78 -75 -184 -75zM210 -254l-92 4q10 69 79 227l8 19l-145 401l-42 103l107 5l97 -294q9 -28 17 -59.5t12 -49.5l4 -18h4q13 65 38 136l34 99q41 118 48 181h88
q-6 -68 -58 -202l-120 -307q-29 -74 -48.5 -135.5t-24.5 -85.5z" />
    <glyph glyph-name="afii10193" unicode="&#x45f;" horiz-adv-x="593" 
d="M260 -167l-7 167h-165v397l-6 103l99 5v-432h231v324l-6 103l99 5v-422l5 -83h-167v-79l5 -83z" />
    <glyph glyph-name="afii10050" unicode="&#x490;" horiz-adv-x="518" 
d="M431 843h69l-5 -225l-294 9v-534l5 -93h-103v598l-6 102h319z" />
    <glyph glyph-name="afii10098" unicode="&#x491;" horiz-adv-x="426" 
d="M332 634h79l-10 -217l-220 5v-339l5 -83h-98v397l-6 103h240l5 40z" />
    <glyph glyph-name="Wgrave" unicode="&#x1e80;" horiz-adv-x="946" 
d="M427 700l94 5l116 -446q9 -36 17 -74t12 -59l3 -20h4q13 70 37 153l79 267q22 73 33 174h95q-15 -108 -53 -221l-152 -477l-99 -6l-116 445q-8 29 -14.5 62t-9.5 51l-3 19h-3q-9 -64 -25 -131l-107 -440l-107 -6l-171 583l-39 118l105 6l126 -447l35 -151h4q15 86 31 152
zM517 803l-40 -42l-187 154l67 69z" />
    <glyph glyph-name="wgrave" unicode="&#x1e81;" horiz-adv-x="772" 
d="M687 298l-102 -298l-92 -5l-91 305l-24 103h-4q-6 -55 -18 -102l-74 -301l-101 -5l-123 402l-35 103l95 5l88 -297q8 -28 15.5 -59.5t10.5 -48.5l3 -18h4q5 59 23 128l49 189l22 101l93 7l84 -291l33 -132h4q15 65 33 130l38 132q22 85 27 154h87q-3 -76 -45 -202z
M444 632l-40 -42l-187 154l67 69z" />
    <glyph glyph-name="Wacute" unicode="&#x1e82;" horiz-adv-x="946" 
d="M427 700l94 5l116 -446q9 -36 17 -74t12 -59l3 -20h4q13 70 37 153l79 267q22 73 33 174h95q-15 -108 -53 -221l-152 -477l-99 -6l-116 445q-8 29 -14.5 62t-9.5 51l-3 19h-3q-9 -64 -25 -131l-107 -440l-107 -6l-171 583l-39 118l105 6l126 -447l35 -151h4q15 86 31 152
zM455 761l-40 42l160 181l67 -69z" />
    <glyph glyph-name="wacute" unicode="&#x1e83;" horiz-adv-x="772" 
d="M687 298l-102 -298l-92 -5l-91 305l-24 103h-4q-6 -55 -18 -102l-74 -301l-101 -5l-123 402l-35 103l95 5l88 -297q8 -28 15.5 -59.5t10.5 -48.5l3 -18h4q5 59 23 128l49 189l22 101l93 7l84 -291l33 -132h4q15 65 33 130l38 132q22 85 27 154h87q-3 -76 -45 -202z
M363 591l-40 42l160 181l67 -69z" />
    <glyph glyph-name="Wdieresis" unicode="&#x1e84;" horiz-adv-x="946" 
d="M427 700l94 5l116 -446q9 -36 17 -74t12 -59l3 -20h4q13 70 37 153l79 267q22 73 33 174h95q-15 -108 -53 -221l-152 -477l-99 -6l-116 445q-8 29 -14.5 62t-9.5 51l-3 19h-3q-9 -64 -25 -131l-107 -440l-107 -6l-171 583l-39 118l105 6l126 -447l35 -151h4q15 86 31 152
zM369 775q-26 0 -42.5 16t-16.5 41q0 26 18 41t46 15q27 0 42.5 -14.5t15.5 -39.5q0 -27 -17 -43t-46 -16zM569 775q-26 0 -42.5 16t-16.5 41q0 26 18 41t46 15q27 0 42.5 -14.5t15.5 -39.5q0 -27 -17 -43t-46 -16z" />
    <glyph glyph-name="wdieresis" unicode="&#x1e85;" horiz-adv-x="772" 
d="M687 298l-102 -298l-92 -5l-91 305l-24 103h-4q-6 -55 -18 -102l-74 -301l-101 -5l-123 402l-35 103l95 5l88 -297q8 -28 15.5 -59.5t10.5 -48.5l3 -18h4q5 59 23 128l49 189l22 101l93 7l84 -291l33 -132h4q15 65 33 130l38 132q22 85 27 154h87q-3 -76 -45 -202z
M284 611q-26 0 -42.5 16t-16.5 41q0 26 18 41t46 15q27 0 42.5 -14.5t15.5 -39.5q0 -27 -17 -43t-46 -16zM484 611q-26 0 -42.5 16t-16.5 41q0 26 18 41t46 15q27 0 42.5 -14.5t15.5 -39.5q0 -27 -17 -43t-46 -16z" />
    <glyph glyph-name="Ygrave" unicode="&#x1ef2;" horiz-adv-x="579" 
d="M240 0v278l-186 330l-58 92l112 5l194 -354l119 230q17 33 30.5 63t18.5 43l4 13h97q-22 -64 -80 -158l-153 -263v-186l5 -93h-103zM356 805l-40 -42l-187 154l67 69z" />
    <glyph glyph-name="ygrave" unicode="&#x1ef3;" horiz-adv-x="496" 
d="M210 -254l-92 4q10 69 79 227l8 19l-145 401l-42 103l107 5l97 -294q9 -28 17 -59.5t12 -49.5l4 -18h4q13 65 38 136l34 99q41 118 48 181h88q-6 -68 -58 -202l-120 -307q-29 -74 -48.5 -135.5t-24.5 -85.5zM323 629l-40 -42l-187 154l67 69z" />
    <glyph glyph-name="thinspace" unicode="&#x2009;" horiz-adv-x="40" 
 />
    <glyph glyph-name="endash" unicode="&#x2013;" horiz-adv-x="662" 
d="M75 259v74h511v-74h-511z" />
    <glyph glyph-name="emdash" unicode="&#x2014;" horiz-adv-x="846" 
d="M77 262v74h691v-74h-691z" />
    <glyph glyph-name="quoteleft" unicode="&#x2018;" horiz-adv-x="247" 
d="M152 724l40 -33q-64 -58 -69 -142q28 1 47.5 -15t19.5 -46q0 -29 -18.5 -45.5t-47.5 -16.5q-69 0 -69 79q0 63 25 121t72 98z" />
    <glyph glyph-name="quoteright" unicode="&#x2019;" horiz-adv-x="244" 
d="M98 416l-40 33q64 58 69 142q-28 -1 -47.5 15t-19.5 46q0 29 18.5 45.5t47.5 16.5q69 0 69 -79q0 -63 -25 -121t-72 -98z" />
    <glyph glyph-name="quotesinglbase" unicode="&#x201a;" horiz-adv-x="262" 
d="M101 -188l-40 33q64 58 69 142q-28 -1 -47.5 15t-19.5 46q0 29 18.5 45.5t47.5 16.5q69 0 69 -79q0 -63 -25 -121t-72 -98z" />
    <glyph glyph-name="quotereversed" unicode="&#x201b;" horiz-adv-x="244" 
d="M186 449l-40 -33q-47 40 -72 98t-25 121q0 79 69 79q29 0 47.5 -16.5t18.5 -45.5q0 -30 -19.5 -46t-47.5 -15q5 -84 69 -142z" />
    <glyph glyph-name="quotedblleft" unicode="&#x201c;" horiz-adv-x="451" 
d="M152 724l40 -33q-64 -58 -69 -142q28 1 47.5 -15t19.5 -46q0 -29 -18.5 -45.5t-47.5 -16.5q-69 0 -69 79q0 63 25 121t72 98zM356 724l40 -33q-64 -58 -69 -142q28 1 47.5 -15t19.5 -46q0 -29 -18.5 -45.5t-47.5 -16.5q-69 0 -69 79q0 63 25 121t72 98z" />
    <glyph glyph-name="quotedblright" unicode="&#x201d;" horiz-adv-x="448" 
d="M302 416l-40 33q64 58 69 142q-28 -1 -47.5 15t-19.5 46q0 29 18.5 45.5t47.5 16.5q69 0 69 -79q0 -63 -25 -121t-72 -98zM98 416l-40 33q64 58 69 142q-28 -1 -47.5 15t-19.5 46q0 29 18.5 45.5t47.5 16.5q69 0 69 -79q0 -63 -25 -121t-72 -98z" />
    <glyph glyph-name="quotedblbase" unicode="&#x201e;" horiz-adv-x="466" 
d="M305 -188l-40 33q64 58 69 142q-28 -1 -47.5 15t-19.5 46q0 29 18.5 45.5t47.5 16.5q69 0 69 -79q0 -63 -25 -121t-72 -98zM101 -188l-40 33q64 58 69 142q-28 -1 -47.5 15t-19.5 46q0 29 18.5 45.5t47.5 16.5q69 0 69 -79q0 -63 -25 -121t-72 -98z" />
    <glyph glyph-name="uni201F" unicode="&#x201f;" horiz-adv-x="448" 
d="M186 449l-40 -33q-47 40 -72 98t-25 121q0 79 69 79q29 0 47.5 -16.5t18.5 -45.5q0 -30 -19.5 -46t-47.5 -15q5 -84 69 -142zM390 449l-40 -33q-47 40 -72 98t-25 121q0 79 69 79q29 0 47.5 -16.5t18.5 -45.5q0 -30 -19.5 -46t-47.5 -15q5 -84 69 -142z" />
    <glyph glyph-name="dagger" unicode="&#x2020;" horiz-adv-x="556" 
d="M39 500l199 -5l-9 220h98l-9 -220l199 5v-74l-199 5l9 -634l-48 -47l-50 47l9 634l-199 -5v74z" />
    <glyph glyph-name="daggerdbl" unicode="&#x2021;" horiz-adv-x="594" 
d="M536 -35l-198 5l5 -220h-92l5 220l-198 -5v74l198 -5l-10 191l10 206l-198 -5v74l198 -5l-5 220h92l-5 -220l198 5v-74l-198 5l10 -206l-10 -191l198 5v-74z" />
    <glyph glyph-name="bullet" unicode="&#x2022;" horiz-adv-x="283" 
d="M136 228q-34 0 -51 22t-17 52q0 31 18.5 50t55.5 19q35 0 54 -22t19 -49q0 -33 -20.5 -52.5t-58.5 -19.5z" />
    <glyph glyph-name="onedotenleader" unicode="&#x2024;" horiz-adv-x="262" 
d="M128 -15q-29 0 -47 17.5t-18 45.5q0 29 19.5 45.5t51.5 16.5q30 0 47 -16t17 -44q0 -30 -19 -47.5t-51 -17.5z" />
    <glyph glyph-name="twodotenleader" unicode="&#x2025;" horiz-adv-x="517" 
d="M128 -15q-29 0 -47 17.5t-18 45.5q0 29 19.5 45.5t51.5 16.5q30 0 47 -16t17 -44q0 -30 -19 -47.5t-51 -17.5zM383 -15q-29 0 -47 17.5t-18 45.5q0 29 19.5 45.5t51.5 16.5q30 0 47 -16t17 -44q0 -30 -19 -47.5t-51 -17.5z" />
    <glyph glyph-name="ellipsis" unicode="&#x2026;" horiz-adv-x="771" 
d="M128 -15q-29 0 -47 17.5t-18 45.5q0 29 19.5 45.5t51.5 16.5q30 0 47 -16t17 -44q0 -30 -19 -47.5t-51 -17.5zM382 -15q-29 0 -47 17.5t-18 45.5q0 29 19.5 45.5t51.5 16.5q30 0 47 -16t17 -44q0 -30 -19 -47.5t-51 -17.5zM637 -15q-29 0 -47 17.5t-18 45.5
q0 29 19.5 45.5t51.5 16.5q30 0 47 -16t17 -44q0 -30 -19 -47.5t-51 -17.5z" />
    <glyph glyph-name="perthousand" unicode="&#x2030;" horiz-adv-x="1355" 
d="M283 0h-98l478 700h97zM235 404q42 0 66.5 32.5t24.5 78.5q0 57 -25 96.5t-74 39.5q-42 0 -66 -32t-24 -79q0 -59 23.5 -97.5t74.5 -38.5zM223 341q-82 0 -130 53t-48 123q0 91 50 144t146 53q82 0 130 -53t48 -123q0 -91 -50 -144t-146 -53zM717 53q42 0 66.5 32.5
t24.5 78.5q0 57 -25 96.5t-74 39.5q-42 0 -66 -32t-24 -79q0 -59 23.5 -97.5t74.5 -38.5zM705 -10q-82 0 -130 53t-48 123q0 91 50 144t146 53q82 0 130 -53t48 -123q0 -91 -50 -144t-146 -53zM1128 53q42 0 66.5 32.5t24.5 78.5q0 57 -25 96.5t-74 39.5q-42 0 -66 -32
t-24 -79q0 -59 23.5 -97.5t74.5 -38.5zM1116 -10q-82 0 -130 53t-48 123q0 91 50 144t146 53q82 0 130 -53t48 -123q0 -91 -50 -144t-146 -53z" />
    <glyph glyph-name="guilsinglleft" unicode="&#x2039;" horiz-adv-x="354" 
d="M29 269l228 240l52 -50l-199 -205l196 -201l-49 -53l-228 240v29z" />
    <glyph glyph-name="guilsinglright" unicode="&#x203a;" horiz-adv-x="354" 
d="M97 509l228 -240v-29l-228 -240l-49 53l196 201l-199 205z" />
    <glyph glyph-name="fraction" unicode="&#x2044;" horiz-adv-x="481" 
d="M85 0h-83l396 701h82z" />
    <glyph glyph-name="Euro" unicode="&#x20ac;" horiz-adv-x="652" 
d="M432 635q-54 0 -99.5 -45.5t-66.5 -119.5h271l-13 -74h-272q-1 -11 -1 -32q0 -36 4 -64h252l-12 -74h-224q23 -72 71 -114t120 -42q33 0 65 5t47 11l16 5v-76q-48 -25 -135 -25q-111 0 -189 63.5t-105 172.5h-107v74h96q-1 9 -1 29q0 34 3 67h-98v74h112q30 113 104 178
t178 65q37 0 86.5 -9.5t60.5 -10.5l-14 -78q-10 1 -61 10.5t-88 9.5z" />
    <glyph glyph-name="afii61352" unicode="&#x2116;" horiz-adv-x="1172" 
d="M747 68v74h342v-74h-342zM918 282q92 0 92 144q0 163 -100 163q-45 0 -67.5 -38t-22.5 -106q0 -73 23.5 -118t74.5 -45zM906 209q-84 0 -131 61t-47 155q0 103 49.5 170t146.5 67q84 0 131 -61t47 -155q0 -103 -49.5 -170t-146.5 -67zM565 -10l-338 499l-44 77h-3
q8 -61 8 -87v-386l5 -93h-90v598l-6 103l88 5l337 -499q10 -14 21 -34t17 -33l7 -12l3 1q-8 52 -8 92v377l-6 103l91 5v-706z" />
    <glyph glyph-name="trademark" unicode="&#x2122;" horiz-adv-x="825" 
d="M151 382v263l-105 -6l-4 62h289l-3 -62l-101 6v-190l3 -73h-79zM546 418h-10l-77 106l-36 60l-2 -1q2 -32 2 -70v-66l4 -64h-68v230l-6 88l70 4l96 -140l27 -45h2q13 23 28 45l88 136l75 4v-250l4 -72h-79v147l4 67l-3 1q-12 -24 -37 -59z" />
    <glyph glyph-name="estimated" unicode="&#x212e;" horiz-adv-x="818" 
d="M412 -53q-150 0 -255.5 95t-105.5 230q0 134 105.5 229.5t255.5 95.5q149 0 255 -95.5t106 -229.5v-9h-585q-5 0 -5 -4v-177q0 -12 8 -20q91 -96 222 -96q138 0 232 107h53q-51 -58 -126 -92t-160 -34zM188 281h448q5 0 5 5v178q0 11 -10 21q-90 92 -218 92
q-129 0 -221 -95q-9 -9 -9 -22v-174q0 -5 5 -5z" />
    <glyph glyph-name="uni2139" unicode="&#x2139;" horiz-adv-x="410" 
d="M62 397l228 26l-1 -343q0 -46 71 -52v-28l-299 -1v27q35 0 54 13.5t19 36.5v232q0 45 -72 54v35zM212 634q33 0 56 -23t23 -56t-22.5 -57t-54.5 -24q-33 0 -56.5 21t-23.5 55q0 37 22 60.5t56 23.5z" />
    <glyph glyph-name="uni2150" unicode="&#x2150;" horiz-adv-x="702" 
d="M115 0l-53 35l480 677l53 -33zM425 314l4 67h244v-20q-67 -141 -145 -385l-71 21q51 142 152 326zM38 634l-3 42l146 32l14 -2v-382h-72v319z" />
    <glyph glyph-name="uni2151" unicode="&#x2151;" horiz-adv-x="738" 
d="M464 21q135 25 161 131q-30 -14 -62 -14q-57 0 -89 30.5t-32 85.5t34.5 92.5t95.5 37.5q60 0 92 -43q36 -47 36 -133q0 -99 -61.5 -159.5t-163.5 -78.5zM114 0l-53 35l480 677l53 -33zM37 634l-3 42l146 32l14 -2v-382h-72v319zM575 187q35 0 56 18v2q0 55 -16 93.5
t-48 38.5q-26 0 -40.5 -22t-14.5 -57q0 -73 63 -73z" />
    <glyph glyph-name="uni2152" unicode="&#x2152;" horiz-adv-x="994" 
d="M114 0l-53 35l480 677l53 -33zM37 634l-3 42l146 32l14 -2v-382h-72v319zM424 311l-3 42l146 32l14 -2v-382h-72v319zM809 40q33 0 52.5 38.5t19.5 93.5q0 68 -19.5 114.5t-58.5 46.5q-34 0 -52 -37.5t-18 -93.5q0 -70 18 -116t58 -46zM799 -10q-68 0 -105.5 55
t-37.5 131q0 97 40 153t119 56q67 0 105 -55.5t38 -131.5q0 -97 -40 -152.5t-119 -55.5z" />
    <glyph glyph-name="onethird" unicode="&#x2153;" horiz-adv-x="714" 
d="M125 0l-53 35l480 677l53 -33zM465 173l7 47q99 0 99 60q0 42 -62 42q-19 0 -39.5 -4t-31.5 -8l-10 -4v56q46 19 98 19t85 -23t33 -64q0 -74 -76 -93q44 -6 68 -32t24 -67q0 -46 -37.5 -79t-104.5 -33q-28 0 -54.5 3.5t-39.5 7.5l-12 4l16 56q33 -13 81 -13q76 0 76 56
q0 29 -33.5 49.5t-86.5 19.5zM48 634l-3 42l146 32l14 -2v-382h-72v319z" />
    <glyph glyph-name="twothirds" unicode="&#x2154;" horiz-adv-x="799" 
d="M198 0l-53 35l480 677l53 -33zM555 173l7 47q99 0 99 60q0 42 -62 42q-19 0 -39.5 -4t-31.5 -8l-10 -4v56q46 19 98 19t85 -23t33 -64q0 -74 -76 -93q44 -6 68 -32t24 -67q0 -46 -37.5 -79t-104.5 -33q-28 0 -54.5 3.5t-39.5 7.5l-12 4l16 56q33 -13 81 -13q76 0 76 56
q0 29 -33.5 49.5t-86.5 19.5zM201 591q0 63 -64 63q-17 0 -35 -4t-28 -8l-9 -4v53q35 19 91 19q51 0 83.5 -27.5t32.5 -82.5q0 -93 -144 -226l169 11l-3 -61h-246v30q78 83 115.5 137.5t37.5 99.5z" />
    <glyph glyph-name="uni2155" unicode="&#x2155;" horiz-adv-x="717" 
d="M114 0l-53 35l480 677l53 -33zM658 381l-4 -61l-148 4l-4 -74q167 -17 167 -141q0 -52 -36 -85.5t-102 -33.5q-57 0 -103 16l13 55q56 -14 83 -14q73 0 73 71q0 37 -34 56t-110 26l10 181h195zM37 634l-3 42l146 32l14 -2v-382h-72v319z" />
    <glyph glyph-name="uni2156" unicode="&#x2156;" horiz-adv-x="794" 
d="M191 0l-53 35l480 677l53 -33zM735 381l-4 -61l-148 4l-4 -74q167 -17 167 -141q0 -52 -36 -85.5t-102 -33.5q-57 0 -103 16l13 55q56 -14 83 -14q73 0 73 71q0 37 -34 56t-110 26l10 181h195zM194 591q0 63 -64 63q-17 0 -35 -4t-27 -8l-10 -4v53q35 19 91 19
q51 0 83.5 -27.5t32.5 -82.5q0 -93 -144 -226l169 11l-3 -61h-246v30q78 83 115.5 137.5t37.5 99.5z" />
    <glyph glyph-name="uni2157" unicode="&#x2157;" horiz-adv-x="779" 
d="M177 0l-53 35l480 677l53 -33zM95 502l7 47q99 0 99 60q0 42 -62 42q-19 0 -39.5 -4t-31.5 -8l-10 -4v56q46 19 98 19t85 -23t33 -64q0 -74 -76 -93q44 -6 68 -32t24 -67q0 -46 -37.5 -79t-104.5 -33q-28 0 -54.5 3.5t-39.5 7.5l-12 4l16 56q33 -13 81 -13q76 0 76 56
q0 29 -33.5 49.5t-86.5 19.5zM720 381l-4 -61l-148 4l-4 -74q167 -17 167 -141q0 -52 -36 -85.5t-102 -33.5q-57 0 -103 16l13 55q56 -14 83 -14q73 0 73 71q0 37 -34 56t-110 26l10 181h195z" />
    <glyph glyph-name="uni2158" unicode="&#x2158;" horiz-adv-x="847" 
d="M200 316v107h-157l-16 25l180 282l65 -9v-251h63l-4 -47h-59v-55l2 -52h-74zM238 0l-53 35l480 677l53 -33zM783 381l-4 -61l-148 4l-4 -74q167 -17 167 -141q0 -52 -36 -85.5t-102 -33.5q-57 0 -103 16l13 55q56 -14 83 -14q73 0 73 71q0 37 -34 56t-110 26l10 181h195z
M177 600l-82 -131l104 3v129l4 49h-2q-6 -21 -24 -50z" />
    <glyph glyph-name="uni2159" unicode="&#x2159;" horiz-adv-x="697" 
d="M630 353q-136 -25 -161 -132q26 15 62 15q57 0 89 -30.5t32 -85.5t-34.5 -92.5t-95.5 -37.5q-60 0 -92 43q-36 47 -36 133q0 99 61.5 159.5t163.5 78.5zM114 0l-53 35l480 677l53 -33zM37 634l-3 42l146 32l14 -2v-382h-72v319zM519 187q-34 0 -56 -19v-1q0 -55 16 -93.5
t48 -38.5q26 0 40.5 22t14.5 57q0 73 -63 73z" />
    <glyph glyph-name="uni215A" unicode="&#x215a;" horiz-adv-x="777" 
d="M711 353q-136 -25 -161 -132q26 15 62 15q57 0 89 -30.5t32 -85.5t-34.5 -92.5t-95.5 -37.5q-60 0 -92 43q-36 47 -36 133q0 99 61.5 159.5t163.5 78.5zM188 0l-53 35l480 677l53 -33zM280 700l-5 -65l-153 4l-4 -84q88 -10 130.5 -49.5t42.5 -96.5q0 -55 -37 -91
t-106 -36q-55 0 -106 17l12 54q54 -15 89 -15q80 0 80 75q0 80 -155 93l10 194h202zM600 187q-34 0 -56 -19v-1q0 -55 16 -93.5t48 -38.5q26 0 40.5 22t14.5 57q0 73 -63 73z" />
    <glyph glyph-name="oneeighth" unicode="&#x215b;" horiz-adv-x="738" 
d="M436 90q0 36 23 63t54 40q-66 40 -66 93q0 43 33.5 69t83.5 26q49 0 79.5 -23.5t30.5 -62.5q-2 -55 -69 -92q79 -44 79 -107q0 -47 -36 -77t-87 -30q-56 0 -90.5 27t-34.5 74zM125 0l-53 35l480 677l53 -33zM48 634l-3 42l146 32l14 -2v-382h-72v319zM621 92
q0 19 -12.5 35t-25 25t-38.5 23q-44 -29 -44 -77q0 -28 16 -44.5t45 -16.5q59 0 59 55zM512 288q0 -20 15 -34.5t46 -32.5q35 27 37 68q1 21 -11 32.5t-37 11.5q-50 0 -50 -45z" />
    <glyph glyph-name="threeeighths" unicode="&#x215c;" horiz-adv-x="800" 
d="M502 90q0 36 23 63t54 40q-66 40 -66 93q0 43 33.5 69t83.5 26q49 0 79.5 -23.5t30.5 -62.5q-2 -55 -69 -92q79 -44 79 -107q0 -47 -36 -77t-87 -30q-56 0 -90.5 27t-34.5 74zM184 0l-53 35l480 677l53 -33zM103 502l7 47q99 0 99 60q0 42 -62 42q-19 0 -39.5 -4
t-31.5 -8l-10 -4v56q46 19 98 19t85 -23t33 -64q0 -74 -76 -93q44 -6 68 -32t24 -67q0 -46 -37.5 -79t-104.5 -33q-28 0 -54.5 3.5t-39.5 7.5l-12 4l16 56q33 -13 81 -13q76 0 76 56q0 29 -33.5 49.5t-86.5 19.5zM687 92q0 19 -12.5 35t-25 25t-38.5 23q-44 -29 -44 -77
q0 -28 16 -44.5t45 -16.5q59 0 59 55zM578 288q0 -20 15 -34.5t46 -32.5q35 27 37 68q1 21 -11 32.5t-37 11.5q-50 0 -50 -45z" />
    <glyph glyph-name="fiveeighths" unicode="&#x215d;" horiz-adv-x="835" 
d="M537 90q0 36 23 63t54 40q-66 40 -66 93q0 43 33.5 69t83.5 26q49 0 79.5 -23.5t30.5 -62.5q-2 -55 -69 -92q79 -44 79 -107q0 -47 -36 -77t-87 -30q-56 0 -90.5 27t-34.5 74zM219 0l-53 35l480 677l53 -33zM286 700l-5 -65l-153 4l-4 -84q88 -10 130.5 -49.5t42.5 -96.5
q0 -55 -37 -91t-106 -36q-55 0 -106 17l12 54q54 -15 89 -15q80 0 80 75q0 80 -155 93l10 194h202zM722 92q0 19 -12.5 35t-25 25t-38.5 23q-44 -29 -44 -77q0 -28 16 -44.5t45 -16.5q59 0 59 55zM613 288q0 -20 15 -34.5t46 -32.5q35 27 37 68q1 21 -11 32.5t-37 11.5
q-50 0 -50 -45z" />
    <glyph glyph-name="seveneighths" unicode="&#x215e;" horiz-adv-x="769" 
d="M469 90q0 36 23 63t54 40q-66 40 -66 93q0 43 33.5 69t83.5 26q49 0 79.5 -23.5t30.5 -62.5q-2 -55 -69 -92q79 -44 79 -107q0 -47 -36 -77t-87 -30q-56 0 -90.5 27t-34.5 74zM151 0l-53 35l480 677l53 -33zM46 633l4 67h254v-20q-67 -141 -145 -385l-71 21
q51 142 152 326zM654 92q0 19 -12.5 35t-25 25t-38.5 23q-44 -29 -44 -77q0 -28 16 -44.5t45 -16.5q59 0 59 55zM545 288q0 -20 15 -34.5t46 -32.5q35 27 37 68q1 21 -11 32.5t-37 11.5q-50 0 -50 -45z" />
    <glyph glyph-name="uni215F" unicode="&#x215f;" horiz-adv-x="626" 
d="M124 0l-53 35l480 677l53 -33zM47 634l-3 42l146 32l14 -2v-382h-72v319z" />
    <glyph glyph-name="arrowright" unicode="&#x2192;" horiz-adv-x="788" 
d="M607 280l-4 3q-39 35 -74 83.5t-50 81.5l64 34q49 -90 143 -176l50 -46v-29l-50 -46q-94 -86 -143 -176l-64 34q15 33 49.5 80.5t72.5 82.5h-529v74h535z" />
    <glyph glyph-name="arrowboth" unicode="&#x2194;" horiz-adv-x="967" 
d="M185 283l-4 -3h605l-4 3q-39 35 -74 83.5t-50 81.5l64 34q49 -90 143 -176l50 -46v-29l-50 -46q-94 -86 -143 -176l-64 34q15 33 49.5 80.5t72.5 82.5h-593q38 -35 72.5 -82.5t49.5 -80.5l-64 -34q-49 90 -143 176l-50 46v29l50 46q94 86 143 176l64 -34
q-15 -33 -50 -81.5t-74 -83.5z" />
    <glyph glyph-name="arrowupdn" unicode="&#x2195;" horiz-adv-x="581" 
d="M88 425l-34 59q84 46 173 143l46 50h29l46 -50q83 -90 179 -143l-34 -59q-29 13 -80 51t-87 77v-615q36 38 86.5 76t80.5 52l34 -59q-96 -53 -179 -143l-46 -50h-29l-46 50q-89 97 -173 143l34 59q31 -15 79.5 -50.5t85.5 -76.5v613q-38 -41 -86.5 -77.5t-78.5 -49.5z
" />
    <glyph glyph-name="Delta" unicode="&#x2206;" horiz-adv-x="657" 
d="M54 0l-18 29l285 671h52l245 -673l-15 -27h-549zM305 466l-159 -390h356l-135 389q-8 22 -15 47.5t-10 39.5l-2 15h-4l-4 -15q-4 -15 -11.5 -40.5t-15.5 -45.5z" />
    <glyph glyph-name="minus" unicode="&#x2212;" horiz-adv-x="537" 
d="M83 248v74h371v-74h-371z" />
    <glyph glyph-name="radical" unicode="&#x221a;" horiz-adv-x="649" 
d="M643 750l-258 -750l-92 -5l-157 434h-106v71h175l106 -299q10 -28 17.5 -57.5t10.5 -45.5l3 -16h4q12 56 32 117l180 551h85z" />
    <glyph glyph-name="infinity" unicode="&#x221e;" horiz-adv-x="744" 
d="M217 430q88 0 154 -92q65 92 155 92q64 0 107 -37.5t43 -106.5q0 -68 -43 -105t-107 -37q-86 0 -155 92q-65 -92 -154 -92q-64 0 -107 37t-43 105q0 69 43 106.5t107 37.5zM527 359q-26 0 -50 -12.5t-36.5 -24.5t-31.5 -35q19 -22 32.5 -35t37 -25t48.5 -12q33 0 52.5 20
t19.5 52q0 31 -20 51.5t-52 20.5zM216 359q-32 0 -52 -20.5t-20 -51.5q0 -32 19.5 -52t52.5 -20q25 0 48.5 12t37 25t32.5 35q-19 23 -31.5 35t-36.5 24.5t-50 12.5z" />
    <glyph glyph-name="approxequal" unicode="&#x2248;" horiz-adv-x="644" 
d="M220 361q-29 0 -51.5 -15.5t-30.5 -31.5l-8 -16l-53 53q1 4 4 10t15 21.5t27 27.5t41 22t57 10q34 0 63 -10t46.5 -22.5t43 -22.5t51.5 -10q29 0 51.5 15.5t30.5 31.5l8 16l53 -53q-1 -4 -4 -10t-15 -21.5t-27 -27.5t-41 -22t-57 -10q-53 0 -110 32.5t-94 32.5zM220 179
q-29 0 -51.5 -15.5t-30.5 -31.5l-8 -16l-53 53q1 4 4 10t15 21.5t27 27.5t41 22t57 10q34 0 63 -10t46.5 -22.5t43 -22.5t51.5 -10q29 0 51.5 15.5t30.5 31.5l8 16l53 -53q-1 -4 -4 -10t-15 -21.5t-27 -27.5t-41 -22t-57 -10q-53 0 -110 32.5t-94 32.5z" />
    <glyph glyph-name="notequal" unicode="&#x2260;" horiz-adv-x="550" 
d="M69 342v74h254l99 150l58 -40l-73 -110h73v-74h-122l-76 -116h198v-74h-247l-106 -161l-58 39l80 122h-80v74h129l76 116h-205z" />
    <glyph glyph-name="lessequal" unicode="&#x2264;" horiz-adv-x="499" 
d="M70 60v74h348v-74h-348zM70 324l348 185v-87l-207 -104l207 -92v-86l-348 165v19z" />
    <glyph glyph-name="greaterequal" unicode="&#x2265;" 
d="M430 134v-74h-348v74h348zM82 509l348 -185v-19l-348 -165v86l207 92l-207 104v87z" />
    <glyph glyph-name="filledbox" unicode="&#x25a0;" horiz-adv-x="635" 
d="M75 86l-22 22q30 210 -1 489l23 23q279 -31 489 -1l22 -22q-30 -210 1 -490l-22 -22q-280 31 -490 1z" />
    <glyph glyph-name="triagup" unicode="&#x25b2;" horiz-adv-x="723" 
d="M673 92h-623v25l300 486h24l299 -486v-25z" />
    <glyph glyph-name="triagdn" unicode="&#x25bc;" horiz-adv-x="723" 
d="M50 603h623v-25l-299 -486h-24l-300 486v25z" />
    <glyph glyph-name="uni25C6" unicode="&#x25c6;" horiz-adv-x="534" 
d="M50 343v19q104 77 207 208h20q103 -131 207 -208v-19q-105 -78 -207 -209h-20q-102 131 -207 209z" />
    <glyph glyph-name="lozenge" unicode="&#x25ca;" horiz-adv-x="622" 
d="M20 338v11l285 351h12l285 -353v-11l-285 -351h-12zM502 336l-198 245l-186 -229l199 -251z" />
    <glyph glyph-name="H18533" unicode="&#x25cf;" horiz-adv-x="637" 
d="M50 351q0 111 78.5 190t189.5 79t190 -79t79 -190t-79 -189.5t-190 -78.5t-189.5 78.5t-78.5 189.5z" />
    <glyph glyph-name="uni2715" unicode="&#x2715;" horiz-adv-x="845" 
d="M653 -7l-114 116l29 29l-145 148l-146 -146l25 -24l-126 -126l-116 116l126 126l29 -29l146 144l-149 148l-29 -29l-116 116l126 126l116 -116l-29 -29l148 -149l144 145l-29 30l126 126l116 -116l-126 -126l-25 25l-145 -146l147 -146l29 29l115 -114z" />
    <glyph glyph-name="uni271A" unicode="&#x271a;" horiz-adv-x="799" 
d="M50 256v186h251v257h196v-257h252v-186h-252v-256h-196v256h-251z" />
    <glyph glyph-name="uni271B" unicode="&#x271b;" horiz-adv-x="799" 
d="M50 286v126h281v287h136v-287h282v-126h-282v-286h-136v286h-281zM341 402v-106h116v106h-116z" />
    <glyph glyph-name="uni271C" unicode="&#x271c;" horiz-adv-x="799" 
d="M50 256v186h251v257h196v-257h252v-186h-252v-256h-196v256h-251zM311 432v-166h176v166h-176z" />
    <glyph glyph-name="uni2722" unicode="&#x2722;" horiz-adv-x="795" 
d="M745 424l-1 -151h-146v39l-162 1v-168h39v-145h-154v145h44v167h-170v-39h-145v151h145v-36h170v168h-44v145h154v-145h-39v-168h162v36h147z" />
    <glyph glyph-name="uni2723" unicode="&#x2723;" horiz-adv-x="921" 
d="M323 629q0 56 39.5 96t95.5 40t96 -40t40 -96q0 -46 -27 -81.5t-70 -47.5v-112h109q13 42 48.5 69t80.5 27q56 0 96 -40t40 -96t-40 -95.5t-96 -39.5q-47 0 -83 27.5t-47 71.5l-108 1v-109q43 -13 70 -49t27 -81q0 -56 -40 -95.5t-96 -39.5t-95.5 39.5t-39.5 95.5
q0 48 29 84.5t74 47.5v106h-110q-12 -44 -48.5 -71.5t-82.5 -27.5q-56 0 -95.5 39.5t-39.5 95.5t39.5 96t95.5 40q45 0 81 -27t49 -69h111v110q-45 11 -74 47t-29 84zM677 348q0 -24 17 -41t41 -17t41.5 17t17.5 41t-17.5 41.5t-41.5 17.5t-41 -17.5t-17 -41.5zM127 348
q0 -24 17 -41t41 -17t41.5 17t17.5 41t-17.5 41.5t-41.5 17.5t-41 -17.5t-17 -41.5zM400 74q0 -24 17 -41t41 -17t41.5 17t17.5 41t-17.5 41.5t-41.5 17.5t-41 -17.5t-17 -41.5zM400 629q0 -24 17 -41t41 -17t41.5 17t17.5 41t-17.5 41.5t-41.5 17.5t-41 -17.5t-17 -41.5z
" />
    <glyph glyph-name="uni2724" unicode="&#x2724;" horiz-adv-x="865" 
d="M324 629q0 44 31 75.5t75 31.5t75.5 -31.5t31.5 -75.5q0 -33 -19 -60.5t-49 -38.5v-142h140q12 30 39 48.5t60 18.5q44 0 75.5 -31.5t31.5 -75.5t-31.5 -75t-75.5 -31q-35 0 -62 19.5t-38 50.5l-139 1v-141q30 -11 49 -38.5t19 -60.5q0 -44 -31.5 -75t-75.5 -31t-75 31
t-31 75q0 35 20.5 63t53.5 39v137h-142q-11 -31 -38.5 -50.5t-61.5 -19.5q-44 0 -75 31t-31 75t31 75.5t75 31.5q33 0 60 -18.5t39 -48.5h143v140q-33 10 -53.5 37.5t-20.5 63.5z" />
    <glyph glyph-name="uni2725" unicode="&#x2725;" horiz-adv-x="865" 
d="M50 348q0 22 42 64.5t64 42.5q14 0 40 -21t46 -46l163 -10l-10 157q-25 20 -46.5 46.5t-21.5 40.5q0 22 42 64.5t64 42.5t64.5 -42.5t42.5 -64.5q0 -14 -21.5 -40.5t-46.5 -46.5l-10 -157l160 10q20 25 46 46t40 21q22 0 64.5 -42.5t42.5 -64.5t-42.5 -64t-64.5 -42
q-15 0 -42.5 22.5t-46.5 48.5l-157 10l10 -162q25 -20 46.5 -46.5t21.5 -40.5q0 -22 -42.5 -64t-64.5 -42t-64 42t-42 64q0 14 21.5 40.5t46.5 46.5l10 162l-159 -10q-20 -26 -48 -48.5t-42 -22.5q-22 0 -64 42t-42 64z" />
    <glyph glyph-name="uni2726" unicode="&#x2726;" horiz-adv-x="825" 
d="M50 351q0 47 69 135.5t157 158.5t135 70t135.5 -70t158.5 -158.5t70 -135.5t-70 -135t-158.5 -157t-135.5 -69t-135 69t-157 157t-69 135z" />
    <glyph glyph-name="uni2727" unicode="&#x2727;" horiz-adv-x="822" 
d="M50 337v31q172 129 345 347h32q173 -218 345 -347v-31q-172 -129 -345 -347h-32q-173 218 -345 347z" />
    <glyph glyph-name="uni2756" unicode="&#x2756;" horiz-adv-x="826" 
d="M243 536v15q82 61 163 164h16q79 -100 163 -164v-15q-86 -65 -163 -165h-16q-79 103 -163 165zM50 345v15q84 64 163 164h16q79 -100 163 -164v-15q-82 -60 -163 -164h-16q-81 104 -163 164zM434 345v15q84 64 163 164h16q81 -103 163 -164v-15q-80 -58 -163 -164h-16
q-81 104 -163 164zM242 155v15q80 58 163 164h16q81 -104 163 -164v-15q-86 -65 -163 -165h-16q-79 103 -163 165z" />
    <glyph glyph-name="uni2766" unicode="&#x2766;" horiz-adv-x="885" 
d="M712 137l36 -33q-100 -116 -267 -113q-117 2 -196.5 81t-79.5 213q0 63 17.5 110t45.5 71.5t62 35t67 6t61 -20.5q-3 47 -18 84q-52 -15 -89 -15q-128 0 -166 138q-85 -36 -85 -151h-50q0 102 60 157t146 55q63 0 120 -32t92 -92q16 6 63 24t73 25.5t68 17t82 7.5t81 -13
l-10 -50q-19 5 -38 7.5t-39.5 2t-36 -1.5t-39 -6.5t-35.5 -8t-38.5 -11t-35.5 -11.5t-38.5 -13.5t-36.5 -13.5q17 -47 20 -101q30 21 69.5 23t74 -13t58.5 -51t24 -85q0 -55 -23.5 -98.5t-57.5 -68.5t-68 -43t-57.5 -32t-23.5 -26q0 -27 39 -27q98 0 169 73z" />
    <glyph glyph-name="uni2776" unicode="&#x2776;" horiz-adv-x="815" 
d="M408 -8q-152 0 -255 104.5t-103 257.5q0 152 103 257.5t255 105.5q151 0 254 -105.5t103 -257.5q0 -150 -104 -256t-253 -106zM280 555l4 -40l105 10v-404h65v471h-10z" />
    <glyph glyph-name="uni2777" unicode="&#x2777;" horiz-adv-x="815" 
d="M408 -8q-152 0 -255 104.5t-103 257.5q0 152 103 257.5t255 105.5q151 0 254 -105.5t103 -257.5q0 -150 -104 -256t-253 -106zM468 462q0 -124 -193 -308v-33h272l6 54l-201 -5q181 167 181 295q0 64 -35.5 95t-96.5 31q-30 0 -57.5 -5.5t-40.5 -11.5l-13 -6v-54
q49 23 101 23q77 0 77 -75z" />
    <glyph glyph-name="uni2778" unicode="&#x2778;" horiz-adv-x="815" 
d="M408 -8q-152 0 -255 104.5t-103 257.5q0 152 103 257.5t255 105.5q151 0 254 -105.5t103 -257.5q0 -150 -104 -256t-253 -106zM353 390l-6 -49q73 -1 107 -27t34 -65q0 -38 -26 -60t-72 -22q-25 0 -51 4.5t-39 8.5l-14 5l-14 -53q54 -20 118 -20q78 0 121 39t43 98
q0 49 -32.5 81.5t-86.5 40.5q49 12 74 42.5t25 70.5q0 51 -35 79t-98 28q-28 0 -55.5 -5.5t-40.5 -11.5l-13 -6v-54q46 23 103 23q36 0 55.5 -16.5t19.5 -44.5q0 -80 -117 -86z" />
    <glyph glyph-name="uni2779" unicode="&#x2779;" horiz-adv-x="815" 
d="M408 -8q-152 0 -255 104.5t-103 257.5q0 152 103 257.5t255 105.5q151 0 254 -105.5t103 -257.5q0 -150 -104 -256t-253 -106zM430 249v-128h64q-3 30 -3 60v68h69l5 50l-74 -1v291l-53 11l-219 -321l18 -30h193zM430 297l-142 -3l112 168l33 59h1q-4 -32 -4 -61v-163z
" />
    <glyph glyph-name="uni277A" unicode="&#x277a;" horiz-adv-x="815" 
d="M408 -8q-152 0 -255 104.5t-103 257.5q0 152 103 257.5t255 105.5q151 0 254 -105.5t103 -257.5q0 -150 -104 -256t-253 -106zM536 531l3 60h-230l-12 -221q187 -17 187 -111q0 -42 -24.5 -66t-73.5 -24q-40 0 -105 18l-14 -53q56 -20 122 -20q78 0 120 41t42 104
q0 138 -201 164l6 113z" />
    <glyph glyph-name="uni277B" unicode="&#x277b;" horiz-adv-x="815" 
d="M408 -8q-152 0 -255 104.5t-103 257.5q0 152 103 257.5t255 105.5q151 0 254 -105.5t103 -257.5q0 -150 -104 -256t-253 -106zM409 407q-51 0 -91 -26q24 145 201 169l-6 51q-266 -31 -266 -277q0 -102 44 -160q39 -52 107 -52q74 0 113 45t39 112q0 66 -36.5 102
t-104.5 36zM407 162q-93 0 -93 163q35 29 81 29q90 0 90 -93q0 -99 -78 -99z" />
    <glyph glyph-name="uni277C" unicode="&#x277c;" horiz-adv-x="815" 
d="M407 716q152 0 255 -104.5t103 -257.5q0 -152 -103 -257.5t-255 -105.5q-151 0 -254 105.5t-103 257.5q0 150 104 256t253 106zM278 591l-6 -61l222 7q-121 -249 -182 -415l69 -20q89 283 179 477v12h-282z" />
    <glyph glyph-name="uni277D" unicode="&#x277d;" horiz-adv-x="815" 
d="M407 716q152 0 255 -104.5t103 -257.5q0 -152 -103 -257.5t-255 -105.5q-151 0 -254 105.5t-103 257.5q0 150 104 256t253 106zM257 238q0 -59 41.5 -91.5t109.5 -32.5q60 0 104 37t44 95q0 46 -27 75t-74 55q35 17 61 46t27 69q1 49 -36.5 78.5t-95.5 29.5
q-61 0 -101 -32t-40 -86q0 -66 83 -114q-39 -17 -67.5 -50.5t-28.5 -78.5zM493 240q0 -35 -24.5 -55t-62.5 -20q-41 0 -63 21.5t-22 55.5q0 61 68 105q27 -15 39.5 -22.5t31 -22t26 -29.5t7.5 -33zM334 488q0 27 20.5 43t53.5 16q35 0 53.5 -17t17.5 -45q-1 -47 -60 -90
q-42 23 -63.5 43t-21.5 50z" />
    <glyph glyph-name="uni277E" unicode="&#x277e;" horiz-adv-x="815" 
d="M407 716q152 0 255 -104.5t103 -257.5q0 -152 -103 -257.5t-255 -105.5q-151 0 -254 105.5t-103 257.5q0 150 104 256t253 106zM419 307q32 0 76 11q-18 -81 -71.5 -115t-133.5 -43l11 -48q267 24 267 288q0 199 -153 199q-73 0 -111.5 -43t-38.5 -110q0 -66 40.5 -102.5
t113.5 -36.5zM502 391q0 -15 -1 -23q-33 -11 -70 -11q-49 0 -75 26.5t-26 69.5q0 46 20.5 72t60.5 26q91 0 91 -160z" />
    <glyph glyph-name="uni277F" unicode="&#x277f;" horiz-adv-x="815" 
d="M407 716q152 0 255 -104.5t103 -257.5q0 -152 -103 -257.5t-255 -105.5q-151 0 -254 105.5t-103 257.5q0 150 104 256t253 106zM410 171q-52 0 -76 59.5t-24 150.5q0 72 24 121t68 49q51 0 76.5 -60.5t25.5 -149.5q0 -71 -25.5 -120.5t-68.5 -49.5zM400 121
q85 0 128.5 68t43.5 186q0 92 -42 159t-115 67q-85 0 -129 -68.5t-44 -185.5q0 -91 42.5 -158.5t115.5 -67.5z" />
    <glyph glyph-name="uni2780" unicode="&#x2780;" horiz-adv-x="815" 
d="M408 -8q-152 0 -255 104.5t-103 257.5q0 152 103 257.5t255 105.5q151 0 254 -105.5t103 -257.5q0 -150 -104 -256t-253 -106zM284 515l-4 40l164 37h10v-471h-65v404zM408 26q135 0 229 96t94 232q0 138 -93 233.5t-230 95.5t-231 -95.5t-94 -233.5t93.5 -233t231.5 -95
z" />
    <glyph glyph-name="uni2781" unicode="&#x2781;" horiz-adv-x="815" 
d="M468 462q0 75 -77 75q-23 0 -48.5 -5.5t-38.5 -11.5l-14 -6v54q44 23 111 23q61 0 96.5 -31t35.5 -95q0 -128 -181 -295l201 5l-6 -54h-272v33q193 184 193 308zM408 -8q-152 0 -255 104.5t-103 257.5q0 152 103 257.5t255 105.5q151 0 254 -105.5t103 -257.5
q0 -150 -104 -256t-253 -106zM408 26q135 0 229 96t94 232q0 138 -93 233.5t-230 95.5t-231 -95.5t-94 -233.5t93.5 -233t231.5 -95z" />
    <glyph glyph-name="uni2782" unicode="&#x2782;" horiz-adv-x="815" 
d="M347 341l6 49q117 6 117 86q0 28 -19.5 44.5t-55.5 16.5q-25 0 -51 -5.5t-39 -11.5l-13 -6v54q45 23 109 23q63 0 98 -28t35 -79q0 -40 -25 -70.5t-74 -42.5q54 -8 86.5 -40.5t32.5 -81.5q0 -59 -43 -98t-121 -39q-28 0 -57.5 5t-44.5 10l-16 5l14 53q48 -18 104 -18
q46 0 72 22t26 60q0 39 -34 65t-107 27zM408 -8q-152 0 -255 104.5t-103 257.5q0 152 103 257.5t255 105.5q151 0 254 -105.5t103 -257.5q0 -150 -104 -256t-253 -106zM408 26q135 0 229 96t94 232q0 138 -93 233.5t-230 95.5t-231 -95.5t-94 -233.5t93.5 -233t231.5 -95z
" />
    <glyph glyph-name="uni2783" unicode="&#x2783;" horiz-adv-x="815" 
d="M430 121v128h-193l-18 30l219 321l53 -11v-291l74 1l-5 -50h-69v-68l3 -60h-64zM288 294l142 3v163l4 61h-1q-11 -23 -33 -59zM408 -8q-152 0 -255 104.5t-103 257.5q0 152 103 257.5t255 105.5q151 0 254 -105.5t103 -257.5q0 -150 -104 -256t-253 -106zM408 26
q135 0 229 96t94 232q0 138 -93 233.5t-230 95.5t-231 -95.5t-94 -233.5t93.5 -233t231.5 -95z" />
    <glyph glyph-name="uni2784" unicode="&#x2784;" horiz-adv-x="815" 
d="M539 591l-3 -60l-180 5l-6 -113q201 -26 201 -164q0 -63 -42 -104t-120 -41q-66 0 -122 20l14 53q65 -18 105 -18q49 0 73.5 24t24.5 66q0 94 -187 111l12 221h230zM408 -8q-152 0 -255 104.5t-103 257.5q0 152 103 257.5t255 105.5q151 0 254 -105.5t103 -257.5
q0 -150 -104 -256t-253 -106zM408 26q135 0 229 96t94 232q0 138 -93 233.5t-230 95.5t-231 -95.5t-94 -233.5t93.5 -233t231.5 -95z" />
    <glyph glyph-name="uni2785" unicode="&#x2785;" horiz-adv-x="815" 
d="M409 407q68 0 104.5 -36t36.5 -102q0 -67 -39 -112t-113 -45q-68 0 -107 52q-44 58 -44 160q0 246 266 277l6 -51q-177 -24 -201 -169q40 26 91 26zM407 162q78 0 78 99q0 93 -90 93q-46 0 -81 -29q0 -163 93 -163zM408 -8q-152 0 -255 104.5t-103 257.5q0 152 103 257.5
t255 105.5q151 0 254 -105.5t103 -257.5q0 -150 -104 -256t-253 -106zM408 26q135 0 229 96t94 232q0 138 -93 233.5t-230 95.5t-231 -95.5t-94 -233.5t93.5 -233t231.5 -95z" />
    <glyph glyph-name="uni2786" unicode="&#x2786;" horiz-adv-x="815" 
d="M272 530l6 61h282v-12q-90 -194 -179 -477l-69 20q61 166 182 415zM408 -8q-152 0 -255 104.5t-103 257.5q0 152 103 257.5t255 105.5q151 0 254 -105.5t103 -257.5q0 -150 -104 -256t-253 -106zM408 26q135 0 229 96t94 232q0 138 -93 233.5t-230 95.5t-231 -95.5
t-94 -233.5t93.5 -233t231.5 -95z" />
    <glyph glyph-name="uni2787" unicode="&#x2787;" horiz-adv-x="815" 
d="M257 238q0 45 28.5 78.5t67.5 50.5q-83 48 -83 114q0 54 40 86t101 32q58 0 95.5 -29.5t36.5 -78.5q-1 -40 -27 -69t-61 -46q47 -26 74 -55t27 -75q0 -58 -44 -95t-104 -37q-68 0 -109.5 32.5t-41.5 91.5zM493 240q0 18 -7.5 33t-26 29.5t-31 22t-39.5 22.5
q-68 -44 -68 -105q0 -34 22 -55.5t63 -21.5q38 0 62.5 20t24.5 55zM334 488q0 -30 21.5 -50t63.5 -43q59 43 60 90q1 28 -17.5 45t-53.5 17q-33 0 -53.5 -16t-20.5 -43zM408 -8q-152 0 -255 104.5t-103 257.5q0 152 103 257.5t255 105.5q151 0 254 -105.5t103 -257.5
q0 -150 -104 -256t-253 -106zM408 26q135 0 229 96t94 232q0 138 -93 233.5t-230 95.5t-231 -95.5t-94 -233.5t93.5 -233t231.5 -95z" />
    <glyph glyph-name="uni2788" unicode="&#x2788;" horiz-adv-x="815" 
d="M419 307q-73 0 -113.5 36.5t-40.5 102.5q0 67 38.5 110t111.5 43q153 0 153 -199q0 -264 -267 -288l-11 48q80 9 133.5 43t71.5 115q-44 -11 -76 -11zM502 391q0 160 -91 160q-40 0 -60.5 -26t-20.5 -72q0 -43 26 -69.5t75 -26.5q37 0 70 11q1 8 1 23zM408 -8
q-152 0 -255 104.5t-103 257.5q0 152 103 257.5t255 105.5q151 0 254 -105.5t103 -257.5q0 -150 -104 -256t-253 -106zM408 26q135 0 229 96t94 232q0 138 -93 233.5t-230 95.5t-231 -95.5t-94 -233.5t93.5 -233t231.5 -95z" />
    <glyph glyph-name="uni2789" unicode="&#x2789;" horiz-adv-x="815" 
d="M408 -8q-152 0 -255 104.5t-103 257.5q0 152 103 257.5t255 105.5q151 0 254 -105.5t103 -257.5q0 -150 -104 -256t-253 -106zM408 26q135 0 229 96t94 232q0 138 -93 233.5t-230 95.5t-231 -95.5t-94 -233.5t93.5 -233t231.5 -95zM410 171q43 0 68.5 49.5t25.5 120.5
q0 89 -25.5 149.5t-76.5 60.5q-44 0 -68 -49t-24 -121q0 -91 24 -150.5t76 -59.5zM400 121q-73 0 -115.5 67.5t-42.5 158.5q0 117 44 185.5t129 68.5q73 0 115 -67t42 -159q0 -118 -43.5 -186t-128.5 -68z" />
    <glyph glyph-name="uni278A" unicode="&#x278a;" horiz-adv-x="815" 
d="M280 555l4 -40l105 10v-404h65v471h-10zM86 0l-30 29v642l30 29h643l29 -29v-643l-29 -28h-643z" />
    <glyph glyph-name="uni278B" unicode="&#x278b;" horiz-adv-x="815" 
d="M468 462q0 -124 -193 -308v-33h272l6 54l-201 -5q181 167 181 295q0 64 -35.5 95t-96.5 31q-30 0 -57.5 -5.5t-40.5 -11.5l-13 -6v-54q49 23 101 23q77 0 77 -75zM86 0l-30 29v642l30 29h643l29 -29v-643l-29 -28h-643z" />
    <glyph glyph-name="uni278C" unicode="&#x278c;" horiz-adv-x="815" 
d="M353 390l-6 -49q73 -1 107 -27t34 -65q0 -38 -26 -60t-72 -22q-25 0 -51 4.5t-39 8.5l-14 5l-14 -53q54 -20 118 -20q78 0 121 39t43 98q0 49 -32.5 81.5t-86.5 40.5q49 12 74 42.5t25 70.5q0 51 -35 79t-98 28q-28 0 -55.5 -5.5t-40.5 -11.5l-13 -6v-54q46 23 103 23
q36 0 55.5 -16.5t19.5 -44.5q0 -80 -117 -86zM86 0l-30 29v642l30 29h643l29 -29v-643l-29 -28h-643z" />
    <glyph glyph-name="uni278D" unicode="&#x278d;" horiz-adv-x="815" 
d="M430 249v-128h64q-3 30 -3 60v68h69l5 50l-74 -1v291l-53 11l-219 -321l18 -30h193zM430 297l-142 -3l112 168l33 59h1q-4 -32 -4 -61v-163zM86 0l-30 29v642l30 29h643l29 -29v-643l-29 -28h-643z" />
    <glyph glyph-name="uni278E" unicode="&#x278e;" horiz-adv-x="815" 
d="M536 531l3 60h-230l-12 -221q187 -17 187 -111q0 -42 -24.5 -66t-73.5 -24q-40 0 -105 18l-14 -53q56 -20 122 -20q78 0 120 41t42 104q0 138 -201 164l6 113zM86 0l-30 29v642l30 29h643l29 -29v-643l-29 -28h-643z" />
    <glyph glyph-name="uni278F" unicode="&#x278f;" horiz-adv-x="815" 
d="M409 407q-51 0 -91 -26q24 145 201 169l-6 51q-266 -31 -266 -277q0 -102 44 -160q39 -52 107 -52q74 0 113 45t39 112q0 66 -36.5 102t-104.5 36zM407 162q-93 0 -93 163q35 29 81 29q90 0 90 -93q0 -99 -78 -99zM86 0l-30 29v642l30 29h643l29 -29v-643l-29 -28h-643z
" />
    <glyph glyph-name="uni2790" unicode="&#x2790;" horiz-adv-x="815" 
d="M278 591l-6 -61l222 7q-121 -249 -182 -415l69 -20q89 283 179 477v12h-282zM86 0l-30 29v642l30 29h643l29 -29v-643l-29 -28h-643z" />
    <glyph glyph-name="uni2791" unicode="&#x2791;" horiz-adv-x="815" 
d="M257 238q0 -59 41.5 -91.5t109.5 -32.5q60 0 104 37t44 95q0 46 -27 75t-74 55q35 17 61 46t27 69q1 49 -36.5 78.5t-95.5 29.5q-61 0 -101 -32t-40 -86q0 -66 83 -114q-39 -17 -67.5 -50.5t-28.5 -78.5zM493 240q0 -35 -24.5 -55t-62.5 -20q-41 0 -63 21.5t-22 55.5
q0 61 68 105q27 -15 39.5 -22.5t31 -22t26 -29.5t7.5 -33zM334 488q0 27 20.5 43t53.5 16q35 0 53.5 -17t17.5 -45q-1 -47 -60 -90q-42 23 -63.5 43t-21.5 50zM86 0l-30 29v642l30 29h643l29 -29v-643l-29 -28h-643z" />
    <glyph glyph-name="uni2792" unicode="&#x2792;" horiz-adv-x="815" 
d="M419 307q32 0 76 11q-18 -81 -71.5 -115t-133.5 -43l11 -48q267 24 267 288q0 199 -153 199q-73 0 -111.5 -43t-38.5 -110q0 -66 40.5 -102.5t113.5 -36.5zM502 391q0 -15 -1 -23q-33 -11 -70 -11q-49 0 -75 26.5t-26 69.5q0 46 20.5 72t60.5 26q91 0 91 -160zM86 0
l-30 29v642l30 29h643l29 -29v-643l-29 -28h-643z" />
    <glyph glyph-name="uni2793" unicode="&#x2793;" horiz-adv-x="815" 
d="M86 0l-30 29v642l30 29h643l29 -29v-643l-29 -28h-643zM410 171q-52 0 -76 59.5t-24 150.5q0 72 24 121t68 49q51 0 76.5 -60.5t25.5 -149.5q0 -71 -25.5 -120.5t-68.5 -49.5zM400 121q85 0 128.5 68t43.5 186q0 92 -42 159t-115 67q-85 0 -129 -68.5t-44 -185.5
q0 -91 42.5 -158.5t115.5 -67.5z" />
    <glyph glyph-name="uni2794" unicode="&#x2794;" horiz-adv-x="796" 
d="M623 280l-4 3q-43 39 -85 88.5t-55 76.5h90q50 -76 123 -142l50 -46v-29l-50 -46q-72 -67 -123 -142h-90q12 26 54.5 74.5t86.5 88.5h-542v74h545z" />
    <glyph glyph-name="uni2799" unicode="&#x2799;" horiz-adv-x="787" 
d="M505 280v202h37q49 -90 143 -176l50 -46v-29l-50 -46q-94 -86 -143 -176h-37v197h-434v74h434z" />
    <glyph glyph-name="uni279B" unicode="&#x279b;" horiz-adv-x="781" 
d="M65 211v69l475 1q-75 20 -140 70t-87 97l70 46q26 -47 137.5 -125t208.5 -109v-29q-97 -31 -208.5 -109t-137.5 -125l-70 46q22 47 87 97t140 70z" />
    <glyph glyph-name="uni27B3" unicode="&#x27b3;" horiz-adv-x="1186" 
d="M816 61h-10v145h-295l-23 -21q-94 -86 -143 -176l-64 34q15 33 50 81.5t74 83.5l42 37l-42 38q-39 35 -74 83.5t-50 81.5l64 34q49 -90 143 -176l29 -26h289v153h10q21 -7 56 -21t120 -61.5t142 -100.5v-9q-57 -52 -136.5 -97t-130.5 -64zM237 245l-42 38
q-66 60 -116 150l65 34q46 -79 134 -161l50 -46v-29l-50 -46q-84 -77 -133 -159l-65 35q48 86 115 147z" />
    <glyph glyph-name="uni27B4" unicode="&#x27b4;" horiz-adv-x="972" 
d="M572 -34l-7 7l103 103l-209 209l-31 1q-125 6 -225 -23l-22 69q35 13 93.5 22.5t111.5 6.5l56 -4l-3 57q-3 52 6.5 110.5t22.5 93.5l69 -21q-29 -102 -23 -225l2 -39l204 -205l108 109l7 -8q10 -20 25 -54.5t41.5 -128t29.5 -171.5l-6 -6q-77 3 -165.5 27.5t-137.5 47.5z
M293 506l-3 56q-4 87 24 189l70 -22q-23 -93 -19 -209l3 -68l-20 -20l-68 3q-115 4 -207 -19l-21 71q93 28 185 22z" />
    <glyph glyph-name="uni27B5" unicode="&#x27b5;" horiz-adv-x="1186" 
d="M380 61h-10q-8 3 -21.5 7.5t-53 21.5t-76.5 36.5t-84 50.5t-83 64v9q57 53 136.5 98.5t130.5 65.5l51 19h10v-153h289l29 26q94 86 143 176l64 -34q-15 -33 -50 -81.5t-74 -83.5l-42 -38l42 -37q39 -35 74 -83.5t50 -81.5l-64 -34q-49 90 -143 176l-23 21h-295v-145z
M991 283l-42 -38l42 -37q67 -61 115 -147l-65 -35q-49 82 -133 159l-50 46v29l50 46q88 82 134 161l65 -34q-50 -90 -116 -150z" />
    <glyph glyph-name="uni27B6" unicode="&#x27b6;" horiz-adv-x="974" 
d="M558 647l7 7q20 10 54.5 25t128 42t170.5 30l6 -6q-3 -78 -27 -166.5t-47 -138.5l-22 -49l-7 -8l-108 109l-204 -205l-2 -39q-6 -123 23 -225l-69 -21q-13 35 -22.5 93.5t-6.5 110.5l3 57l-56 -4q-53 -3 -111.5 6.5t-93.5 22.5l22 69q100 -29 225 -23l31 1l209 209z
M283 58l3 56l-56 -3q-92 -6 -185 22l21 71q92 -23 207 -19l68 3l20 -20l-3 -68q-4 -116 19 -209l-70 -22q-28 102 -24 189z" />
    <glyph glyph-name="uni27BB" unicode="&#x27bb;" horiz-adv-x="870" 
d="M689 280l-4 3q-39 35 -74 83.5t-50 81.5l64 34q49 -90 143 -176l50 -46v-29l-50 -46q-94 -86 -143 -176l-64 34q15 33 49.5 80.5t72.5 82.5h-163q-112 0 -233.5 -21.5t-205.5 -46.5v216q11 -2 75 -18t111.5 -26t120.5 -20t133 -10h168z" />
    <glyph glyph-name="uni27BC" unicode="&#x27bc;" horiz-adv-x="899" 
d="M718 280l-4 3q-39 35 -74 83.5t-50 81.5l64 34q49 -90 143 -176l50 -46v-29l-50 -46q-94 -86 -143 -176l-64 34q15 33 49.5 80.5t72.5 82.5h-284q-15 -29 -61.5 -48t-101.5 -19h-192q6 2 16 7.5t23.5 16.5t23 29.5t9.5 40.5v24q0 31 -16.5 54.5t-29.5 31t-21 9.5h40h47.5
t44.5 0.5t34 0.5h14q57 0 105.5 -20.5t64.5 -52.5h290z" />
    <glyph glyph-name="uni27BD" unicode="&#x27bd;" horiz-adv-x="904" 
d="M723 280l-4 3q-39 35 -74 83.5t-50 81.5l64 34q49 -90 143 -176l50 -46v-29l-50 -46q-94 -86 -143 -176l-64 34q15 33 49.5 80.5t72.5 82.5h-284l-54 -67h-301l72 84v44l-72 85l301 1l54 -73h290z" />
    <glyph glyph-name="uni27BE" unicode="&#x27be;" horiz-adv-x="787" 
d="M70 190v105h477q-63 69 -99 145l94 48q51 -92 139 -174l53 -48v-43l-53 -48q-87 -80 -139 -173l-94 48q13 28 40.5 69t54.5 71h-473zM590 279l4 -2h-505v-69h499q-36 -32 -68 -76t-47 -74l60 -31q47 82 135 162l47 42v27l-47 43q-90 81 -135 162l-60 -31q14 -31 47 -76
t70 -77z" />
    <glyph glyph-name="commaaccent" unicode="&#xf6c3;" horiz-adv-x="170" 
d="M12 -282q77 52 85 116q-26 2 -43.5 19t-17.5 42q0 27 18 43.5t46 16.5t46.5 -18.5t18.5 -53.5q0 -62 -33 -119.5t-88 -86.5z" />
    <glyph glyph-name="uniFFFD" unicode="&#xfffd;" horiz-adv-x="1022" 
d="M30 267l481 482l481 -482l-481 -480zM496 480q41 0 64 -16.5t23 -44.5q0 -30 -23 -57.5t-50 -46t-50 -48t-23 -63.5q0 -31 22 -51.5t52 -20.5q35 0 71 30l-33 42q-11 -9 -21 -9q-7 0 -12 6.5t-5 13.5q0 14 15.5 30.5t37.5 33t44.5 36t38 48t15.5 60.5q0 49 -37.5 84
t-117.5 35q-38 0 -69.5 -9.5t-43.5 -18.5l-13 -10v-62q46 38 115 38zM501 -35q25 0 40 14t15 38q0 22 -13.5 34.5t-36.5 12.5q-25 0 -40.5 -13t-15.5 -36q0 -22 14 -36t37 -14z" />
    <glyph glyph-name="A.sc" horiz-adv-x="577" 
d="M91 200l161 401l73 6l196 -505l46 -102l-98 -5l-49 125h-282q-26 -75 -36 -120h-81q13 60 70 200zM241 391l-78 -204h232l-78 202q-11 28 -20 55t-13 40l-3 13h-2q-15 -44 -38 -106z" />
    <glyph glyph-name="B.sc" horiz-adv-x="560" 
d="M99 0v524q0 46 -6 77h175q106 0 160 -41.5t54 -118.5q0 -50 -28 -85t-75 -49v-3q52 -9 85 -42.5t33 -92.5q0 -78 -59 -123.5t-162 -45.5h-177zM290 267h-98v-197h96q53 0 82 26.5t29 72.5q0 98 -109 98zM269 531h-77v-195h130q30 12 46 38t16 59q0 98 -115 98z" />
    <glyph glyph-name="C.sc" horiz-adv-x="582" 
d="M340 531q-85 0 -131.5 -60.5t-46.5 -167.5q0 -111 52 -172.5t156 -61.5q38 0 75 7.5t55 14.5l18 7l13 -67q-7 -5 -20.5 -11.5t-58.5 -18t-94 -11.5q-132 0 -214 77.5t-82 223.5q0 62 17.5 118t51 101.5t89 72.5t125.5 27q40 0 73.5 -6.5t71 -20t46.5 -16.5l-29 -78
q-16 4 -46 16t-58 19t-63 7z" />
    <glyph glyph-name="D.sc" horiz-adv-x="659" 
d="M99 0v523q0 45 -6 77h188q147 0 233 -74.5t86 -216.5q0 -151 -92.5 -230t-243.5 -79h-165zM244 528h-52v-456h80q107 0 169 61t62 164q0 231 -259 231z" />
    <glyph glyph-name="E.sc" horiz-adv-x="549" 
d="M491 601l-5 -76q-34 3 -72 4l-222 4v-199l234 3l-5 -75l-229 4v-199l223 4l81 5l-5 -76h-392v498l-6 103h398z" />
    <glyph glyph-name="F.sc" horiz-adv-x="509" 
d="M471 601l-5 -76q-49 4 -93 5l-181 3v-220l234 3l-5 -75l-229 4v-152l5 -93l-98 -5v503l-6 103h378z" />
    <glyph glyph-name="G.sc" horiz-adv-x="639" 
d="M358 530q-105 0 -153 -62t-48 -170q0 -111 61 -172t177 -61q19 0 40.5 1.5t33.5 3.5l12 2v104q0 37 -5 89l93 5v-248q-70 -32 -191 -32q-147 0 -232.5 77t-85.5 224q0 138 84.5 228t222.5 90q43 0 77 -6.5t74 -20t46 -15.5l-29 -78q-11 3 -42 14.5t-63.5 19t-71.5 7.5z
" />
    <glyph glyph-name="H.sc" horiz-adv-x="698" 
d="M506 0v263h-314v-170l5 -93h-98v498l-6 103l99 5v-269h314v161l-6 103l99 5v-513l5 -93h-98z" />
    <glyph glyph-name="I.sc" horiz-adv-x="291" 
d="M99 0v498l-6 103l99 5v-513l5 -93h-98z" />
    <glyph glyph-name="J.sc" horiz-adv-x="291" 
d="M100 90v408l-6 103l98 5v-515q0 -66 -15 -105q-11 -29 -28.5 -58.5t-30 -46t-38.5 -48t-34 -41.5l-58 48q11 15 38 47.5t41.5 55.5t22.5 50q10 37 10 97z" />
    <glyph glyph-name="K.sc" horiz-adv-x="580" 
d="M192 265v-172l5 -93h-98v498l-6 103l99 5v-270h71l104 143q27 37 46 67.5t25 42.5l5 12h94q-28 -62 -112 -171l-95 -128l229 -302h-112l-196 265h-59z" />
    <glyph glyph-name="L.sc" horiz-adv-x="514" 
d="M99 0v498l-6 103l99 5v-534l217 3l87 6l-5 -81h-392z" />
    <glyph glyph-name="M.sc" horiz-adv-x="834" 
d="M94 601l97 5l226 -361l222 356l96 5v-515l5 -91h-101v406l4 73h-4q-12 -32 -33 -65l-190 -302h-14l-184 289q-10 15 -19.5 31.5t-14.5 25.5l-4 9h-3q5 -37 5 -76v-301l5 -90h-88v496z" />
    <glyph glyph-name="N.sc" horiz-adv-x="712" 
d="M528 218v267l-5 116l90 5v-486l4 -120h-89l-301 406l-45 72l-4 -1q6 -44 6 -84v-273l5 -120h-90v511l-5 90l90 5l295 -403q11 -15 24 -35t20 -33l7 -13l5 1q-7 52 -7 95z" />
    <glyph glyph-name="O.sc" horiz-adv-x="707" 
d="M366 61q93 0 137.5 60t44.5 152q0 117 -52 191.5t-157 74.5q-91 0 -136 -62t-45 -154q0 -115 53 -188.5t155 -73.5zM343 -10q-132 0 -206.5 83.5t-74.5 221.5q0 60 17 114.5t51 100.5t94 73t139 27q132 0 207 -85.5t75 -223.5q0 -60 -17 -114t-51 -99t-94.5 -71.5
t-139.5 -26.5z" />
    <glyph glyph-name="P.sc" horiz-adv-x="577" 
d="M99 0v498l-6 103h201q109 0 173.5 -60.5t64.5 -151.5q0 -98 -71.5 -160t-181.5 -62h-87v-74l5 -93h-98zM280 526h-88v-284h82q80 0 121.5 38.5t41.5 108.5q0 61 -41.5 99t-115.5 38z" />
    <glyph glyph-name="Q.sc" horiz-adv-x="707" 
d="M343 -10q-132 0 -206.5 83.5t-74.5 221.5q0 60 17 114.5t51 100.5t94 73t139 27q132 0 207 -85.5t75 -223.5q0 -86 -33.5 -158t-102.5 -113l67 -107l52 -76l-106 -5l-92 158q-43 -10 -87 -10zM366 61q93 0 137.5 60t44.5 152q0 117 -52 191.5t-157 74.5q-91 0 -136 -62
t-45 -154q0 -115 53 -188.5t155 -73.5z" />
    <glyph glyph-name="R.sc" horiz-adv-x="597" 
d="M99 0v498l-6 103h191q112 0 175 -51.5t63 -140.5q0 -122 -112 -174l96 -159l52 -76l-108 -5l-124 216q-24 -4 -57 -4h-77v-114l5 -93h-98zM270 526h-78v-244h72q84 0 123.5 29.5t39.5 97.5q0 117 -157 117z" />
    <glyph glyph-name="S.sc" horiz-adv-x="528" 
d="M273 531q-115 0 -115 -85q0 -21 9.5 -37t31.5 -29t39.5 -20t51.5 -19q92 -31 138.5 -70.5t46.5 -115.5q0 -72 -60 -119t-163 -47q-53 0 -101 9.5t-69 19.5l-21 10l22 70q73 -30 169 -30q56 0 91 20.5t35 63.5q0 23 -9 40t-30 29.5t-43 22t-58 22.5q-13 5 -20 7
q-81 29 -119 64.5t-38 107.5q0 75 58 120t154 45q32 0 60.5 -4t44.5 -8.5t41 -12.5t36 -11l-29 -78q-12 3 -42 13.5t-55 16t-56 5.5z" />
    <glyph glyph-name="T.sc" horiz-adv-x="549" 
d="M225 0v528l-126 -2l-77 -6l5 81h502l-5 -81q-27 5 -78 6l-128 2v-435l5 -93h-98z" />
    <glyph glyph-name="U.sc" horiz-adv-x="682" 
d="M592 601v-328q0 -129 -63.5 -206.5t-191.5 -77.5q-119 0 -182 69t-63 198v244q0 26 -1.5 51.5t-2.5 37.5l-2 12h104v-336q0 -201 156 -201q80 0 119 54.5t39 149.5v232q0 27 -1.5 52t-2.5 37l-2 12h94z" />
    <glyph glyph-name="V.sc" horiz-adv-x="574" 
d="M335 211l103 271q24 64 36 121h81q-14 -62 -70 -201l-161 -401l-73 -6l-196 505l-46 102l98 5l152 -394q11 -28 20 -55t13 -40l3 -13h2q15 44 38 106z" />
    <glyph glyph-name="W.sc" horiz-adv-x="888" 
d="M413 601l77 4l106 -372q9 -32 16.5 -63t10.5 -46l3 -15h4q12 53 36 124l65 188q17 50 30 95t17 66l4 20h84q-17 -78 -60 -201l-143 -401l-87 -6l-107 361l-26 105h-3q-11 -58 -25 -106l-100 -354l-95 -6l-163 505q-15 44 -40 102l107 5l117 -373q10 -32 18 -63t11 -46
l3 -15h4q11 50 31 122z" />
    <glyph glyph-name="X.sc" horiz-adv-x="591" 
d="M450 -2l-162 244l-85 -120q-23 -33 -42.5 -63.5t-27.5 -44.5l-8 -14h-96q34 58 107 159l106 146l-145 213q-12 18 -28 38.5t-26 32.5l-10 12l115 5l156 -241l87 122q24 33 41.5 61.5t23.5 40.5l6 12h92q-22 -50 -96 -150l-111 -150l153 -216l65 -85z" />
    <glyph glyph-name="Y.sc" horiz-adv-x="553" 
d="M231 0v239l-179 281l-56 81l107 5l183 -300l100 171q21 36 37 67t21 44l6 13h92q-25 -56 -85 -152l-133 -213v-143l5 -93h-98z" />
    <glyph glyph-name="Z.sc" horiz-adv-x="539" 
d="M49 15l304 517l-215 -3l-88 -6l5 78h434v-15l-304 -517l232 4l72 5l-5 -78h-435v15z" />
    <glyph glyph-name="afii10017.sc" horiz-adv-x="577" 
d="M91 200l161 401l73 6l196 -505l46 -102l-98 -5l-49 125h-282q-26 -75 -36 -120h-81q13 60 70 200zM241 391l-78 -204h232l-78 202q-11 28 -20 55t-13 40l-3 13h-2q-15 -44 -38 -106z" />
    <glyph glyph-name="afii10018.sc" horiz-adv-x="581" 
d="M99 0v515q0 22 -1.5 43.5t-3.5 31.5l-1 11h398l-5 -75q-37 4 -90 5l-204 2v-167h126q97 0 153 -48t56 -131q0 -92 -62 -139.5t-164 -47.5h-202zM304 293h-112v-221h118q117 0 117 114q0 52 -33.5 79.5t-89.5 27.5z" />
    <glyph glyph-name="afii10019.sc" horiz-adv-x="560" 
d="M99 0v524q0 46 -6 77h175q106 0 160 -41.5t54 -118.5q0 -50 -28 -85t-75 -49v-3q52 -9 85 -42.5t33 -92.5q0 -78 -59 -123.5t-162 -45.5h-177zM290 267h-98v-197h96q53 0 82 26.5t29 72.5q0 98 -109 98zM269 531h-77v-195h130q30 12 46 38t16 59q0 98 -115 98z" />
    <glyph glyph-name="afii10020.sc" horiz-adv-x="490" 
d="M99 -5v503l-6 103h378l-5 -76q-50 5 -95 6l-179 2v-440l5 -93z" />
    <glyph glyph-name="afii10021.sc" horiz-adv-x="681" 
d="M19 -186l-3 258h49q58 81 82.5 197t27.5 332h382v-529h80v-162l5 -90l-87 -6l-3 186h-451v-90l5 -90zM255 527q-8 -316 -95 -455h304v455h-209z" />
    <glyph glyph-name="afii10022.sc" horiz-adv-x="549" 
d="M491 601l-5 -76q-34 3 -72 4l-222 4v-199l234 3l-5 -75l-229 4v-199l223 4l81 5l-5 -76h-392v498l-6 103h398z" />
    <glyph glyph-name="afii10023.sc" horiz-adv-x="549" 
d="M491 601l-5 -76q-34 3 -72 4l-222 4v-199l234 3l-5 -75l-229 4v-199l223 4l81 5l-5 -76h-392v498l-6 103h398zM188 672q-26 0 -42.5 16t-16.5 41q0 26 18 41t46 15q27 0 42.5 -14.5t15.5 -39.5q0 -27 -17 -43t-46 -16zM388 672q-26 0 -42.5 16t-16.5 41q0 26 18 41t46 15
q27 0 42.5 -14.5t15.5 -39.5q0 -27 -17 -43t-46 -16z" />
    <glyph glyph-name="afii10024.sc" horiz-adv-x="873" 
d="M390 336v162l-6 103l99 5v-270h72l108 143q28 37 47 67.5t24 42.5l6 12h95q-30 -61 -115 -171l-99 -128l229 -302h-112l-196 265h-59v-172l5 -93h-98v265h-61l-195 -265h-112l229 302l-98 128q-37 49 -66 91.5t-39 60.5l-11 17l93 10q21 -47 83 -130l108 -143h69z" />
    <glyph glyph-name="afii10025.sc" horiz-adv-x="521" 
d="M237 531q-35 0 -62 -6.5t-55.5 -18t-44.5 -15.5l-29 76q9 3 45.5 16.5t71 20t78.5 6.5q98 0 152 -43.5t54 -114.5q0 -53 -32.5 -91.5t-92.5 -47.5v-3q66 -8 101.5 -42.5t35.5 -93.5q0 -84 -65.5 -134t-170.5 -50q-52 0 -98.5 9t-66.5 18l-21 9l22 72q81 -30 163 -30
q60 0 98.5 26.5t38.5 75.5q0 102 -136 102h-68v73h64q128 0 128 97q0 43 -30 66t-80 23z" />
    <glyph glyph-name="afii10026.sc" horiz-adv-x="698" 
d="M99 0v498l-6 103l99 5v-383l-5 -106h3q22 47 51 91l265 393h93v-508l5 -93h-98v409q0 43 5 75l-3 1q-24 -45 -40 -70l-276 -415h-93z" />
    <glyph glyph-name="afii10027.sc" horiz-adv-x="698" 
d="M363 675q-115 0 -184 67l54 68q4 -4 16 -15t17 -15t15.5 -12.5t18 -12t18 -8t21.5 -6.5t24 -2q15 0 28.5 3.5t22 6.5t23 13t18 13t20 18t18.5 17l54 -68q-27 -27 -76 -47t-108 -20zM99 0v498l-6 103l99 5v-383l-5 -106h3q22 47 51 91l265 393h93v-508l5 -93h-98v409
q0 43 5 75l-3 1q-24 -45 -40 -70l-276 -415h-93z" />
    <glyph glyph-name="afii10028.sc" horiz-adv-x="580" 
d="M192 265v-172l5 -93h-98v498l-6 103l99 5v-270h71l104 143q27 37 46 67.5t25 42.5l5 12h94q-28 -62 -112 -171l-95 -128l229 -302h-112l-196 265h-59z" />
    <glyph glyph-name="afii10029.sc" horiz-adv-x="645" 
d="M453 0v527h-211q-8 -253 -48 -369t-135 -168l-47 72q80 44 112 156.5t39 382.5h383v-508l5 -93h-98z" />
    <glyph glyph-name="afii10030.sc" horiz-adv-x="834" 
d="M94 601l97 5l226 -361l222 356l96 5v-515l5 -91h-101v406l4 73h-4q-12 -32 -33 -65l-190 -302h-14l-184 289q-10 15 -19.5 31.5t-14.5 25.5l-4 9h-3q5 -37 5 -76v-301l5 -90h-88v496z" />
    <glyph glyph-name="afii10031.sc" horiz-adv-x="698" 
d="M506 0v263h-314v-170l5 -93h-98v498l-6 103l99 5v-269h314v161l-6 103l99 5v-513l5 -93h-98z" />
    <glyph glyph-name="afii10032.sc" horiz-adv-x="707" 
d="M366 61q93 0 137.5 60t44.5 152q0 117 -52 191.5t-157 74.5q-91 0 -136 -62t-45 -154q0 -115 53 -188.5t155 -73.5zM343 -10q-132 0 -206.5 83.5t-74.5 221.5q0 60 17 114.5t51 100.5t94 73t139 27q132 0 207 -85.5t75 -223.5q0 -60 -17 -114t-51 -99t-94.5 -71.5
t-139.5 -26.5z" />
    <glyph glyph-name="afii10033.sc" horiz-adv-x="698" 
d="M506 0v527h-314v-434l5 -93h-98v498l-6 103h506v-508l5 -93h-98z" />
    <glyph glyph-name="afii10034.sc" horiz-adv-x="577" 
d="M99 0v498l-6 103h201q109 0 173.5 -60.5t64.5 -151.5q0 -98 -71.5 -160t-181.5 -62h-87v-74l5 -93h-98zM280 526h-88v-284h82q80 0 121.5 38.5t41.5 108.5q0 61 -41.5 99t-115.5 38z" />
    <glyph glyph-name="afii10035.sc" horiz-adv-x="582" 
d="M340 531q-85 0 -131.5 -60.5t-46.5 -167.5q0 -111 52 -172.5t156 -61.5q38 0 75 7.5t55 14.5l18 7l13 -67q-7 -5 -20.5 -11.5t-58.5 -18t-94 -11.5q-132 0 -214 77.5t-82 223.5q0 62 17.5 118t51 101.5t89 72.5t125.5 27q40 0 73.5 -6.5t71 -20t46.5 -16.5l-29 -78
q-16 4 -46 16t-58 19t-63 7z" />
    <glyph glyph-name="afii10036.sc" horiz-adv-x="549" 
d="M225 0v528l-126 -2l-77 -6l5 81h502l-5 -81q-27 5 -78 6l-128 2v-435l5 -93h-98z" />
    <glyph glyph-name="afii10037.sc" horiz-adv-x="537" 
d="M442 393l-186 -393h-91q21 49 71 138l-185 386q-10 22 -21 41t-16 27l-6 9l107 6l138 -299q24 -49 33 -82h2l92 216q19 44 33.5 83.5t19.5 57.5l5 18h82q-14 -72 -78 -208z" />
    <glyph glyph-name="afii10038.sc" horiz-adv-x="785" 
d="M345 -5v74q-149 0 -222 68.5t-73 176.5q0 111 73 176.5t221 66.5l-5 69l92 5v-74q149 0 222 -65.5t73 -177.5q0 -108 -73 -176.5t-222 -68.5l5 -74h-91zM431 490v-354q98 0 150.5 46.5t52.5 131.5q0 87 -53 131.5t-150 44.5zM142 314q0 -84 54 -131t149 -47v354
q-97 0 -150 -44.5t-53 -131.5z" />
    <glyph glyph-name="afii10039.sc" horiz-adv-x="591" 
d="M450 -2l-162 244l-85 -120q-23 -33 -42.5 -63.5t-27.5 -44.5l-8 -14h-96q34 58 107 159l106 146l-145 213q-12 18 -28 38.5t-26 32.5l-10 12l115 5l156 -241l87 122q24 33 41.5 61.5t23.5 40.5l6 12h92q-22 -50 -96 -150l-111 -150l153 -216l65 -85z" />
    <glyph glyph-name="afii10040.sc" horiz-adv-x="723" 
d="M597 -186l-3 186h-495v498l-6 103l99 5v-534h314v426l-6 103l99 5v-534h80v-162l5 -90z" />
    <glyph glyph-name="afii10041.sc" horiz-adv-x="609" 
d="M59 379v119l-6 103l99 5v-208q0 -71 31 -105t111 -36q30 -1 60.5 2.5t46.5 6.5l16 4v228l-6 103l99 5v-513l5 -93h-98v202q-57 -17 -125 -17q-115 0 -174 46t-59 148z" />
    <glyph glyph-name="afii10042.sc" horiz-adv-x="917" 
d="M99 0v498l-6 103l99 5v-534h220v426l-6 103l99 5v-534h220v426l-6 103l99 5v-513l5 -93h-724z" />
    <glyph glyph-name="afii10043.sc" horiz-adv-x="942" 
d="M99 0v498l-6 103l99 5v-534h220v426l-6 103l99 5v-534h220v426l-6 103l99 5v-534h80v-162l5 -90l-87 -6l-3 186h-714z" />
    <glyph glyph-name="afii10044.sc" horiz-adv-x="656" 
d="M21 524l4 77h255v-215h131q93 0 148.5 -54t55.5 -135q0 -93 -66 -145t-172 -52h-190v531l-80 -2zM387 313h-107v-240h97q63 0 100.5 29.5t37.5 86.5t-34.5 90.5t-93.5 33.5z" />
    <glyph glyph-name="afii10045.sc" horiz-adv-x="816" 
d="M99 0v515q0 22 -1.5 43.5t-3.5 31.5l-1 11l99 5v-220h131q93 0 148.5 -54t55.5 -135q0 -93 -66 -145t-172 -52h-190zM624 0v498l-6 103l99 5v-513l5 -93h-98zM299 313h-107v-240h97q63 0 100.5 29.5t37.5 86.5t-34.5 90.5t-93.5 33.5z" />
    <glyph glyph-name="afii10046.sc" horiz-adv-x="568" 
d="M99 0v515q0 22 -1.5 43.5t-3.5 31.5l-1 11l99 5v-220h131q93 0 148.5 -54t55.5 -135q0 -93 -66 -145t-172 -52h-190zM299 313h-107v-240h97q63 0 100.5 29.5t37.5 86.5t-34.5 90.5t-93.5 33.5z" />
    <glyph glyph-name="afii10047.sc" horiz-adv-x="577" 
d="M238 531q-32 0 -59 -6.5t-57 -18.5t-46 -16l-28 77q9 3 46.5 16.5t71 20t73.5 6.5q137 0 206.5 -88t69.5 -221q0 -141 -80 -226t-216 -85q-49 0 -92 10t-62 20l-19 11l13 67q63 -31 148 -31q187 0 206 194l-264 -8v83l265 -10q-6 91 -51 148t-125 57z" />
    <glyph glyph-name="afii10048.sc" horiz-adv-x="943" 
d="M584 -10q-123 0 -195 74t-80 199h-117v-170l5 -93h-98v498l-6 103l99 5v-269h118q6 55 24.5 102t52.5 86.5t89.5 62t127.5 22.5q132 0 204.5 -85t72.5 -224q0 -61 -16 -114t-49.5 -98.5t-93 -72t-138.5 -26.5zM607 61q92 0 134.5 59.5t42.5 152.5q0 118 -50 192t-154 74
q-91 0 -133.5 -61.5t-42.5 -154.5q0 -116 50.5 -189t152.5 -73z" />
    <glyph glyph-name="afii10049.sc" horiz-adv-x="608" 
d="M416 0v209h-125l-143 -209h-105l156 223q-62 21 -95.5 67t-33.5 109q0 95 65 148.5t173 53.5h201v-508l5 -93h-98zM307 278h109v250h-108q-62 0 -100 -32.5t-38 -92.5q0 -56 36.5 -90.5t100.5 -34.5z" />
    <glyph glyph-name="afii10050.sc" horiz-adv-x="489" 
d="M99 0v498l-6 103h293l16 149h69l-5 -225q-34 5 -81 5l-193 3v-440l5 -93h-98z" />
    <glyph glyph-name="afii10051.sc" horiz-adv-x="691" 
d="M223 0v530l-125 -3l-78 -6l5 80h503l-5 -80q-39 6 -92 7l-115 2v-168q63 20 137 20q93 0 141.5 -53t48.5 -152q0 -84 -28.5 -136t-87.5 -86l-49 63q39 24 55.5 60t16.5 91q0 137 -128 137q-47 0 -106 -11v-202l5 -93h-98z" />
    <glyph glyph-name="afii10052.sc" horiz-adv-x="490" 
d="M291 655l-40 42l160 181l67 -69zM99 -5v503l-6 103h378l-5 -76q-50 5 -95 6l-179 2v-440l5 -93z" />
    <glyph glyph-name="afii10053.sc" horiz-adv-x="579" 
d="M339 531q-73 0 -121.5 -52.5t-55.5 -143.5l269 4v-78l-269 6q8 -95 60 -146.5t147 -51.5q38 0 75 7.5t55 14.5l18 7l13 -67q-7 -5 -20.5 -11.5t-58.5 -18t-94 -11.5q-132 0 -214 77.5t-82 223.5q0 83 31 154t97 118t155 47q40 0 73.5 -6.5t71 -20t46.5 -16.5l-29 -78
q-16 4 -46 16t-58 19t-63 7z" />
    <glyph glyph-name="afii10054.sc" horiz-adv-x="528" 
d="M273 531q-115 0 -115 -85q0 -21 9.5 -37t31.5 -29t39.5 -20t51.5 -19q92 -31 138.5 -70.5t46.5 -115.5q0 -72 -60 -119t-163 -47q-53 0 -101 9.5t-69 19.5l-21 10l22 70q73 -30 169 -30q56 0 91 20.5t35 63.5q0 23 -9 40t-30 29.5t-43 22t-58 22.5q-13 5 -20 7
q-81 29 -119 64.5t-38 107.5q0 75 58 120t154 45q32 0 60.5 -4t44.5 -8.5t41 -12.5t36 -11l-29 -78q-12 3 -42 13.5t-55 16t-56 5.5z" />
    <glyph glyph-name="afii10055.sc" horiz-adv-x="291" 
d="M99 0v498l-6 103l99 5v-513l5 -93h-98z" />
    <glyph glyph-name="afii10056.sc" horiz-adv-x="291" 
d="M42 705q-26 0 -42.5 16t-16.5 41q0 26 18 41t46 15q27 0 42.5 -14.5t15.5 -39.5q0 -27 -17 -43t-46 -16zM242 705q-26 0 -42.5 16t-16.5 41q0 26 18 41t46 15q27 0 42.5 -14.5t15.5 -39.5q0 -27 -17 -43t-46 -16zM99 0v498l-6 103l99 5v-513l5 -93h-98z" />
    <glyph glyph-name="afii10057.sc" horiz-adv-x="291" 
d="M100 90v408l-6 103l98 5v-515q0 -66 -15 -105q-11 -29 -28.5 -58.5t-30 -46t-38.5 -48t-34 -41.5l-58 48q11 15 38 47.5t41.5 55.5t22.5 50q10 37 10 97z" />
    <glyph glyph-name="afii10058.sc" horiz-adv-x="922" 
d="M453 527h-211q-8 -253 -48 -369t-135 -168l-47 72q80 44 112 156.5t39 382.5h383v-215h131q93 0 148.5 -54t55.5 -135q0 -93 -66 -145t-172 -52h-190v527zM653 313h-107v-240h97q63 0 100.5 29.5t37.5 86.5t-34.5 90.5t-93.5 33.5z" />
    <glyph glyph-name="afii10059.sc" horiz-adv-x="980" 
d="M506 0v263h-314v-170l5 -93h-98v498l-6 103l99 5v-269h314v161l-6 103l99 5v-220h136q93 0 148.5 -54t55.5 -135q0 -93 -66 -145t-172 -52h-195zM711 313h-112v-240h102q63 0 100.5 29.5t37.5 86.5t-34.5 90.5t-93.5 33.5z" />
    <glyph glyph-name="afii10060.sc" horiz-adv-x="699" 
d="M223 0l-1 530l-112 -2l-90 -7l6 80h502l-5 -80q-35 8 -85 8l-122 1v-167q59 19 131 19q196 0 196 -205v-177h-93v180q0 126 -128 126q-58 0 -106 -12v-201l5 -93h-98z" />
    <glyph glyph-name="afii10061.sc" horiz-adv-x="580" 
d="M192 265v-172l5 -93h-98v498l-6 103l99 5v-270h71l104 143q27 37 46 67.5t25 42.5l5 12h94q-28 -62 -112 -171l-95 -128l229 -302h-112l-196 265h-59zM300 661l-40 42l160 181l67 -69z" />
    <glyph glyph-name="afii10062.sc" horiz-adv-x="537" 
d="M266 672q-112 0 -184 70l54 68q4 -4 16 -15t17 -15t15.5 -12.5t18 -12t18 -8t21.5 -6.5t24 -2q15 0 28.5 3.5t22 6.5t23 13t18 13t20 18t18.5 17l54 -68q-28 -27 -77 -48.5t-107 -21.5zM442 393l-186 -393h-91q21 49 71 138l-185 386q-10 22 -21 41t-16 27l-6 9l107 6
l138 -299q24 -49 33 -82h2l92 216q19 44 33.5 83.5t19.5 57.5l5 18h82q-14 -72 -78 -208z" />
    <glyph glyph-name="afii10145.sc" horiz-adv-x="698" 
d="M99 0v498l-6 103l99 5v-534h314v426l-6 103l99 5v-513l5 -93h-205v-80l5 -90l-84 -6v176h-221z" />
    <glyph glyph-name="afii61352.sc" horiz-adv-x="1163" 
d="M742 17v74h342v-74h-342zM913 231q92 0 92 144q0 163 -100 163q-45 0 -67.5 -38t-22.5 -106q0 -73 23.5 -118t74.5 -45zM901 158q-84 0 -131 61t-47 155q0 103 49.5 170t146.5 67q84 0 131 -61t47 -155q0 -103 -49.5 -170t-146.5 -67zM526 210v275l-5 116l90 5v-486
l5 -120h-90l-301 397l-44 67l-4 -1q5 -39 5 -79v-264l5 -120h-90v511l-5 90l88 5l306 -404l42 -66l5 1q-7 49 -7 73z" />
    <glyph glyph-name="zero.set1" horiz-adv-x="625" 
d="M317 65q64 0 102.5 74t38.5 181q0 86 -15 154.5t-50.5 114.5t-87.5 46q-66 0 -102 -73.5t-36 -181.5q0 -64 8 -118.5t24.5 -99.5t46.5 -71t71 -26zM301 -10q-74 0 -129 50t-81 125.5t-26 163.5q0 176 66 278.5t193 102.5q74 0 129 -50t81 -125.5t26 -163.5
q0 -176 -66 -278.5t-193 -102.5z" />
    <glyph glyph-name="one.set1" horiz-adv-x="480" 
d="M53 591l-5 59l245 56h16v-634h147v-72h-391v72h146v533z" />
    <glyph glyph-name="two.set1" horiz-adv-x="535" 
d="M82 495v180q71 35 178 35q196 0 196 -167q0 -36 -13 -74.5t-28 -68t-55 -80.5t-65 -80t-86 -99l-61 -70l336 14l-3 -85h-433v60l87 104q129 154 176 227.5t47 146.5q0 94 -114 94q-39 0 -87 -11l-10 -126h-65z" />
    <glyph glyph-name="three.set1" horiz-adv-x="542" 
d="M166 324v73l42 1q70 2 114 40t44 93q0 49 -34.5 78t-88.5 29q-45 0 -94 -11l-11 -132h-65v180q83 35 186 35q95 0 149 -44.5t54 -121.5q0 -65 -36 -112.5t-111 -63.5v-4q75 -10 118.5 -55t43.5 -113q0 -89 -65.5 -147.5t-185.5 -58.5q-43 0 -86 7t-64 15l-22 7l20 78
q67 -27 151 -27q73 0 112.5 32.5t39.5 93.5q0 54 -44.5 91t-130.5 37h-36z" />
    <glyph glyph-name="four.set1" horiz-adv-x="562" 
d="M339 561h94v-337l94 1l-8 -80h-86v-62l5 -93h-99v155h-288l-22 50l199 505h91l-188 -481l208 4v338z" />
    <glyph glyph-name="five.set1" horiz-adv-x="527" 
d="M89 371l18 329h276l8 73h65l-1 -156l-277 7l-10 -174q300 -40 300 -245q0 -94 -62.5 -154.5t-179.5 -60.5q-94 0 -181 29l20 79q95 -26 157 -26q73 0 109.5 34t36.5 90q0 154 -279 175z" />
    <glyph glyph-name="six.set1" horiz-adv-x="565" 
d="M464 645q-61 -9 -110 -26.5t-95.5 -50.5t-76 -90t-36.5 -135q24 42 69.5 65t102.5 23q86 0 141.5 -55.5t55.5 -151.5q0 -100 -60.5 -167t-171.5 -67q-106 0 -167.5 79t-61.5 207q0 204 101 312.5t299 132.5zM163 207q0 -59 35 -101t85 -42q69 0 102 39.5t33 109.5
q0 62 -32.5 100.5t-88.5 38.5q-66 0 -100 -39t-34 -106z" />
    <glyph glyph-name="seven.set1" horiz-adv-x="477" 
d="M48 495v205h401v-56q-94 -245 -224 -650l-100 29q53 139 238 607l-240 -8l-10 -127h-65z" />
    <glyph glyph-name="eight.set1" horiz-adv-x="578" 
d="M289 65q55 0 90.5 34.5t35.5 97.5q0 57 -35 93t-91 36q-55 0 -90.5 -36t-35.5 -92q0 -64 35 -98.5t91 -34.5zM289 405q48 0 78 33t30 90q0 50 -30.5 78.5t-77.5 28.5t-77.5 -30t-30.5 -83t30 -85t78 -32zM289 -10q-104 0 -165 54t-61 143q0 61 37 110.5t103 66.5v4
q-117 38 -117 159q0 77 54.5 130t148.5 53t148.5 -52.5t54.5 -129.5q0 -118 -116 -158v-4q67 -15 103 -64t36 -115q0 -87 -62.5 -142t-163.5 -55z" />
    <glyph glyph-name="nine.set1" horiz-adv-x="567" 
d="M101 59q292 40 317 296q-25 -39 -72 -60.5t-105 -21.5q-82 0 -136.5 56t-54.5 151q0 100 60.5 167t171.5 67q106 0 168.5 -80t62.5 -204q0 -399 -402 -447zM402 491q0 58 -35.5 103.5t-84.5 45.5q-69 0 -102 -39.5t-33 -109.5q0 -62 32.5 -100.5t88.5 -38.5q64 0 99 40
t35 99z" />
    <glyph glyph-name="zero.set2" horiz-adv-x="627" 
d="M315 66q66 0 105 78t39 193q0 58 -7 107t-22.5 93.5t-46.5 70t-74 25.5q-64 0 -102.5 -78t-38.5 -192q0 -58 6.5 -107t22 -94t46 -70.5t72.5 -25.5zM302 -10q-111 0 -173.5 93.5t-62.5 245.5q0 183 69 282t190 99q111 0 173.5 -93.5t62.5 -245.5q0 -183 -69 -282
t-190 -99z" />
    <glyph glyph-name="one.set2" horiz-adv-x="480" 
d="M53 591l-5 59l245 56h16v-634h147v-72h-391v72h146v533z" />
    <glyph glyph-name="two.set2" horiz-adv-x="547" 
d="M491 180l-10 -180h-433v60l87 104q129 154 176 227.5t47 146.5q0 94 -114 94q-39 0 -87 -11l-10 -126h-65v180q71 35 178 35q196 0 196 -167q0 -36 -13 -74.5t-28 -68t-55 -80.5t-65 -80t-86 -99l-61 -70l263 11l15 98h65z" />
    <glyph glyph-name="three.set2" horiz-adv-x="555" 
d="M179 324v73l42 1q70 2 114 40t44 93q0 49 -34.5 78t-88.5 29q-44 0 -94 -11l-11 -132h-65v180q83 35 186 35q95 0 149 -44.5t54 -121.5q0 -65 -36 -112.5t-111 -63.5v-4q75 -10 118.5 -55t43.5 -113q0 -89 -65.5 -147.5t-185.5 -58.5q-43 0 -86 7t-65 15l-21 7v180h65
l10 -122q48 -11 96 -11q72 0 112 34.5t40 95.5q0 54 -44.5 91t-130.5 37h-36z" />
    <glyph glyph-name="four.set2" horiz-adv-x="577" 
d="M343 169h-309v57l217 474h94l-218 -464l216 4v261l94 4v-263l100 2l-6 -75h-94v-101h80v-68h-252v68h78v101z" />
    </font>
</defs>
</svg>
